<?xml version="1.0" encoding="utf-8"?>
<!-- Generator: Adobe Illustrator 27.3.1, SVG Export Plug-In . SVG Version: 6.00 Build 0)  -->
<svg version="1.1" id="Layer_1" xmlns="http://www.w3.org/2000/svg" xmlns:xlink="http://www.w3.org/1999/xlink" x="0px" y="0px"
	 viewBox="0 0 98.1 80.3" style="enable-background:new 0 0 98.1 80.3;" xml:space="preserve">
<style type="text/css">
	.st0{fill:#0B3D91;}
	.st1{fill:#FFFFFF;}
	.st2{fill:#FC3D21;}
</style>
<g>
	<circle class="st0" cx="45.6" cy="40.1" r="40.1"/>
	<g>
		<circle class="st1" cx="43.2" cy="7.7" r="0.5"/>
		<circle class="st1" cx="47.9" cy="8.3" r="0.5"/>
		<circle class="st1" cx="53.9" cy="16.5" r="0.5"/>
		<circle class="st1" cx="20.7" cy="58.5" r="0.5"/>
		<circle class="st1" cx="21.8" cy="62.1" r="0.4"/>
		<circle class="st1" cx="16.3" cy="59" r="0.3"/>
		<circle class="st1" cx="34.6" cy="66.1" r="0.3"/>
		<circle class="st1" cx="63.3" cy="60.1" r="0.3"/>
		<circle class="st1" cx="71.6" cy="51.1" r="0.3"/>
		<circle class="st1" cx="30.7" cy="19.1" r="0.3"/>
		<circle class="st1" cx="39.9" cy="12.4" r="0.3"/>
		<circle class="st1" cx="38.9" cy="11.7" r="0.3"/>
		<circle class="st1" cx="38" cy="11" r="0.3"/>
		<circle class="st1" cx="32.2" cy="20.8" r="0.3"/>
		<circle class="st1" cx="45.7" cy="3.3" r="0.3"/>
		<circle class="st1" cx="47.9" cy="13" r="0.3"/>
		<circle class="st1" cx="44.4" cy="11.1" r="0.3"/>
		<circle class="st1" cx="38.4" cy="13.7" r="0.3"/>
		<circle class="st1" cx="64.9" cy="69" r="0.3"/>
		<circle class="st1" cx="20.1" cy="60.8" r="0.3"/>
		<circle class="st1" cx="43.6" cy="65.1" r="0.3"/>
		<circle class="st1" cx="27.1" cy="60.5" r="0.3"/>
		<circle class="st1" cx="30" cy="65.2" r="0.3"/>
		<circle class="st1" cx="51.5" cy="62.2" r="0.3"/>
		<circle class="st1" cx="63.3" cy="55.6" r="0.3"/>
		<circle class="st1" cx="72.3" cy="59.7" r="0.3"/>
		<circle class="st1" cx="75.4" cy="61.6" r="0.3"/>
		<circle class="st1" cx="75.9" cy="56.3" r="0.3"/>
		<circle class="st1" cx="31.2" cy="48.7" r="0.3"/>
		<circle class="st1" cx="31.4" cy="56.5" r="0.5"/>
		<circle class="st1" cx="34.1" cy="62.2" r="0.4"/>
		<circle class="st1" cx="66.4" cy="56.2" r="0.4"/>
		<circle class="st1" cx="78" cy="55.6" r="0.4"/>
		<circle class="st1" cx="72.3" cy="53.1" r="0.4"/>
		<circle class="st1" cx="66.4" cy="53.3" r="0.4"/>
		<path class="st1" d="M54.3,7.4l1.1-0.1l-1.1-0.1c0-0.2-0.2-0.4-0.4-0.4l-0.1-1.1l-0.1,1.1c-0.2,0-0.4,0.2-0.4,0.4l-1.1,0.1
			l1.2,0.1c0,0.2,0.2,0.3,0.4,0.4L53.8,9l0.1-1.1C54.1,7.8,54.2,7.6,54.3,7.4z"/>
		<path class="st1" d="M35.4,19.9l1.1-0.1l-1.1-0.1c0-0.2-0.2-0.4-0.4-0.4l-0.1-1.1l-0.1,1.1c-0.2,0-0.4,0.2-0.4,0.4l-1.1,0.1
			l1.2,0.1c0,0.2,0.2,0.3,0.4,0.4l0.1,1.1l0.1-1.1C35.2,20.2,35.3,20.1,35.4,19.9z"/>
		<path class="st1" d="M77.2,52.8l1.1-0.1l-1.1-0.1c0-0.2-0.2-0.4-0.4-0.4l-0.1-1.1l-0.1,1.1c-0.2,0-0.4,0.2-0.4,0.4l-1.1,0.1
			l1.2,0.1c0,0.2,0.2,0.3,0.4,0.4l0.1,1.1l0.1-1.1C77,53.2,77.2,53,77.2,52.8z"/>
		<path class="st1" d="M31.6,70l1.1-0.1l-1.1-0.1c0-0.2-0.2-0.4-0.4-0.4l-0.1-1.1L31,69.5c-0.2,0-0.4,0.2-0.4,0.4L29.5,70l1.2,0.1
			c0,0.2,0.2,0.3,0.4,0.4l0.1,1.1l0.1-1.1C31.4,70.4,31.6,70.2,31.6,70z"/>
		<path class="st1" d="M73.7,61.6l1.1-0.1l-1.1-0.1c0-0.2-0.2-0.4-0.4-0.4l-0.1-1.1l-0.1,1.1c-0.2,0-0.4,0.2-0.4,0.4l-1.1,0.1
			l1.2,0.1c0,0.2,0.2,0.3,0.4,0.4l0.1,1.1l0.1-1.1C73.5,62,73.6,61.8,73.7,61.6z"/>
		<path class="st2" d="M55.1,30.5c-4.7,1.8-9.2,3.4-13.1,4.6C34.3,37.6,12.9,44.2,0,52.6L1.1,53c7.9-4.4,13-5.8,17.9-7.4
			c5.3-1.7,22.6-5.7,30.4-7.9c2.6-0.7,5.7-1.7,9-2.9c-0.8-1.1-1.6-2.1-2.4-3.2C55.7,31.2,55.4,30.9,55.1,30.5z M60.8,38.4
			c-1.1,0.8-2.1,1.4-2.7,1.8c-3.8,2.2-22.6,15-26.8,17.9S15.2,72.2,11.7,75.4l-0.1,1.3c11.2-10.1,14.7-12.6,19.2-16
			c5.5-4.2,16.9-12,20.8-14.5c3.7-2.4,7.1-4.6,10.1-6.6c0-0.1-0.1-0.2-0.1-0.2C61.3,39.1,61.1,38.8,60.8,38.4z M78.4,19.9
			c-5.5,3.2-14.1,7.1-22.4,10.4c0.2,0.2,0.4,0.5,0.6,0.7c0.9,1.2,1.8,2.4,2.6,3.5c6.6-2.4,13.8-5.7,19.5-9.6
			c-2.7,2.6-11.7,9.3-17.2,13.1c0.3,0.5,0.6,0.9,0.8,1.4c8.3-5.6,13.9-9.7,17.2-12.4c4.5-3.8,14.8-12.2,18.7-23.6
			C91.3,12.1,83.2,17,78.4,19.9z"/>
		<path class="st1" d="M40.4,50.1c-0.9-1.1-2.1-2.6-3-3.8c-1.2-1.5-2.4-3.1-3.4-4.7c-0.3,0.1-0.7,0.2-1,0.3c1.3,2,2.7,3.9,4.2,5.8
			c1.1,1.4,2.1,2.5,2.6,3.2c0.1,0.1,0.3,0.5,0.6,0.9c0.3-0.2,0.7-0.4,1-0.7C41.1,50.8,40.7,50.5,40.4,50.1z M46.9,55.9
			c-0.7-0.7-2.5-1.8-4.3-3.6c-0.4,0.3-0.8,0.6-1.2,0.8c1.2,1.7,2.8,3.7,4.1,4.3C47.3,58.4,47.8,56.8,46.9,55.9z M56.5,31
			C46,17.7,33.2,10.5,27.7,14.9c-4.3,3.4-2.5,13.4,3.4,23.8c0.3-0.1,0.6-0.2,0.9-0.3c-6-10.2-7.6-19.7-3.6-22.9
			c5.1-4,17.4,3.2,27.6,16.1c2.1,2.7,4,5.3,5.5,7.9c6,10,7.9,18.9,3.7,22.6c-1.3,1.1-5.2,1.6-10.2-0.7c-0.1,0.1,0,0.3,0.1,0.4
			c4.4,1.8,8.6,2.4,10.7,0.8C70.9,58.5,67,44.2,56.5,31z"/>
		<path class="st1" d="M11.5,32.5h6.7l5.6,9.6c0,0,0-6.9,0-7.5c0-0.8-1.1-1.9-1.4-2.1c0.5,0,4.4,0,4.6,0c-0.3,0.1-1.2,1.2-1.2,2.1
			c0,0.5,0,10.5,0,11c0,0.7,1,1.6,1.4,2h-6.5l-5.7-9.6c0,0,0,7.2,0,7.6c0,0.8,0.7,1.5,1.5,2.1h-4.9c0.7-0.3,1.4-1.2,1.4-2
			s0-10.4,0-10.8C13.1,33.8,12.2,33.1,11.5,32.5z"/>
		<path class="st1" d="M73,47.6h8.9c-0.5-0.1-1.1-0.7-1.3-1.5c-0.3-0.8-5-13.6-5-13.6h-3.4c-1,0.7-2,1.4-3.1,2.2c0,0,0,0.1,0,0.1
			c-0.1,0.9-2.8,10.5-3,11c-0.2,0.7-1.4,1.4-1.8,1.8H69c-0.5-0.5-0.9-1.1-0.8-1.7c0.1-0.6,0.4-1.8,0.4-1.8h5
			c0.2,0.6,0.4,1.1,0.5,1.7C74.2,46.4,73.5,47.1,73,47.6z M69.1,42.2l1.7-5.5l2.2,5.5H69.1z M68.3,33.1c0.2-0.2,0.5-0.4,0.7-0.5
			h-1.3C67.9,32.6,68.1,32.8,68.3,33.1z"/>
		<path class="st1" d="M34.1,45.9c0.1-0.6,0.4-1.8,0.4-1.8h5c0.2,0.6,0.4,1.1,0.5,1.7c0.1,0.6-0.5,1.3-1.1,1.8h7.9
			c0.2-0.1,0.3-0.2,0.5-0.3c-0.3-0.3-0.6-0.7-0.8-1.2c-0.3-0.8-5-13.6-5-13.6h-7.8c0.4,0.3,1.5,1.3,1.3,2.3c-0.1,0.9-2.8,10.5-3,11
			c-0.2,0.7-1.4,1.4-1.8,1.8h4.8C34.4,47.1,34,46.5,34.1,45.9z M36.6,36.7l2.2,5.5h-3.9L36.6,36.7z"/>
		<path class="st1" d="M61.3,40c-1.5,1-3,2-4.6,3.1c0.7,0.4,1.3,0.8,1.4,1.4c0.1,1.1-2.1,1.6-4,1.4c-0.4,0-0.8-0.1-1.1-0.3
			c-0.4,0.3-0.8,0.5-1.2,0.8c-0.4,0.3-0.9,0.6-1.5,1v1.6c0.4-0.8,1.2-1.5,1.9-1.5c0.3,0,1.3,0.9,5.4,0.7c2-0.1,5.8-2.2,5.7-4.7
			C63,42,62.3,40.9,61.3,40z M50.1,43.7v1.6c0.4-0.2,0.7-0.5,1.1-0.7C50.6,44.2,50.2,43.9,50.1,43.7z M59.9,39
			c-0.4-0.2-0.8-0.4-1.1-0.6c-1.9-0.9-3.9-1.1-4.3-2.3c-0.3-0.9,0.5-1.7,2.6-1.6c2,0,3.9,1.2,4.4,1.7v-3.9c-0.2,0.2-0.8,0.9-1.4,0.8
			c-1.2-0.2-3.1-0.6-5.4-0.5c-2.6,0-4.8,2-4.9,4.5c-0.1,3.5,2.7,4.5,4.3,5c0.2,0.1,0.4,0.1,0.6,0.2c1.5-1,2.7-1.8,3.4-2.2
			C58.6,39.9,59.2,39.5,59.9,39z"/>
	</g>
</g>
</svg>
