<?xml version="1.0" standalone="no"?>
<!DOCTYPE svg PUBLIC "-//W3C//DTD SVG 20010904//EN"
 "http://www.w3.org/TR/2001/REC-SVG-20010904/DTD/svg10.dtd">
<svg version="1.0" xmlns="http://www.w3.org/2000/svg"
 width="260.000000pt" height="260.000000pt" viewBox="0 0 260.000000 260.000000"
 preserveAspectRatio="xMidYMid meet">
<metadata>
Created by potrace 1.14, written by Peter Selinger 2001-2017
</metadata>
<g transform="translate(0.000000,260.000000) scale(0.100000,-0.100000)"
fill="#000000" stroke="none">
<path d="M0 1300 l0 -1300 1300 0 1300 0 0 1300 0 1300 -1300 0 -1300 0 0
-1300z m1190 295 c101 -234 186 -427 189 -430 4 -2 81 188 171 423 l165 427
309 3 c170 1 308 0 305 -2 -3 -3 -20 -8 -39 -11 -57 -9 -74 -16 -99 -39 -56
-50 -56 -46 -58 -616 -2 -406 0 -539 10 -588 20 -93 52 -121 172 -146 11 -2
-162 -4 -385 -4 -261 0 -389 3 -360 9 60 12 90 35 120 95 l25 49 3 595 c2 344
-1 591 -6 585 -6 -7 -432 -1102 -528 -1358 -5 -14 -36 50 -109 220 -138 321
-454 1051 -471 1088 -12 26 -13 -41 -11 -475 3 -480 4 -508 24 -574 39 -127
108 -195 223 -220 61 -13 43 -14 -260 -14 -299 0 -320 1 -263 14 82 18 114 35
157 86 41 47 72 135 86 238 15 115 12 797 -4 863 -28 118 -87 169 -226 192
-68 12 -38 13 301 14 l377 1 182 -425z"/>
</g>
</svg>
