<?xml version="1.0" standalone="no"?>
<!DOCTYPE svg PUBLIC "-//W3C//DTD SVG 20010904//EN"
 "http://www.w3.org/TR/2001/REC-SVG-20010904/DTD/svg10.dtd">
<svg version="1.0" xmlns="http://www.w3.org/2000/svg"
 width="260.000000pt" height="260.000000pt" viewBox="0 0 260.000000 260.000000"
 preserveAspectRatio="xMidYMid meet">
<metadata>
Created by potrace 1.14, written by Peter Selinger 2001-2017
</metadata>
<g transform="translate(0.000000,260.000000) scale(0.100000,-0.100000)"
fill="#000000" stroke="none">
<path d="M1595 2338 c-253 -143 -482 -272 -510 -287 -59 -33 -345 -195 -395
-224 -19 -11 -63 -35 -96 -54 -56 -30 -91 -73 -61 -73 8 0 8 -3 2 -8 -10 -6
-11 -20 -5 -39 1 -5 1 -12 0 -18 -8 -33 -4 -175 5 -175 6 0 4 -4 -3 -9 -16 -9
-15 -20 1 -40 7 -9 8 -12 1 -8 -7 4 -10 -6 -10 -29 1 -35 6 -39 56 -48 14 -2
45 -9 70 -16 25 -7 52 -14 60 -15 8 -2 62 -16 120 -30 58 -15 112 -28 120 -30
74 -16 156 -40 161 -47 3 -5 5 -95 5 -200 l-1 -190 -200 -112 -200 -112 -1
-183 c0 -100 3 -184 7 -187 4 -2 51 21 104 51 54 30 99 55 100 55 1 0 42 22
91 50 49 27 92 50 95 50 3 0 5 -47 5 -105 1 -58 3 -107 5 -108 15 -12 314
-177 320 -177 5 0 9 -4 9 -10 0 -5 6 -7 13 -4 11 4 13 65 12 297 0 161 1 297
3 304 2 7 135 85 296 175 l291 162 0 183 c0 197 3 187 -52 197 -10 2 -38 9
-63 16 -25 7 -49 13 -55 14 -5 1 -19 5 -30 9 -11 3 -31 8 -45 11 -14 3 -79 19
-145 36 -66 17 -127 32 -135 34 -8 2 -26 7 -40 11 l-25 6 1 200 0 199 68 40
c38 22 69 40 71 40 1 0 72 39 156 88 85 48 176 98 202 112 97 50 93 39 92 257
-1 106 -3 194 -6 197 -2 2 -211 -113 -464 -256z m-478 -739 c0 -42 -2 -49 -16
-44 -9 3 -38 11 -64 17 -54 11 -54 12 11 49 66 38 69 37 69 -22z m418 -510
c73 -19 73 -19 10 -55 -33 -18 -62 -34 -65 -34 -3 0 -5 22 -5 50 0 54 1 55 60
39z"/>
</g>
</svg>
