<svg id="Isolation_Mode" data-name="Isolation Mode" xmlns="http://www.w3.org/2000/svg" viewBox="0 0 85 83.9"><defs><style>.cls-1{fill:#fff;}.cls-2{fill:#231f20;}</style></defs><title>logo</title><rect class="cls-1" width="85" height="83.9"/><path class="cls-2" d="M20,18.13h2.19v3.31h1.35v1.72H22.17v6c0,1,.39,1.08,1.35,1.08v2.06h-0.9A2.44,2.44,0,0,1,20,29.78V23.16h-1.1V21.44H20V18.13Z"/><path class="cls-2" d="M24.69,17h2.19v5.46h0A2.32,2.32,0,0,1,29,21.31c1.1,0,2.26.71,2.26,2.67v8.36H29.06V24.79A1.1,1.1,0,0,0,28,23.5c-0.82,0-1.1.54-1.1,1.51v7.33H24.69V17Z"/><path class="cls-2" d="M34.51,26h2.15V24.75a1.09,1.09,0,1,0-2.15,0V26Zm0,1.72V29.2a1,1,0,0,0,1.07,1.08,1,1,0,0,0,1.08-1.1h2.19A3.34,3.34,0,0,1,38,31.5a3.2,3.2,0,0,1-2.39,1,3.12,3.12,0,0,1-2.86-1.57,4.8,4.8,0,0,1-.41-2.21V25.09a4.8,4.8,0,0,1,.41-2.21,3.12,3.12,0,0,1,2.86-1.57,3.18,3.18,0,0,1,3.27,3.4v3H34.51Z"/><path class="cls-2" d="M24.66,56.55a3.19,3.19,0,0,0-.6-0.06A1.47,1.47,0,0,0,22.34,58a1.18,1.18,0,1,0,2.32,0V56.55Zm0,3.57h0a2.33,2.33,0,0,1-2.11,1.25c-1,0-2.37-.49-2.37-2.9s0.71-3.7,3.46-3.7c0.3,0,.6,0,1.05.06V53.69a1.08,1.08,0,0,0-1.1-1.29,1.27,1.27,0,0,0-1.25,1.1H20.19a3.61,3.61,0,0,1,1-2.37,3.29,3.29,0,0,1,2.39-.92,3.14,3.14,0,0,1,3.29,3.44v7.59H24.66V60.11Z"/><path class="cls-2" d="M30.26,57.88a1.07,1.07,0,0,0,1.07,1.29A1.11,1.11,0,0,0,32.43,58V53.75a1.18,1.18,0,0,0-1.1-1.35c-0.75,0-1.07.6-1.07,1.48v4Zm0,4.62a1.11,1.11,0,0,0,1.16,1.08,1,1,0,0,0,1-1.18V60.24h0a2.36,2.36,0,0,1-2,1.12,2,2,0,0,1-1.91-1A4.94,4.94,0,0,1,28.06,58V53.84c0-1.57.06-2.19,0.34-2.64a2.06,2.06,0,0,1,2-1,2.46,2.46,0,0,1,2.06,1.12v-1h2.19V62.57a3.1,3.1,0,0,1-3.29,3.2c-1.33,0-3-.77-3.27-3.27h2.19Z"/><path class="cls-2" d="M38,54.89h2.15V53.64a1.09,1.09,0,1,0-2.15,0v1.25Zm0,1.72v1.48a1,1,0,0,0,1.07,1.08,1,1,0,0,0,1.08-1.1h2.19a3.34,3.34,0,0,1-.88,2.32,3.2,3.2,0,0,1-2.39,1,3.12,3.12,0,0,1-2.86-1.57,4.79,4.79,0,0,1-.41-2.21V54a4.79,4.79,0,0,1,.41-2.21A3.12,3.12,0,0,1,39.1,50.2a3.18,3.18,0,0,1,3.27,3.4v3H38Z"/><path class="cls-2" d="M43.38,50.33h2.19v1.05h0a2.32,2.32,0,0,1,2.06-1.18c1.1,0,2.26.71,2.26,2.67v8.36H47.75V53.69a1.1,1.1,0,0,0-1.08-1.29c-0.82,0-1.1.54-1.1,1.51v7.33H43.38V50.33Z"/><path class="cls-2" d="M53.47,58.09a1,1,0,0,0,1.07,1.08,1,1,0,0,0,1.08-1.1h2.19a3.35,3.35,0,0,1-.88,2.32,3.2,3.2,0,0,1-2.39,1,3.12,3.12,0,0,1-2.86-1.57,4.78,4.78,0,0,1-.41-2.21V54a4.79,4.79,0,0,1,.41-2.22,3.12,3.12,0,0,1,2.86-1.57,3.2,3.2,0,0,1,3.27,3.48H55.62a1.09,1.09,0,1,0-2.15,0v4.45Z"/><path class="cls-2" d="M60.29,50.33l1.51,6.79h0l1.48-6.79h2.26L62.44,63.12a2.89,2.89,0,0,1-3,2.51h-0.6V63.57H59.3c0.88,0,1.16-.3,1.66-2.84L58,50.33h2.32Z"/><path class="cls-2" d="M23.91,40.32a3.18,3.18,0,0,0-.6-0.06,1.47,1.47,0,0,0-1.72,1.55,1.18,1.18,0,1,0,2.32,0V40.32Zm0,3.57h0a2.34,2.34,0,0,1-2.11,1.25c-1,0-2.36-.49-2.36-2.9s0.71-3.7,3.46-3.7c0.3,0,.6,0,1.05.06V37.46a1.08,1.08,0,0,0-1.1-1.29,1.27,1.27,0,0,0-1.25,1.1H19.44a3.62,3.62,0,0,1,1-2.37A3.29,3.29,0,0,1,22.81,34a3.14,3.14,0,0,1,3.29,3.44V45H23.91V43.89Z"/><path class="cls-2" d="M31.86,37.65c0-.88-0.32-1.48-1.07-1.48a1.18,1.18,0,0,0-1.1,1.35v4.24a1.11,1.11,0,0,0,1.1,1.18,1.07,1.07,0,0,0,1.07-1.29v-4ZM27.5,34.1h2.19v1A2.46,2.46,0,0,1,31.78,34a2,2,0,0,1,1.91,1,5,5,0,0,1,.37,2.34V41.5c0,1.57-.06,2.19-0.34,2.64a2.06,2.06,0,0,1-2,1,2.35,2.35,0,0,1-2-1.12h0v5.4H27.5V34.1Z"/><path class="cls-2" d="M39.29,37.65c0-.88-0.32-1.48-1.08-1.48a1.18,1.18,0,0,0-1.1,1.35v4.24a1.11,1.11,0,0,0,1.1,1.18,1.07,1.07,0,0,0,1.08-1.29v-4ZM34.92,34.1h2.19v1A2.47,2.47,0,0,1,39.2,34a2,2,0,0,1,1.91,1,4.94,4.94,0,0,1,.37,2.34V41.5c0,1.57-.06,2.19-0.34,2.64a2.06,2.06,0,0,1-2,1,2.35,2.35,0,0,1-2-1.12h0v5.4H34.92V34.1Z"/><path class="cls-2" d="M46.65,40.32a3.2,3.2,0,0,0-.6-0.06,1.47,1.47,0,0,0-1.72,1.55,1.18,1.18,0,1,0,2.32,0V40.32Zm0,3.57h0a2.33,2.33,0,0,1-2.11,1.25c-1,0-2.37-.49-2.37-2.9s0.71-3.7,3.46-3.7c0.3,0,.6,0,1.05.06V37.46a1.08,1.08,0,0,0-1.1-1.29,1.27,1.27,0,0,0-1.25,1.1H42.18a3.62,3.62,0,0,1,1-2.37A3.29,3.29,0,0,1,45.55,34a3.14,3.14,0,0,1,3.29,3.44V45H46.65V43.89Z"/><path class="cls-2" d="M50.05,34.1h2.19v1.16A4,4,0,0,1,55.15,34V36.3a1.75,1.75,0,0,0-.67-0.13,2.19,2.19,0,0,0-2.24,2.36V45H50.05V34.1Z"/><path class="cls-2" d="M57.62,38.66h2.15V37.41a1.09,1.09,0,1,0-2.15,0v1.25Zm0,1.72v1.48a1,1,0,0,0,1.07,1.08,1,1,0,0,0,1.07-1.1H62a3.35,3.35,0,0,1-.88,2.32,3.2,3.2,0,0,1-2.39,1,3.12,3.12,0,0,1-2.86-1.57,4.78,4.78,0,0,1-.41-2.21V37.76a4.78,4.78,0,0,1,.41-2.21A3.12,3.12,0,0,1,58.7,34,3.18,3.18,0,0,1,62,37.37v3H57.62Z"/><path class="cls-2" d="M62.85,29.7H65l0,12.23a0.94,0.94,0,0,0,1.08,1.14v2.06c-2,0-3.27-.52-3.27-3.05V29.7Z"/></svg>