<?xml version="1.0" encoding="utf-8"?>
<!-- Generator: Adobe Illustrator 19.2.1, SVG Export Plug-In . SVG Version: 6.00 Build 0)  -->
<svg version="1.1" id="Layer_1" xmlns:sketch="http://www.bohemiancoding.com/sketch/ns"
	 xmlns="http://www.w3.org/2000/svg" xmlns:xlink="http://www.w3.org/1999/xlink" x="0px" y="0px" viewBox="0 0 54 52"
	 enable-background="new 0 0 54 52" xml:space="preserve">
<title>cleaning-new-42</title>
<desc>Created with Sketch.</desc>
<g sketch:type="MSPage">
	<g sketch:type="MSLayerGroup">
		<path sketch:type="MSShapeGroup" fill="#FFFFFF" d="M50.044,52H3.585C1.608,52,0,50.392,0,48.415v-7.83
			C0,38.608,1.608,37,3.585,37h27.999C31.813,37,32,36.813,32,36.583V19.415C32,19.186,31.814,19,31.585,19h-6.17
			C25.186,19,25,19.186,25,19.415v2.649C25,23.683,23.683,25,22.064,25H7.937C6.317,25,5,23.683,5,22.064V8.939
			C5,7.318,6.318,6,7.939,6h1.966C9.958,6,10,5.957,10,5.905V2.749C10,1.233,11.233,0,12.749,0h4.503C18.767,0,20,1.233,20,2.749
			v3.156C20,5.957,20.043,6,20.095,6h30.449C52.449,6,54,7.551,54,9.457v38.586C54,50.225,52.225,52,50.044,52L50.044,52z M3.585,39
			C2.711,39,2,39.711,2,40.585v7.83C2,49.289,2.711,50,3.585,50h46.459C51.122,50,52,49.122,52,48.043V9.457
			C52,8.654,51.347,8,50.544,8H20.095C18.94,8,18,7.06,18,5.905V2.749C18,2.336,17.664,2,17.252,2h-4.503
			C12.336,2,12,2.336,12,2.749v3.156C12,7.06,11.06,8,9.905,8H7.939C7.421,8,7,8.421,7,8.939v13.125C7,22.58,7.42,23,7.937,23
			h14.127C22.58,23,23,22.58,23,22.064v-2.649C23,18.083,24.084,17,25.415,17h6.17C32.917,17,34,18.083,34,19.415v17.168
			C34,37.916,32.916,39,31.584,39H3.585L3.585,39z"/>
		<path sketch:type="MSShapeGroup" fill="#FFFFFF" d="M15,32c-0.552,0-1-0.448-1-1v-7c0-0.552,0.448-1,1-1s1,0.448,1,1v7
			C16,31.552,15.552,32,15,32"/>
		<path sketch:type="MSShapeGroup" fill="#FFFFFF" d="M19,29c-0.552,0-1-0.448-1-1v-4c0-0.552,0.448-1,1-1s1,0.448,1,1v4
			C20,28.552,19.552,29,19,29"/>
		<path sketch:type="MSShapeGroup" fill="#FFFFFF" d="M11,29c-0.552,0-1-0.448-1-1v-4c0-0.552,0.448-1,1-1s1,0.448,1,1v4
			C12,28.552,11.552,29,11,29"/>
		<path sketch:type="MSShapeGroup" fill="#FFFFFF" d="M22,48H6c-0.552,0-1-0.448-1-1s0.448-1,1-1h16c0.552,0,1,0.448,1,1
			S22.552,48,22,48"/>
		<path sketch:type="MSShapeGroup" fill="#FFFFFF" d="M16,44H6c-0.552,0-1-0.448-1-1s0.448-1,1-1h10c0.552,0,1,0.448,1,1
			S16.552,44,16,44"/>
		<path sketch:type="MSShapeGroup" fill="#FFFFFF" d="M43,17c-1.654,0-3,1.346-3,3s1.346,3,3,3s3-1.346,3-3S44.654,17,43,17"/>
		<path sketch:type="MSShapeGroup" fill="#FFFFFF" d="M43,25c-1.654,0-3,1.346-3,3s1.346,3,3,3s3-1.346,3-3S44.654,25,43,25"/>
		<path sketch:type="MSShapeGroup" fill="#FFFFFF" d="M43,33c-1.654,0-3,1.346-3,3s1.346,3,3,3s3-1.346,3-3S44.654,33,43,33"/>
	</g>
</g>
</svg>
