<?xml version="1.0" encoding="utf-8"?>
<!-- Generator: Adobe Illustrator 19.2.1, SVG Export Plug-In . SVG Version: 6.00 Build 0)  -->
<svg version="1.1" id="Layer_1" xmlns="http://www.w3.org/2000/svg" xmlns:xlink="http://www.w3.org/1999/xlink" x="0px" y="0px"
	 viewBox="0 0 53.051 87.599" enable-background="new 0 0 53.051 87.599" xml:space="preserve">
<g>
	<path fill="#FFFFFF" d="M7.244,86.491c1.617,0.732,3.33,1.105,5.092,1.105c4.832,0,9.246-2.844,11.242-7.242
		c2.152-4.746,1.084-10.279-2.563-13.875l0.404-0.516c1.814-2.398,3.51-4.705,5.109-6.936c1.635,2.279,3.332,4.598,5.1,6.934
		l0.398,0.527c-3.639,3.594-4.703,9.127-2.553,13.865c1.361,3,3.809,5.291,6.895,6.451c1.412,0.531,2.879,0.795,4.346,0.795
		c1.734,0,3.465-0.371,5.092-1.109c3-1.361,5.291-3.809,6.451-6.895c1.158-3.086,1.047-6.436-0.314-9.438
		c-2.369-5.219-8.084-8.092-13.613-7.01l-5.811-12.811C48.625,25.911,50.494,13.097,48.759,6.48
		c-1.213-4.619-4.131-5.934-4.254-5.988L43.372,0L26.527,37.133L9.677,0L8.545,0.492C8.428,0.543,5.674,1.784,4.404,6.078
		c-1.848,6.255-0.521,19.01,16.131,44.265l-5.564,12.266L14.67,63.14c-0.766-0.148-1.541-0.223-2.32-0.223
		c-4.832,0-9.244,2.842-11.24,7.242c-1.361,3.002-1.475,6.352-0.314,9.438C1.953,82.683,4.244,85.13,7.244,86.491z M35.845,63.743
		l1.068,2.385l1.049-0.307c4.658-1.361,9.684,0.947,11.693,5.375c1.086,2.391,1.174,5.061,0.25,7.518
		c-0.922,2.457-2.746,4.408-5.137,5.49c-2.393,1.088-5.061,1.176-7.518,0.252s-4.408-2.748-5.492-5.139
		c-1.848-4.072-0.715-8.879,2.752-11.689l0.941-0.764l-1.82-2.414c-1.938-2.561-3.797-5.102-5.566-7.582
		c0.98-1.395,1.912-2.746,2.811-4.074L35.845,63.743z M6.763,6.96c0.471-1.696,1.193-2.75,1.785-3.374L25.15,40.17l-3.387,7.466
		C5.781,23.015,5.472,11.607,6.763,6.96z M3.394,71.196c1.59-3.504,5.105-5.77,8.955-5.77c0.883,0,1.76,0.121,2.611,0.357
		l0.943,0.262l1.301-2.299L44.502,3.588c0.609,0.643,1.361,1.743,1.83,3.529c1.582,6.032,0.189,21.5-26.9,57.315l-1.879,2.396
		l0.963,0.777c3.488,2.811,4.629,7.627,2.777,11.711c-1.592,3.504-5.107,5.768-8.957,5.77c-1.402,0-2.766-0.297-4.055-0.883
		c-2.391-1.082-4.215-3.033-5.137-5.49C2.22,76.257,2.31,73.587,3.394,71.196z"/>
	<path fill="#FFFFFF" d="M9.377,81.792c0.941,0.426,1.938,0.643,2.963,0.643c2.811,0,5.377-1.654,6.537-4.213
		c1.635-3.604,0.033-7.865-3.568-9.498c-0.941-0.428-1.938-0.643-2.963-0.643c-2.811,0-5.375,1.652-6.537,4.213
		C4.176,75.896,5.775,80.155,9.377,81.792z M8.095,73.331c0.754-1.666,2.424-2.74,4.25-2.74c0.664,0,1.313,0.141,1.924,0.42
		c2.344,1.061,3.385,3.83,2.322,6.174c-0.756,1.664-2.424,2.74-4.252,2.74c-0.666,0-1.313-0.141-1.924-0.418
		C8.072,78.442,7.033,75.673,8.095,73.331z"/>
	<path fill="#FFFFFF" d="M34.176,78.222c1.162,2.559,3.727,4.213,6.537,4.213c1.023,0,2.02-0.217,2.961-0.643
		c3.602-1.635,5.203-5.896,3.568-9.498c-1.16-2.561-3.727-4.213-6.537-4.213c-1.025,0-2.021,0.215-2.961,0.643
		C34.142,70.358,32.541,74.618,34.176,78.222z M38.781,71.009c0.611-0.277,1.26-0.418,1.924-0.418c1.828,0,3.496,1.074,4.252,2.74
		c1.063,2.342,0.021,5.111-2.32,6.174c-0.613,0.279-1.26,0.42-1.924,0.42c-1.828,0-3.496-1.076-4.252-2.74
		C35.398,74.843,36.439,72.071,38.781,71.009z"/>
	<path fill="#FFFFFF" d="M26.869,50.47c0.326,0,0.652-0.139,0.879-0.379c0.238-0.225,0.377-0.551,0.377-0.877
		c0-0.34-0.139-0.652-0.377-0.892c-0.465-0.463-1.307-0.463-1.77,0c-0.238,0.239-0.365,0.552-0.365,0.892
		c0,0.326,0.127,0.652,0.365,0.877C26.217,50.331,26.531,50.47,26.869,50.47z"/>
</g>
</svg>
