<?xml version="1.0" encoding="utf-8"?>
<!-- Generator: Adobe Illustrator 19.2.1, SVG Export Plug-In . SVG Version: 6.00 Build 0)  -->
<svg version="1.1" id="Layer_1" xmlns="http://www.w3.org/2000/svg" xmlns:xlink="http://www.w3.org/1999/xlink" x="0px" y="0px"
	 viewBox="0 0 65.273 65.278" enable-background="new 0 0 65.273 65.278" xml:space="preserve">
<path fill="#FFFFFF" d="M41.451,42.113c-0.721,0.721-0.722,1.894,0,2.615s1.889,0.714,2.609-0.007
	c0.729-0.715,0.729-1.889,0.008-2.609C43.34,41.383,42.173,41.391,41.451,42.113z M48.417,35.146c-0.722,0.723-0.722,1.895,0,2.617
	c0.721,0.721,1.888,0.713,2.608-0.008c0.729-0.715,0.729-1.889,0.007-2.609C50.304,34.417,49.138,34.425,48.417,35.146z
	 M55.382,28.181c-0.721,0.723-0.722,1.895,0,2.617c0.721,0.721,1.888,0.713,2.608-0.008c0.729-0.715,0.729-1.889,0.008-2.609
	C57.27,27.452,56.103,27.46,55.382,28.181z M57.991,23.833c0.721-0.723,0.721-1.896,0-2.617c-0.722-0.722-1.896-0.722-2.617-0.001
	c-0.721,0.722-0.721,1.896,0.001,2.618C56.096,24.554,57.27,24.554,57.991,23.833z M51.026,30.798
	c0.722-0.723,0.722-1.896,0.001-2.617c-0.722-0.721-1.896-0.721-2.617,0c-0.721,0.721-0.721,1.895,0,2.617
	C49.131,31.519,50.305,31.519,51.026,30.798z M41.451,35.138c-0.721,0.723-0.721,1.896,0.001,2.617c0.721,0.721,1.888,0.729,2.616,0
	c0.721-0.721,0.721-1.895,0-2.615C43.34,34.425,42.173,34.417,41.451,35.138z M48.416,21.215c-0.721,0.722-0.721,1.896,0.001,2.618
	c0.721,0.721,1.895,0.721,2.615,0c0.722-0.721,0.722-1.896,0.001-2.617C50.312,20.494,49.138,20.494,48.416,21.215z M41.451,28.181
	c-0.721,0.721-0.721,1.895,0.001,2.617c0.721,0.721,1.895,0.721,2.616,0c0.721-0.723,0.721-1.895,0-2.617
	C43.347,27.46,42.173,27.46,41.451,28.181z M34.487,35.146c-0.722,0.721-0.721,1.895,0.001,2.617c0.721,0.721,1.895,0.721,2.615,0
	c0.722-0.723,0.722-1.896,0.001-2.617C36.382,34.425,35.208,34.425,34.487,35.146z M51.027,16.868
	c0.721-0.722,0.721-1.895-0.001-2.617c-0.721-0.721-1.895-0.721-2.616,0c-0.721,0.722-0.721,1.896,0,2.617
	C49.131,17.588,50.305,17.588,51.027,16.868z M44.062,23.833c0.721-0.723,0.721-1.896-0.001-2.618c-0.721-0.721-1.895-0.721-2.616,0
	c-0.721,0.722-0.721,1.896,0,2.618C42.166,24.554,43.34,24.554,44.062,23.833z M34.487,28.175c-0.721,0.721-0.721,1.895,0,2.615
	c0.722,0.721,1.889,0.729,2.617,0c0.721-0.721,0.721-1.895-0.001-2.615C36.375,27.46,35.208,27.452,34.487,28.175z M41.451,14.251
	c-0.721,0.721-0.721,1.895,0,2.615c0.722,0.722,1.896,0.722,2.617,0.001s0.721-1.895-0.001-2.617
	C43.347,13.53,42.173,13.53,41.451,14.251z M34.487,21.215c-0.721,0.722-0.721,1.897,0,2.618c0.722,0.721,1.896,0.721,2.617,0
	s0.721-1.896-0.001-2.618C36.382,20.494,35.208,20.494,34.487,21.215z M27.522,28.181c-0.721,0.723-0.721,1.896,0,2.617
	c0.722,0.721,1.896,0.721,2.616,0c0.722-0.721,0.722-1.895,0-2.617C29.417,27.46,28.243,27.46,27.522,28.181z M44.061,9.902
	c0.722-0.722,0.729-1.888,0-2.616c-0.722-0.721-1.896-0.722-2.616,0c-0.722,0.721-0.722,1.895,0,2.617
	C42.165,10.623,43.34,10.623,44.061,9.902z M37.096,16.868c0.722-0.723,0.729-1.889,0-2.617c-0.722-0.721-1.896-0.721-2.616,0
	c-0.722,0.721-0.722,1.895,0,2.617C35.2,17.588,36.374,17.588,37.096,16.868z M27.522,21.208c-0.722,0.722-0.722,1.896,0,2.617
	c0.721,0.721,1.888,0.729,2.616,0c0.721-0.721,0.729-1.888,0-2.616C29.409,20.494,28.242,20.487,27.522,21.208z M37.103,9.903
	c0.721-0.722,0.722-1.896,0-2.617s-1.896-0.721-2.616,0s-0.722,1.895,0,2.617C35.208,10.623,36.382,10.623,37.103,9.903z
	 M30.138,16.867c0.722-0.722,0.721-1.895,0-2.616c-0.722-0.721-1.896-0.721-2.616,0c-0.722,0.721-0.722,1.895,0,2.617
	C28.242,17.588,29.417,17.588,30.138,16.867z M20.556,21.215c-0.721,0.722-0.721,1.896,0.001,2.618c0.721,0.721,1.895,0.721,2.616,0
	c0.721-0.723,0.721-1.896,0-2.618C22.451,20.494,21.278,20.494,20.556,21.215z M57.538,7.739c-4.016-4.017-8.5-6.52-12.756-7.396
	c-4.265-0.87-8.287-0.1-11.378,2.467L7.659,23.663c-1.959-1.111-4.491-0.842-6.16,0.826c-2,2.002-2,5.27,0.008,7.277l32.011,32.011
	c2.001,2.001,5.269,2.001,7.269,0c1.67-1.669,1.938-4.2,0.827-6.159L62.46,31.88C67.586,25.693,65.565,15.764,57.538,7.739z
	 M60.141,29.984L39.613,55.32L19.602,35.308c-0.579-0.578-1.534-0.586-2.121,0c-0.587,0.588-0.579,1.543,0,2.123l21.192,21.192
	c0.834,0.834,0.834,2.191-0.008,3.033c-0.834,0.834-2.191,0.834-3.025,0L3.628,29.646c-0.841-0.842-0.842-2.199-0.008-3.035
	c0.842-0.842,2.2-0.84,3.042,0l3.542,3.543c0.587,0.588,1.534,0.588,2.121,0c0.587-0.586,0.587-1.533,0-2.121l-2.368-2.369
	L35.315,5.129c4.864-4.031,13.321-2.051,20.103,4.73c3.394,3.394,5.586,7.198,6.421,10.775
	C62.679,24.208,62.163,27.552,60.141,29.984z"/>
</svg>
