<?xml version="1.0" encoding="utf-8"?>
<!-- Generator: Adobe Illustrator 25.0.0, SVG Export Plug-In . SVG Version: 6.00 Build 0)  -->
<svg version="1.1" id="Layer_1" xmlns="http://www.w3.org/2000/svg" xmlns:xlink="http://www.w3.org/1999/xlink" x="0px" y="0px"
	 viewBox="0 0 546.1 204.2" style="enable-background:new 0 0 546.1 204.2;" xml:space="preserve">
<style type="text/css">
	.st0{fill:#FFFFFF;}
	.st1{fill:none;stroke:#FFFFFF;stroke-width:3;stroke-miterlimit:10;}
</style>
<g id="Layer_1_1_">
	<g>
		<path class="st0" d="M485.8,159.6c-1.3,0.3-2.7,0.5-4,0.7s-2.7,0.5-4,0.7s-2.7,0.4-4,0.6s-2.7,0.4-4,0.6l-4,0.5
			c-1.3,0.2-2.7,0.3-4,0.5c-1.3,0.1-2.7,0.3-4,0.4l-4,0.4c-1.8,0.2-3.5-0.9-4-2.6l-0.1-0.5L438,124.5h9.4
			c-1.5,5.6-3.1,11.1-4.6,16.7l-4.7,16.6l-4.7,16.6l-4.8,16.6c-1,3.5-4.6,5.5-8.1,4.5c-2.2-0.6-3.7-2.2-4.4-4.2L416,191l-7-21.5
			l-6.9-21.5l-3.5-10.8l-3.4-10.8l-6.8-21.6l-6.7-21.6L375,61.6L368.4,40c-2.2-7.2-4.4-14.4-6.6-21.6h14.4L371.3,34
			c-1.6,5.2-3.3,10.4-5,15.6l-5,15.6c-1.7,5.2-3.4,10.4-5.1,15.6l-5.1,15.6l-5.1,15.5l-5.2,15.5l-5.2,15.5l-0.1,0.2
			c-0.8,2.3-2.9,3.7-5.2,3.7l-81.1-1l-81.2-1.2l-40.6-0.7l-40.6-0.8l-40.6-0.9l-40.6-1l40.6-1l40.6-0.9l40.6-0.8l40.6-0.7l81.1-1.2
			l81.1-1l-5.2,3.9l4.4-15.8l4.5-15.7l4.5-15.7l4.6-15.7c1.5-5.2,3-10.5,4.6-15.7l4.6-15.7c1.6-5.2,3.1-10.5,4.7-15.7l4.7-15.7
			c1.2-4,5.4-6.2,9.4-5c2.5,0.7,4.3,2.6,5,4.9v0.2c2.3,7.2,4.6,14.4,6.8,21.6l6.7,21.6l6.6,21.6l6.6,21.6l6.5,21.7l3.3,10.8
			l3.2,10.8l6.4,21.7l6.3,21.7h-12.6l5.4-16.4l5.5-16.4l5.5-16.4c1.8-5.5,3.7-10.9,5.6-16.4l0.1-0.2c0.9-2.6,3.7-3.9,6.2-3.1
			c1.6,0.5,2.7,1.8,3.1,3.3l10.5,36.7l-4.2-3.1l4,0.4c1.3,0.1,2.7,0.3,4,0.4c1.3,0.2,2.7,0.3,4,0.5l4,0.5c1.3,0.2,2.7,0.4,4,0.6
			s2.7,0.4,4,0.6s2.7,0.4,4,0.7C483.1,159.1,484.5,159.3,485.8,159.6z"/>
		<path class="st0" d="M521.2,159.6c0,4.5-3.7,8.2-8.2,8.2l0,0c-4.5,0-8.2-3.7-8.2-8.2l0,0c0-4.5,3.7-8.2,8.2-8.2l0,0
			C517.7,151.4,521.2,155.1,521.2,159.6L521.2,159.6z"/>
		<g>
			<path class="st0" d="M22.2,76.7c0,9.5,4.2,12.1,10.7,12.1s10.7-2.6,10.7-12.1v-5.8H60v3.6c0,21.2-11.2,28.8-27.1,28.8
				S5.8,95.7,5.8,74.5V43.8C5.8,22.6,17,15,32.9,15S60,22.6,60,43.8V44H43.6v-2.4c0-9.5-4.2-12.1-10.7-12.1s-10.7,2.6-10.7,12.1
				C22.2,41.6,22.2,76.7,22.2,76.7z"/>
			<path class="st0" d="M75.2,102.1l21.3-85.8h21l20.7,85.8h-15.7L118.3,84H95.6L91,102.1H75.2z M98.6,69.5h16.3l-8-34.7h-0.2
				L98.6,69.5z"/>
			<path class="st0" d="M193.3,102.1L179,67.2h-7.8v34.9h-16.4V16.3h23.8c19.7,0,29.1,9.5,29.1,25.7c0,10.7-3.8,18.4-13,21.9
				l16.1,38.3L193.3,102.1L193.3,102.1z M171.2,53.6h8.4c7.3,0,11.6-3.6,11.6-11.9s-4.4-11.9-11.6-11.9h-8.4
				C171.2,29.8,171.2,53.6,171.2,53.6z"/>
			<path class="st0" d="M228.6,16.3h22.8c18.8,0,29.2,8.1,30,29.7v26.4c-0.7,21.6-11.2,29.7-30,29.7h-22.8L228.6,16.3L228.6,16.3z
				 M245,87.6h5.7c9,0,14.3-4.3,14.3-17.1V47.9c0-12.1-4-17.1-14.3-17.1H245V87.6z"/>
			<path class="st0" d="M303.4,102.1V16.3h16.4v85.8C319.8,102.1,303.4,102.1,303.4,102.1z"/>
		</g>
		<path class="st0" d="M432,76.7c0,9.5,4.2,12.1,10.7,12.1s10.7-2.6,10.7-12.1v-5.8h16.4v3.6c0,21.2-11.2,28.8-27.1,28.8
			s-27.1-7.6-27.1-28.8V43.8c0-21.2,11.2-28.8,27.1-28.8s27.1,7.6,27.1,28.8V44h-16.4v-2.4c0-9.5-4.2-12.1-10.7-12.1
			S432,32.1,432,41.6V76.7z"/>
		<path class="st0" d="M540.5,16.3v14.5h-19.1v71.3H505V30.8h-19.1V16.3L540.5,16.3L540.5,16.3z"/>
		<path class="st1" d="M529.5,159.6c0,9.1-7.3,16.4-16.4,16.4l0,0c-9.1,0-16.4-7.3-16.4-16.4l0,0c0-9.1,7.3-16.4,16.4-16.4l0,0
			C522.2,143.2,529.5,150.6,529.5,159.6L529.5,159.6z"/>
	</g>
</g>
<g id="grid">
</g>
</svg>
