<?xml version="1.0" encoding="utf-8"?>
<!-- Generator: Adobe Illustrator 27.8.1, SVG Export Plug-In . SVG Version: 6.00 Build 0)  -->
<svg version="1.1" id="Layer_2" xmlns="http://www.w3.org/2000/svg" xmlns:xlink="http://www.w3.org/1999/xlink" x="0px" y="0px"
	 viewBox="0 0 521.2 127.7" style="enable-background:new 0 0 521.2 127.7;" xml:space="preserve">
<path d="M469.8,109.2c-10.6,0-11.5-3-11.5-17.2V36.1c0-16.6,0.3-24.4,12-25.9h-99.4l-24.7,59.7l-25.7-59.7l-98,0
	c17.5,0.6,5,16.9-8.6,35.7l-8-11.6c-6.2-8.6-14.8-22.9-0.7-24.1l-103.9,0L76.5,69.9L50.8,10.2H7.1c11,1.7,12.5,11.9,12.5,27.9v30
	c0,21.1-1.8,40.9-12.8,42.7l34.3,0c-16.7-3.1-17.4-21.1-17.4-42.7l-0.1-45.6l39.3,91.2l38.4-92.6v63.9c0,14.7-0.7,24.1-8.8,25.9
	h99.5c-17.5-0.6-9.4-15.7,6.3-38.8l10.1,14.6c6,8.6,14.8,22.9,0.9,24.1h101.5c-16.7-3.1-17.4-23.4-17.4-42.7l-0.1-45.6l39.3,91.2
	l38.4-92.6v63.9c0,14.7-0.7,24.1-8.8,25.9h144.6l9.1-45.1C510.3,90.4,492.2,109.2,469.8,109.2z M145.2,109.2
	c-14.4,0-14.4-7.4-14.4-24.2V36.1c0-17.4,0.6-24.2,15-24.2v0c7.3,0,14.4,4.8,22.8,17.2l27,39.2C179.2,92.8,165.5,109.2,145.2,109.2z
	 M289.3,68.1c0,21.1-1,41-21.8,41c-5.9,0-13.4-4.7-21.8-17.1l-29.2-42.4c12.4-17,31.3-37.7,49.3-37.7c20.3,0,23.6,10.3,23.6,26.3
	V68.1z M428.7,84.9c0,16.7,0,24.1-14.1,24.2c-14.1-0.1-14.1-7.5-14.1-24.2V36.1c0-17.3,0-24.1,14.1-24.2c14.1,0.1,14.1,7,14.1,24.2
	V84.9z"/>
</svg>
