<?xml version="1.0" encoding="utf-8"?>
<!-- Generator: Adobe Illustrator 21.1.0, SVG Export Plug-In . SVG Version: 6.00 Build 0)  -->
<svg version="1.1" id="Layer_1" xmlns="http://www.w3.org/2000/svg" xmlns:xlink="http://www.w3.org/1999/xlink" x="0px" y="0px"
	 viewBox="0 0 200 200" style="enable-background:new 0 0 200 200;" xml:space="preserve">
<style type="text/css">
	.st0{fill:#404040;}
</style>
<g>
	<path class="st0" d="M119.6,134.9c-0.7,0-1.4-0.2-2.1-0.5L99.9,125l-17.7,9.2c-1.5,0.8-3.3,0.7-4.7-0.4c-1.4-1-2.1-2.7-1.8-4.4
		l3.5-19.6L65,95.8c-1.2-1.2-1.7-3-1.1-4.6c0.5-1.6,1.9-2.8,3.6-3l19.7-2.8l8.9-17.8c0.8-1.5,2.3-2.5,4-2.5c0,0,0,0,0,0
		c1.7,0,3.3,1,4,2.5l8.7,17.9l19.7,3c1.7,0.3,3.1,1.4,3.6,3.1c0.5,1.6,0.1,3.4-1.2,4.6L120.7,110l3.3,19.6c0.3,1.7-0.4,3.4-1.8,4.4
		C121.4,134.6,120.5,134.9,119.6,134.9z M112.7,85.5C112.7,85.5,112.7,85.5,112.7,85.5L112.7,85.5C112.7,85.5,112.7,85.5,112.7,85.5
		z"/>
</g>
</svg>
