<?xml version="1.0" encoding="utf-8"?>
<!-- Generator: Adobe Illustrator 21.1.0, SVG Export Plug-In . SVG Version: 6.00 Build 0)  -->
<svg version="1.1" id="Layer_1" xmlns="http://www.w3.org/2000/svg" xmlns:xlink="http://www.w3.org/1999/xlink" x="0px" y="0px"
	 viewBox="0 0 200 200" style="enable-background:new 0 0 200 200;" xml:space="preserve">
<style type="text/css">
	.st0{fill:#404040;}
</style>
<path class="st0" d="M135.6,97.3c-1.6-9.3-7.1-16-15.4-18.9c-8.1-2.8-14.3-0.5-18.1,1.8c0.6-2,1.8-3.8,3.5-5.1
	c2.5-2,6.1-3.1,10.1-3.1c1,0,1.8-0.8,1.8-1.8s-0.8-1.8-1.8-1.8c-4.5,0-8.4,1.1-11.3,3.2c-0.9-2.2-3.3-4.4-6.7-6
	c-5.3-2.5-10.2-2.2-11.6,0.7c-1.4,2.9,1.4,6.9,6.8,9.5c2.2,1.1,4.6,1.7,6.5,1.7c-0.5,1-0.8,2-1.1,3.2c-3.7-2.4-10.1-5-18.5-2.1
	c-8.3,2.9-13.8,9.6-15.4,18.9c-1,5.8-0.4,12.3,1.7,18.3c2.2,6.1,5.8,11.5,10.3,15.1c4.4,3.6,9.5,5.4,14.8,5.4c2.9,0,5.8-0.5,8.8-1.6
	c3,1.1,5.9,1.6,8.8,1.6c5.3,0,10.4-1.8,14.8-5.4c4.5-3.6,8.1-9,10.3-15.1C136,109.6,136.6,103.1,135.6,97.3z M89.3,67.8
	c0.1-0.2,0.7-0.3,1.6-0.3c1.2,0,3,0.3,5.2,1.3c3.8,1.8,5.2,4.1,5,4.6c-0.3,0.4-2.9,0.8-6.8-1C90.5,70.6,89.2,68.2,89.3,67.8z
	 M120.6,127c-3.9,3.2-10.5,6.2-19.4,2.8c-0.3-0.2-0.7-0.3-1.2-0.3H100c-0.4,0-0.8,0.1-1.2,0.3c-8.9,3.4-15.4,0.4-19.4-2.8
	c-7.8-6.3-12.1-18.5-10.3-28.9C70.1,92.9,72.9,86,81.4,83c9-3.2,15.1,2,16.5,3.4v2.5c-1.4-0.3-2.7-1-3.7-2.1c-0.7-0.7-1.8-0.7-2.6,0
	c-0.7,0.7-0.7,1.8,0,2.6c2.1,2.2,4.9,3.4,7.9,3.4c0,0,0.1,0,0.1,0c0,0,0.1,0,0.1,0c0.1,0,0.2,0,0.3,0c3.1-0.1,6-1.6,8-4
	c0.6-0.8,0.5-1.9-0.2-2.6c-0.8-0.6-1.9-0.5-2.6,0.2c-1,1.2-2.3,2-3.7,2.4v-1.8c0.2-0.2,0.4-0.3,0.5-0.5c1.4-1.3,7.5-6.6,16.5-3.4
	c8.5,3,11.3,9.9,12.3,15.1C132.7,108.6,128.3,120.7,120.6,127z"/>
</svg>
