<?xml version="1.0" encoding="utf-8"?>
<!-- Generator: Adobe Illustrator 21.1.0, SVG Export Plug-In . SVG Version: 6.00 Build 0)  -->
<svg version="1.1" id="Layer_1" xmlns="http://www.w3.org/2000/svg" xmlns:xlink="http://www.w3.org/1999/xlink" x="0px" y="0px"
	 viewBox="0 0 200 200" style="enable-background:new 0 0 200 200;" xml:space="preserve">
<style type="text/css">
	.st0{fill:#404040;}
</style>
<path class="st0" d="M133.8,121.7h-7.3V82.3c0-1.7-0.5-3.3-1.3-4.6l10.4-10.4c0.7-0.7,0.7-1.9,0-2.6c-0.7-0.7-1.9-0.7-2.6,0
	L122.7,75c-1.4-1-3.1-1.5-4.9-1.5H78.3v-7.3c0-1.3-1.1-2.4-2.4-2.4s-2.4,1.1-2.4,2.4v7.3h-7.3c-1.3,0-2.4,1.1-2.4,2.4
	s1.1,2.4,2.4,2.4h7.3v39.4c0,4.8,3.9,8.8,8.8,8.8h39.4v7.3c0,1.3,1.1,2.4,2.4,2.4s2.4-1.1,2.4-2.4v-7.3h7.3c1.3,0,2.4-1.1,2.4-2.4
	S135.1,121.7,133.8,121.7z M117.7,78.3c0.5,0,0.9,0.1,1.3,0.3l-40.5,40.5c-0.2-0.4-0.3-0.9-0.3-1.3V78.3H117.7z M82.3,121.7
	c-0.3,0-0.7-0.1-1-0.1l40.2-40.2c0.1,0.3,0.1,0.6,0.1,1v39.4H82.3z"/>
</svg>
