<?xml version="1.0" encoding="utf-8"?>
<!-- Generator: Adobe Illustrator 21.1.0, SVG Export Plug-In . SVG Version: 6.00 Build 0)  -->
<svg version="1.1" id="Layer_1" xmlns="http://www.w3.org/2000/svg" xmlns:xlink="http://www.w3.org/1999/xlink" x="0px" y="0px"
	 viewBox="0 0 200 200" style="enable-background:new 0 0 200 200;" xml:space="preserve">
<style type="text/css">
	.st0{fill:#404040;}
</style>
<path class="st0" d="M135.1,131.7l-24.2-24.3c8.7-10.4,8.1-26-1.8-35.7c-5.1-5.1-11.9-7.6-18.6-7.6c-6.8,0-13.7,2.6-18.8,7.9
	c-10.2,10.4-10.1,27.1,0.3,37.4c5.1,5.1,11.9,7.6,18.6,7.6c6,0,12-2,16.9-6.1l24.2,24.2c0.5,0.5,1.1,0.7,1.7,0.7
	c0.6,0,1.2-0.2,1.7-0.7C136,134.2,136.1,132.7,135.1,131.7z M75.5,106c-8.5-8.4-8.6-22.1-0.2-30.5c4.1-4.1,9.6-6.4,15.4-6.4h0
	c5.7,0,11.1,2.2,15.2,6.2c8.5,8.4,8.6,22.1,0.2,30.5c-4.1,4.1-9.6,6.4-15.4,6.4C84.9,112.2,79.5,110,75.5,106z"/>
</svg>
