<?xml version="1.0" encoding="utf-8"?>
<!-- Generator: Adobe Illustrator 21.1.0, SVG Export Plug-In . SVG Version: 6.00 Build 0)  -->
<svg version="1.1" id="Layer_1" xmlns="http://www.w3.org/2000/svg" xmlns:xlink="http://www.w3.org/1999/xlink" x="0px" y="0px"
	 viewBox="0 0 200 200" style="enable-background:new 0 0 200 200;" xml:space="preserve">
<style type="text/css">
	.st0{fill:#404040;}
</style>
<g>
	<path class="st0" d="M100,64c-19.9,0-36,16.1-36,36c0,19.9,16.1,36,36,36c19.9,0,36-16.1,36-36C136,80.1,119.9,64,100,64z
		 M100,130.6c-16.9,0-30.6-13.7-30.6-30.6S83.1,69.4,100,69.4s30.6,13.7,30.6,30.6S116.9,130.6,100,130.6z"/>
	<path class="st0" d="M111.9,85.6L81.2,97.4c-0.8,0.3-1.2,1.1-1.1,1.9c0.1,0.8,0.7,1.5,1.5,1.6l15.2,2.2l2,15
		c0.1,0.8,0.8,1.5,1.6,1.5c0.1,0,0.1,0,0.2,0c0.7,0,1.4-0.4,1.7-1.1l12-30.5c0.3-0.7,0.1-1.4-0.4-1.9
		C113.4,85.5,112.6,85.3,111.9,85.6z M101.5,110.7l-1.3-9.5c-0.1-0.8-0.7-1.4-1.5-1.5l-9.7-1.4l20.5-7.8L101.5,110.7z"/>
</g>
</svg>
