<?xml version="1.0" encoding="utf-8"?>
<!-- Generator: Adobe Illustrator 21.1.0, SVG Export Plug-In . SVG Version: 6.00 Build 0)  -->
<svg version="1.1" id="Layer_1" xmlns="http://www.w3.org/2000/svg" xmlns:xlink="http://www.w3.org/1999/xlink" x="0px" y="0px"
	 viewBox="0 0 200 200" style="enable-background:new 0 0 200 200;" xml:space="preserve">
<style type="text/css">
	.st0{fill:#404040;}
</style>
<g>
	<path class="st0" d="M133,100.4c-4.2-4.6-11.4-5-16-0.8l-9.1,8.3l-9.1,8.3c-4.6,4.2-5,11.4-0.8,16c2.2,2.5,5.3,3.7,8.4,3.7
		c2.7,0,5.5-1,7.6-3l9.1-8.3l9.1-8.3C136.9,112.3,137.2,105.1,133,100.4z M129,112.9l-7.3,6.7l-8.2-9.1l-0.5-0.6l7.3-6.7
		c2.7-2.4,6.8-2.2,9.2,0.4C131.8,106.4,131.6,110.5,129,112.9z"/>
	<path class="st0" d="M91,69.6c10.7-2.6,21.9,0.9,29,9.4c2.9,3.5,5,7.5,6.1,11.9c0.3,1.3,1.6,2.1,2.9,1.8c1.3-0.3,2.1-1.6,1.8-2.9
		c-1.3-5.2-3.7-9.9-7.1-13.9c-4-4.7-9.3-8.2-15.1-10.2c-6-2-12.5-2.3-18.8-0.7c-8.8,2.2-16.2,7.6-20.9,15.4
		c-4.7,7.7-6.1,16.8-3.9,25.6c2.6,10.4,9.6,18.8,19.5,23c0.3,0.1,0.6,0.2,1,0.2c0.9,0,1.8-0.5,2.2-1.5c0.5-1.2,0-2.7-1.3-3.2
		c-8.4-3.6-14.5-10.8-16.7-19.7c-1.9-7.5-0.7-15.3,3.4-22C77.1,76.2,83.5,71.5,91,69.6z"/>
	<path class="st0" d="M97.8,88.8c-1,0-1.8,0.8-1.8,1.8v13.7c0,1,0.8,1.8,1.8,1.8s1.8-0.8,1.8-1.8V90.6
		C99.6,89.6,98.8,88.8,97.8,88.8z"/>
	<circle class="st0" cx="97.8" cy="83.3" r="2.4"/>
</g>
</svg>
