<?xml version="1.0" encoding="utf-8"?>
<!-- Generator: Adobe Illustrator 21.1.0, SVG Export Plug-In . SVG Version: 6.00 Build 0)  -->
<svg version="1.1" id="Layer_1" xmlns="http://www.w3.org/2000/svg" xmlns:xlink="http://www.w3.org/1999/xlink" x="0px" y="0px"
	 viewBox="0 0 200 200" style="enable-background:new 0 0 200 200;" xml:space="preserve">
<style type="text/css">
	.st0{fill:#404040;}
</style>
<g>
	<path class="st0" d="M121.6,91.1c-0.1,0-0.2,0-0.3,0v-3c0-4.5-3-8.2-7.1-9.3v-5.2c0-5.3-4.3-9.7-9.7-9.7H92.8
		c-5.3,0-9.7,4.3-9.7,9.7v5.2C79,79.9,76,83.6,76,88.1v23.8c0,4.5,3,8.2,7.1,9.3v5.2c0,5.3,4.3,9.7,9.7,9.7h11.7
		c5.3,0,9.7-4.3,9.7-9.7v-5.2c4.1-1.1,7.1-4.9,7.1-9.3v-3c0.1,0,0.2,0,0.3,0c1.3,0,2.4-1.1,2.4-2.4V93.5
		C124,92.2,123,91.1,121.6,91.1z M92.8,68.7h11.7c2.7,0,4.8,2.2,4.8,4.8v4.9H87.9v-4.9C87.9,70.9,90.1,68.7,92.8,68.7z M104.5,131.3
		H92.8c-2.7,0-4.8-2.2-4.8-4.8v-4.9h21.4v4.9C109.4,129.1,107.2,131.3,104.5,131.3z M116.5,111.9c0,2.7-2.2,4.8-4.8,4.8h-26
		c-2.7,0-4.8-2.2-4.8-4.8V88.1c0-2.7,2.2-4.8,4.8-4.8h26c2.7,0,4.8,2.2,4.8,4.8V111.9z"/>
	<path class="st0" d="M98.6,87.5c-6.9,0-12.5,5.6-12.5,12.5s5.6,12.5,12.5,12.5c6.9,0,12.5-5.6,12.5-12.5S105.5,87.5,98.6,87.5z
		 M98.6,108.8c-4.9,0-8.8-4-8.8-8.8s4-8.8,8.8-8.8c4.9,0,8.8,4,8.8,8.8S103.5,108.8,98.6,108.8z"/>
</g>
</svg>
