<?xml version="1.0" encoding="utf-8"?>
<!-- Generator: Adobe Illustrator 21.1.0, SVG Export Plug-In . SVG Version: 6.00 Build 0)  -->
<svg version="1.1" id="Layer_1" xmlns="http://www.w3.org/2000/svg" xmlns:xlink="http://www.w3.org/1999/xlink" x="0px" y="0px"
	 viewBox="0 0 200 200" style="enable-background:new 0 0 200 200;" xml:space="preserve">
<style type="text/css">
	.st0{fill:#404040;}
</style>
<path class="st0" d="M147.9,105.1c0-0.1,0-0.3-0.1-0.4c0-0.5-0.2-1-0.5-1.4c-0.2-0.2-19.1-23.3-22.5-27.6c-4.2-5.1-7.9-5.4-9.7-5.2
	c-2.2,0.3-4,1.9-4.9,4.1c-0.5,1.2,0.1,2.6,1.4,3.1c1.2,0.5,2.6-0.1,3.1-1.4c0.4-1,1-1.1,1.2-1.1c1-0.2,3,0.6,5.2,3.4
	c2.5,3.1,13.2,16.1,18.9,23.1c-4-0.6-9.5-1.2-15.3-1.2c-11.1,0-19.4,2.1-19.7,2.2c0,0-0.1,0-0.1,0c-3.5-2.4-7.1-1.6-9.5,0
	c0,0-0.1,0-0.1,0c-0.3-0.1-8.6-2.2-19.7-2.2c-5.9,0-11.5,0.6-15.4,1.2c5.6-6.9,16.2-19.9,18.9-23.1c2.3-2.8,4.3-3.6,5.3-3.4
	c0.2,0,0.8,0.1,1.1,1.1c0.5,1.2,1.9,1.8,3.1,1.4c1.2-0.5,1.8-1.9,1.4-3.1c-0.9-2.3-2.6-3.8-4.8-4.1c-3.1-0.5-6.6,1.3-9.8,5.1
	c-3.8,4.5-22.4,27.4-22.6,27.6c-0.4,0.5-0.6,1.2-0.5,1.8c-0.1,0.7-0.7,11.2,5.8,18.3c3.7,4.1,9,6.1,15.7,6.1c8,0,14.1-2.3,18.1-6.9
	c4.4-5,5.2-11.3,5.3-14.9c0.1-0.1,0.1-0.1,0.2-0.2c0,0,0.7-0.7,1.8-1.1c0.9-0.3,2.2-0.5,3.9,1.1c0,0,0.1,0.1,0.1,0.1
	c0.1,3.6,0.9,9.9,5.3,14.9c4.1,4.6,10.2,6.9,18.1,6.9c6.7,0,11.9-2.1,15.7-6.1C148.7,116.2,147.9,105.5,147.9,105.1z M88.1,119.4
	c-3.1,3.5-8,5.3-14.5,5.3c-5.3,0-9.3-1.5-12.2-4.6c-3.8-4.1-4.5-10-4.6-12.9c3.3-0.6,10.7-1.7,18.5-1.7c7.6,0,13.9,1.1,16.8,1.7
	C92.2,109.9,91.7,115.4,88.1,119.4z M138.6,120.1c-2.8,3-6.9,4.6-12.2,4.6c-6.5,0-11.4-1.8-14.5-5.3c-3.6-4.1-4.1-9.5-4.1-12.2
	c2.9-0.6,9.2-1.7,16.8-1.7c7.8,0,15.2,1.1,18.5,1.7C143,110.2,142.4,116,138.6,120.1z"/>
</svg>
