<?xml version="1.0" encoding="utf-8"?>
<!-- Generator: Adobe Illustrator 21.1.0, SVG Export Plug-In . SVG Version: 6.00 Build 0)  -->
<svg version="1.1" id="Layer_1" xmlns="http://www.w3.org/2000/svg" xmlns:xlink="http://www.w3.org/1999/xlink" x="0px" y="0px"
	 viewBox="0 0 200 200" style="enable-background:new 0 0 200 200;" xml:space="preserve">
<style type="text/css">
	.st0{fill:#404040;}
</style>
<g>
	<path class="st0" d="M122.4,80.1c4.5,0,8.1-3.6,8.1-8.1s-3.6-8.1-8.1-8.1c-4.5,0-8.1,3.6-8.1,8.1S118,80.1,122.4,80.1z M122.4,67.6
		c2.5,0,4.5,2,4.5,4.5c0,2.5-2,4.5-4.5,4.5c-2.5,0-4.5-2-4.5-4.5C118,69.6,120,67.6,122.4,67.6z"/>
	<path class="st0" d="M135.1,86.4c-1.1-0.8-2.6-0.6-3.4,0.5l-4.1,5.6l-6.6-8.2c-0.5-0.6-1.3-1-2.1-0.9c-0.8,0.1-1.5,0.6-1.9,1.3
		l-9.6,18.3c0,0,0,0,0,0L92,132.1c-0.6,1.2-0.2,2.6,1,3.3c0.4,0.2,0.7,0.3,1.1,0.3c0.9,0,1.7-0.5,2.1-1.3l13.6-25.8l7.1,8.9
		l-7.7,15.1c-0.6,1.2-0.1,2.6,1.1,3.3c0.4,0.2,0.7,0.3,1.1,0.3c0.9,0,1.7-0.5,2.2-1.3l8.4-16.5c0.4-0.8,0.3-1.9-0.3-2.6l-9.4-11.8
		l7.2-13.6l6.2,7.8c0.5,0.6,1.2,0.9,1.9,0.9c0.8,0,1.5-0.4,1.9-1l6-8.1C136.4,88.7,136.1,87.2,135.1,86.4z"/>
	<path class="st0" d="M95.1,96.4c0.4,0.3,0.9,0.4,1.3,0.4c0.8,0,1.6-0.4,2-1.1l4.9-7.5h7.6c1.3,0,2.4-1.1,2.4-2.4s-1.1-2.4-2.4-2.4
		H102c-0.8,0-1.6,0.4-2,1.1L94.4,93C93.7,94.1,94,95.6,95.1,96.4z"/>
	<path class="st0" d="M91.8,99.3c0-1-0.8-1.8-1.8-1.8H65.8c-1,0-1.8,0.8-1.8,1.8s0.8,1.8,1.8,1.8H90C91,101.2,91.8,100.3,91.8,99.3z
		"/>
	<path class="st0" d="M85.4,115.7H72.8c-1,0-1.8,0.8-1.8,1.8s0.8,1.8,1.8,1.8h12.7c1,0,1.8-0.8,1.8-1.8S86.4,115.7,85.4,115.7z"/>
	<path class="st0" d="M74.2,106.6c-1,0-1.8,0.8-1.8,1.8s0.8,1.8,1.8,1.8h19.8c1,0,1.8-0.8,1.8-1.8s-0.8-1.8-1.8-1.8H74.2z"/>
</g>
</svg>
