<?xml version="1.0" encoding="utf-8"?>
<!-- Generator: Adobe Illustrator 21.1.0, SVG Export Plug-In . SVG Version: 6.00 Build 0)  -->
<svg version="1.1" id="Layer_1" xmlns="http://www.w3.org/2000/svg" xmlns:xlink="http://www.w3.org/1999/xlink" x="0px" y="0px"
	 viewBox="0 0 200 200" style="enable-background:new 0 0 200 200;" xml:space="preserve">
<style type="text/css">
	.st0{fill:#404040;}
</style>
<g>
	<path class="st0" d="M75.8,131.1c-0.4,0-0.8-0.1-1.2-0.3c-0.8-0.4-1.2-1.2-1.2-2.1l0-3.9h-3.5c-3.3,0-6-2.7-6-6V97.1
		c0-3.3,2.7-6,6-6h5.8c1.3,0,2.4,1.1,2.4,2.4s-1.1,2.4-2.4,2.4h-5.8c-0.6,0-1.1,0.5-1.1,1.1v21.7c0,0.6,0.5,1.1,1.1,1.1h5.9
		c0.6,0,1.3,0.3,1.7,0.7c0.5,0.5,0.7,1.1,0.7,1.7l0,2l6.7-4.1c0.4-0.2,0.8-0.4,1.3-0.4h17.4c0.6,0,1.1-0.5,1.1-1.1V116
		c0-1.3,1.1-2.4,2.4-2.4s2.4,1.1,2.4,2.4v2.7c0,3.3-2.7,6-6,6H86.8l-9.8,6C76.7,131,76.2,131.1,75.8,131.1z"/>
	<path class="st0" d="M122.1,116.7c-0.4,0-0.9-0.1-1.3-0.4l-12.1-7.4H89.5c-3.7,0-6.8-3-6.8-6.8V75.7c0-3.7,3-6.8,6.8-6.8h39.9
		c3.7,0,6.8,3,6.8,6.8v26.4c0,3.7-3,6.8-6.8,6.8h-4.8l0,5.3c0,0.9-0.5,1.7-1.2,2.1C122.9,116.6,122.5,116.7,122.1,116.7z M89.5,73.8
		c-1.1,0-1.9,0.9-1.9,1.9v26.4c0,1.1,0.9,1.9,1.9,1.9h19.9c0.4,0,0.9,0.1,1.3,0.4l9,5.5l0-3.4c0-0.6,0.3-1.3,0.7-1.7
		c0.5-0.5,1.1-0.7,1.7-0.7h7.3c1.1,0,1.9-0.9,1.9-1.9V75.7c0-1.1-0.9-1.9-1.9-1.9H89.5z"/>
	<path class="st0" d="M98.6,93.9c-2.7,0-4.8-2.2-4.8-4.8c0-2.7,2.2-4.8,4.8-4.8c2.7,0,4.8,2.2,4.8,4.8
		C103.4,91.8,101.2,93.9,98.6,93.9z M98.6,88c-0.6,0-1.2,0.5-1.2,1.2s0.5,1.2,1.2,1.2s1.2-0.5,1.2-1.2S99.2,88,98.6,88z"/>
	<path class="st0" d="M120.3,93.9c-2.7,0-4.8-2.2-4.8-4.8c0-2.7,2.2-4.8,4.8-4.8s4.8,2.2,4.8,4.8C125.1,91.8,123,93.9,120.3,93.9z
		 M120.3,88c-0.6,0-1.2,0.5-1.2,1.2s0.5,1.2,1.2,1.2s1.2-0.5,1.2-1.2S121,88,120.3,88z"/>
	<path class="st0" d="M109.7,93.9c-2.7,0-4.8-2.2-4.8-4.8c0-2.7,2.2-4.8,4.8-4.8s4.8,2.2,4.8,4.8C114.5,91.8,112.3,93.9,109.7,93.9z
		 M109.7,88c-0.6,0-1.2,0.5-1.2,1.2s0.5,1.2,1.2,1.2s1.2-0.5,1.2-1.2S110.3,88,109.7,88z"/>
</g>
</svg>
