<?xml version="1.0" encoding="utf-8"?>
<!-- Generator: Adobe Illustrator 21.1.0, SVG Export Plug-In . SVG Version: 6.00 Build 0)  -->
<svg version="1.1" id="Layer_1" xmlns="http://www.w3.org/2000/svg" xmlns:xlink="http://www.w3.org/1999/xlink" x="0px" y="0px"
	 viewBox="0 0 200 200" style="enable-background:new 0 0 200 200;" xml:space="preserve">
<style type="text/css">
	.st0{fill:#404040;}
</style>
<path class="st0" d="M64.4,135.6c0.4,0.3,0.8,0.5,1.3,0.5c0.2,0,0.3-0.1,0.5-0.1l19.9-5.8c0.3-0.1,0.5-0.2,0.7-0.4
	c0.2-0.1,0.3-0.2,0.5-0.4l46.1-46.1c1.8-1.8,2.8-4.2,2.8-6.8c0-2.5-1-5-2.8-6.8l-3-3c-3.8-3.8-9.9-3.8-13.7,0l-46.1,46.1l0,0
	c-0.3,0.2-0.5,0.5-0.6,0.9l-6,20.1C63.8,134.4,64,135.1,64.4,135.6z M112.9,77.5l9.8,9.8l-37.5,37.4l-9.8-9.8L112.9,77.5z
	 M82.7,127.4l-9.1,2.7l-3.6-3.6l2.7-9.1L82.7,127.4z M130,80l-4.7,4.6l-9.8-9.8l4.7-4.7c1.8-1.9,4.9-1.9,6.8,0l3,3
	c0.9,0.9,1.4,2.1,1.4,3.4S130.9,79.1,130,80z"/>
</svg>
