<?xml version="1.0" encoding="utf-8"?>
<!-- Generator: Adobe Illustrator 21.1.0, SVG Export Plug-In . SVG Version: 6.00 Build 0)  -->
<svg version="1.1" id="Layer_1" xmlns="http://www.w3.org/2000/svg" xmlns:xlink="http://www.w3.org/1999/xlink" x="0px" y="0px"
	 viewBox="0 0 200 200" style="enable-background:new 0 0 200 200;" xml:space="preserve">
<style type="text/css">
	.st0{fill:#404040;}
</style>
<g>
	<path class="st0" d="M130.7,99.7l-3.5-20.1c-0.4-2.5-1.9-4.8-4-6.2c-2.1-1.5-4.7-2.1-7.2-1.6l-44.9,7.9c-2.5,0.4-4.8,1.9-6.2,4
		c-1.5,2.1-2.1,4.7-1.6,7.2l4.4,25.2c0.4,2.5,1.9,4.8,4,6.2c1.6,1.2,3.6,1.8,5.5,1.8c0.6,0,1.1,0,1.7-0.1l32.8-5.8
		c0.1,4.8,2,9.2,5.4,12.6c3.4,3.4,7.9,5.2,12.7,5.2c0,0,0.1,0,0.1,0c10-0.1,18.1-8.3,18-18.3C147.9,108,140.2,100.1,130.7,99.7z
		 M78,119.1c-1.3,0.2-2.6-0.1-3.6-0.8c-1.1-0.7-1.8-1.9-2-3.1L68,90c-0.2-1.3,0.1-2.6,0.8-3.6c0.7-1.1,1.9-1.8,3.1-2l44.9-7.9
		c0.3-0.1,0.6-0.1,0.9-0.1c1,0,1.9,0.3,2.8,0.9c1.1,0.7,1.8,1.9,2,3.1l3.5,19.6c-3.4,0.7-6.5,2.4-9,5c-2.2,2.3-3.8,5-4.6,8L78,119.1
		z M129.9,131.1C129.9,131.1,129.8,131.1,129.9,131.1c-3.6,0-6.9-1.4-9.4-3.8c-2.5-2.5-3.9-5.8-4-9.4c0-3.6,1.3-6.9,3.8-9.4
		c2.5-2.5,5.8-3.9,9.4-4c0,0,0.1,0,0.1,0c7.3,0,13.3,5.9,13.3,13.2C143.2,125,137.2,131,129.9,131.1z"/>
	<path class="st0" d="M135.5,115.9C135.5,115.9,135.5,115.9,135.5,115.9l-3.9,0l0-3.9c0-1-0.8-1.8-1.8-1.8c0,0,0,0,0,0
		c-1,0-1.8,0.8-1.8,1.8l0,3.9l-3.9,0c-1,0-1.8,0.8-1.8,1.8c0,1,0.8,1.8,1.8,1.8c0,0,0,0,0,0l3.9,0l0,3.9c0,1,0.8,1.8,1.8,1.8
		c0,0,0,0,0,0c1,0,1.8-0.8,1.8-1.8l0-3.9l3.9,0c1,0,1.8-0.8,1.8-1.8C137.3,116.7,136.5,115.9,135.5,115.9z"/>
	<path class="st0" d="M62.2,76.3l41.8-7.4c1.3-0.2,2.2-1.5,2-2.8c-0.2-1.3-1.5-2.2-2.8-2l-41.8,7.4c-3,0.5-5.5,2.2-7.3,4.6
		c-1.7,2.5-2.4,5.4-1.9,8.4l3.9,22.1c0.2,1.2,1.2,2,2.4,2c0.1,0,0.3,0,0.4,0c1.3-0.2,2.2-1.5,2-2.8L57,83.7
		c-0.3-1.7,0.1-3.4,1.1-4.8C59,77.5,60.5,76.6,62.2,76.3z"/>
</g>
</svg>
