<?xml version="1.0" encoding="utf-8"?>
<!-- Generator: Adobe Illustrator 21.1.0, SVG Export Plug-In . SVG Version: 6.00 Build 0)  -->
<svg version="1.1" id="Layer_1" xmlns="http://www.w3.org/2000/svg" xmlns:xlink="http://www.w3.org/1999/xlink" x="0px" y="0px"
	 viewBox="0 0 200 200" style="enable-background:new 0 0 200 200;" xml:space="preserve">
<style type="text/css">
	.st0{fill:#404040;}
</style>
<g>
	<path class="st0" d="M114,63.9H86c-5.3,0-9.6,4.3-9.6,9.6v41.4c0,5.3,4.3,9.6,9.6,9.6h11.6v9.2c0,1.3,1.1,2.4,2.4,2.4
		c1.3,0,2.4-1.1,2.4-2.4v-9.2H114c5.3,0,9.6-4.3,9.6-9.6V73.5C123.6,68.2,119.3,63.9,114,63.9z M118.8,114.9c0,2.6-2.2,4.8-4.8,4.8
		H86c-2.6,0-4.8-2.2-4.8-4.8V73.5c0-2.6,2.2-4.8,4.8-4.8h28c2.6,0,4.8,2.2,4.8,4.8V114.9z"/>
	<path class="st0" d="M99,89.2c0-0.6,0.2-1.1,0.5-1.5c0.7-0.7,0.7-1.8,0-2.5c-0.7-0.7-1.8-0.7-2.5,0c-1.1,1.1-1.7,2.6-1.6,4.2
		c0.1,1.5,0.7,3,1.8,4.1c0.4,0.4,0.8,0.5,1.3,0.5c0.5,0,0.9-0.2,1.3-0.5c0.7-0.7,0.7-1.8,0-2.5C99.3,90.4,99,89.8,99,89.2z"/>
	<path class="st0" d="M107.6,82.6l-6.3-6.4c-0.3-0.3-0.8-0.5-1.3-0.5c-0.5,0-0.9,0.2-1.3,0.5l-6.3,6.4c0,0,0,0-0.1,0.1
		c-1.7,1.9-2.6,4.3-2.6,6.8c0,5.6,4.6,10.2,10.2,10.2c5.6,0,10.2-4.6,10.2-10.2C110.2,87,109.3,84.6,107.6,82.6
		C107.6,82.7,107.6,82.7,107.6,82.6z M100,96.1c-3.6,0-6.6-3-6.6-6.6c0-1.6,0.6-3.2,1.6-4.4l5-5l5,5c1.1,1.2,1.6,2.8,1.6,4.4
		C106.6,93.1,103.6,96.1,100,96.1z"/>
	<circle class="st0" cx="100" cy="109.4" r="3"/>
</g>
</svg>
