<?xml version="1.0" encoding="utf-8"?>
<!-- Generator: Adobe Illustrator 21.1.0, SVG Export Plug-In . SVG Version: 6.00 Build 0)  -->
<svg version="1.1" id="Layer_1" xmlns="http://www.w3.org/2000/svg" xmlns:xlink="http://www.w3.org/1999/xlink" x="0px" y="0px"
	 viewBox="0 0 200 200" style="enable-background:new 0 0 200 200;" xml:space="preserve">
<style type="text/css">
	.st0{fill:#404040;}
</style>
<g>
	<path class="st0" d="M132.3,73.7l-6-6c-3.8-3.8-9.9-3.8-13.7,0l-44.9,44.9c-1.8,1.8-2.8,4.3-2.8,6.8c0,2.6,1,5,2.8,6.8l6,6
		c1.8,1.8,4.3,2.8,6.8,2.8c2.6,0,5-1,6.8-2.8l44.9-44.9c1.8-1.8,2.8-4.3,2.8-6.8C135.1,78,134.1,75.5,132.3,73.7z M100,87.2
		l12.8,12.8L100,112.8L87.2,100L100,87.2z M84,128.8c-0.9,0.9-2.1,1.4-3.4,1.4s-2.5-0.5-3.4-1.4l-6-6c-0.9-0.9-1.4-2.1-1.4-3.4
		s0.5-2.5,1.4-3.4l12.6-12.6l12.8,12.8L84,128.8z M128.9,84l-12.6,12.6l-12.8-12.8L116,71.1c0.9-0.9,2.2-1.4,3.4-1.4
		c1.2,0,2.5,0.5,3.4,1.4l6,6C130.7,79,130.7,82.1,128.9,84z"/>
	<ellipse transform="matrix(0.7071 -0.7071 0.7071 0.7071 -61.6475 91.6193)" class="st0" cx="79.8" cy="120.2" rx="2.2" ry="2.2"/>
	<ellipse transform="matrix(0.7071 -0.7071 0.7071 0.7071 -56.6897 93.6729)" class="st0" cx="84.7" cy="115.3" rx="2.2" ry="2.2"/>
	
		<ellipse transform="matrix(0.7071 -0.7071 0.7071 0.7071 -26.3479 106.2423)" class="st0" cx="115.1" cy="84.9" rx="2.2" ry="2.2"/>
	<ellipse transform="matrix(0.7071 -0.7071 0.7071 0.7071 -21.39 108.296)" class="st0" cx="120" cy="80" rx="2.2" ry="2.2"/>
</g>
</svg>
