<?xml version="1.0" encoding="utf-8"?>
<!-- Generator: Adobe Illustrator 21.1.0, SVG Export Plug-In . SVG Version: 6.00 Build 0)  -->
<svg version="1.1" id="Layer_1" xmlns="http://www.w3.org/2000/svg" xmlns:xlink="http://www.w3.org/1999/xlink" x="0px" y="0px"
	 viewBox="0 0 200 200" style="enable-background:new 0 0 200 200;" xml:space="preserve">
<style type="text/css">
	.st0{fill:#404040;}
</style>
<g>
	<g transform="scale(1 -1)">
		<g transform="translate(0 -75)">
			<g>
				<path marker-end="none" marker-start="none" class="st0" d="M100.4-47.7l0.1,2.5c-0.5-0.1-1-0.1-1.5,0l0.1-2.5H100.4z
					 M100.8-44.6c0,0.6-0.3,1-1.4,1.2c-1,0.3-0.5,1.3,0.1,1.7c1.4,0.7,2.4,1.3,3,2.4c0.3,1,0.1,1.7-0.6,2.2
					c-0.1,0.1-0.2,0.1-0.3,0.1h-0.4c-0.2-1.1-0.8-1.8-1.6-2c-2.4-0.7-3.5-3.1-1.7-5C98.5-44.7,99.7-45,100.8-44.6z M100.6-43.2
					l0,1.5l-0.8-0.4l-0.1-0.1c-0.1-0.1-0.2-0.3-0.3-0.4c0,0,0-0.1,0.1-0.2l0.1-0.1l0.4-0.1C100.2-43,100.4-43.1,100.6-43.2z
					 M99.4-38.5c0.6,0.2,1.1,0.7,1.3,1.7c0,0.1,0,0.1,0.1,0.2l0.1,4.5c-1.2-0.3-2.2-0.8-2.2-1.4v-0.1l0.1-5
					C99-38.6,99.2-38.5,99.4-38.5z M98.2-37v3.5c0,1.2,1.9,1.8,3.1,2c2,0.4,3.6,1.6,3.8,3.3c0.2,1.8-1.2,3.4-3.3,4.3v-3.8
					c-0.1-0.7-0.8-1.1-1.4-1.2c-2.8-0.6-5.6-2.4-5.2-4.9C95.4-35.3,96.4-36.5,98.2-37z M100.2-28.4c0.3,0.1,0.6,0.2,0.8,0.4l0.3,8.7
					c-0.5-0.2-1-0.3-1.4-0.5c-1.1-0.4-1.3-0.6-1.3-0.8l0-0.1l0-4.9c0-0.1-0.1-0.3-0.1-0.3l0.1-3.1C99.1-28.7,99.7-28.5,100.2-28.4z
					 M98.2-20.6c-0.2,1.3,2.8,1.4,4.6,2.5c1.7,1.1,2.9,3.1,2.9,5c0,2.2-0.8,4.4-3.6,5.6c-3.2,1.1-5.2,0-6.7-2.4
					c1.7-1.3,3.7-1.9,6.2-1.8c1.1-1.2,0.5-2.8-1.4-3.7c-2.3-1.1-5.6-2.2-6-4.7c-0.3-2.2,0.7-4.3,3.9-5.5L98.2-20.6 M100-14.8
					c0.7,0.3,1.2,0.8,1.4,1.2l0,1.3c0,0,0,0,0,0.1l-0.1,0.2l-0.7,0c-0.9,0-1.8,0.2-2.6,0.4l0.1-3.9C98.8-15.3,99.5-15.1,100-14.8z
					 M102-4.3c0,1.2-1,2.1-2.2,2.1c-1.2,0-2.2-0.9-2.2-2.1s1-2.1,2.2-2.1C101-6.4,102-5.5,102-4.3z"/>
			</g>
		</g>
	</g>
	<g>
		<path class="st0" d="M106.4,136.1H93.5c-2.3,0-4.1-1.9-4.1-4.1v-13.7c-4.3,2.5-11.9,6.9-11.9,6.9c-1,0.6-2.1,0.7-3.1,0.4
			c-1.1-0.3-2-1-2.5-1.9l-6.4-11.1c-1.1-2-0.5-4.5,1.5-5.6l11.9-6.9l-11.9-6.9c-1-0.6-1.6-1.4-1.9-2.5c-0.3-1.1-0.1-2.2,0.4-3.1
			l6.4-11.1c0.6-1,1.4-1.6,2.5-1.9c1.1-0.3,2.2-0.1,3.1,0.4c0,0,7.5,4.4,11.9,6.9V67.9c0-2.3,1.9-4.1,4.1-4.1h12.9
			c2.3,0,4.1,1.9,4.1,4.1v13.7l11.9-6.9c1-0.6,2.1-0.7,3.1-0.4c1.1,0.3,2,1,2.5,1.9l6.4,11.1c0.6,1,0.7,2.1,0.4,3.1
			c-0.3,1.1-1,2-1.9,2.5l-11.9,6.9l11.9,6.9c2,1.1,2.6,3.7,1.5,5.6l-6.4,11.1c-0.6,1-1.4,1.6-2.5,1.9c-1.1,0.3-2.2,0.1-3.1-0.4
			l-11.9-6.9V132C110.5,134.3,108.6,136.1,106.4,136.1z M91.4,112.8c1.1,0,2,0.9,2,2V132c0,0.1,0.1,0.1,0.1,0.1h12.9
			c0.1,0,0.1-0.1,0.1-0.1v-17.2c0-0.7,0.4-1.4,1-1.7c0.6-0.4,1.4-0.4,2,0l14.9,8.6c0.1,0,0.2,0,0.2-0.1l6.4-11.1c0,0,0-0.1,0-0.1
			c0-0.1-0.1-0.1-0.1-0.1l-14.9-8.6c-0.6-0.4-1-1-1-1.7c0-0.7,0.4-1.4,1-1.7l14.9-8.6c0,0,0.1,0,0.1-0.1c0-0.1,0-0.1,0-0.1
			l-6.4-11.1c0,0,0-0.1-0.1-0.1c-0.1,0-0.1,0-0.1,0l-14.9,8.6c-0.6,0.4-1.4,0.4-2,0c-0.6-0.4-1-1-1-1.7V67.9c0-0.1-0.1-0.1-0.1-0.1
			H93.5c-0.1,0-0.1,0.1-0.1,0.1v17.2c0,1.1-0.9,2-2,2c-0.5,0-0.5,0-3.3-1.6l-12.6-7.3c0,0-0.1,0-0.1,0c-0.1,0-0.1,0.1-0.1,0.1
			l-6.4,11.1c0,0,0,0.1,0,0.1s0.1,0.1,0.1,0.1l14.9,8.6c0.6,0.4,1,1,1,1.7c0,0.7-0.4,1.4-1,1.7l-14.9,8.6c-0.1,0-0.1,0.1-0.1,0.2
			l6.4,11.1c0,0,0,0.1,0.1,0.1c0.1,0,0.1,0,0.1,0l12.6-7.3C90.8,112.8,90.8,112.8,91.4,112.8z"/>
	</g>
</g>
</svg>
