<?xml version="1.0" encoding="utf-8"?>
<!-- Generator: Adobe Illustrator 21.1.0, SVG Export Plug-In . SVG Version: 6.00 Build 0)  -->
<svg version="1.1" id="Layer_1" xmlns="http://www.w3.org/2000/svg" xmlns:xlink="http://www.w3.org/1999/xlink" x="0px" y="0px"
	 viewBox="0 0 200 200" style="enable-background:new 0 0 200 200;" xml:space="preserve">
<style type="text/css">
	.st0{fill:#404040;}
</style>
<g>
	<path class="st0" d="M106.7,80.2c4.5,0,8.1-3.6,8.1-8.1s-3.6-8.1-8.1-8.1s-8.1,3.6-8.1,8.1S102.2,80.2,106.7,80.2z M106.7,67.6
		c2.5,0,4.5,2,4.5,4.5c0,2.5-2,4.5-4.5,4.5s-4.5-2-4.5-4.5C102.2,69.6,104.2,67.6,106.7,67.6z"/>
	<path class="st0" d="M123.2,100.7L104.9,84c-0.6-0.5-1.3-0.7-2-0.6c-0.7,0.1-1.4,0.6-1.7,1.3L91.6,103c0,0,0,0,0,0l-15.3,29.1
		c-0.6,1.2-0.2,2.6,1,3.3c0.4,0.2,0.7,0.3,1.1,0.3c0.9,0,1.7-0.5,2.1-1.3l13.6-25.8l7.5,9.5l-0.3,15.6c0,1.3,1,2.4,2.4,2.5
		c0,0,0,0,0,0c1.3,0,2.4-1.1,2.4-2.4l0.3-16.5c0-0.6-0.2-1.1-0.5-1.6l-9.4-11.8l7.4-14.1l16,14.6c1,0.9,2.5,0.8,3.4-0.2
		C124.3,103.1,124.2,101.6,123.2,100.7z"/>
	<path class="st0" d="M88.5,77.6l6.9,5.8c0.5,0.4,1,0.6,1.6,0.6c0.7,0,1.4-0.3,1.8-0.9c0.9-1,0.7-2.5-0.3-3.4l-6.1-5.1l-0.2-8.4
		c0-1.3-1.1-2.4-2.4-2.4c0,0,0,0-0.1,0c-1.3,0-2.4,1.1-2.4,2.5l0.2,9.5C87.6,76.5,87.9,77.2,88.5,77.6z"/>
</g>
</svg>
