<?xml version="1.0" encoding="utf-8"?>
<!-- Generator: Adobe Illustrator 21.1.0, SVG Export Plug-In . SVG Version: 6.00 Build 0)  -->
<svg version="1.1" id="Layer_1" xmlns="http://www.w3.org/2000/svg" xmlns:xlink="http://www.w3.org/1999/xlink" x="0px" y="0px"
	 viewBox="0 0 200 200" style="enable-background:new 0 0 200 200;" xml:space="preserve">
<style type="text/css">
	.st0{fill:#404040;}
</style>
<path class="st0" d="M126.4,70.6H94.3L93,65.7c-0.3-1.1-1.2-1.8-2.3-1.8H66.3c-1.3,0-2.4,1.1-2.4,2.4v60.1c0,5.4,3.4,9.7,7.8,9.7
	h56.7c4.3,0,7.8-4.3,7.8-9.7v-29v-6.1v-11C136.1,75,131.8,70.6,126.4,70.6z M126.4,75.5c2.7,0,4.8,2.2,4.8,4.8v1.9
	c-1.5-0.8-3.3-1.3-5.3-1.3H97l-1.4-5.4H126.4z M131.3,126.4c0,2.9-1.5,4.8-2.9,4.8H71.7c-1.4,0-2.9-2-2.9-4.8V68.8h20l4,15.2
	c0.3,1.1,1.2,1.8,2.3,1.8h30.8c3.4,0,5.3,2,5.3,5.6v6.1V126.4z"/>
</svg>
