<?xml version="1.0" encoding="utf-8"?>
<!-- Generator: Adobe Illustrator 21.1.0, SVG Export Plug-In . SVG Version: 6.00 Build 0)  -->
<svg version="1.1" id="Layer_1" xmlns="http://www.w3.org/2000/svg" xmlns:xlink="http://www.w3.org/1999/xlink" x="0px" y="0px"
	 viewBox="0 0 200 200" style="enable-background:new 0 0 200 200;" xml:space="preserve">
<style type="text/css">
	.st0{fill:#404040;}
</style>
<path class="st0" d="M134.1,88.4c-3.1-8.2-9.2-14.7-17.2-18.4c-16.5-7.5-36-0.1-43.5,16.4c-1.2,2.7-2.1,5.6-2.5,8.5l-3.3-3.3
	c-0.9-0.9-2.3-0.9-3.1,0c-0.9,0.9-0.9,2.3,0,3.1l7.4,7.4c0.9,0.9,2.3,0.9,3.1,0l7.4-7.4c0.9-0.9,0.9-2.3,0-3.1
	c-0.9-0.9-2.3-0.9-3.1,0l-4.1,4.1c0.4-2.6,1.1-5.1,2.2-7.5c3.1-6.9,8.8-12.2,15.9-14.9c7.1-2.7,14.8-2.4,21.8,0.7
	c6.9,3.1,12.2,8.8,14.9,15.9s2.4,14.8-0.7,21.8c-6.5,14.3-23.4,20.6-37.6,14.2c-1.1-0.5-2.4,0-2.9,1.1c-0.4,0.9-0.2,1.9,0.5,2.5
	c0.2,0.2,0.4,0.3,0.7,0.5c16.5,7.5,36,0.1,43.5-16.4C136.9,105.6,137.2,96.6,134.1,88.4z"/>
</svg>
