<?xml version="1.0" encoding="utf-8"?>
<!-- Generator: Adobe Illustrator 21.1.0, SVG Export Plug-In . SVG Version: 6.00 Build 0)  -->
<svg version="1.1" id="Layer_1" xmlns="http://www.w3.org/2000/svg" xmlns:xlink="http://www.w3.org/1999/xlink" x="0px" y="0px"
	 viewBox="0 0 200 200" style="enable-background:new 0 0 200 200;" xml:space="preserve">
<style type="text/css">
	.st0{fill:#404040;}
</style>
<g>
	<path class="st0" d="M126.5,72.5h-10.6v-6c0-1.3-1.1-2.4-2.4-2.4s-2.4,1.1-2.4,2.4v6H89.2v-6c0-1.3-1.1-2.4-2.4-2.4
		s-2.4,1.1-2.4,2.4v6H73.5c-5.3,0-9.7,4.3-9.7,9.7v44.1c0,5.3,4.3,9.7,9.7,9.7h53.1c5.3,0,9.7-4.3,9.7-9.7V82.2
		C136.2,76.8,131.9,72.5,126.5,72.5z M131.4,126.3c0,2.7-2.2,4.8-4.8,4.8H73.5c-2.7,0-4.8-2.2-4.8-4.8V82.2c0-2.7,2.2-4.8,4.8-4.8
		h10.9v4c0,1.3,1.1,2.4,2.4,2.4s2.4-1.1,2.4-2.4v-4h21.9v4c0,1.3,1.1,2.4,2.4,2.4s2.4-1.1,2.4-2.4v-4h10.6c2.7,0,4.8,2.2,4.8,4.8
		V126.3z"/>
	<path class="st0" d="M102.4,89.1h-5.2c-1.1,0-2,0.9-2,2v5.2c0,1.1,0.9,2,2,2h5.2c1.1,0,2-0.9,2-2v-5.2
		C104.4,90,103.5,89.1,102.4,89.1z"/>
	<path class="st0" d="M85,98.3h5.2c1.1,0,2-0.9,2-2v-5.2c0-1.1-0.9-2-2-2H85c-1.1,0-2,0.9-2,2v5.2C83,97.4,83.9,98.3,85,98.3z"/>
	<path class="st0" d="M109.8,98.3h5.2c1.1,0,2-0.9,2-2v-5.2c0-1.1-0.9-2-2-2h-5.2c-1.1,0-2,0.9-2,2v5.2
		C107.8,97.4,108.7,98.3,109.8,98.3z"/>
	<path class="st0" d="M102.4,101.7h-5.2c-1.1,0-2,0.9-2,2v5.2c0,1.1,0.9,2,2,2h5.2c1.1,0,2-0.9,2-2v-5.2
		C104.4,102.6,103.5,101.7,102.4,101.7z"/>
	<path class="st0" d="M90.2,101.7H85c-1.1,0-2,0.9-2,2v5.2c0,1.1,0.9,2,2,2h5.2c1.1,0,2-0.9,2-2v-5.2
		C92.2,102.6,91.3,101.7,90.2,101.7z"/>
	<path class="st0" d="M102.4,114h-5.2c-1.1,0-2,0.9-2,2v5.2c0,1.1,0.9,2,2,2h5.2c1.1,0,2-0.9,2-2V116
		C104.4,114.9,103.5,114,102.4,114z"/>
	<path class="st0" d="M115,114h-5.2c-1.1,0-2,0.9-2,2v5.2c0,1.1,0.9,2,2,2h5.2c1.1,0,2-0.9,2-2V116C117,114.9,116.1,114,115,114z"/>
	<path class="st0" d="M90.2,114H85c-1.1,0-2,0.9-2,2v5.2c0,1.1,0.9,2,2,2h5.2c1.1,0,2-0.9,2-2V116C92.2,114.9,91.3,114,90.2,114z"/>
	<path class="st0" d="M109.8,110.9h5.2c1.1,0,2-0.9,2-2v-5.2c0-1.1-0.9-2-2-2h-5.2c-1.1,0-2,0.9-2,2v5.2
		C107.8,110,108.7,110.9,109.8,110.9z"/>
</g>
</svg>
