<?xml version="1.0" encoding="utf-8"?>
<!-- Generator: Adobe Illustrator 21.1.0, SVG Export Plug-In . SVG Version: 6.00 Build 0)  -->
<svg version="1.1" id="Layer_1" xmlns="http://www.w3.org/2000/svg" xmlns:xlink="http://www.w3.org/1999/xlink" x="0px" y="0px"
	 viewBox="0 0 200 200" style="enable-background:new 0 0 200 200;" xml:space="preserve">
<style type="text/css">
	.st0{fill:#404040;}
</style>
<g>
	<path class="st0" d="M104.9,89.5c3,0,5.4-2.4,5.4-5.4s-2.4-5.4-5.4-5.4c-3,0-5.4,2.4-5.4,5.4S101.9,89.5,104.9,89.5z M104.9,82.2
		c1,0,1.8,0.8,1.8,1.8s-0.8,1.8-1.8,1.8c-1,0-1.8-0.8-1.8-1.8S103.9,82.2,104.9,82.2z"/>
	<path class="st0" d="M112.4,92.5c-0.8-0.6-1.9-0.4-2.5,0.4l-2.1,2.8l-3.5-4.3c-0.4-0.5-1-0.7-1.6-0.7c-0.6,0.1-1.1,0.4-1.4,1
		l-5.5,10.6l0,0L87,119c-0.5,0.9-0.1,2,0.8,2.5c0.3,0.1,0.6,0.2,0.8,0.2c0.7,0,1.3-0.4,1.6-1l7.5-14.3l3.9,4.9l0,8.9
		c0,1,0.8,1.8,1.8,1.8c0,0,0,0,0,0c1,0,1.8-0.8,1.8-1.8l0-9.5c0-0.4-0.1-0.8-0.4-1.1l-5.2-6.6l3.7-7.1l3.2,4
		c0.4,0.4,0.9,0.7,1.5,0.7c0.6,0,1.1-0.3,1.4-0.7l3.5-4.7C113.4,94.2,113.3,93.1,112.4,92.5z"/>
	<path class="st0" d="M87.9,98.9c0.3,0.2,0.6,0.3,1,0.3c0.6,0,1.2-0.3,1.5-0.8l2.7-4.2h4.1c1,0,1.8-0.8,1.8-1.8s-0.8-1.8-1.8-1.8
		h-5.1c-0.6,0-1.2,0.3-1.5,0.8l-3.2,5C86.8,97.2,87,98.4,87.9,98.9z"/>
	<path class="st0" d="M100,63.7C80,63.7,63.7,80,63.7,100S80,136.3,100,136.3s36.3-16.3,36.3-36.3S120,63.7,100,63.7z M100,131.5
		c-17.3,0-31.5-14.1-31.5-31.5S82.7,68.5,100,68.5s31.5,14.1,31.5,31.5S117.3,131.5,100,131.5z"/>
</g>
</svg>
