<?xml version="1.0" encoding="utf-8"?>
<!-- Generator: Adobe Illustrator 21.1.0, SVG Export Plug-In . SVG Version: 6.00 Build 0)  -->
<svg version="1.1" id="Layer_1" xmlns="http://www.w3.org/2000/svg" xmlns:xlink="http://www.w3.org/1999/xlink" x="0px" y="0px"
	 viewBox="0 0 200 200" style="enable-background:new 0 0 200 200;" xml:space="preserve">
<style type="text/css">
	.st0{fill:#404040;}
</style>
<g>
	<path class="st0" d="M135.1,80.5c-2.1-5.6-6.6-9.5-13.1-11.2c-6.7-1.8-13-0.3-18.3,4.2c-1.6,1.3-2.8,2.8-3.7,4
		c-0.9-1.2-2.2-2.7-3.7-4C91,69,84.7,67.6,78,69.3c-6.4,1.7-11,5.6-13.1,11.2c-2.8,7.6-0.8,17.2,5.4,26.3
		c10.2,14.8,27.8,23.9,28.5,24.3c0.3,0.2,0.7,0.3,1.1,0.3h0c0.4,0,0.8-0.1,1.1-0.3c0.7-0.4,18.3-9.4,28.5-24.3
		C135.9,97.7,137.9,88.1,135.1,80.5z M125.6,104.1c-8.1,11.8-21.7,19.9-25.6,22.1c-3.9-2.2-17.5-10.3-25.6-22.1
		c-5.3-7.7-7.1-15.9-4.9-21.9c1.5-4.1,4.9-7,9.8-8.2c1.5-0.4,2.9-0.6,4.1-0.6c9.5,0,14.2,9.2,14.4,9.6c0.4,0.8,1.2,1.3,2.2,1.3h0
		c0.9,0,1.8-0.5,2.2-1.3c0.3-0.5,6.4-12.3,18.6-9.1c4.9,1.3,8.2,4.1,9.8,8.2C132.8,88.2,130.9,96.4,125.6,104.1z"/>
	<path class="st0" d="M100,98.9c-1,0-1.8,0.8-1.8,1.8v13.7c0,1,0.8,1.8,1.8,1.8s1.8-0.8,1.8-1.8v-13.7C101.8,99.8,101,98.9,100,98.9
		z"/>
	<circle class="st0" cx="100" cy="93.4" r="2.4"/>
</g>
</svg>
