<?xml version="1.0" encoding="utf-8"?>
<!-- Generator: Adobe Illustrator 21.1.0, SVG Export Plug-In . SVG Version: 6.00 Build 0)  -->
<svg version="1.1" id="Layer_1" xmlns="http://www.w3.org/2000/svg" xmlns:xlink="http://www.w3.org/1999/xlink" x="0px" y="0px"
	 viewBox="0 0 200 200" style="enable-background:new 0 0 200 200;" xml:space="preserve">
<style type="text/css">
	.st0{fill:#404040;}
</style>
<g>
	<path class="st0" d="M125.5,74.2c-6.8-6.7-15.9-10.5-25.5-10.5c-0.1,0-0.2,0-0.3,0c-9.7,0.1-18.8,3.9-25.6,10.8
		c-6.8,6.9-10.5,16-10.4,25.7c0.1,9.7,3.9,18.8,10.8,25.6c7.1,7,16.3,10.4,25.5,10.4c9.4,0,18.8-3.6,25.9-10.8
		C139.9,111.2,139.7,88.2,125.5,74.2z M122.4,122.1c-12.2,12.4-32.1,12.5-44.5,0.3c-6-5.9-9.3-13.8-9.4-22.2
		c-0.1-8.4,3.2-16.3,9.1-22.3s13.8-9.3,22.2-9.4c0.1,0,0.2,0,0.2,0c8.3,0,16.2,3.2,22.1,9.1C134.4,89.8,134.6,109.7,122.4,122.1z"/>
	<path class="st0" d="M103.5,100.1l6.9-7c0.9-1,0.9-2.5,0-3.4c-1-0.9-2.5-0.9-3.4,0l-6.9,7l-7-6.9c-1-0.9-2.5-0.9-3.4,0
		c-0.9,1-0.9,2.5,0,3.4l7,6.9l-6.9,7c-0.9,1-0.9,2.5,0,3.4c0.5,0.5,1.1,0.7,1.7,0.7c0.6,0,1.2-0.2,1.7-0.7l6.9-7l7,6.9
		c0.5,0.5,1.1,0.7,1.7,0.7c0.6,0,1.2-0.2,1.7-0.7c0.9-1,0.9-2.5,0-3.4L103.5,100.1z"/>
</g>
</svg>
