<?xml version="1.0" encoding="utf-8"?>
<!-- Generator: Adobe Illustrator 21.1.0, SVG Export Plug-In . SVG Version: 6.00 Build 0)  -->
<svg version="1.1" id="Layer_1" xmlns="http://www.w3.org/2000/svg" xmlns:xlink="http://www.w3.org/1999/xlink" x="0px" y="0px"
	 viewBox="0 0 200 200" style="enable-background:new 0 0 200 200;" xml:space="preserve">
<style type="text/css">
	.st0{fill:#404040;}
</style>
<g>
	<path class="st0" d="M100,63.7c-0.1,0-0.2,0-0.3,0c-20,0.1-36.2,16.5-36,36.6c0.1,19.9,16.4,36,36.3,36c0.1,0,0.2,0,0.3,0
		c20-0.1,36.2-16.5,36-36.6C136.2,79.8,119.9,63.7,100,63.7z M100.2,131.5c-0.1,0-0.2,0-0.2,0c-17.2,0-31.3-14-31.5-31.2
		c-0.1-17.3,13.9-31.6,31.2-31.7c0.1,0,0.2,0,0.2,0c17.2,0,31.3,14,31.5,31.2C131.6,117.1,117.6,131.3,100.2,131.5z"/>
	<path class="st0" d="M106.9,92.5c0,1.3,1.1,2.4,2.4,2.4s2.4-1.1,2.4-2.4c0-4.8-4-8.7-9.3-9.7v-2.9c0-1.3-1.1-2.4-2.4-2.4
		s-2.4,1.1-2.4,2.4v2.9c-5.3,0.9-9.3,4.9-9.3,9.7c0,4.8,4,8.7,9.3,9.7v10c-2.6-0.7-4.5-2.6-4.5-4.7c0-1.3-1.1-2.4-2.4-2.4
		s-2.4,1.1-2.4,2.4c0,4.8,4,8.7,9.3,9.7v2.9c0,1.3,1.1,2.4,2.4,2.4s2.4-1.1,2.4-2.4v-2.9c5.3-0.9,9.3-4.9,9.3-9.7
		c0-4.8-4-8.7-9.3-9.7v-10C105,88.6,106.9,90.4,106.9,92.5z M93.1,92.5c0-2.1,1.9-4,4.5-4.7v9.4C95,96.5,93.1,94.6,93.1,92.5z
		 M106.9,107.5c0,2.1-1.9,4-4.5,4.7v-9.4C105,103.5,106.9,105.4,106.9,107.5z"/>
</g>
</svg>
