<?xml version="1.0" encoding="utf-8"?>
<!-- Generator: Adobe Illustrator 21.1.0, SVG Export Plug-In . SVG Version: 6.00 Build 0)  -->
<svg version="1.1" id="Layer_1" xmlns="http://www.w3.org/2000/svg" xmlns:xlink="http://www.w3.org/1999/xlink" x="0px" y="0px"
	 viewBox="0 0 200 200" style="enable-background:new 0 0 200 200;" xml:space="preserve">
<style type="text/css">
	.st0{fill:#404040;}
</style>
<g>
	<path class="st0" d="M126.3,78.2h-5.8c-3-8.4-11.1-14.4-20.5-14.4s-17.5,6-20.5,14.4h-5.8c-5.4,0-9.8,4.3-9.8,9.7
		c0,0.1,0,0.2,0,0.3l4.9,38.6c0.1,5.3,4.4,9.5,9.8,9.5h42.9c5.3,0,9.7-4.3,9.8-9.5l4.9-38.6c0-0.1,0-0.2,0-0.3
		C136.1,82.5,131.7,78.2,126.3,78.2z M100,68.6c9.3,0,16.9,7.6,16.9,16.9c0,9.3-7.6,16.9-16.9,16.9s-16.9-7.6-16.9-16.9
		C83.1,76.2,90.7,68.6,100,68.6z M126.4,126.3c0,0.1,0,0.2,0,0.3c0,2.7-2.2,4.8-4.9,4.8h-19.6v-17.1c0-1-0.8-1.8-1.8-1.8
		s-1.8,0.8-1.8,1.8v17.1H78.6c-2.7,0-4.9-2.2-4.9-4.8c0-0.1,0-0.2,0-0.3l-4.9-38.6c0.1-2.6,2.3-4.7,4.9-4.7h4.7
		c-0.1,0.8-0.2,1.7-0.2,2.5c0,12,9.8,21.8,21.8,21.8s21.8-9.8,21.8-21.8c0-0.9-0.1-1.7-0.2-2.5h4.7c2.7,0,4.9,2.1,4.9,4.7
		L126.4,126.3z"/>
	<path class="st0" d="M97.1,84.2c0.1,0.1,0.2,0.2,0.2,0.2c-0.3,0.6-0.4,1.2-0.4,1.9c0,2.4,2,4.4,4.4,4.4c2.4,0,4.4-2,4.4-4.4
		s-2-4.4-4.4-4.4c-0.4,0-0.8,0.1-1.2,0.2c-0.1-0.1-0.1-0.2-0.2-0.3L95.8,77c-0.6-0.8-1.8-0.9-2.6-0.2c-0.8,0.6-0.9,1.8-0.2,2.6
		L97.1,84.2z"/>
</g>
</svg>
