<?xml version="1.0" encoding="utf-8"?>
<!-- Generator: Adobe Illustrator 21.1.0, SVG Export Plug-In . SVG Version: 6.00 Build 0)  -->
<svg version="1.1" id="Layer_1" xmlns="http://www.w3.org/2000/svg" xmlns:xlink="http://www.w3.org/1999/xlink" x="0px" y="0px"
	 viewBox="0 0 200 200" style="enable-background:new 0 0 200 200;" xml:space="preserve">
<style type="text/css">
	.st0{fill:#404040;}
</style>
<g>
	<path class="st0" d="M125.8,100.1c-1.3,0-2.4,1.1-2.4,2.4v12.2c0,1.3,1.1,2.4,2.4,2.4s2.4-1.1,2.4-2.4v-12.2
		C128.3,101.2,127.2,100.1,125.8,100.1z"/>
	<path class="st0" d="M133.7,100.1c-1.3,0-2.4,1.1-2.4,2.4v12.2c0,1.3,1.1,2.4,2.4,2.4s2.4-1.1,2.4-2.4v-12.2
		C136.1,101.2,135,100.1,133.7,100.1z"/>
	<path class="st0" d="M134,95.7c1,0,1.8-0.8,1.8-1.8c0-4.4-1.5-8.4-4.2-11.3c-2.9-3.1-7-4.7-11.8-4.7c-7.8,0-12.4-4.3-12.4-11.4
		c0-1-0.8-1.8-1.8-1.8s-1.8,0.8-1.8,1.8c0,9.1,6.3,15,16,15c3.8,0,7,1.2,9.2,3.6c2.1,2.2,3.2,5.3,3.2,8.8
		C132.1,94.9,133,95.7,134,95.7z"/>
	<path class="st0" d="M125.8,95.7c1,0,1.8-0.8,1.8-1.8c0-4.6-4.1-8-9.6-8l-0.3,0c-2.9,0-9.6,0-14.2-4.5c-3.2-3.2-4.9-8.2-4.9-14.8
		c0-1-0.8-1.8-1.8-1.8s-1.8,0.8-1.8,1.8c0,7.6,2,13.5,5.9,17.4c5.6,5.6,13.7,5.6,16.7,5.6l0.3,0c3.4,0,6,1.9,6,4.4
		C124,94.9,124.8,95.7,125.8,95.7z"/>
	<path class="st0" d="M105.9,117.1h11.6c1.3,0,2.4-1.1,2.4-2.4v-12.2c0-1.3-1.1-2.4-2.4-2.4H88.9L67.6,78.9c-0.7-0.7-1.9-0.7-2.6,0
		c-0.7,0.7-0.7,1.9,0,2.6l18.7,18.7H66.3c-1.3,0-2.4,1.1-2.4,2.4v12.2c0,1.3,1.1,2.4,2.4,2.4h34.4l17.7,17.7
		c0.4,0.4,0.8,0.5,1.3,0.5c0.5,0,0.9-0.2,1.3-0.5c0.7-0.7,0.7-1.9,0-2.6L105.9,117.1z M115,105v7.3h-14l-7.3-7.3H115z M68.8,112.3
		V105h19.8l7.3,7.3H68.8z"/>
</g>
</svg>
