<?xml version="1.0" encoding="utf-8"?>
<!-- Generator: Adobe Illustrator 21.1.0, SVG Export Plug-In . SVG Version: 6.00 Build 0)  -->
<svg version="1.1" id="Layer_1" xmlns="http://www.w3.org/2000/svg" xmlns:xlink="http://www.w3.org/1999/xlink" x="0px" y="0px"
	 viewBox="0 0 200 200" style="enable-background:new 0 0 200 200;" xml:space="preserve">
<style type="text/css">
	.st0{fill:#404040;}
</style>
<g>
	<path class="st0" d="M120.1,74.8V73c0-2.8-2.3-5.1-5.1-5.1h-0.2l-32.9,6.4c-0.4,0-0.8,0.1-1.2,0.2c-1.7,0.2-3.2,1.3-3.9,2.8
		c-0.7,1.1-1.1,2.4-1.1,3.8v44.2c0,3.7,3,6.8,6.8,6.8h35.1c3.7,0,6.8-3,6.8-6.8V81.1C124.3,78.3,122.6,75.8,120.1,74.8z M115.2,71.6
		c0.7,0.1,1.3,0.7,1.3,1.4v1.3h-15.3L115.2,71.6z M119.5,125.3c0,1.1-0.9,1.9-1.9,1.9H82.4c-1.1,0-1.9-0.9-1.9-1.9V81.1
		c0-0.7,0.4-1.3,1-1.7l3.3-0.3h32.8c1.1,0,1.9,0.9,1.9,1.9V125.3z"/>
	<path class="st0" d="M92.9,89.8c1.2,0.1,1.7,0.2,2.8,0c-0.9,1.3-2.5,3.9-2.7,5.5c-0.1,1.1-0.1,2.7,0.8,3.5c1.5,1,3,0.3,4.3-0.6
		c0.4,0.5,0.9,0.9,1.5,1c3.8,0.7,6.6-3,8.4-6.2c0.7-1.3,1.8-4.6,0.6-5.9c-1.1-1.2-2,0.4-2.6,0.9l0.5,0.6c1,1.3,0.1,3.7-0.4,5
		c-0.9,1.6-2.6,4-4.6,3.7c-0.4-0.1-0.8-0.5-0.9-1c1.1-1.1,2.3-2.9,3.1-4.2c0.6-1,1.6-3,0.7-3.8c-0.8-0.6-2.4,0.2-3.2,1
		c-0.5,0.5-0.9,0.9-1.3,1.4c-1.1,1.5-2.1,4.1-2,6c-0.5,0.4-1.1,0.8-1.8,0.6c-0.7-0.2-0.8-0.8-0.9-1.2c-0.5-2.8,2.4-6.5,4-8.5
		c0,0-1.3,0.3-2.2,0.4c-2.1,0.1-3.7-0.9-4.8,0.5c-0.3,0.5-0.5,1-0.6,1.7C91.5,89.7,92.2,89.8,92.9,89.8z M100.7,91.5
		c0.3-0.4,0.9-1.1,1.3-1.3c0.4-0.2,0.3,0.4,0.3,0.4c-0.1,0.7-0.5,1.5-0.9,2.1c-0.4,0.6-1.6,2.1-2.2,2.5
		C99.3,94.2,100.2,92.2,100.7,91.5z"/>
	<path class="st0" d="M112.9,106.3H86.6c-1,0-1.8,0.8-1.8,1.8s0.8,1.8,1.8,1.8h26.3c1,0,1.8-0.8,1.8-1.8S113.9,106.3,112.9,106.3z"
		/>
	<path class="st0" d="M105.6,112.8h-19c-1,0-1.8,0.8-1.8,1.8s0.8,1.8,1.8,1.8h19c1,0,1.8-0.8,1.8-1.8S106.6,112.8,105.6,112.8z"/>
</g>
</svg>
