<?xml version="1.0" encoding="utf-8"?>
<!-- Generator: Adobe Illustrator 21.1.0, SVG Export Plug-In . SVG Version: 6.00 Build 0)  -->
<svg version="1.1" id="Layer_1" xmlns="http://www.w3.org/2000/svg" xmlns:xlink="http://www.w3.org/1999/xlink" x="0px" y="0px"
	 viewBox="0 0 200 200" style="enable-background:new 0 0 200 200;" xml:space="preserve">
<style type="text/css">
	.st0{fill:#404040;}
</style>
<g>
	<path class="st0" d="M85.8,89.4c-3.1,0-5.7,2.6-5.7,5.7s2.6,5.7,5.7,5.7s5.7-2.6,5.7-5.7S89,89.4,85.8,89.4z M85.8,97.2
		c-1.1,0-2.1-0.9-2.1-2.1s0.9-2.1,2.1-2.1s2.1,0.9,2.1,2.1S87,97.2,85.8,97.2z"/>
	<path class="st0" d="M114.2,89.4c-3.1,0-5.7,2.6-5.7,5.7s2.6,5.7,5.7,5.7s5.7-2.6,5.7-5.7S117.3,89.4,114.2,89.4z M114.2,97.2
		c-1.1,0-2.1-0.9-2.1-2.1s0.9-2.1,2.1-2.1c1.1,0,2.1,0.9,2.1,2.1S115.3,97.2,114.2,97.2z"/>
	<path class="st0" d="M100.3,89.4c-3.1,0-5.7,2.6-5.7,5.7s2.6,5.7,5.7,5.7s5.7-2.6,5.7-5.7S103.5,89.4,100.3,89.4z M100.3,97.2
		c-1.1,0-2.1-0.9-2.1-2.1s0.9-2.1,2.1-2.1s2.1,0.9,2.1,2.1S101.5,97.2,100.3,97.2z"/>
	<path class="st0" d="M126.8,66.4H73.2c-5.1,0-9.2,4.1-9.2,9.2v36.5c0,5.1,4.1,9.2,9.2,9.2H95l19.2,11.8c0.4,0.2,0.8,0.4,1.3,0.4
		c0.4,0,0.8-0.1,1.2-0.3c0.8-0.4,1.2-1.2,1.2-2.1l0-9.7h8.9c5.1,0,9.2-4.1,9.2-9.2V75.7C136.1,70.6,131.9,66.4,126.8,66.4z
		 M131.2,112.2c0,2.4-2,4.4-4.4,4.4h-11.3c-0.6,0-1.3,0.3-1.7,0.7c-0.5,0.5-0.7,1.1-0.7,1.7l0,7.8l-16.1-9.9
		c-0.4-0.2-0.8-0.4-1.3-0.4H73.2c-2.4,0-4.4-2-4.4-4.4V75.7c0-2.4,2-4.4,4.4-4.4h53.7c2.4,0,4.4,2,4.4,4.4V112.2z"/>
</g>
</svg>
