<?xml version="1.0" encoding="utf-8"?>
<!-- Generator: Adobe Illustrator 21.1.0, SVG Export Plug-In . SVG Version: 6.00 Build 0)  -->
<svg version="1.1" id="Layer_1" xmlns="http://www.w3.org/2000/svg" xmlns:xlink="http://www.w3.org/1999/xlink" x="0px" y="0px"
	 viewBox="0 0 200 200" style="enable-background:new 0 0 200 200;" xml:space="preserve">
<style type="text/css">
	.st0{fill:#404040;}
</style>
<g>
	<path class="st0" d="M100,136.3c-19.9,0-36.2-16.1-36.3-36c-0.1-20,16-36.4,36-36.6c0.1,0,0.2,0,0.3,0c19.9,0,36.2,16.1,36.3,36
		l0,0c0.1,20-16,36.4-36,36.6C100.2,136.3,100.1,136.3,100,136.3z M100,68.5c-0.1,0-0.2,0-0.2,0c-17.3,0.1-31.4,14.3-31.2,31.7
		c0.1,17.3,14.2,31.2,31.5,31.2c0.1,0,0.2,0,0.2,0c17.3-0.1,31.4-14.3,31.2-31.7l0,0C131.3,82.5,117.2,68.5,100,68.5z"/>
	<g>
		<path class="st0" d="M87.9,102.5c-1.3,0-2.4-1.1-2.4-2.4c0-1.3,1.1-2.4,2.4-2.4l24.5-0.2c0,0,0,0,0,0c1.3,0,2.4,1.1,2.4,2.4
			c0,1.3-1.1,2.4-2.4,2.4L87.9,102.5C87.9,102.5,87.9,102.5,87.9,102.5z"/>
	</g>
</g>
</svg>
