<?xml version="1.0" encoding="utf-8"?>
<!-- Generator: Adobe Illustrator 21.1.0, SVG Export Plug-In . SVG Version: 6.00 Build 0)  -->
<svg version="1.1" id="Layer_1" xmlns="http://www.w3.org/2000/svg" xmlns:xlink="http://www.w3.org/1999/xlink" x="0px" y="0px"
	 viewBox="0 0 200 200" style="enable-background:new 0 0 200 200;" xml:space="preserve">
<style type="text/css">
	.st0{fill:#404040;}
</style>
<path class="st0" d="M120.3,95.4V75.9c0-1.2-0.9-2.2-2-2.4l-29.8-4.9c-0.1,0-0.1,0-0.2,0c-0.1,0-0.1,0-0.2,0c0,0,0,0,0,0
	c-0.1,0-0.2,0-0.3,0c-0.1,0-0.1,0-0.2,0c0,0,0,0,0,0L66,73.6c-1.1,0.3-1.9,1.2-1.9,2.4v35.9c0,1.1,0.7,2,1.8,2.3l21.6,6.1
	c0,0,0,0,0.1,0c0.2,0,0.4,0.1,0.6,0.1c0.1,0,0.3,0,0.4,0l14.2-2.6c0.1,0,0.2,0,0.2,0c1.3-0.2,2.2-1.4,2-2.8l0,0
	c-0.1-0.9-0.1-1.9-0.1-2.8c0.6-7.2,6.9-12.5,14.1-11.9c7.2,0.6,12.5,6.9,11.9,14.1s-6.9,12.5-14.1,11.9c-1.7-0.1-3.3-0.6-4.8-1.4
	l0.6-0.1c1-0.2,1.6-1.1,1.4-2.1c-0.2-1-1.1-1.6-2.1-1.4l-5.6,1.1c-0.1,0-0.2,0.1-0.4,0.1c-0.7,0.3-1.1,0.9-1.1,1.6
	c0,0.1,0,0.2,0,0.4c0,0,0,0,0,0l1.1,5.6c0.2,0.9,0.9,1.5,1.8,1.5c0.1,0,0.2,0,0.3,0c1-0.2,1.6-1.1,1.4-2.1l-0.1-0.3
	c2.2,1.2,4.5,1.9,7,2.1c0.5,0,1,0.1,1.5,0.1c9.2,0,17-7.1,17.8-16.4C136.6,105.1,129.7,96.7,120.3,95.4z M69,77.9L85.7,74v40.6
	L69,110V77.9z M100.1,111.7c0,0.5,0,1.1,0,1.6l-9.6,1.7V73.9l25,4.1v17.5C107.4,96.6,100.8,103.2,100.1,111.7z"/>
</svg>
