<?xml version="1.0" encoding="utf-8"?>
<!-- Generator: Adobe Illustrator 21.1.0, SVG Export Plug-In . SVG Version: 6.00 Build 0)  -->
<svg version="1.1" id="Layer_1" xmlns="http://www.w3.org/2000/svg" xmlns:xlink="http://www.w3.org/1999/xlink" x="0px" y="0px"
	 viewBox="0 0 200 200" style="enable-background:new 0 0 200 200;" xml:space="preserve">
<style type="text/css">
	.st0{fill:#404040;}
</style>
<g>
	<path class="st0" d="M130.9,91.6c-0.3,0-0.6-0.1-0.9-0.2l-4.4-2.3l-4.4,2.3c-0.6,0.3-1.4,0.3-1.9-0.1c-0.6-0.4-0.8-1.1-0.7-1.8
		l0.9-4.9L116,81c-0.5-0.5-0.7-1.2-0.5-1.9c0.2-0.7,0.8-1.1,1.5-1.2l4.9-0.7l2.2-4.4c0.3-0.6,0.9-1,1.6-1c0.7,0,1.3,0.4,1.6,1
		l2.2,4.5l4.9,0.7c0.7,0.1,1.2,0.6,1.5,1.2c0.2,0.7,0,1.4-0.5,1.9l-3.6,3.4l0.8,4.9c0.1,0.7-0.2,1.4-0.7,1.8
		C131.6,91.4,131.3,91.6,130.9,91.6z M125.7,85.2c0.3,0,0.6,0.1,0.9,0.2l2,1l-0.4-2.2c-0.1-0.6,0.1-1.2,0.5-1.6l1.6-1.6l-2.2-0.3
		c-0.6-0.1-1.1-0.5-1.4-1l-1-2l-1,2c-0.3,0.5-0.8,0.9-1.4,1l-2.2,0.3l1.6,1.6c0.4,0.4,0.6,1,0.5,1.6l-0.4,2.2l2-1
		C125.1,85.2,125.4,85.2,125.7,85.2z"/>
	<path class="st0" d="M114,109.2c-0.4,0-0.9-0.2-1.2-0.4l-2.4-2.1l-3.1,0.8c-0.7,0.2-1.4,0-1.8-0.6c-0.5-0.5-0.6-1.3-0.3-1.9
		l1.2-2.9l-1.7-2.7c-0.4-0.6-0.4-1.3,0-1.9c0.4-0.6,1-0.9,1.7-0.9l3.2,0.3l2-2.5c0.4-0.5,1.1-0.8,1.8-0.6c0.7,0.2,1.2,0.7,1.4,1.4
		l0.7,3.1l3,1.2c0.6,0.3,1.1,0.8,1.1,1.5c0.1,0.7-0.3,1.4-0.9,1.7l-2.7,1.6l-0.2,3.2c0,0.7-0.5,1.3-1.1,1.6
		C114.5,109.1,114.3,109.2,114,109.2z M110.9,102.8c0.4,0,0.9,0.2,1.2,0.4l0.3,0.3l0-0.5c0-0.6,0.4-1.1,0.9-1.4l0.4-0.2l-0.4-0.2
		c-0.6-0.2-1-0.7-1.1-1.3l-0.1-0.4l-0.3,0.4c-0.4,0.5-1,0.7-1.6,0.7l-0.5,0l0.2,0.4c0.3,0.5,0.4,1.1,0.1,1.7L110,103l0.4-0.1
		C110.6,102.8,110.7,102.8,110.9,102.8z"/>
	<path class="st0" d="M98.7,85c-0.2,0-0.5,0-0.7-0.1c-0.6-0.3-1.1-0.9-1.1-1.6l-0.2-3.5l-3-1.8c-0.6-0.4-0.9-1-0.9-1.7
		c0.1-0.7,0.5-1.3,1.1-1.5l3.3-1.3l0.8-3.4c0.2-0.7,0.7-1.2,1.3-1.4c0.7-0.2,1.4,0.1,1.8,0.6l2.2,2.7l3.5-0.3
		c0.7-0.1,1.4,0.3,1.7,0.9c0.4,0.6,0.4,1.3,0,1.9l-1.9,3l1.4,3.2c0.3,0.6,0.2,1.4-0.3,1.9c-0.4,0.5-1.2,0.7-1.8,0.6l-3.4-0.9
		l-2.6,2.3C99.5,84.9,99.1,85,98.7,85z M98.7,76.8l0.7,0.4c0.5,0.3,0.8,0.8,0.9,1.4l0,0.8l0.6-0.5c0.5-0.4,1.1-0.5,1.6-0.4l0.8,0.2
		l-0.3-0.7c-0.2-0.5-0.2-1.2,0.1-1.7l0.4-0.7l-0.8,0.1c-0.6,0.1-1.2-0.2-1.6-0.6l-0.5-0.6l-0.2,0.8c-0.1,0.6-0.5,1.1-1.1,1.3
		L98.7,76.8z"/>
	<path class="st0" d="M103,136c-21.5,0-39-17.5-39-39c0-13.2,6.6-25.4,17.7-32.7c0.9-0.6,2.1-0.5,2.9,0.2c0.8,0.7,1.1,1.9,0.6,2.8
		l0,0c-1.9,4.7-2.8,9.6-2.8,14.7c0,21.8,17.8,39.6,39.6,39.6c1.9,0,3.8-0.1,5.7-0.4c0.7-0.1,1.4,0.1,1.9,0.6
		c0.5,0.5,0.8,1.1,0.8,1.8c0,0.7-0.3,1.3-0.8,1.8C122.5,132.3,113,136,103,136z M78.5,73.3C72.3,79.6,68.9,88,68.9,97
		c0,18.8,15.3,34.2,34.2,34.2c6.1,0,12.1-1.6,17.3-4.7c-23.7-0.9-42.7-20.5-42.7-44.4C77.6,79.1,77.9,76.2,78.5,73.3z"/>
</g>
</svg>
