<?xml version="1.0" encoding="utf-8"?>
<!-- Generator: Adobe Illustrator 21.1.0, SVG Export Plug-In . SVG Version: 6.00 Build 0)  -->
<svg version="1.1" id="Layer_1" xmlns="http://www.w3.org/2000/svg" xmlns:xlink="http://www.w3.org/1999/xlink" x="0px" y="0px"
	 viewBox="0 0 200 200" style="enable-background:new 0 0 200 200;" xml:space="preserve">
<style type="text/css">
	.st0{fill:#404040;}
</style>
<path class="st0" d="M107.4,135.9c-0.5,0-1-0.1-1.5-0.3l-14.8-5.9c-1.6-0.6-2.6-2.1-2.6-3.8v-20.2c0-1.3-0.6-2.6-1.5-3.5L67.1,83.7
	c-2-1.8-3.1-4.4-3.1-7.1v-6.3c0-3.5,2.8-6.3,6.3-6.3h59.3c3.5,0,6.3,2.8,6.3,6.3v6.3c0,2.7-1.1,5.3-3.1,7.1l-19.8,18.4
	c-1,0.9-1.5,2.2-1.5,3.5v26.1c0,1.4-0.7,2.7-1.8,3.4C109,135.7,108.2,135.9,107.4,135.9z M93.3,125.4l13.4,5.3v-25.1
	c0-2.7,1.1-5.3,3.1-7.1l19.8-18.4c1-0.9,1.5-2.2,1.5-3.5v-6.3c0-0.8-0.6-1.4-1.4-1.4H70.4c-0.8,0-1.4,0.6-1.4,1.4v6.3
	c0,1.3,0.6,2.6,1.5,3.5l19.8,18.4c2,1.8,3.1,4.4,3.1,7.1V125.4z"/>
</svg>
