<?xml version="1.0" encoding="utf-8"?>
<!-- Generator: Adobe Illustrator 21.1.0, SVG Export Plug-In . SVG Version: 6.00 Build 0)  -->
<svg version="1.1" id="Layer_1" xmlns="http://www.w3.org/2000/svg" xmlns:xlink="http://www.w3.org/1999/xlink" x="0px" y="0px"
	 viewBox="0 0 200 200" style="enable-background:new 0 0 200 200;" xml:space="preserve">
<style type="text/css">
	.st0{fill:#404040;}
</style>
<g>
	<path class="st0" d="M126.6,63.8H73.4c-5.3,0-9.7,4.3-9.7,9.7v40.8c0,5.3,4.3,9.7,9.7,9.7h19.3l-2.6,7.4h-5.5
		c-1.3,0-2.4,1.1-2.4,2.4s1.1,2.4,2.4,2.4h30.8c1.3,0,2.4-1.1,2.4-2.4s-1.1-2.4-2.4-2.4h-5.5l-2.6-7.4h19.3c5.3,0,9.7-4.3,9.7-9.7
		V73.5C136.3,68.2,132,63.8,126.6,63.8z M95.3,131.3l2.3-6.7h4.8l2.3,6.7H95.3z M73.4,68.7h53.3c2.7,0,4.8,2.2,4.8,4.8v29.4H68.5
		V73.5C68.5,70.8,70.7,68.7,73.4,68.7z M126.6,119.1H73.4c-2.7,0-4.8-2.2-4.8-4.8v-7.8h62.9v7.8C131.5,117,129.3,119.1,126.6,119.1z
		"/>
	<circle class="st0" cx="100" cy="112.7" r="3"/>
</g>
</svg>
