<?xml version="1.0" encoding="utf-8"?>
<!-- Generator: Adobe Illustrator 21.1.0, SVG Export Plug-In . SVG Version: 6.00 Build 0)  -->
<svg version="1.1" id="Layer_1" xmlns="http://www.w3.org/2000/svg" xmlns:xlink="http://www.w3.org/1999/xlink" x="0px" y="0px"
	 viewBox="0 0 200 200" style="enable-background:new 0 0 200 200;" xml:space="preserve">
<style type="text/css">
	.st0{fill:#404040;}
</style>
<g>
	<path class="st0" d="M95.4,101.6l6.6-12.6l5.7,7.1c0.5,0.6,1.2,0.9,1.9,0.9c0,0,0,0,0,0l5.6-0.1c1.3,0,2.4-1.1,2.4-2.5
		c0-1.3-1.1-2.4-2.4-2.4c0,0,0,0,0,0l-4.5,0.1l-7.3-9.1c-0.5-0.6-1.3-1-2.1-0.9c-0.8,0.1-1.5,0.6-1.9,1.3l-9,17.2
		c-0.4,0.8-0.3,1.9,0.2,2.6l8.8,11.1l-5.1,9.9c-0.6,1.2-0.1,2.6,1.1,3.3c0.4,0.2,0.7,0.3,1.1,0.3c0.9,0,1.7-0.5,2.2-1.3l5.8-11.3
		c0.4-0.8,0.3-1.9-0.3-2.6L95.4,101.6z"/>
	<path class="st0" d="M78.2,107.1c-8,0-14.5,6.5-14.5,14.5c0,8,6.5,14.5,14.5,14.5c8,0,14.5-6.5,14.5-14.5
		C92.7,113.6,86.2,107.1,78.2,107.1z M78.2,131.2c-5.3,0-9.7-4.3-9.7-9.7c0-5.3,4.3-9.7,9.7-9.7c5.3,0,9.7,4.3,9.7,9.7
		C87.8,126.9,83.5,131.2,78.2,131.2z"/>
	<path class="st0" d="M121.8,107.1c-8,0-14.5,6.5-14.5,14.5c0,8,6.5,14.5,14.5,14.5c8,0,14.5-6.5,14.5-14.5
		C136.3,113.6,129.8,107.1,121.8,107.1z M121.8,131.2c-5.3,0-9.7-4.3-9.7-9.7c0-5.3,4.3-9.7,9.7-9.7c5.3,0,9.7,4.3,9.7,9.7
		C131.5,126.9,127.2,131.2,121.8,131.2z"/>
	<path class="st0" d="M105,80.1c4.5,0,8.1-3.6,8.1-8.1s-3.6-8.1-8.1-8.1s-8.1,3.6-8.1,8.1S100.5,80.1,105,80.1z M105,67.6
		c2.5,0,4.5,2,4.5,4.5c0,2.5-2,4.5-4.5,4.5s-4.5-2-4.5-4.5C100.5,69.6,102.5,67.6,105,67.6z"/>
</g>
</svg>
