<?xml version="1.0" encoding="utf-8"?>
<!-- Generator: Adobe Illustrator 21.1.0, SVG Export Plug-In . SVG Version: 6.00 Build 0)  -->
<svg version="1.1" id="Layer_1" xmlns="http://www.w3.org/2000/svg" xmlns:xlink="http://www.w3.org/1999/xlink" x="0px" y="0px"
	 viewBox="0 0 200 200" style="enable-background:new 0 0 200 200;" xml:space="preserve">
<style type="text/css">
	.st0{fill:#404040;}
</style>
<g>
	<path class="st0" d="M102.5,111.3c-4.6,0-8.3,3.7-8.3,8.3c0,4.6,3.7,8.3,8.3,8.3s8.3-3.7,8.3-8.3C110.7,115,107,111.3,102.5,111.3z
		 M102.5,124.2c-2.6,0-4.6-2.1-4.6-4.6s2.1-4.6,4.6-4.6c2.6,0,4.6,2.1,4.6,4.6S105,124.2,102.5,124.2z"/>
	<path class="st0" d="M116.5,74.1c-3.4,0-6.2,2.8-6.2,6.2s2.8,6.2,6.2,6.2c3.4,0,6.2-2.8,6.2-6.2S119.9,74.1,116.5,74.1z M116.5,83
		c-1.4,0-2.6-1.2-2.6-2.6s1.2-2.6,2.6-2.6c1.4,0,2.6,1.2,2.6,2.6S117.9,83,116.5,83z"/>
	<path class="st0" d="M101.5,85.3c3.1,0,5.7-2.5,5.7-5.7s-2.5-5.7-5.7-5.7s-5.7,2.5-5.7,5.7S98.4,85.3,101.5,85.3z M101.5,77.6
		c1.1,0,2,0.9,2,2s-0.9,2-2,2s-2-0.9-2-2S100.4,77.6,101.5,77.6z"/>
	<path class="st0" d="M88.6,82.3c-2.8,0-5.1,2.3-5.1,5.1c0,2.8,2.3,5.1,5.1,5.1c2.8,0,5.1-2.3,5.1-5.1
		C93.7,84.6,91.4,82.3,88.6,82.3z M88.6,89c-0.8,0-1.5-0.7-1.5-1.5c0-0.8,0.7-1.5,1.5-1.5c0.8,0,1.5,0.7,1.5,1.5
		C90.1,88.3,89.4,89,88.6,89z"/>
	<path class="st0" d="M80.2,93.5c-2.5,0-4.6,2.1-4.6,4.6s2.1,4.6,4.6,4.6s4.6-2.1,4.6-4.6S82.7,93.5,80.2,93.5z M80.2,99
		c-0.5,0-1-0.4-1-1s0.4-1,1-1s1,0.4,1,1S80.7,99,80.2,99z"/>
	<path class="st0" d="M128.3,71.8c-4.7-5.1-11.2-7.9-18.3-7.9c-19.1,0-30.5,10.4-36.7,19.1c-7.1,10.1-9.5,20.9-9.5,24.3
		c0,7,4,11.4,10.4,11.4c4.1,0,7-1.6,9.3-2.9c1.4-0.8,2.3-1.3,3.1-1.4c-0.1,0.2-0.1,0.4-0.2,0.5c-0.5,1.5-1.2,3.7-1.2,6.1
		c0,2,0.4,6,3,9.4c1.9,2.6,5.8,5.6,13.2,5.6c8.5,0,17.2-4.3,23.9-11.8c7-7.9,10.8-18.1,10.8-28.8C136.2,85.6,133.5,77.4,128.3,71.8z
		 M121.8,121c-5.8,6.5-13.2,10.2-20.3,10.2c-4.4,0-7.5-1.2-9.4-3.7c-1.8-2.4-2-5.3-2-6.5c0-1.7,0.5-3.3,0.9-4.7
		c0.3-1.1,0.6-2,0.7-2.9c0.1-1.7-0.8-3.1-2.4-3.6c-0.8-0.3-1.5-0.4-2.2-0.4c-2.2,0-4.2,1.1-6,2.1c-2,1.1-4.2,2.3-7,2.3
		c-3.7,0-5.6-2.2-5.6-6.6c0-1.4,0.6-4.5,1.9-8.3c1.1-3.3,3.2-8.2,6.7-13.2c3.6-5.1,7.8-9.1,12.7-11.9c5.9-3.4,12.6-5.2,20-5.2
		c5.8,0,11,2.2,14.8,6.3c4.3,4.7,6.6,11.7,6.6,20.3C131.4,105,128,114.1,121.8,121z"/>
</g>
</svg>
