<?xml version="1.0" encoding="utf-8"?>
<!-- Generator: Adobe Illustrator 21.1.0, SVG Export Plug-In . SVG Version: 6.00 Build 0)  -->
<svg version="1.1" id="Layer_1" xmlns="http://www.w3.org/2000/svg" xmlns:xlink="http://www.w3.org/1999/xlink" x="0px" y="0px"
	 viewBox="0 0 200 200" style="enable-background:new 0 0 200 200;" xml:space="preserve">
<style type="text/css">
	.st0{fill:#404040;}
</style>
<path class="st0" d="M126.7,63.9H73.3c-1.3,0-2.4,1.1-2.4,2.4v18.4c0,1.3,1.1,2.4,2.4,2.4h2.3v39.4c0,5.3,4.3,9.7,9.7,9.7h29.5
	c5.3,0,9.7-4.3,9.7-9.7V87.1h2.3c1.3,0,2.4-1.1,2.4-2.4V66.3C129.2,65,128.1,63.9,126.7,63.9z M75.7,68.7h48.6v13.6H75.7V68.7z
	 M119.6,118.1H94.2V99.9h25.4V118.1z M119.6,96.3H92.4c-1,0-1.8,0.8-1.8,1.8v21.8c0,1,0.8,1.8,1.8,1.8h27.2v4.8
	c0,2.7-2.2,4.8-4.8,4.8H85.3c-2.7,0-4.8-2.2-4.8-4.8V87.1h39.2V96.3z"/>
</svg>
