<?xml version="1.0" encoding="utf-8"?>
<!-- Generator: Adobe Illustrator 21.1.0, SVG Export Plug-In . SVG Version: 6.00 Build 0)  -->
<svg version="1.1" id="Layer_1" xmlns="http://www.w3.org/2000/svg" xmlns:xlink="http://www.w3.org/1999/xlink" x="0px" y="0px"
	 viewBox="0 0 200 200" style="enable-background:new 0 0 200 200;" xml:space="preserve">
<style type="text/css">
	.st0{fill:#404040;}
</style>
<g id="Outline">
	<path class="st0" d="M98.4,109.8c0.9,0.9,2.4,0.9,3.3,0l7-6.6c0.9-0.9,0.9-2.4,0-3.4c-0.9-0.9-2.3-0.9-3.3-0.1l-3,2.8V69.4
		c0-1.3-1.1-2.4-2.4-2.4s-2.4,1.1-2.4,2.4v33.2l-3-2.8c-1-0.9-2.5-0.8-3.4,0.2c-0.9,0.9-0.8,2.4,0.1,3.3L98.4,109.8z"/>
	<path class="st0" d="M133.6,113.4c-1.3,0-2.4,1.1-2.4,2.4v6.3c0,3.4-2.7,6.1-6.1,6.1H74.8c-3.4,0-6.1-2.7-6.1-6.1v-6.3
		c0-1.3-1.1-2.4-2.4-2.4s-2.4,1.1-2.4,2.4v6.3c0,6,4.9,10.8,10.9,10.8h50.3c6,0,10.8-4.9,10.9-10.8v-6.3
		C136,114.5,134.9,113.4,133.6,113.4C133.6,113.4,133.6,113.4,133.6,113.4z"/>
</g>
</svg>
