<?xml version="1.0" encoding="utf-8"?>
<!-- Generator: Adobe Illustrator 21.1.0, SVG Export Plug-In . SVG Version: 6.00 Build 0)  -->
<svg version="1.1" id="Layer_1" xmlns="http://www.w3.org/2000/svg" xmlns:xlink="http://www.w3.org/1999/xlink" x="0px" y="0px"
	 viewBox="0 0 200 200" style="enable-background:new 0 0 200 200;" xml:space="preserve">
<style type="text/css">
	.st0{fill:#404040;}
</style>
<g>
	<path class="st0" d="M119.2,71.3h-7.3c-0.6-1.4-1.5-2.7-2.6-3.8c-2.4-2.4-5.7-3.7-9.1-3.7c0,0-0.1,0-0.1,0c-3.5,0-6.7,1.4-9.1,3.9
		c-1.1,1.1-1.9,2.3-2.5,3.6h-7.6c-5.3,0-9.7,4.3-9.7,9.7v45.5c0,5.3,4.3,9.7,9.7,9.7h38.4c5.3,0,9.7-4.3,9.7-9.7V81
		C128.9,75.7,124.6,71.3,119.2,71.3z M114.5,115H97.9l9.3-25.4h0.2c1.8,0,3.7,2.2,5.1,6.1c0.9,2.5,1.5,5.2,1.9,7.6V115z M100.2,89.7
		C100.2,89.7,100.2,89.7,100.2,89.7c0.6,0,1.1,0,1.5-0.1h1.7l-3.2,8.7L97,89.6h1.7C99.2,89.6,99.7,89.7,100.2,89.7z M93.1,89.6
		l4.9,13.3c0.1,0.2,0.2,0.3,0.3,0.5L94.1,115h-8.5v-7.8c0-2.8,0.7-7.4,2.2-11.4c1.5-3.9,3.3-6.1,5.1-6.1H93.1z M93.5,70.2
		c1.7-1.8,4.1-2.8,6.6-2.8c0,0,0,0,0.1,0c2.5,0,4.8,0.9,6.5,2.7c1.8,1.7,2.8,4.1,2.8,6.6c0,2.5-0.9,4.8-2.7,6.6
		c-1.7,1.8-4.1,2.8-6.6,2.8c0,0,0,0-0.1,0c-5.1,0-9.3-4.1-9.3-9.2C90.8,74.3,91.8,72,93.5,70.2z M124.1,126.5c0,2.7-2.2,4.8-4.8,4.8
		H80.8c-2.7,0-4.8-2.2-4.8-4.8V81c0-2.7,2.2-4.8,4.8-4.8h6.5c0,0.2,0,0.5,0,0.7c0,1.5,0.3,3,0.8,4.4h-4.3c-1,0-1.8,0.8-1.8,1.8v34.1
		c0,1,0.8,1.8,1.8,1.8h32.6c0.6,0,1.2-0.3,1.5-0.8c0.4-0.3,0.6-0.8,0.6-1.3v-9.6c0-1.1-0.1-2.5-0.3-4V83c0-1-0.8-1.8-1.8-1.8h-4
		c0.5-1.4,0.8-3,0.8-4.6c0-0.2,0-0.3,0-0.5h6.2c2.7,0,4.8,2.2,4.8,4.8V126.5z"/>
	<circle class="st0" cx="100" cy="125.2" r="2.7"/>
	<path class="st0" d="M110.4,103h-4.3c-1,0-1.8,0.8-1.8,1.8s0.8,1.8,1.8,1.8h4.3c1,0,1.8-0.8,1.8-1.8S111.4,103,110.4,103z"/>
</g>
</svg>
