<?xml version="1.0" encoding="utf-8"?>
<!-- Generator: Adobe Illustrator 21.1.0, SVG Export Plug-In . SVG Version: 6.00 Build 0)  -->
<svg version="1.1" id="Layer_1" xmlns="http://www.w3.org/2000/svg" xmlns:xlink="http://www.w3.org/1999/xlink" x="0px" y="0px"
	 viewBox="0 0 200 200" style="enable-background:new 0 0 200 200;" xml:space="preserve">
<style type="text/css">
	.st0{fill:#404040;}
</style>
<path class="st0" d="M131.9,79.1c-0.6-5.5-4.6-12.6-10.8-14.8c-2.3-0.8-7.3-1.7-14.9,1.1c-1,0.4-1.7,0.7-2.4,1.1
	c-1.3,0.7-2.1,1-3.9,1c-1.8,0-2.6-0.4-3.9-1c-0.7-0.3-1.4-0.7-2.4-1.1c-7.7-2.8-12.6-1.9-14.9-1.1c-6.1,2.2-10.1,9.2-10.8,14.8
	c-0.8,6.6,1.9,12.2,4.5,17.5c1.5,3.1,3,6.1,3.7,9.2c0.4,1.5,0.7,3.1,1,4.6c1.3,6.3,2.6,12.8,6.5,18.7c4.6,7,7.6,7.3,8.7,7.3
	c0.1,0,0.1,0,0.2,0c1.7,0,2.7-0.8,3.3-1.5c1.8-2.2,1.2-5.6,0.6-9.6c-0.2-1.1-0.4-2.3-0.5-3.4c-0.6-5.6,0.3-10.7,2.3-12.9
	c0.7-0.8,1.4-0.9,1.8-0.9s1.1,0.1,1.8,0.9c1.9,2.1,2.8,7.3,2.3,12.9c-0.1,1-0.3,2.2-0.5,3.4c-0.7,4-1.2,7.4,0.6,9.6
	c0.6,0.7,1.6,1.5,3.3,1.5c1,0,4,0.1,8.9-7.3c3.9-5.9,5.2-12.4,6.5-18.7c0.3-1.5,0.6-3.1,1-4.6c0.7-3.1,2.1-6.1,3.7-9.2
	C130,91.3,132.7,85.8,131.9,79.1z M122.9,94.4c-1.6,3.3-3.2,6.6-4,10.3c-0.4,1.6-0.7,3.2-1,4.7c-1.2,6.1-2.4,11.9-5.8,16.9
	c-1.9,2.9-3.3,4.2-4,4.7c0-1.2,0.3-3.5,0.6-4.9c0.2-1.2,0.4-2.5,0.5-3.7c0.4-3.3,0.3-6.6-0.3-9.4c-0.6-3.2-1.7-5.7-3.3-7.4
	c-1.5-1.7-3.5-2.6-5.6-2.6c-2.1,0-4.1,0.9-5.6,2.6c-1.6,1.7-2.6,4.2-3.3,7.4c-0.5,2.8-0.6,6.1-0.3,9.4c0.1,1.2,0.3,2.5,0.5,3.7
	c0.3,1.5,0.6,3.7,0.6,4.9c-0.8-0.5-2.2-1.9-4-4.7c-3.3-5.1-4.5-10.8-5.8-16.9c-0.3-1.6-0.6-3.2-1-4.7c-0.8-3.7-2.5-7-4-10.3
	c-2.4-4.9-4.7-9.5-4-14.7c0.5-4,3.4-9.2,7.4-10.5c1-0.3,2.1-0.5,3.5-0.5c2.4,0,5.2,0.5,8,1.6c0.7,0.3,1.3,0.5,1.9,0.8
	c0.6,0.3,1.2,0.6,1.9,0.9c-3.8,1.2-6.2,1.4-8.5,1.4c-2.3,0-4.2-1-4.2-1c-0.9-0.5-2.1-0.2-2.6,0.8c-0.5,0.9-0.2,2.1,0.8,2.6
	c0.1,0.1,2.7,1.4,5.9,1.4c0.1,0,0.1,0,0.2,0c2.8-0.1,6.1-0.3,11.5-2.2c0,0,0,0,0.1,0c2.2-0.8,4.4-2.2,6.5-3.4
	c0.3-0.1,0.5-0.3,0.8-0.4c0.6-0.3,1.2-0.6,1.9-0.8c4.5-1.7,8.7-2.1,11.5-1.1c4,1.4,6.9,6.6,7.4,10.5
	C127.5,84.9,125.2,89.5,122.9,94.4z"/>
</svg>
