<?xml version="1.0" encoding="utf-8"?>
<!-- Generator: Adobe Illustrator 21.1.0, SVG Export Plug-In . SVG Version: 6.00 Build 0)  -->
<svg version="1.1" id="Layer_1" xmlns="http://www.w3.org/2000/svg" xmlns:xlink="http://www.w3.org/1999/xlink" x="0px" y="0px"
	 viewBox="0 0 200 200" style="enable-background:new 0 0 200 200;" xml:space="preserve">
<style type="text/css">
	.st0{fill:#404040;}
</style>
<g>
	<path class="st0" d="M106.7,80.1c4.5,0,8.1-3.6,8.1-8.1s-3.6-8.1-8.1-8.1c-4.5,0-8.1,3.6-8.1,8.1S102.2,80.1,106.7,80.1z
		 M106.7,67.6c2.5,0,4.5,2,4.5,4.5c0,2.5-2,4.5-4.5,4.5c-2.5,0-4.5-2-4.5-4.5C102.2,69.6,104.2,67.6,106.7,67.6z"/>
	<path class="st0" d="M123.1,85c-1.1-0.8-2.6-0.6-3.4,0.5l-5.8,7.8l-8.8-9.3c-0.5-0.6-1.3-0.8-2.1-0.7c-0.8,0.1-1.4,0.6-1.8,1.3
		l-9.6,18.3c0,0,0,0,0,0l-15.3,29.1c-0.6,1.2-0.2,2.6,1,3.3c0.4,0.2,0.7,0.3,1.1,0.3c0.9,0,1.7-0.5,2.1-1.3l13.6-25.8l7.5,9.5
		l-0.3,15.6c0,1.3,1,2.4,2.4,2.5c0,0,0,0,0,0c1.3,0,2.4-1.1,2.4-2.4l0.3-16.5c0-0.6-0.2-1.1-0.5-1.6l-9.4-11.8l7.3-13.9l8.5,8.9
		c0.5,0.5,1.2,0.8,1.9,0.7c0.7,0,1.4-0.4,1.8-1l7.5-10.2C124.4,87.3,124.1,85.8,123.1,85z"/>
	<path class="st0" d="M79.3,96.4c0.4,0.3,0.9,0.4,1.3,0.4c0.8,0,1.6-0.4,2-1.1l4.9-7.5h7.6c1.3,0,2.4-1.1,2.4-2.4s-1.1-2.4-2.4-2.4
		h-8.9c-0.8,0-1.6,0.4-2,1.1L78.6,93C77.9,94.1,78.2,95.6,79.3,96.4z"/>
</g>
</svg>
