<?xml version="1.0" encoding="utf-8"?>
<!-- Generator: Adobe Illustrator 21.1.0, SVG Export Plug-In . SVG Version: 6.00 Build 0)  -->
<svg version="1.1" id="Layer_1" xmlns="http://www.w3.org/2000/svg" xmlns:xlink="http://www.w3.org/1999/xlink" x="0px" y="0px"
	 viewBox="0 0 200 200" style="enable-background:new 0 0 200 200;" xml:space="preserve">
<style type="text/css">
	.st0{fill:#404040;}
</style>
<g>
	
		<rect x="121.8" y="79.8" transform="matrix(0.7052 -0.7091 0.7091 0.7052 -21.8333 111.8602)" class="st0" width="3.6" height="4.7"/>
	
		<rect x="116.2" y="74.1" transform="matrix(0.7051 -0.7091 0.7091 0.7051 -19.5421 106.2696)" class="st0" width="3.6" height="5.1"/>
	<path class="st0" d="M135.8,80.1c0-0.5-0.2-0.9-0.5-1.3l-14.2-14.1c-0.7-0.7-1.8-0.7-2.5,0l-11.4,11.3l-3.5-3.5l-36.3,36.3
		c-4.2,4.2-4.2,11,0,15.1l8.6,8.6c2.1,2.1,4.8,3.1,7.6,3.1c2.7,0,5.5-1,7.6-3.1l36.3-36.3l-3.6-3.6l11.4-11.4
		C135.6,81.1,135.8,80.6,135.8,80.1z M87.3,128.8c-1,1-2.4,1.6-3.8,1.6c-1.4,0-2.8-0.6-3.8-1.6l-8.6-8.6c-1-1-1.6-2.3-1.6-3.8
		c0-1.4,0.6-2.8,1.6-3.8l32.5-32.5l16.2,16.2L87.3,128.8z M121.3,90.2l-11.6-11.6l10.1-10.1l11.7,11.6L121.3,90.2z"/>
</g>
</svg>
