<?xml version="1.0" encoding="utf-8"?>
<!-- Generator: Adobe Illustrator 21.1.0, SVG Export Plug-In . SVG Version: 6.00 Build 0)  -->
<svg version="1.1" id="Layer_1" xmlns="http://www.w3.org/2000/svg" xmlns:xlink="http://www.w3.org/1999/xlink" x="0px" y="0px"
	 viewBox="0 0 200 200" style="enable-background:new 0 0 200 200;" xml:space="preserve">
<style type="text/css">
	.st0{fill:#404040;}
</style>
<g>
	<path class="st0" d="M122.5,136.1H77.5c-5.3,0-9.7-4.3-9.7-9.7V73.6c0-5.3,4.3-9.7,9.7-9.7h44.9c5.3,0,9.7,4.3,9.7,9.7v52.8
		C132.1,131.8,127.8,136.1,122.5,136.1z M77.5,68.7c-2.7,0-4.8,2.2-4.8,4.8v52.8c0,2.7,2.2,4.8,4.8,4.8h44.9c2.7,0,4.8-2.2,4.8-4.8
		V73.6c0-2.7-2.2-4.8-4.8-4.8H77.5z"/>
	<circle class="st0" cx="100" cy="124.1" r="3"/>
	<path class="st0" d="M118.3,116.8H81.7c-1,0-1.8-0.8-1.8-1.8V76.8c0-1,0.8-1.8,1.8-1.8h36.6c1,0,1.8,0.8,1.8,1.8V115
		C120.1,116,119.3,116.8,118.3,116.8z M83.5,113.2h32.9V78.6H83.5V113.2z"/>
</g>
</svg>
