<?xml version="1.0" encoding="utf-8"?>
<!-- Generator: Adobe Illustrator 21.1.0, SVG Export Plug-In . SVG Version: 6.00 Build 0)  -->
<svg version="1.1" id="Layer_1" xmlns="http://www.w3.org/2000/svg" xmlns:xlink="http://www.w3.org/1999/xlink" x="0px" y="0px"
	 viewBox="0 0 200 200" style="enable-background:new 0 0 200 200;" xml:space="preserve">
<style type="text/css">
	.st0{fill:#404040;}
</style>
<g>
	<path class="st0" d="M93.1,101.1h8.9v0.1c-0.6,0.4-2.4,2.6-3.7,5.5c-1.7,3.2-2.3,6.7-2.4,8.9h4.9c0-2.4,0.4-5.6,1.9-8.9
		c1.3-2.8,3.2-5.3,4-6V97H93.1V101.1z"/>
	<path class="st0" d="M126.5,72.5h-10.6v-6c0-1.3-1.1-2.4-2.4-2.4c-1.3,0-2.4,1.1-2.4,2.4v6H89.2v-6c0-1.3-1.1-2.4-2.4-2.4
		c-1.3,0-2.4,1.1-2.4,2.4v6H73.5c-5.3,0-9.7,4.3-9.7,9.7v44.1c0,5.3,4.3,9.7,9.7,9.7h53.1c5.3,0,9.7-4.3,9.7-9.7V82.2
		C136.2,76.8,131.9,72.5,126.5,72.5z M131.4,126.3c0,2.7-2.2,4.8-4.8,4.8H73.5c-2.7,0-4.8-2.2-4.8-4.8V82.2c0-2.7,2.2-4.8,4.8-4.8
		h10.9v4c0,1.3,1.1,2.4,2.4,2.4c1.3,0,2.4-1.1,2.4-2.4v-4h21.9v4c0,1.3,1.1,2.4,2.4,2.4c1.3,0,2.4-1.1,2.4-2.4v-4h10.6
		c2.7,0,4.8,2.2,4.8,4.8V126.3z"/>
</g>
</svg>
