<?xml version="1.0" encoding="utf-8"?>
<!-- Generator: Adobe Illustrator 21.1.0, SVG Export Plug-In . SVG Version: 6.00 Build 0)  -->
<svg version="1.1" id="Layer_1" xmlns="http://www.w3.org/2000/svg" xmlns:xlink="http://www.w3.org/1999/xlink" x="0px" y="0px"
	 viewBox="0 0 200 200" style="enable-background:new 0 0 200 200;" xml:space="preserve">
<style type="text/css">
	.st0{fill:#404040;}
</style>
<g>
	<path class="st0" d="M127.9,114.8c-1.3,0-2.4,1.1-2.4,2.4v9.1c0,2.7-2.2,4.8-4.8,4.8h-59c-2.7,0-4.8-2.2-4.8-4.8V73.6
		c0-2.7,2.2-4.8,4.8-4.8h59c2.7,0,4.8,2.2,4.8,4.8v24.2c0,1.3,1.1,2.4,2.4,2.4s2.4-1.1,2.4-2.4V73.6c0-5.3-4.3-9.7-9.7-9.7h-59
		c-5.3,0-9.7,4.3-9.7,9.7v52.8c0,5.3,4.3,9.7,9.7,9.7h59c5.3,0,9.7-4.3,9.7-9.7v-9.1C130.3,115.9,129.2,114.8,127.9,114.8z"/>
	<path class="st0" d="M112.7,83.7L90.2,98.3L69.6,83.8c-1.1-0.8-2.6-0.5-3.4,0.6c-0.8,1.1-0.5,2.6,0.6,3.4l21.9,15.5
		c0.4,0.3,0.9,0.4,1.4,0.4c0.5,0,0.9-0.1,1.3-0.4l23.9-15.5c1.1-0.7,1.4-2.2,0.7-3.3C115.3,83.3,113.8,83,112.7,83.7z"/>
	<path class="st0" d="M147.5,105.9l-7.7-7.3c-0.7-0.7-1.9-0.7-2.6,0.1c-0.7,0.7-0.7,1.9,0.1,2.6l4.8,4.6h-32.6c-1,0-1.8,0.8-1.8,1.8
		s0.8,1.8,1.8,1.8h32.1l-4.4,4.6c-0.7,0.7-0.7,1.9,0.1,2.6c0.4,0.3,0.8,0.5,1.3,0.5c0.5,0,1-0.2,1.3-0.6l7.7-8.1
		c0.3-0.3,0.5-0.8,0.5-1.3C148,106.7,147.8,106.2,147.5,105.9z"/>
</g>
</svg>
