<?xml version="1.0" encoding="utf-8"?>
<!-- Generator: Adobe Illustrator 21.1.0, SVG Export Plug-In . SVG Version: 6.00 Build 0)  -->
<svg version="1.1" id="Layer_1" xmlns="http://www.w3.org/2000/svg" xmlns:xlink="http://www.w3.org/1999/xlink" x="0px" y="0px"
	 viewBox="0 0 200 200" style="enable-background:new 0 0 200 200;" xml:space="preserve">
<style type="text/css">
	.st0{fill:#404040;}
</style>
<g>
	<path class="st0" d="M100,136.3c-20,0-36.3-16.3-36.3-36.3S80,63.7,100,63.7S136.3,80,136.3,100S120,136.3,100,136.3z M100,68.5
		c-17.3,0-31.5,14.1-31.5,31.5s14.1,31.5,31.5,31.5s31.5-14.1,31.5-31.5S117.3,68.5,100,68.5z"/>
	<g>
		<circle class="st0" cx="98.3" cy="112" r="3"/>
		<path class="st0" d="M98,106.5c-1.3,0-2.4-1.1-2.4-2.4c0-4.7,3.2-6.4,5.5-7.7c2.4-1.3,3.4-2,3.4-4.5c0-0.5-0.1-1.9-0.8-2.9
			c-0.7-1-1.9-1.5-3.6-1.5c-1.7,0-2.9,0.5-3.7,1.6c-0.7,0.9-0.9,2.2-0.9,3c0,1.3-1.1,2.4-2.4,2.4s-2.4-1.1-2.4-2.4
			c0-1,0.2-3.4,1.7-5.7c1.2-1.7,3.5-3.7,7.7-3.7c6.9,0,9.3,5,9.3,9.3c0,5.5-3.6,7.4-6,8.7c-2.2,1.2-3,1.7-3,3.4
			C100.4,105.4,99.4,106.5,98,106.5z"/>
	</g>
</g>
</svg>
