<?xml version="1.0" encoding="utf-8"?>
<!-- Generator: Adobe Illustrator 21.1.0, SVG Export Plug-In . SVG Version: 6.00 Build 0)  -->
<svg version="1.1" id="Layer_1" xmlns="http://www.w3.org/2000/svg" xmlns:xlink="http://www.w3.org/1999/xlink" x="0px" y="0px"
	 viewBox="0 0 200 200" style="enable-background:new 0 0 200 200;" xml:space="preserve">
<style type="text/css">
	.st0{fill:#404040;}
</style>
<g>
	<path class="st0" d="M131.7,101.6c-2.9-3.4-6.9-5.6-11.3-6.2V75.9c0-1.2-0.9-2.2-2-2.4l-29.8-4.9c-0.1,0-0.1,0-0.2,0
		c-0.1,0-0.1,0-0.2,0c0,0,0,0,0,0c-0.1,0-0.2,0-0.3,0c-0.1,0-0.1,0-0.2,0c0,0,0,0,0,0L66,73.6c-1.1,0.3-1.9,1.2-1.9,2.4v35.9
		c0,1.1,0.7,2,1.8,2.3l21.6,6.1c0,0,0,0,0.1,0c0.2,0,0.4,0.1,0.6,0.1c0.1,0,0.3,0,0.4,0l14.2-2.6c0.1,0,0.1,0,0.2,0
		c1.3-0.2,2.3-1.4,2.1-2.7l0,0c-0.1-0.9-0.1-1.9-0.1-2.8c0.6-7.2,6.9-12.5,14.1-11.9c3.5,0.3,6.6,1.9,8.9,4.6c2.3,2.7,3.3,6,3,9.5
		c-0.6,7.2-6.9,12.5-14.1,11.9c-1.7-0.1-3.3-0.6-4.8-1.4l0.6-0.1c1-0.2,1.6-1.1,1.4-2.1c-0.2-1-1.1-1.6-2.1-1.4l-5.6,1.1
		c-0.1,0-0.2,0.1-0.4,0.1c-0.8,0.3-1.3,1.2-1.1,2l1.1,5.6c0.2,0.9,0.9,1.5,1.8,1.5c0.1,0,0.2,0,0.3,0c1-0.2,1.6-1.1,1.4-2.1
		l-0.1-0.3c2.2,1.2,4.5,1.9,7,2.1c0.5,0,1,0.1,1.5,0.1c9.2,0,17-7.1,17.8-16.4C136.2,109.9,134.7,105.3,131.7,101.6z M69,77.9
		L85.7,74v40.6L69,110V77.9z M100.1,111.7c0,0.5,0,1.1,0,1.6l-9.6,1.7V73.9l25,4.1v17.5C107.4,96.6,100.8,103.2,100.1,111.7z"/>
	<path class="st0" d="M118,104.7c-1,0-1.8,0.8-1.8,1.8v7.9c0,0.7,0.5,1.4,1.2,1.7l4.4,1.7c0.2,0.1,0.4,0.1,0.7,0.1
		c0.7,0,1.4-0.4,1.7-1.2c0.4-0.9-0.1-2-1-2.4l-3.3-1.3v-6.6C119.8,105.5,119,104.7,118,104.7z"/>
</g>
</svg>
