<?xml version="1.0" encoding="utf-8"?>
<!-- Generator: Adobe Illustrator 21.1.0, SVG Export Plug-In . SVG Version: 6.00 Build 0)  -->
<svg version="1.1" id="Layer_1" xmlns="http://www.w3.org/2000/svg" xmlns:xlink="http://www.w3.org/1999/xlink" x="0px" y="0px"
	 viewBox="0 0 200 200" style="enable-background:new 0 0 200 200;" xml:space="preserve">
<style type="text/css">
	.st0{fill:#404040;}
</style>
<g>
	<path class="st0" d="M90.3,64.1H71.2c-4,0-7.3,3.3-7.3,7.3V79c0,4,3.3,7.3,7.3,7.3h19.1c4,0,7.3-3.3,7.3-7.3v-7.7
		C97.6,67.3,94.3,64.1,90.3,64.1z M92.7,79c0,1.3-1.1,2.4-2.4,2.4H71.2c-1.3,0-2.4-1.1-2.4-2.4v-7.7c0-1.3,1.1-2.4,2.4-2.4h19.1
		c1.3,0,2.4,1.1,2.4,2.4V79z"/>
	<path class="st0" d="M90.3,91.2H71.2c-4,0-7.3,3.3-7.3,7.3v30.2c0,4,3.3,7.3,7.3,7.3h19.1c4,0,7.3-3.3,7.3-7.3V98.4
		C97.6,94.4,94.3,91.2,90.3,91.2z M92.7,128.7c0,1.3-1.1,2.4-2.4,2.4H71.2c-1.3,0-2.4-1.1-2.4-2.4V98.4c0-1.3,1.1-2.4,2.4-2.4h19.1
		c1.3,0,2.4,1.1,2.4,2.4V128.7z"/>
	<path class="st0" d="M128.8,113.7h-19.1c-4,0-7.3,3.3-7.3,7.3v7.7c0,4,3.3,7.3,7.3,7.3h19.1c4,0,7.3-3.3,7.3-7.3V121
		C136,117,132.8,113.7,128.8,113.7z M131.2,128.7c0,1.3-1.1,2.4-2.4,2.4h-19.1c-1.3,0-2.4-1.1-2.4-2.4V121c0-1.3,1.1-2.4,2.4-2.4
		h19.1c1.3,0,2.4,1.1,2.4,2.4V128.7z"/>
	<path class="st0" d="M128.8,64.1h-19.1c-4,0-7.3,3.3-7.3,7.3v30.2c0,4,3.3,7.3,7.3,7.3h19.1c4,0,7.3-3.3,7.3-7.3V71.3
		C136,67.3,132.8,64.1,128.8,64.1z M109.7,68.9h19.1c1.3,0,2.4,1.1,2.4,2.4v14.1h-3.7l-2-3.2c-0.4-0.6-1.1-0.9-1.8-0.8
		c-0.7,0.1-1.3,0.6-1.5,1.2l-1,3l-1.9-7c-0.2-0.8-1-1.4-1.8-1.3c-0.8,0-1.6,0.6-1.7,1.5l-2,9.7l-0.4-1c-0.3-0.7-0.9-1.2-1.7-1.2
		h-4.5V71.3C107.3,70,108.4,68.9,109.7,68.9z M128.8,104h-19.1c-1.3,0-2.4-1.1-2.4-2.4V89.9h3.2l2.1,6.1c0.3,0.7,0.9,1.2,1.7,1.2
		c0,0,0.1,0,0.1,0c0.8-0.1,1.5-0.6,1.7-1.5l1.8-8.7l1.5,5.4c0.2,0.8,0.9,1.3,1.7,1.3c0.8,0,1.5-0.5,1.8-1.2l1.7-5.1l0.5,0.8
		c0.3,0.5,0.9,0.8,1.5,0.8h4.7v12.4C131.2,102.9,130.1,104,128.8,104z"/>
</g>
</svg>
