<?xml version="1.0" encoding="utf-8"?>
<!-- Generator: Adobe Illustrator 21.1.0, SVG Export Plug-In . SVG Version: 6.00 Build 0)  -->
<svg version="1.1" id="Layer_1" xmlns="http://www.w3.org/2000/svg" xmlns:xlink="http://www.w3.org/1999/xlink" x="0px" y="0px"
	 viewBox="0 0 200 200" style="enable-background:new 0 0 200 200;" xml:space="preserve">
<style type="text/css">
	.st0{fill:#404040;}
</style>
<g>
	<path class="st0" d="M127.7,85.9H72.3c-4.6,0-8.3,3.7-8.3,8.3c0,0.1,0,0.2,0,0.3l4.4,33.3c0,0,0,0.1,0,0.1c0.9,4.8,4.1,7.9,8.3,7.9
		h46c4.8,0,8.1-3,8.8-8l4.4-33.3c0-0.1,0-0.2,0-0.3C136,89.6,132.2,85.9,127.7,85.9z M131.1,94.1l-1.2,8.8h-28.2V90.7h25.8
		C129.5,90.7,131.1,92.2,131.1,94.1z M72.3,90.7h25.8v12.1H70l-1.2-8.8C68.9,92.2,70.5,90.7,72.3,90.7z M73.3,127.2l-2.7-20.7h27.7
		V131H76.8C74.2,131,73.4,128.1,73.3,127.2z M126.7,127.2c-0.4,2.6-1.6,3.8-4,3.8h-20.9v-24.5h27.7L126.7,127.2z"/>
	<path class="st0" d="M97.7,81.6L97.7,81.6l0.2,0c0.7,0.1,1.3,0.1,1.7,0.1c0.2,0,0.3,0,0.3,0l0.1,0l0.1,0c0,0,0.2,0,0.4,0
		c2.1,0,11.9-0.5,16.5-8.9c1.9-3.4,1-5.7,0.3-6.7c-1.1-1.6-3.3-2.4-5.7-2c-3.7,0.6-8.4,3.8-11.6,11c-2.5-5.1-6.1-7.5-9-8
		c-2.1-0.3-3.9,0.3-4.9,1.7c-1,1.5-1,3.5,0.2,5.6C89.2,79.9,94.7,81.3,97.7,81.6z M112.1,67.8c0.3,0,0.5-0.1,0.7-0.1
		c0.7,0,1.2,0.2,1.4,0.5c0.4,0.5,0.2,1.6-0.5,2.8c-2.7,4.9-8,6.4-11.1,6.9C105.3,71.2,109.3,68.3,112.1,67.8z M89.1,71
		c0.1-0.1,0.4-0.2,0.8-0.2c0.1,0,0.3,0,0.5,0c3.1,0.5,5.4,4,6.8,7.1c-2.4-0.4-5.8-1.7-7.7-5.1C88.9,71.8,89,71.2,89.1,71z"/>
</g>
</svg>
