<?xml version="1.0" encoding="utf-8"?>
<!-- Generator: Adobe Illustrator 21.1.0, SVG Export Plug-In . SVG Version: 6.00 Build 0)  -->
<svg version="1.1" id="Layer_1" xmlns="http://www.w3.org/2000/svg" xmlns:xlink="http://www.w3.org/1999/xlink" x="0px" y="0px"
	 viewBox="0 0 200 200" style="enable-background:new 0 0 200 200;" xml:space="preserve">
<style type="text/css">
	.st0{fill:#404040;}
</style>
<g>
	<path class="st0" d="M84.6,101.3v3.3H89V116h4.8V97.4h-3.8C89.9,100.4,87.2,101.3,84.6,101.3z"/>
	<path class="st0" d="M111.1,106.1L111.1,106.1c1.7-0.4,2.7-2.1,2.7-3.8c0-3.7-3.6-5.1-6.8-5.1c-3.1,0-6.9,1.4-6.9,5.1
		c0,1.8,1,3.4,2.8,3.8v0.1c-2.1,0.4-3.6,2.2-3.6,4.4c0,4.3,4,5.7,7.7,5.7c3.7,0,7.6-1.6,7.6-5.7
		C114.6,108.2,113.2,106.6,111.1,106.1z M107,100.5c1.5,0,2.8,0.6,2.8,2.1c0,1.6-1.5,2.2-2.8,2.2c-1.4,0-2.8-0.5-2.8-2.2
		C104.2,101.1,105.5,100.5,107,100.5z M107,112.9c-1.6,0-3.1-0.8-3.1-2.6c0-1.8,1.5-2.7,3.1-2.7c1.7,0,3.1,1,3.1,2.7
		C110.1,112.2,108.5,112.9,107,112.9z"/>
	<path class="st0" d="M126.5,72.5h-10.6v-6c0-1.3-1.1-2.4-2.4-2.4s-2.4,1.1-2.4,2.4v6H89.2v-6c0-1.3-1.1-2.4-2.4-2.4
		s-2.4,1.1-2.4,2.4v6H73.5c-5.3,0-9.7,4.3-9.7,9.7v44.1c0,5.3,4.3,9.7,9.7,9.7h53.1c5.3,0,9.7-4.3,9.7-9.7V82.2
		C136.2,76.8,131.9,72.5,126.5,72.5z M131.4,126.3c0,2.7-2.2,4.8-4.8,4.8H73.5c-2.7,0-4.8-2.2-4.8-4.8V82.2c0-2.7,2.2-4.8,4.8-4.8
		h10.9v4c0,1.3,1.1,2.4,2.4,2.4s2.4-1.1,2.4-2.4v-4h21.9v4c0,1.3,1.1,2.4,2.4,2.4s2.4-1.1,2.4-2.4v-4h10.6c2.7,0,4.8,2.2,4.8,4.8
		V126.3z"/>
</g>
</svg>
