<?xml version="1.0" encoding="utf-8"?>
<!-- Generator: Adobe Illustrator 21.1.0, SVG Export Plug-In . SVG Version: 6.00 Build 0)  -->
<svg version="1.1" id="Layer_1" xmlns="http://www.w3.org/2000/svg" xmlns:xlink="http://www.w3.org/1999/xlink" x="0px" y="0px"
	 viewBox="0 0 200 200" style="enable-background:new 0 0 200 200;" xml:space="preserve">
<style type="text/css">
	.st0{fill:#404040;}
</style>
<g>
	<path class="st0" d="M115,77.9H85.4c-1,0-1.8,0.8-1.8,1.8s0.8,1.8,1.8,1.8H115c1,0,1.8-0.8,1.8-1.8S116,77.9,115,77.9z"/>
	<path class="st0" d="M102.6,87.6H85.4c-1,0-1.8,0.8-1.8,1.8s0.8,1.8,1.8,1.8h17.2c1,0,1.8-0.8,1.8-1.8S103.6,87.6,102.6,87.6z"/>
	<path class="st0" d="M127.5,105.1L127.5,105.1l-0.1-31.6c0-2.6-1-5-2.8-6.8c-1.8-1.8-4.3-2.8-6.8-2.8l-35.6,0c0,0,0,0,0,0
		c-2.6,0-5,1-6.8,2.8c-1.8,1.8-2.8,4.3-2.8,6.8l0,31.6h-0.1c0,0,0,0,0,0c-2.6,0-5,1-6.8,2.8c-1.8,1.8-2.8,4.3-2.8,6.8l0,11.6
		c0,5.3,4.3,9.7,9.7,9.7l55.1,0c0,0,0,0,0,0c2.6,0,5-1,6.8-2.8c1.8-1.8,2.8-4.3,2.8-6.8l0-11.6C137.2,109.5,132.9,105.1,127.5,105.1
		z M77.4,73.5c0-1.3,0.5-2.5,1.4-3.4c0.9-0.9,2.1-1.4,3.4-1.4c0,0,0,0,0,0l35.6,0c1.3,0,2.5,0.5,3.4,1.4c0.9,0.9,1.4,2.1,1.4,3.4
		l0,31.6l-45.3,0L77.4,73.5z M132.4,126.5c0,1.3-0.5,2.5-1.4,3.4c-0.9,0.9-2.1,1.4-3.4,1.4c0,0,0,0,0,0l-55.1,0
		c-2.7,0-4.8-2.2-4.8-4.8l0-11.6c0-1.3,0.5-2.5,1.4-3.4c0.9-0.9,2.1-1.4,3.4-1.4c0,0,0,0,0,0l55.1,0c2.7,0,4.8,2.2,4.8,4.8
		L132.4,126.5z"/>
	<path class="st0" d="M125.2,114.9h-12c-1,0-1.8,0.8-1.8,1.8s0.8,1.8,1.8,1.8h12c1,0,1.8-0.8,1.8-1.8S126.2,114.9,125.2,114.9z"/>
</g>
</svg>
