<?xml version="1.0" encoding="utf-8"?>
<!-- Generator: Adobe Illustrator 21.1.0, SVG Export Plug-In . SVG Version: 6.00 Build 0)  -->
<svg version="1.1" id="Layer_1" xmlns="http://www.w3.org/2000/svg" xmlns:xlink="http://www.w3.org/1999/xlink" x="0px" y="0px"
	 viewBox="0 0 200 200" style="enable-background:new 0 0 200 200;" xml:space="preserve">
<style type="text/css">
	.st0{fill:#404040;}
</style>
<path class="st0" d="M128.2,74.7l-2.7-1.6v-6.3c0-1.5-1.2-2.7-2.7-2.7H88.5c-1.5,0-2.7,1.2-2.7,2.7v6.3l-2.7,1.6
	c-0.8,0.5-1.3,1.4-1.3,2.3v7.8c0,1.5,1.2,2.7,2.7,2.7h2.3v9.7H72.3c-1,0-1.8,0.8-1.8,1.8s0.8,1.8,1.8,1.8h14.5v5.4h-6.6
	c-1,0-1.8,0.8-1.8,1.8s0.8,1.8,1.8,1.8h6.6v5.4H75.6c-1,0-1.8,0.8-1.8,1.8c0,1,0.8,1.8,1.8,1.8h11.2v7.4c0,5.4,4.8,9.8,10.6,9.8
	h16.4c5.9,0,10.6-4.4,10.6-9.8V87.5h2.3c1.5,0,2.7-1.2,2.7-2.7V77C129.5,76.1,129,75.2,128.2,74.7z M87.2,78.6l2.7-1.6
	c0.8-0.5,1.3-1.4,1.3-2.3v-5.1h28.9V73h-13.6c-1,0-1.8,0.8-1.8,1.8c0,1,0.8,1.8,1.8,1.8H121c0.1,0.1,0.3,0.3,0.5,0.4l2.7,1.6v3.5
	h-37V78.6z M119.1,126c0,2.5-2.4,4.5-5.3,4.5H97.4c-2.9,0-5.3-2-5.3-4.5v-7.4h4.3c1,0,1.8-0.8,1.8-1.8c0-1-0.8-1.8-1.8-1.8h-4.3
	v-5.4h7.8c1,0,1.8-0.8,1.8-1.8s-0.8-1.8-1.8-1.8h-7.8v-5.4h4.3c1,0,1.8-0.8,1.8-1.8s-0.8-1.8-1.8-1.8h-4.3v-9.7h27V126z"/>
</svg>
