<?xml version="1.0" encoding="utf-8"?>
<!-- Generator: Adobe Illustrator 21.1.0, SVG Export Plug-In . SVG Version: 6.00 Build 0)  -->
<svg version="1.1" id="Layer_1" xmlns="http://www.w3.org/2000/svg" xmlns:xlink="http://www.w3.org/1999/xlink" x="0px" y="0px"
	 viewBox="0 0 200 200" style="enable-background:new 0 0 200 200;" xml:space="preserve">
<style type="text/css">
	.st0{fill:#404040;}
</style>
<g>
	<path class="st0" d="M132.5,109.9c-1.9-4.6-4.1-7.7-6.6-9c2.5-2.5,4.1-6,4-9.8c0-3.7-1.5-7.1-4.1-9.6c-2.6-2.5-6-3.9-9.6-3.9
		c0,0-0.1,0-0.1,0c-3.5,0-6.6,1.3-9,3.5c0-0.1,0-0.1,0-0.2c0-4.5-1.8-8.7-5-11.8c-3.2-3.2-7.4-4.9-11.9-4.8c-4.5,0-8.7,1.8-11.8,5
		c-3.2,3.2-4.9,7.4-4.8,11.9s1.8,8.7,5,11.8c0.2,0.2,0.3,0.3,0.5,0.5c-3.8,0.9-7.4,4.6-10.4,10.6c-2.6,5.4-4.4,12.1-4.4,16.6v12.7
		c0,1.3,1.1,2.4,2.4,2.4h32.6h14.8h19.2c1.3,0,2.4-1.1,2.4-2.4v-9.9C135.7,120,134.4,114.4,132.5,109.9z M116.2,82.4
		C116.3,82.4,116.3,82.4,116.2,82.4c2.4,0,4.6,0.9,6.3,2.6c1.7,1.7,2.6,3.9,2.6,6.3c0,4.9-3.9,8.9-8.8,8.9c-2.4,0-4.6-0.9-6.3-2.6
		c-1.7-1.7-2.6-3.9-2.6-6.3C107.4,86.4,111.4,82.4,116.2,82.4z M78.4,81.1c0-3.2,1.2-6.2,3.5-8.5c2.3-2.3,5.3-3.6,8.5-3.6
		c0,0,0.1,0,0.1,0c3.2,0,6.2,1.2,8.4,3.5c2.3,2.3,3.6,5.3,3.6,8.5l0,0c0,3.2-1.2,6.2-3.5,8.5c-2.3,2.3-5.3,3.6-8.5,3.6
		c-3.2,0-6.2-1.2-8.5-3.5C79.7,87.3,78.4,84.3,78.4,81.1z M69.1,120.7c0-7.9,6.3-22.7,11.8-22.7h18.9c5.6,0,11.8,14.8,11.8,22.7V131
		H69.1V120.7z M130.9,131h-14.4v-10.3c0-4.3-1.6-10.5-4-15.7h10.6c0.8,0,2.8,1.4,5,6.8c1.8,4.4,2.8,9.4,2.8,11.7V131z"/>
	<polygon class="st0" points="107.2,80.9 107.2,80.9 107.2,80.9 	"/>
</g>
</svg>
