<?xml version="1.0" encoding="utf-8"?>
<!-- Generator: Adobe Illustrator 21.1.0, SVG Export Plug-In . SVG Version: 6.00 Build 0)  -->
<svg version="1.1" id="Layer_1" xmlns="http://www.w3.org/2000/svg" xmlns:xlink="http://www.w3.org/1999/xlink" x="0px" y="0px"
	 viewBox="0 0 200 200" style="enable-background:new 0 0 200 200;" xml:space="preserve">
<style type="text/css">
	.st0{fill:#404040;}
</style>
<g>
	<path class="st0" d="M90.2,88.4c-2.5-1.4-5.7-0.6-7.2,1.9c-0.7,1.2-0.9,2.6-0.5,4c0.4,1.4,1.2,2.5,2.4,3.2c0.8,0.5,1.7,0.7,2.6,0.7
		c0.5,0,0.9-0.1,1.4-0.2c0.7-0.2,1.4-0.6,2-1l5.5,3.2l-5.5,3.2c-0.6-0.5-1.2-0.8-2-1c-1.4-0.4-2.8-0.2-4,0.5
		c-2.5,1.4-3.4,4.7-1.9,7.2c0.7,1.2,1.8,2.1,3.2,2.4c0.5,0.1,0.9,0.2,1.4,0.2c0.9,0,1.8-0.2,2.6-0.7c2-1.1,2.9-3.3,2.5-5.4l7.3-4.2
		l14.1,8.2c0.3,0.2,0.6,0.2,0.9,0.2c0.6,0,1.2-0.3,1.6-0.9c0.5-0.9,0.2-2-0.7-2.5l-12.3-7.1l12.3-7.1c0.9-0.5,1.2-1.6,0.7-2.5
		c-0.5-0.9-1.6-1.2-2.5-0.7L100,98.1l-7.3-4.2C93.1,91.8,92.1,89.6,90.2,88.4z M88.3,108.8c-0.8,0.4-1.8,0.2-2.2-0.6
		c-0.4-0.8-0.2-1.8,0.6-2.2c0.2-0.1,0.5-0.2,0.8-0.2c0.1,0,0.3,0,0.4,0.1c0.4,0.1,0.8,0.4,1,0.8C89.4,107.4,89.1,108.4,88.3,108.8z
		 M87.9,94.5c-0.4,0.1-0.9,0.1-1.2-0.2c-0.4-0.2-0.6-0.6-0.8-1c-0.1-0.4-0.1-0.9,0.2-1.2c0.3-0.5,0.8-0.8,1.4-0.8
		c0.3,0,0.6,0.1,0.8,0.2c0.8,0.4,1,1.4,0.6,2.2C88.7,94.2,88.4,94.4,87.9,94.5z"/>
	<path class="st0" d="M66.3,116c1.3,0,2.4-1.1,2.4-2.4V97.2c0-1.3-1.1-2.4-2.4-2.4c-1.3,0-2.4,1.1-2.4,2.4v16.4
		C63.9,114.9,65,116,66.3,116z"/>
	<path class="st0" d="M66.3,90.3c1.3,0,2.4-1.1,2.4-2.4V73.6c0-0.5,0.1-0.9,0.2-1.3c0.4-1.3-0.4-2.6-1.7-3c-1.3-0.4-2.6,0.4-3,1.7
		c-0.3,0.9-0.4,1.8-0.4,2.7v14.3C63.9,89.2,65,90.3,66.3,90.3z"/>
	<path class="st0" d="M73.6,68.7h16.3c1.3,0,2.4-1.1,2.4-2.4c0-1.3-1.1-2.4-2.4-2.4H73.5c-1.3,0-2.4,1.1-2.4,2.4
		C71.1,67.6,72.2,68.7,73.6,68.7z"/>
	<path class="st0" d="M99.3,68.7h16.4c1.3,0,2.4-1.1,2.4-2.4c0-1.3-1.1-2.4-2.4-2.4H99.3c-1.3,0-2.4,1.1-2.4,2.4
		C96.8,67.6,97.9,68.7,99.3,68.7z"/>
	<path class="st0" d="M133.7,84c-1.3,0-2.4,1.1-2.4,2.4v16.4c0,1.3,1.1,2.4,2.4,2.4c1.3,0,2.4-1.1,2.4-2.4V86.4
		C136.1,85.1,135,84,133.7,84z"/>
	<path class="st0" d="M126.4,63.9H125c-1.3,0-2.4,1.1-2.4,2.4c0,1.3,1.1,2.4,2.4,2.4h1.5c2.7,0,4.8,2.2,4.8,4.8V77
		c0,1.3,1.1,2.4,2.4,2.4c1.3,0,2.4-1.1,2.4-2.4v-3.5C136.1,68.2,131.8,63.9,126.4,63.9z"/>
	<path class="st0" d="M133.7,109.7c-1.3,0-2.4,1.1-2.4,2.4v14.3c0,0.5-0.1,0.9-0.2,1.3c-0.4,1.3,0.4,2.6,1.7,3
		c0.2,0.1,0.4,0.1,0.7,0.1c1.1,0,2-0.7,2.3-1.8c0.2-0.9,0.4-1.8,0.4-2.7v-14.3C136.1,110.8,135,109.7,133.7,109.7z"/>
	<path class="st0" d="M126.5,131.3l-16.4,0c-1.3,0-2.4,1.1-2.4,2.4c0,1.3,1.1,2.4,2.4,2.4h16.4c0,0,0,0,0,0c1.3,0,2.4-1.1,2.4-2.4
		C128.9,132.4,127.8,131.3,126.5,131.3z M126.5,134.3L126.5,134.3v-0.6V134.3z"/>
	<path class="st0" d="M75,131.3h-1.5c-2.7,0-4.8-2.2-4.8-4.8v-3.5c0-1.3-1.1-2.4-2.4-2.4c-1.3,0-2.4,1.1-2.4,2.4v3.5
		c0,5.3,4.3,9.7,9.7,9.7H75c1.3,0,2.4-1.1,2.4-2.4C77.4,132.4,76.4,131.3,75,131.3z"/>
	<path class="st0" d="M100.7,131.3H84.4c-1.3,0-2.4,1.1-2.4,2.4c0,1.3,1.1,2.4,2.4,2.4h16.4c1.3,0,2.4-1.1,2.4-2.4
		C103.1,132.4,102.1,131.3,100.7,131.3z"/>
</g>
</svg>
