<?xml version="1.0" encoding="utf-8"?>
<!-- Generator: Adobe Illustrator 21.1.0, SVG Export Plug-In . SVG Version: 6.00 Build 0)  -->
<svg version="1.1" id="Layer_1" xmlns="http://www.w3.org/2000/svg" xmlns:xlink="http://www.w3.org/1999/xlink" x="0px" y="0px"
	 viewBox="0 0 200 200" style="enable-background:new 0 0 200 200;" xml:space="preserve">
<style type="text/css">
	.st0{fill:#404040;}
</style>
<path class="st0" d="M126.3,64.1H95c-5.3,0-9.6,4.3-9.6,9.6v10.5H73.7c-5.3,0-9.6,4.3-9.6,9.6v32.4c0,5.3,4.3,9.6,9.6,9.6H95h0.6
	h30.7c5.3,0,9.6-4.3,9.6-9.6V73.7C135.9,68.4,131.6,64.1,126.3,64.1z M68.9,126.3V93.9c0-2.6,2.2-4.8,4.8-4.8h21.9
	c2.6,0,4.8,2.2,4.8,4.8v32.4c0,2.6-2.2,4.8-4.8,4.8H73.7C71,131.1,68.9,128.9,68.9,126.3z M131.1,126.3c0,2.6-2.2,4.8-4.8,4.8h-22.4
	c0.8-1.4,1.3-3.1,1.3-4.8V93.9c0-5.3-4.3-9.6-9.6-9.6h-5.4V73.7c0-2.6,2.2-4.8,4.8-4.8h31.4c2.6,0,4.8,2.2,4.8,4.8V126.3z"/>
</svg>
