<?xml version="1.0" encoding="utf-8"?>
<!-- Generator: Adobe Illustrator 21.1.0, SVG Export Plug-In . SVG Version: 6.00 Build 0)  -->
<svg version="1.1" id="Layer_1" xmlns="http://www.w3.org/2000/svg" xmlns:xlink="http://www.w3.org/1999/xlink" x="0px" y="0px"
	 viewBox="0 0 200 200" style="enable-background:new 0 0 200 200;" xml:space="preserve">
<style type="text/css">
	.st0{fill:#404040;}
</style>
<g>
	<path class="st0" d="M126.4,82.5h-5.5C119.7,72.1,110.8,64,100,64s-19.7,8.1-20.9,18.5h-5.5c-5.3,0-9.7,4.3-9.7,9.7v34.1
		c0,5.3,4.3,9.7,9.7,9.7h52.8c5.3,0,9.7-4.3,9.7-9.7V92.2C136.1,86.9,131.7,82.5,126.4,82.5z M100,68.8c8.1,0,14.8,6,16,13.7H84
		C85.2,74.8,91.9,68.8,100,68.8z M131.2,126.3c0,2.7-2.2,4.8-4.8,4.8H73.6c-2.7,0-4.8-2.2-4.8-4.8V92.2c0-2.7,2.2-4.8,4.8-4.8h52.8
		c2.7,0,4.8,2.2,4.8,4.8V126.3z"/>
	<path class="st0" d="M106.1,107.2C106.1,107.2,106.1,107.2,106.1,107.2l-4.3,0l0-4.3c0-1-0.8-1.8-1.8-1.8c0,0,0,0,0,0
		c-1,0-1.8,0.8-1.8,1.8l0,4.3l-4.3,0c-1,0-1.8,0.8-1.8,1.8c0,1,0.8,1.8,1.8,1.8c0,0,0,0,0,0l4.3,0l0,4.3c0,1,0.8,1.8,1.8,1.8
		c0,0,0,0,0,0c1,0,1.8-0.8,1.8-1.8l0-4.3l4.3,0c1,0,1.8-0.8,1.8-1.8C107.9,108,107.1,107.2,106.1,107.2z"/>
</g>
</svg>
