<?xml version="1.0" encoding="utf-8"?>
<!-- Generator: Adobe Illustrator 21.1.0, SVG Export Plug-In . SVG Version: 6.00 Build 0)  -->
<svg version="1.1" id="Layer_1" xmlns="http://www.w3.org/2000/svg" xmlns:xlink="http://www.w3.org/1999/xlink" x="0px" y="0px"
	 viewBox="0 0 200 200" style="enable-background:new 0 0 200 200;" xml:space="preserve">
<style type="text/css">
	.st0{fill:#404040;}
</style>
<path class="st0" d="M136.3,71.9c0-4.4-3.6-8-8-8c-4.4,0-8,3.6-8,8c0,2.8,1.4,5.2,3.6,6.6l-14.1,41.6c-0.1,0-0.2,0-0.3,0
	c-0.3,0-0.6,0-0.9,0L96.7,95.9c1.6-1.5,2.5-3.5,2.5-5.8c0-4.4-3.6-8-8-8c-4.4,0-8,3.6-8,8c0,1.4,0.4,2.7,1,3.9l-9.7,11.3
	c-0.9-0.4-1.9-0.6-3-0.6c-4.4,0-8,3.6-8,8c0,4.4,3.6,8,8,8c4.4,0,8-3.6,8-8c0-1.6-0.5-3.1-1.3-4.3l9.5-11.1c1,0.5,2.2,0.8,3.4,0.8
	c0.4,0,0.7,0,1-0.1l11.9,24.2c-1.6,1.5-2.7,3.6-2.7,5.9c0,4.4,3.6,8,8,8c4.4,0,8-3.6,8-8c0-2.6-1.2-4.9-3.1-6.3l14.2-41.9
	C132.8,79.7,136.3,76.2,136.3,71.9z M71.7,115.8c-1.7,0-3.1-1.4-3.1-3.1c0-1.7,1.4-3.1,3.1-3.1s3.1,1.4,3.1,3.1
	C74.8,114.4,73.4,115.8,71.7,115.8z M88.2,90.1c0-1.7,1.4-3.1,3.1-3.1s3.1,1.4,3.1,3.1s-1.4,3.1-3.1,3.1S88.2,91.8,88.2,90.1z
	 M109.5,131.2c-1.7,0-3.1-1.4-3.1-3.1s1.4-3.1,3.1-3.1c1.7,0,3.1,1.4,3.1,3.1S111.2,131.2,109.5,131.2z M128.3,68.8
	c1.7,0,3.1,1.4,3.1,3.1S130,75,128.3,75s-3.1-1.4-3.1-3.1S126.6,68.8,128.3,68.8z"/>
</svg>
