<?xml version="1.0" encoding="utf-8"?>
<!-- Generator: Adobe Illustrator 21.1.0, SVG Export Plug-In . SVG Version: 6.00 Build 0)  -->
<svg version="1.1" id="Layer_1" xmlns="http://www.w3.org/2000/svg" xmlns:xlink="http://www.w3.org/1999/xlink" x="0px" y="0px"
	 viewBox="0 0 200 200" style="enable-background:new 0 0 200 200;" xml:space="preserve">
<style type="text/css">
	.st0{fill:#404040;}
</style>
<path class="st0" d="M135.1,80.5c-2.1-5.6-6.6-9.5-13.1-11.2c-6.7-1.8-13-0.3-18.3,4.2c-1.6,1.3-2.8,2.8-3.7,4
	c-0.9-1.2-2.2-2.7-3.7-4C91,69,84.7,67.6,78,69.3c-6.4,1.7-11,5.6-13.1,11.2c-2.8,7.6-0.8,17.2,5.4,26.3
	c10.2,14.8,27.8,23.9,28.5,24.3c0.3,0.2,0.7,0.3,1.1,0.3h0c0.4,0,0.8-0.1,1.1-0.3c0.7-0.4,18.3-9.4,28.5-24.3
	C135.9,97.7,137.9,88.1,135.1,80.5z M100,126.2c-3.9-2.2-17.3-10.2-25.4-21.8h16.5l2.8,8c0.3,0.7,0.9,1.2,1.7,1.2c0,0,0.1,0,0.1,0
	c0.8-0.1,1.5-0.6,1.7-1.5l2.6-13l2.4,8.9c0.2,0.8,0.9,1.3,1.7,1.3c0.8,0,1.5-0.5,1.8-1.2l2.5-7.5l1.2,1.9c0.3,0.5,0.9,0.8,1.5,0.8
	h15c-0.2,0.2-0.3,0.5-0.5,0.7C117.5,115.9,103.9,124.1,100,126.2z M128.2,99.8h-16.2l-2.7-4.2c-0.4-0.6-1.1-0.9-1.8-0.8
	c-0.7,0.1-1.3,0.6-1.5,1.2l-1.8,5.3l-2.8-10.4c-0.2-0.8-1-1.4-1.8-1.3c-0.8,0-1.6,0.6-1.7,1.5l-2.8,14l-1-3
	c-0.3-0.7-0.9-1.2-1.7-1.2H72.3c-3.7-6.7-4.7-13.4-2.8-18.5c1.5-4.1,4.9-7,9.8-8.2c1.5-0.4,2.9-0.6,4.1-0.6c9.5,0,14.2,9.2,14.4,9.6
	c0.4,0.8,1.2,1.3,2.2,1.3h0c0.9,0,1.8-0.5,2.2-1.3c0,0,1.6-3.2,4.7-5.8c4.1-3.5,8.7-4.6,13.9-3.2c4.9,1.3,8.2,4.1,9.8,8.2
	C132.3,87.1,131.5,93.4,128.2,99.8z"/>
</svg>
