<?xml version="1.0" encoding="utf-8"?>
<!-- Generator: Adobe Illustrator 21.1.0, SVG Export Plug-In . SVG Version: 6.00 Build 0)  -->
<svg version="1.1" id="Layer_1" xmlns="http://www.w3.org/2000/svg" xmlns:xlink="http://www.w3.org/1999/xlink" x="0px" y="0px"
	 viewBox="0 0 200 200" style="enable-background:new 0 0 200 200;" xml:space="preserve">
<style type="text/css">
	.st0{fill:#404040;}
</style>
<g>
	<path class="st0" d="M107.1,113.6c-1.3,0-2.4,1.1-2.4,2.4v2.7c0,0.6-0.5,1.1-1.1,1.1H86.2c-0.4,0-0.9,0.1-1.3,0.4l-6.7,4.1l0-2
		c0-0.6-0.3-1.3-0.7-1.7s-1.1-0.7-1.7-0.7h-5.9c-0.6,0-1.1-0.5-1.1-1.1V97.1c0-0.6,0.5-1.1,1.1-1.1h5.8c1.3,0,2.4-1.1,2.4-2.4
		s-1.1-2.4-2.4-2.4h-5.8c-3.3,0-6,2.7-6,6v21.7c0,3.3,2.7,6,6,6h3.5l0,3.9c0,0.9,0.5,1.7,1.2,2.1c0.4,0.2,0.8,0.3,1.2,0.3
		c0.4,0,0.9-0.1,1.3-0.4l9.8-6h16.7c3.3,0,6-2.7,6-6V116C109.5,114.7,108.4,113.6,107.1,113.6z"/>
	<path class="st0" d="M129.4,68.9H89.5c-3.7,0-6.8,3-6.8,6.8v26.4c0,3.7,3,6.8,6.8,6.8h19.2l12.1,7.4c0.4,0.2,0.8,0.4,1.3,0.4
		c0.4,0,0.8-0.1,1.2-0.3c0.8-0.4,1.2-1.2,1.2-2.1l0-5.3h4.8c3.7,0,6.8-3,6.8-6.8V75.7C136.1,72,133.1,68.9,129.4,68.9z M131.3,102.1
		c0,1.1-0.9,1.9-1.9,1.9h-7.3c-0.6,0-1.3,0.3-1.7,0.7s-0.7,1.1-0.7,1.7l0,3.4l-9-5.5c-0.4-0.2-0.8-0.4-1.3-0.4H89.5
		c-1.1,0-1.9-0.9-1.9-1.9V75.7c0-1.1,0.9-1.9,1.9-1.9h39.9c1.1,0,1.9,0.9,1.9,1.9V102.1z"/>
	<path class="st0" d="M115.6,87C115.6,87,115.6,87,115.6,87l-4.3,0l0-4.3c0-1-0.8-1.8-1.8-1.8c0,0,0,0,0,0c-1,0-1.8,0.8-1.8,1.8
		l0,4.3l-4.3,0c-1,0-1.8,0.8-1.8,1.8c0,1,0.8,1.8,1.8,1.8c0,0,0,0,0,0l4.3,0l0,4.3c0,1,0.8,1.8,1.8,1.8c0,0,0,0,0,0
		c1,0,1.8-0.8,1.8-1.8l0-4.3l4.3,0c1,0,1.8-0.8,1.8-1.8C117.4,87.9,116.6,87,115.6,87z"/>
</g>
</svg>
