<?xml version="1.0" encoding="utf-8"?>
<!-- Generator: Adobe Illustrator 21.1.0, SVG Export Plug-In . SVG Version: 6.00 Build 0)  -->
<svg version="1.1" id="Layer_1" xmlns="http://www.w3.org/2000/svg" xmlns:xlink="http://www.w3.org/1999/xlink" x="0px" y="0px"
	 viewBox="0 0 200 200" style="enable-background:new 0 0 200 200;" xml:space="preserve">
<style type="text/css">
	.st0{fill:#404040;}
	.st1{fill:none;stroke:#404040;stroke-width:20;stroke-linecap:round;stroke-linejoin:round;stroke-miterlimit:10;}
</style>
<g id="Brightness_2_">
	<path class="st0" d="M100.1,113.7c-3.6,0-7.1-1.4-9.6-4v0c0,0,0,0,0,0c-2.6-2.6-4-6-4-9.6c0-3.6,1.4-7.1,4-9.6c2.6-2.6,6-4,9.6-4
		c3.6,0,7.1,1.4,9.6,4c5.3,5.3,5.3,14,0,19.3C107.1,112.3,103.7,113.7,100.1,113.7z M100.1,91.3c-2.3,0-4.6,0.9-6.2,2.6
		c-1.7,1.7-2.6,3.9-2.6,6.2c0,2.3,0.9,4.6,2.6,6.2v0c1.7,1.7,3.9,2.6,6.2,2.6c2.3,0,4.6-0.9,6.2-2.6c3.4-3.4,3.4-9,0-12.4
		C104.6,92.2,102.4,91.3,100.1,91.3z"/>
	<path class="st0" d="M84.1,86.5c-0.6,0-1.2-0.2-1.7-0.7L74.6,78c-0.9-0.9-0.9-2.5,0-3.4c0.9-0.9,2.5-0.9,3.4,0l7.8,7.8
		c0.9,0.9,0.9,2.5,0,3.4C85.3,86.2,84.7,86.5,84.1,86.5z"/>
	<path class="st0" d="M123.7,126.1c-0.6,0-1.2-0.2-1.7-0.7l-7.6-7.6c-0.9-0.9-0.9-2.5,0-3.4c0.9-0.9,2.5-0.9,3.4,0l7.6,7.6
		c0.9,0.9,0.9,2.5,0,3.4C124.9,125.9,124.3,126.1,123.7,126.1z"/>
	<path class="st0" d="M100,79.7c-1.3,0-2.4-1.1-2.4-2.4V66.5c0-1.3,1.1-2.4,2.4-2.4c1.3,0,2.4,1.1,2.4,2.4v10.8
		C102.4,78.6,101.3,79.7,100,79.7z"/>
	<path class="st0" d="M100,135.9c-1.3,0-2.4-1.1-2.4-2.4v-10.8c0-1.3,1.1-2.4,2.4-2.4c1.3,0,2.4,1.1,2.4,2.4v10.8
		C102.4,134.9,101.3,135.9,100,135.9z"/>
	<path class="st0" d="M116,86.4c-0.6,0-1.2-0.2-1.7-0.7c-0.9-0.9-0.9-2.5,0-3.4l7.7-7.7c0.9-0.9,2.5-0.9,3.4,0
		c0.9,0.9,0.9,2.5,0,3.4l-7.7,7.7C117.3,86.2,116.6,86.4,116,86.4z"/>
	<path class="st0" d="M76.3,126.1c-0.6,0-1.2-0.2-1.7-0.7c-0.9-0.9-0.9-2.5,0-3.4l7.7-7.7c0.9-0.9,2.5-0.9,3.4,0
		c0.9,0.9,0.9,2.5,0,3.4l-7.7,7.7C77.5,125.9,76.9,126.1,76.3,126.1z"/>
	<path class="st0" d="M133.5,102.4h-10.8c-1.3,0-2.4-1.1-2.4-2.4s1.1-2.4,2.4-2.4h10.8c1.3,0,2.4,1.1,2.4,2.4
		S134.9,102.4,133.5,102.4z"/>
	<path class="st0" d="M77.3,102.4H66.5c-1.3,0-2.4-1.1-2.4-2.4s1.1-2.4,2.4-2.4h10.8c1.3,0,2.4,1.1,2.4,2.4S78.6,102.4,77.3,102.4z"
		/>
	<path class="st1" d="M86.5,86.5"/>
	<path class="st1" d="M113.7,113.7"/>
	<path class="st1" d="M84.1,116.1"/>
</g>
</svg>
