<?xml version="1.0" encoding="utf-8"?>
<!-- Generator: Adobe Illustrator 21.1.0, SVG Export Plug-In . SVG Version: 6.00 Build 0)  -->
<svg version="1.1" id="Layer_1" xmlns="http://www.w3.org/2000/svg" xmlns:xlink="http://www.w3.org/1999/xlink" x="0px" y="0px"
	 viewBox="0 0 200 200" style="enable-background:new 0 0 200 200;" xml:space="preserve">
<style type="text/css">
	.st0{fill:#404040;}
</style>
<g>
	<path class="st0" d="M123.8,112.9H84.5L70.3,78.8c-0.4-0.9-1.3-1.5-2.2-1.5H54.2c-1.3,0-2.4,1.1-2.4,2.4c0,1.3,1.1,2.4,2.4,2.4
		h12.3l14.1,34.1c0.4,0.9,1.3,1.5,2.2,1.5h40.9c1.3,0,2.4-1.1,2.4-2.4S125.1,112.9,123.8,112.9z"/>
	<path class="st0" d="M90.9,120.1c-4.4,0-8,3.6-8,8c0,4.4,3.6,8,8,8s8-3.6,8-8C98.8,123.7,95.3,120.1,90.9,120.1z M90.9,131.2
		c-1.7,0-3.1-1.4-3.1-3.1c0-1.7,1.4-3.1,3.1-3.1c1.7,0,3.1,1.4,3.1,3.1C94,129.8,92.6,131.2,90.9,131.2z"/>
	<path class="st0" d="M118,120.1c-4.4,0-8,3.6-8,8c0,4.4,3.6,8,8,8s8-3.6,8-8C125.9,123.7,122.4,120.1,118,120.1z M118,131.2
		c-1.7,0-3.1-1.4-3.1-3.1c0-1.7,1.4-3.1,3.1-3.1c1.7,0,3.1,1.4,3.1,3.1C121.1,129.8,119.7,131.2,118,131.2z"/>
	<path class="st0" d="M129.9,63.9c-4.8,0-9.4,2-12.8,5.4c-3.4,3.5-5.3,8-5.2,12.9c0,1,0.1,2.1,0.3,3.1H81.9c-0.1,0-0.1,0-0.2,0
		c-0.1,0-0.2,0-0.3,0c-0.1,0-0.2,0-0.3,0.1c-0.1,0-0.1,0-0.2,0c0,0,0,0,0,0c-0.1,0-0.2,0.1-0.3,0.1c-0.1,0-0.1,0.1-0.2,0.1
		c-0.1,0-0.1,0.1-0.2,0.2c-0.1,0-0.1,0.1-0.2,0.1c-0.1,0.1-0.1,0.1-0.1,0.2c-0.1,0.1-0.1,0.1-0.2,0.2c0,0.1-0.1,0.1-0.1,0.2
		c0,0.1-0.1,0.1-0.1,0.2c0,0.1,0,0.1-0.1,0.2c0,0.1-0.1,0.2-0.1,0.2c0,0.1,0,0.1,0,0.2c0,0.1,0,0.2,0,0.3c0,0,0,0,0,0
		c0,0.1,0,0.1,0,0.2c0,0.1,0,0.2,0,0.3c0,0.1,0,0.2,0.1,0.3c0,0.1,0,0.1,0,0.2l7.3,18.6c0.4,0.9,1.3,1.5,2.3,1.5h30
		c1,0,1.9-0.6,2.3-1.5l3.1-7.9c1.8,0.6,3.6,0.9,5.6,0.9c0,0,0.1,0,0.1,0c4.8,0,9.4-2,12.8-5.4c3.4-3.5,5.3-8,5.2-12.9
		C148.1,71.9,139.9,63.8,129.9,63.9z M117.5,103.9H90.8l-5.4-13.8h28.4c0.9,1.8,2.1,3.4,3.5,4.9c0.9,0.9,1.8,1.6,2.8,2.3
		L117.5,103.9z M139.5,91.4c-2.5,2.5-5.8,3.9-9.4,4c-3.6,0-6.9-1.3-9.4-3.8c-2.5-2.5-3.9-5.8-4-9.4c0-3.6,1.3-6.9,3.8-9.4
		c2.5-2.5,5.8-3.9,9.4-4c0,0,0.1,0,0.1,0c7.3,0,13.3,5.9,13.3,13.2C143.4,85.5,142,88.9,139.5,91.4z"/>
	<path class="st0" d="M135.8,80.2C135.8,80.2,135.8,80.2,135.8,80.2l-3.9,0l0-3.9c0-1-0.8-1.8-1.8-1.8c0,0,0,0,0,0
		c-1,0-1.8,0.8-1.8,1.8l0,3.9l-3.9,0c-1,0-1.8,0.8-1.8,1.8c0,1,0.8,1.8,1.8,1.8c0,0,0,0,0,0l3.9,0l0,3.9c0,1,0.8,1.8,1.8,1.8
		c0,0,0,0,0,0c1,0,1.8-0.8,1.8-1.8l0-3.9l3.9,0c1,0,1.8-0.8,1.8-1.8C137.6,81,136.8,80.2,135.8,80.2z"/>
</g>
</svg>
