<?xml version="1.0" encoding="utf-8"?>
<!-- Generator: Adobe Illustrator 21.1.0, SVG Export Plug-In . SVG Version: 6.00 Build 0)  -->
<svg version="1.1" id="Layer_1" xmlns="http://www.w3.org/2000/svg" xmlns:xlink="http://www.w3.org/1999/xlink" x="0px" y="0px"
	 viewBox="0 0 200 200" style="enable-background:new 0 0 200 200;" xml:space="preserve">
<style type="text/css">
	.st0{fill:#404040;}
</style>
<g>
	<path class="st0" d="M105.6,136.2H94.4c-5.3,0-9.7-4.3-9.7-9.7v-11.2H73.5c-5.3,0-9.7-4.3-9.7-9.7V94.4c0-5.3,4.3-9.7,9.7-9.7h11.2
		V73.5c0-5.3,4.3-9.7,9.7-9.7h11.2c5.3,0,9.7,4.3,9.7,9.7v11.2h11.2c5.3,0,9.7,4.3,9.7,9.7v11.2c0,5.3-4.3,9.7-9.7,9.7h-11.2v11.2
		C115.3,131.9,110.9,136.2,105.6,136.2z M73.5,89.6c-2.7,0-4.8,2.2-4.8,4.8v11.2c0,2.7,2.2,4.8,4.8,4.8h13.7c1.3,0,2.4,1.1,2.4,2.4
		v13.7c0,2.7,2.2,4.8,4.8,4.8h11.2c2.7,0,4.8-2.2,4.8-4.8v-13.7c0-1.3,1.1-2.4,2.4-2.4h13.7c2.7,0,4.8-2.2,4.8-4.8V94.4
		c0-2.7-2.2-4.8-4.8-4.8h-13.7c-1.3,0-2.4-1.1-2.4-2.4V73.5c0-2.7-2.2-4.8-4.8-4.8H94.4c-2.7,0-4.8,2.2-4.8,4.8v13.7
		c0,1.3-1.1,2.4-2.4,2.4H73.5z"/>
</g>
</svg>
