<?xml version="1.0" encoding="utf-8"?>
<!-- Generator: Adobe Illustrator 21.1.0, SVG Export Plug-In . SVG Version: 6.00 Build 0)  -->
<svg version="1.1" id="Layer_1" xmlns="http://www.w3.org/2000/svg" xmlns:xlink="http://www.w3.org/1999/xlink" x="0px" y="0px"
	 viewBox="0 0 200 200" style="enable-background:new 0 0 200 200;" xml:space="preserve">
<style type="text/css">
	.st0{fill:#404040;}
</style>
<path class="st0" d="M100,136.3c-20,0-36.3-16.3-36.3-36.3S80,63.7,100,63.7S136.3,80,136.3,100S120,136.3,100,136.3z M100,68.5
	c-17.3,0-31.5,14.1-31.5,31.5s14.1,31.5,31.5,31.5s31.5-14.1,31.5-31.5S117.3,68.5,100,68.5z"/>
<path class="st0" d="M103.7,116.2c-7.1,0.1-9.8-5-9.8-8.7V96.9h-3.3v-4.1c5-1.8,6.1-6.2,6.4-8.8c0-0.2,0.2-0.3,0.2-0.3
	c0.1,0,4.8,0,4.8,0v8.4h6.3v4.8H102v10.2c0.2,1.4,0.6,3.3,3.2,3.2c0.9,0,2-0.3,2.6-0.6l1.6,4.6C108.7,115.2,106.1,116.2,103.7,116.2
	z"/>
</svg>
