<?xml version="1.0" encoding="utf-8"?>
<!-- Generator: Adobe Illustrator 21.1.0, SVG Export Plug-In . SVG Version: 6.00 Build 0)  -->
<svg version="1.1" id="Layer_1" xmlns="http://www.w3.org/2000/svg" xmlns:xlink="http://www.w3.org/1999/xlink" x="0px" y="0px"
	 viewBox="0 0 200 200" style="enable-background:new 0 0 200 200;" xml:space="preserve">
<style type="text/css">
	.st0{fill:#404040;}
</style>
<path class="st0" d="M100,136.3c-20,0-36.3-16.3-36.3-36.3S80,63.7,100,63.7S136.3,80,136.3,100S120,136.3,100,136.3z M100,68.5
	c-17.3,0-31.5,14.1-31.5,31.5s14.1,31.5,31.5,31.5s31.5-14.1,31.5-31.5S117.3,68.5,100,68.5z"/>
<path class="st0" d="M111.6,94c0,0.3,0,0.5,0,0.8c0,7.9-6,17.1-17.1,17.1c-3.4,0-6.5-1-9.2-2.7c0.5,0.1,0.9,0.1,1.4,0.1
	c2.8,0,5.4-1,7.5-2.6c-2.6,0-4.8-1.8-5.6-4.2c0.4,0.1,0.7,0.1,1.1,0.1c0.5,0,1.1-0.1,1.6-0.2c-2.7-0.6-4.8-3-4.8-5.9
	c0,0,0-0.1,0-0.1c0.8,0.4,1.7,0.7,2.7,0.8c-1.6-1.1-2.7-2.9-2.7-5c0-1.1,0.3-2.1,0.8-3c3,3.6,7.4,6,12.4,6.3
	c-0.1-0.4-0.2-0.9-0.2-1.4c0-3.3,2.7-6,6-6c1.7,0,3.3,0.7,4.4,1.9c1.4-0.3,2.7-0.8,3.8-1.5c-0.4,1.4-1.4,2.6-2.6,3.3
	c1.2-0.1,2.4-0.5,3.4-0.9C113.8,92.1,112.8,93.2,111.6,94z"/>
</svg>
