<?xml version="1.0" encoding="utf-8"?>
<!-- Generator: Adobe Illustrator 21.1.0, SVG Export Plug-In . SVG Version: 6.00 Build 0)  -->
<svg version="1.1" id="Layer_1" xmlns="http://www.w3.org/2000/svg" xmlns:xlink="http://www.w3.org/1999/xlink" x="0px" y="0px"
	 viewBox="0 0 200 200" style="enable-background:new 0 0 200 200;" xml:space="preserve">
<style type="text/css">
	.st0{fill:#404040;}
</style>
<path class="st0" d="M125.5,103.4c-7.3-7.7-19.6-8.1-27.4-0.7c-2.1,1.9-3.6,4.3-4.7,6.9l-0.4-0.7c-0.5-0.9-1.6-1.2-2.5-0.8
	c-0.9,0.5-1.2,1.6-0.8,2.5l2.9,5.5c0,0,0,0,0,0c0.1,0.2,0.2,0.3,0.3,0.4c0.3,0.4,0.8,0.6,1.3,0.6c0.3,0,0.6-0.1,0.9-0.2l5.5-2.9
	c0.9-0.5,1.2-1.6,0.8-2.5c-0.5-0.9-1.6-1.2-2.5-0.8l-1.1,0.6c0.8-1.9,1.9-3.6,3.5-5.1c5.8-5.5,15-5.3,20.5,0.5
	c5.5,5.8,5.3,15-0.5,20.5c-2.3,2.2-5.2,3.5-8.2,3.9v-22.7c0-1.3-1.1-2.4-2.4-2.4s-2.4,1.1-2.4,2.4v22.9H86.5c-3.4,0-6.2-2.2-6.2-4.8
	V87h28v11.2c0,1.3,1.1,2.4,2.4,2.4s2.4-1.1,2.4-2.4V87h4.5c1.3,0,2.4-1.1,2.4-2.4v-7.9c0-0.9-0.5-1.7-1.3-2.1l-3.1-1.7v-6.5
	c0-1.3-1.1-2.4-2.4-2.4H76c-1.3,0-2.4,1.1-2.4,2.4v6.5l-3.1,1.7c-0.8,0.4-1.3,1.2-1.3,2.1v7.9c0,1.3,1.1,2.4,2.4,2.4h3.8v39.5
	c0,5.3,5,9.7,11.1,9.7h24.2c0.2,0,0.4,0,0.5-0.1c0.1,0,0.1,0,0.2,0c5,0,9.7-1.9,13.3-5.3C132.5,123.4,132.8,111.1,125.5,103.4z
	 M74.1,78.1l3.1-1.7c0.8-0.4,1.3-1.2,1.3-2.1v-5.5h32.4v3.9H95.5c-1,0-1.8,0.8-1.8,1.8c0,1,0.8,1.8,1.8,1.8h16.4
	c0.1,0,0.1,0.1,0.2,0.2l3.1,1.7v4H74.1V78.1z"/>
</svg>
