<?xml version="1.0" encoding="utf-8"?>
<!-- Generator: Adobe Illustrator 21.1.0, SVG Export Plug-In . SVG Version: 6.00 Build 0)  -->
<svg version="1.1" id="Layer_1" xmlns="http://www.w3.org/2000/svg" xmlns:xlink="http://www.w3.org/1999/xlink" x="0px" y="0px"
	 viewBox="0 0 200 200" style="enable-background:new 0 0 200 200;" xml:space="preserve">
<style type="text/css">
	.st0{fill:#404040;}
</style>
<g>
	<path class="st0" d="M100,63.7c-0.1,0-0.2,0-0.3,0c-20,0.1-36.2,16.5-36,36.6c0.1,19.9,16.4,36,36.3,36c0.1,0,0.2,0,0.3,0
		c20-0.1,36.2-16.5,36-36.6C136.2,79.8,119.9,63.7,100,63.7z M100.2,131.5c-0.1,0-0.2,0-0.2,0c-17.2,0-31.3-14-31.5-31.2
		c-0.1-17.3,13.9-31.6,31.2-31.7c0.1,0,0.2,0,0.2,0c17.2,0,31.3,14,31.5,31.2C131.6,117.1,117.6,131.3,100.2,131.5z"/>
	<path class="st0" d="M110,91.1l-13.3,13.3l-5.3-5.3c-0.9-0.9-2.5-0.9-3.4,0c-0.9,0.9-0.9,2.5,0,3.4l7,7c0.5,0.5,1.1,0.7,1.7,0.7
		c0.6,0,1.2-0.2,1.7-0.7l15-15.1c0.9-0.9,0.9-2.5,0-3.4C112.4,90.2,110.9,90.2,110,91.1z"/>
</g>
</svg>
