<?xml version="1.0" encoding="utf-8"?>
<!-- Generator: Adobe Illustrator 21.1.0, SVG Export Plug-In . SVG Version: 6.00 Build 0)  -->
<svg version="1.1" id="Layer_1" xmlns="http://www.w3.org/2000/svg" xmlns:xlink="http://www.w3.org/1999/xlink" x="0px" y="0px"
	 viewBox="0 0 200 200" style="enable-background:new 0 0 200 200;" xml:space="preserve">
<style type="text/css">
	.st0{fill:#404040;}
</style>
<g>
	<g>
		<path class="st0" d="M133.7,125.9C133.7,125.9,133.7,125.9,133.7,125.9l-46.8-0.2c-1.3,0-2.4-1.1-2.4-2.4c0-1.3,1.1-2.4,2.4-2.4
			c0,0,0,0,0,0l46.8,0.2c1.3,0,2.4,1.1,2.4,2.4C136.1,124.8,135,125.9,133.7,125.9z"/>
	</g>
	<g>
		<path class="st0" d="M71.8,131.3c-4.4,0-8-3.6-8-8s3.6-8,8-8s8,3.6,8,8S76.2,131.3,71.8,131.3z M71.8,120.2
			c-1.7,0-3.1,1.4-3.1,3.1s1.4,3.1,3.1,3.1s3.1-1.4,3.1-3.1S73.6,120.2,71.8,120.2z"/>
	</g>
	<g>
		<path class="st0" d="M133.7,102.5C133.7,102.5,133.7,102.5,133.7,102.5l-46.8-0.2c-1.3,0-2.4-1.1-2.4-2.4c0-1.3,1.1-2.4,2.4-2.4
			c0,0,0,0,0,0l46.8,0.2c1.3,0,2.4,1.1,2.4,2.4C136.1,101.5,135,102.5,133.7,102.5z"/>
	</g>
	<g>
		<path class="st0" d="M71.8,108c-4.4,0-8-3.6-8-8s3.6-8,8-8s8,3.6,8,8S76.2,108,71.8,108z M71.8,96.9c-1.7,0-3.1,1.4-3.1,3.1
			s1.4,3.1,3.1,3.1s3.1-1.4,3.1-3.1S73.6,96.9,71.8,96.9z"/>
	</g>
	<g>
		<path class="st0" d="M133.7,79.2C133.7,79.2,133.7,79.2,133.7,79.2L86.9,79c-1.3,0-2.4-1.1-2.4-2.4c0-1.3,1.1-2.4,2.4-2.4
			l46.8,0.2c1.3,0,2.4,1.1,2.4,2.4C136.1,78.1,135,79.2,133.7,79.2z"/>
	</g>
	<g>
		<path class="st0" d="M71.8,84.6c-4.4,0-8-3.6-8-8s3.6-8,8-8s8,3.6,8,8S76.2,84.6,71.8,84.6z M71.8,73.5c-1.7,0-3.1,1.4-3.1,3.1
			s1.4,3.1,3.1,3.1s3.1-1.4,3.1-3.1S73.6,73.5,71.8,73.5z"/>
	</g>
</g>
</svg>
