<?xml version="1.0" encoding="utf-8"?>
<!-- Generator: Adobe Illustrator 21.1.0, SVG Export Plug-In . SVG Version: 6.00 Build 0)  -->
<svg version="1.1" id="Layer_1" xmlns="http://www.w3.org/2000/svg" xmlns:xlink="http://www.w3.org/1999/xlink" x="0px" y="0px"
	 viewBox="0 0 200 200" style="enable-background:new 0 0 200 200;" xml:space="preserve">
<style type="text/css">
	.st0{fill:#404040;}
</style>
<path class="st0" d="M131.6,79.3C131,73.8,127,66.8,121,64.7c-2.3-0.8-7.2-1.7-14.8,1.1c-1,0.4-1.7,0.7-2.4,1.1
	c-1.3,0.7-2.1,1-3.8,1c-1.8,0-2.5-0.4-3.8-1c-0.7-0.3-1.4-0.7-2.4-1.1C86.2,63,81.3,63.9,79,64.7c-6.1,2.1-10,9.1-10.7,14.6
	c-0.8,6.6,1.9,12,4.4,17.3c1.5,3.1,2.9,6,3.6,9.1c0.4,1.5,0.7,3.1,1,4.6c1.3,6.2,2.6,12.7,6.4,18.5c4.5,6.9,7.5,7.3,8.6,7.3
	c0.1,0,0.1,0,0.2,0c1.7,0,2.7-0.8,3.3-1.5c1.8-2.2,1.2-5.6,0.6-9.5c-0.2-1.1-0.4-2.3-0.5-3.4c-0.6-5.5,0.3-10.6,2.2-12.8
	c0.7-0.8,1.4-0.9,1.8-0.9s1.1,0.1,1.8,0.9c1.9,2.1,2.8,7.2,2.2,12.8c-0.1,1-0.3,2.2-0.5,3.4c-0.7,4-1.2,7.4,0.6,9.5
	c0.6,0.7,1.6,1.5,3.3,1.5c1,0,4,0.1,8.8-7.3c3.8-5.8,5.1-12.3,6.4-18.5c0.3-1.5,0.6-3,1-4.6c0.7-3.1,2.1-6,3.6-9.1
	C129.7,91.3,132.4,85.9,131.6,79.3z M122.7,94.4c-1.6,3.2-3.2,6.6-4,10.2c-0.4,1.6-0.7,3.1-1,4.7c-1.2,6-2.4,11.7-5.7,16.8
	c-1.9,2.8-3.3,4.2-4,4.7c0-1.2,0.3-3.4,0.6-4.9c0.2-1.2,0.4-2.5,0.5-3.7c0.4-3.3,0.3-6.5-0.3-9.3c-0.6-3.1-1.7-5.6-3.2-7.3
	c-1.5-1.7-3.4-2.6-5.5-2.6s-4,0.9-5.5,2.6c-1.5,1.7-2.6,4.2-3.2,7.3c-0.5,2.8-0.6,6-0.3,9.3c0.1,1.2,0.3,2.4,0.5,3.7
	c0.3,1.4,0.6,3.6,0.6,4.9c-0.8-0.5-2.1-1.9-4-4.7c-3.3-5-4.5-10.7-5.7-16.8c-0.3-1.5-0.6-3.1-1-4.7c-0.8-3.6-2.4-7-4-10.2
	c-2.4-4.9-4.6-9.4-4-14.5c0.5-4,3.4-9.1,7.3-10.4c1-0.3,2.1-0.5,3.4-0.5c2.3,0,5.1,0.5,7.9,1.6c0.7,0.3,1.3,0.5,1.9,0.8
	c0.6,0.3,1.2,0.6,1.9,0.9c-3.8,1.2-6.2,1.4-8.4,1.4c-2.3,0-4.2-1-4.2-1c-0.9-0.5-2.1-0.2-2.5,0.8c-0.5,0.9-0.2,2.1,0.8,2.5
	c0.1,0.1,2.7,1.4,5.9,1.4c0.1,0,0.1,0,0.2,0c2.8-0.1,6-0.3,11.4-2.2c0,0,0,0,0.1,0c2.1-0.8,4.4-2.2,6.4-3.4c0.3-0.1,0.5-0.3,0.8-0.4
	c0.6-0.3,1.2-0.6,1.9-0.8c4.4-1.6,8.6-2,11.4-1.1c3.9,1.4,6.9,6.5,7.3,10.4C127.2,85,125,89.6,122.7,94.4z"/>
</svg>
