<?xml version="1.0" encoding="utf-8"?>
<!-- Generator: Adobe Illustrator 21.1.0, SVG Export Plug-In . SVG Version: 6.00 Build 0)  -->
<svg version="1.1" id="Layer_1" xmlns="http://www.w3.org/2000/svg" xmlns:xlink="http://www.w3.org/1999/xlink" x="0px" y="0px"
	 viewBox="0 0 200 200" style="enable-background:new 0 0 200 200;" xml:space="preserve">
<style type="text/css">
	.st0{fill:#404040;}
</style>
<g>
	<path class="st0" d="M134.2,95.2c-0.1-0.2-9.1-21-10.1-23.6c0,0,0-0.1,0-0.1l-0.1-0.2c-1.4-3.2-3.1-7.2-8.7-7.2H73.6
		c-4.1,0-6.1,1.9-6.9,3c-1.2,1.7-1.5,4-0.7,6.1c1.1,3,8.6,21.3,9.9,24.5v17.6h-3.2c-0.8,0-1.6,0.4-2,1.1c-0.4,0.7-0.5,1.6-0.1,2.3
		l6,11.8c1.2,3,3.9,5.2,7.1,5.2h43.1c4.2,0,7.7-3.8,7.7-8.4V96.2C134.4,95.8,134.4,95.5,134.2,95.2z M129.6,127.5
		c0,2-1.3,3.6-2.9,3.6H83.7c-0.9,0-1.6-0.5-2.2-1.2c0-0.1,0-0.1-0.1-0.2l-0.5-0.9c-0.1-0.4-0.2-0.8-0.2-1.3V97.3
		c0-0.3-0.1-0.6-0.2-0.9c-0.1-0.2-8.9-21.6-10.1-24.7c-0.2-0.7-0.2-1.3,0.1-1.7c0.4-0.6,1.5-1,2.9-1h41.8c2.3,0,2.9,1.1,4.3,4.3
		l0.1,0.2c1,2.6,8.5,20.1,9.9,23.2V127.5z"/>
	<path class="st0" d="M111,73.6H80.9c-0.6,0-1.2,0.3-1.5,0.8c-0.3,0.5-0.4,1.1-0.2,1.7c0.7,1.8,8.5,18.7,8.8,19.4
		c0.3,0.6,0.9,1.1,1.6,1.1c0,0,0,0,0,0l29.8-0.1c0.6,0,1.2-0.3,1.5-0.8c0.3-0.5,0.4-1.2,0.1-1.7c-0.1-0.2-7.9-17.8-8.5-19.3
		C112.3,74,111.7,73.6,111,73.6z M90.8,92.9c-2.2-4.7-5.4-11.9-7.1-15.7h26.2c1.4,3.1,5.1,11.4,6.9,15.7L90.8,92.9z"/>
	<path class="st0" d="M120.2,101.4H97.6c-1,0-1.8,0.8-1.8,1.8s0.8,1.8,1.8,1.8h22.5c1,0,1.8-0.8,1.8-1.8S121.2,101.4,120.2,101.4z"
		/>
	<circle class="st0" cx="91" cy="103.2" r="1.8"/>
</g>
</svg>
