<?xml version="1.0" encoding="utf-8"?>
<!-- Generator: Adobe Illustrator 21.1.0, SVG Export Plug-In . SVG Version: 6.00 Build 0)  -->
<svg version="1.1" id="Layer_1" xmlns="http://www.w3.org/2000/svg" xmlns:xlink="http://www.w3.org/1999/xlink" x="0px" y="0px"
	 viewBox="0 0 200 200" style="enable-background:new 0 0 200 200;" xml:space="preserve">
<style type="text/css">
	.st0{fill:#404040;}
</style>
<path class="st0" d="M145.6,94.9l-12.3-13.7c-2.3-2.5-5.5-4-9-4h-6.8l0.7-3.9c0.1-0.7-0.1-1.4-0.5-2c-0.5-0.5-1.1-0.9-1.9-0.9H69.1
	c-1.2,0-2.2,0.8-2.4,2l-1.4,8.3H53.4c-1,0-1.8,0.8-1.8,1.8s0.8,1.8,1.8,1.8h11.2l-0.9,5.5h-4.3c-1,0-1.8,0.8-1.8,1.8
	s0.8,1.8,1.8,1.8h3.7L62.1,99H58c-1,0-1.8,0.8-1.8,1.8s0.8,1.8,1.8,1.8h3.5l-1.3,7.6c-0.1,0.7,0.1,1.4,0.5,2
	c0.5,0.5,1.1,0.9,1.9,0.9h14.1c-1.2,1.7-2,3.8-2,6c0,5.7,4.7,10.4,10.4,10.4c5.7,0,10.4-4.7,10.4-10.4c0-2.3-0.7-4.3-2-6h15.8h3.9
	c-1.2,1.7-2,3.8-2,6c0,5.7,4.7,10.4,10.4,10.4s10.4-4.7,10.4-10.4c0-2.3-0.7-4.3-2-6h7.5c0.2,0,0.3,0,0.5,0c4.2-0.2,7.8-2.7,9.4-6.6
	C149.2,102.5,148.4,98.1,145.6,94.9z M85.1,124.7c-3.1,0-5.6-2.5-5.6-5.6c0-3.1,2.5-5.6,5.6-5.6c3.1,0,5.6,2.5,5.6,5.6
	C90.6,122.2,88.2,124.7,85.1,124.7z M121.6,124.7c-3.1,0-5.6-2.5-5.6-5.6c0-3.1,2.5-5.6,5.6-5.6s5.6,2.5,5.6,5.6
	C127.2,122.2,124.7,124.7,121.6,124.7z M66.4,102.6h7c1,0,1.8-0.8,1.8-1.8S74.4,99,73.4,99h-6.4l0.9-5.5h14.1c1,0,1.8-0.8,1.8-1.8
	s-0.8-1.8-1.8-1.8H68.6l0.9-5.5H78c1,0,1.8-0.8,1.8-1.8S79,80.8,78,80.8h-7.8l0.9-5.5h41.8l-0.6,3.5c0,0.1-0.1,0.3-0.1,0.4l-5,29
	H65.5L66.4,102.6z M143,104.6c-0.9,2.2-2.8,3.5-5.2,3.6c-0.1,0-0.2,0-0.3,0h-25.4l4.5-26.1h7.7c2,0,4,0.9,5.4,2.4L142,98.1
	C143.9,100.3,143.8,102.9,143,104.6z"/>
</svg>
