<?xml version="1.0" encoding="utf-8"?>
<!-- Generator: Adobe Illustrator 21.1.0, SVG Export Plug-In . SVG Version: 6.00 Build 0)  -->
<svg version="1.1" id="Layer_1" xmlns="http://www.w3.org/2000/svg" xmlns:xlink="http://www.w3.org/1999/xlink" x="0px" y="0px"
	 viewBox="0 0 200 200" style="enable-background:new 0 0 200 200;" xml:space="preserve">
<style type="text/css">
	.st0{fill:#404040;}
</style>
<g>
	<path class="st0" d="M100,130.5c-8.6,0-17-2.5-25.1-7.4c-8.2-5-15.7-12.3-22.4-21.7c-0.3-0.4-0.4-0.9-0.4-1.4v0
		c0-0.5,0.2-1,0.4-1.4c6.7-9.4,14.2-16.7,22.4-21.7c8-4.9,16.5-7.4,25.1-7.4c0,0,0,0,0,0c8.6,0,17,2.5,25.1,7.4
		c8,4.9,15.5,12.1,22.1,21.3c0.5,0.4,0.7,1.1,0.7,1.7v0.1c0,0.7-0.3,1.3-0.7,1.7c-6.6,9.3-14,16.4-22.1,21.3
		C117,128,108.6,130.5,100,130.5C100,130.5,100,130.5,100,130.5z M57.5,100c6,8.2,12.7,14.6,19.9,19c7.3,4.4,14.9,6.7,22.6,6.7
		c0,0,0,0,0,0c7.7,0,15.3-2.2,22.6-6.7c7.2-4.4,13.9-10.7,19.9-18.9c-6-8.2-12.7-14.6-19.9-18.9c-7.3-4.4-14.9-6.7-22.6-6.7
		c0,0,0,0,0,0c-7.7,0-15.3,2.2-22.6,6.7C70.2,85.4,63.5,91.8,57.5,100z"/>
	<path class="st0" d="M100.1,119.3c-10.7,0-19.3-8.7-19.3-19.3c0-3.7,1-7.2,3-10.3c3.6-5.6,9.7-9,16.3-9c6.4,0,12.4,3.2,16,8.5
		c2.2,3.2,3.3,6.9,3.3,10.8C119.4,110.7,110.8,119.3,100.1,119.3z M100.1,85.5c-5,0-9.6,2.5-12.2,6.8c-1.5,2.3-2.2,5-2.2,7.7
		c0,8,6.5,14.5,14.5,14.5c8,0,14.5-6.5,14.5-14.5c0-2.9-0.9-5.7-2.5-8.1C109.4,87.9,104.9,85.5,100.1,85.5z"/>
	<path class="st0" d="M105.8,100c0,3.2-2.6,5.7-5.7,5.7s-5.7-2.6-5.7-5.7c0-1.1,0.3-2.2,0.9-3c1-1.6,2.8-2.7,4.8-2.7
		c2,0,3.7,1,4.7,2.5C105.5,97.7,105.8,98.8,105.8,100z"/>
</g>
</svg>
