<?xml version="1.0" encoding="utf-8"?>
<!-- Generator: Adobe Illustrator 21.1.0, SVG Export Plug-In . SVG Version: 6.00 Build 0)  -->
<svg version="1.1" id="Layer_1" xmlns="http://www.w3.org/2000/svg" xmlns:xlink="http://www.w3.org/1999/xlink" x="0px" y="0px"
	 viewBox="0 0 200 200" style="enable-background:new 0 0 200 200;" xml:space="preserve">
<style type="text/css">
	.st0{fill:#404040;}
</style>
<path class="st0" d="M122.7,74.6l-2.9-1.7v-6.6c0-1.3-1.1-2.4-2.4-2.4H82.6c-1.3,0-2.4,1.1-2.4,2.4v6.6l-2.9,1.7
	c-0.7,0.4-1.2,1.2-1.2,2.1v7.9c0,1.3,1.1,2.4,2.4,2.4h2.7v39.5c0,5.3,4.7,9.7,10.5,9.7h16.6c5.8,0,10.5-4.3,10.5-9.7V87h2.7
	c1.3,0,2.4-1.1,2.4-2.4v-7.9C123.9,75.8,123.4,75,122.7,74.6z M114,126.4c0,2.7-2.5,4.8-5.6,4.8H91.7c-3.1,0-5.6-2.2-5.6-4.8V87H114
	V126.4z M119,82.1H81V78l2.9-1.7c0.7-0.4,1.2-1.2,1.2-2.1v-5.5h29.9v3.9h-14.1c-1,0-1.8,0.8-1.8,1.8c0,1,0.8,1.8,1.8,1.8H116
	c0.1,0,0.1,0.1,0.1,0.1L119,78V82.1z"/>
</svg>
