<?xml version="1.0" encoding="utf-8"?>
<!-- Generator: Adobe Illustrator 21.1.0, SVG Export Plug-In . SVG Version: 6.00 Build 0)  -->
<svg version="1.1" id="Layer_1" xmlns="http://www.w3.org/2000/svg" xmlns:xlink="http://www.w3.org/1999/xlink" x="0px" y="0px"
	 viewBox="0 0 200 200" style="enable-background:new 0 0 200 200;" xml:space="preserve">
<style type="text/css">
	.st0{fill:#404040;}
</style>
<g>
	<polygon class="st0" points="130.8,116.6 130.8,116.6 130.8,116.6 	"/>
	<path class="st0" d="M113.2,97.5V87h4.5c1.3,0,2.4-1.1,2.4-2.4v-7.9c0-0.9-0.5-1.7-1.3-2.1l-3.1-1.7v-6.5c0-1.3-1.1-2.4-2.4-2.4H76
		c-1.3,0-2.4,1.1-2.4,2.4v6.5l-3.1,1.7c-0.8,0.4-1.3,1.2-1.3,2.1v7.9c0,1.3,1.1,2.4,2.4,2.4h3.8v39.5c0,5.3,5,9.7,11.1,9.7h25l0,0
		c0,0,0,0,0,0c5.2,0,10-2.1,13.6-5.8c3.6-3.7,5.6-8.6,5.6-13.7c0-5.2-2.1-10-5.8-13.6C121.8,99.8,117.6,97.9,113.2,97.5z M74.1,78.1
		l3.1-1.7c0.8-0.4,1.3-1.2,1.3-2.1v-5.5h32.4v3.9H95.5c-1,0-1.8,0.8-1.8,1.8c0,1,0.8,1.8,1.8,1.8h16.4c0.1,0,0.1,0.1,0.2,0.2
		l3.1,1.7v4H74.1V78.1z M86.5,131.3c-3.4,0-6.2-2.2-6.2-4.8V87h28v10.7c-4,0.6-7.8,2.5-10.7,5.5c-3.6,3.7-5.6,8.6-5.6,13.7
		c0,5.2,2.1,10,5.8,13.6c0.3,0.3,0.5,0.5,0.8,0.7H86.5z M125.9,116.7c0,3.9-1.5,7.5-4.2,10.3c-2.7,2.8-6.4,4.3-10.2,4.3
		c-3.9,0-7.5-1.5-10.3-4.2c-2.8-2.7-4.3-6.4-4.3-10.2c0-3.9,1.5-7.5,4.2-10.3c2.7-2.8,6.4-4.3,10.2-4.3c0,0,0.1,0,0.1,0
		c3.8,0,7.5,1.5,10.2,4.2C124.4,109.2,125.9,112.8,125.9,116.7L125.9,116.7z"/>
	<path class="st0" d="M117.6,114.9C117.6,114.9,117.6,114.9,117.6,114.9l-4.3,0l0-4.3c0-1-0.8-1.8-1.8-1.8c0,0,0,0,0,0
		c-1,0-1.8,0.8-1.8,1.8l0,4.3l-4.3,0c-1,0-1.8,0.8-1.8,1.8c0,1,0.8,1.8,1.8,1.8c0,0,0,0,0,0l4.3,0l0,4.3c0,1,0.8,1.8,1.8,1.8
		c0,0,0,0,0,0c1,0,1.8-0.8,1.8-1.8l0-4.3l4.3,0c1,0,1.8-0.8,1.8-1.8C119.4,115.7,118.6,114.9,117.6,114.9z"/>
</g>
</svg>
