<?xml version="1.0" encoding="utf-8"?>
<!-- Generator: Adobe Illustrator 21.1.0, SVG Export Plug-In . SVG Version: 6.00 Build 0)  -->
<svg version="1.1" id="Layer_1" xmlns="http://www.w3.org/2000/svg" xmlns:xlink="http://www.w3.org/1999/xlink" x="0px" y="0px"
	 viewBox="0 0 200 200" style="enable-background:new 0 0 200 200;" xml:space="preserve">
<style type="text/css">
	.st0{fill:#404040;}
</style>
<g>
	<path class="st0" d="M112.2,108.1c-0.2,0-0.4,0-0.6-0.1l-13.7-3.2c-1.1-0.3-1.9-1.2-1.9-2.4V85.6c0-1.3,1.1-2.4,2.4-2.4
		s2.4,1.1,2.4,2.4v15l11.8,2.8c1.3,0.3,2.1,1.6,1.8,2.9C114.3,107.3,113.3,108.1,112.2,108.1z"/>
	<path class="st0" d="M100,136.3c-20,0-36.3-16.3-36.3-36.3S80,63.7,100,63.7S136.3,80,136.3,100S120,136.3,100,136.3z M100,68.5
		c-17.3,0-31.5,14.1-31.5,31.5s14.1,31.5,31.5,31.5s31.5-14.1,31.5-31.5S117.3,68.5,100,68.5z"/>
</g>
</svg>
