<?xml version="1.0" encoding="utf-8"?>
<!-- Generator: Adobe Illustrator 21.1.0, SVG Export Plug-In . SVG Version: 6.00 Build 0)  -->
<svg version="1.1" id="Layer_1" xmlns="http://www.w3.org/2000/svg" xmlns:xlink="http://www.w3.org/1999/xlink" x="0px" y="0px"
	 viewBox="0 0 200 200" style="enable-background:new 0 0 200 200;" xml:space="preserve">
<style type="text/css">
	.st0{fill:#404040;}
</style>
<g>
	<path class="st0" d="M77.5,81.4H107c1,0,1.8-0.8,1.8-1.8s-0.8-1.8-1.8-1.8H77.5c-1,0-1.8,0.8-1.8,1.8S76.5,81.4,77.5,81.4z"/>
	<path class="st0" d="M94.7,87.4H77.5c-1,0-1.8,0.8-1.8,1.8s0.8,1.8,1.8,1.8h17.2c1,0,1.8-0.8,1.8-1.8S95.7,87.4,94.7,87.4z"/>
	<path class="st0" d="M119.6,100.1l0-26.7c0-2.6-1-5-2.8-6.8c-1.8-1.8-4.3-2.8-6.8-2.8l-35.6,0c0,0,0,0,0,0c-2.6,0-5,1-6.8,2.8
		c-1.8,1.8-2.8,4.3-2.8,6.8l0,43.8c0,5.3,4.3,9.7,9.7,9.7l27.1,0c3.1,5.6,9.1,9.3,15.8,9.3c0,0,0.1,0,0.1,0c10-0.1,18.1-8.3,18-18.3
		C135.3,108.8,128.4,101.3,119.6,100.1z M74.3,122.1c-2.7,0-4.8-2.2-4.8-4.8l0-43.8c0-1.3,0.5-2.5,1.4-3.4c0.9-0.9,2.1-1.4,3.4-1.4
		c0,0,0,0,0,0l35.6,0c1.3,0,2.5,0.5,3.4,1.4c0.9,0.9,1.4,2.1,1.4,3.4l0,26.7c-8.9,1.2-15.7,8.9-15.6,18.1c0,1.3,0.2,2.6,0.5,3.9
		L74.3,122.1z M117.3,131.4C117.3,131.4,117.3,131.4,117.3,131.4c-7.4,0-13.4-5.9-13.4-13.2c-0.1-7.3,5.9-13.4,13.2-13.4
		c0,0,0.1,0,0.1,0c7.3,0,13.3,5.9,13.3,13.2C130.6,125.4,124.7,131.4,117.3,131.4z"/>
	<path class="st0" d="M120.4,119.3l-1.3,1.1v-8.7c0-1-0.8-1.8-1.8-1.8s-1.8,0.8-1.8,1.8v8.7l-1.3-1.2c-0.7-0.7-1.9-0.6-2.6,0.1
		c-0.7,0.7-0.6,1.9,0.1,2.6l4.2,3.9c0,0,0.1,0,0.1,0.1c0,0,0.1,0.1,0.1,0.1c0.1,0,0.1,0.1,0.2,0.1c0,0,0.1,0,0.1,0.1
		c0.1,0,0.2,0.1,0.2,0.1c0,0,0.1,0,0.1,0c0.1,0,0.2,0,0.4,0c0,0,0,0,0,0s0,0,0,0c0,0,0,0,0,0c0.2,0,0.4,0,0.6-0.1c0,0,0.1,0,0.1,0
		c0.2-0.1,0.3-0.2,0.5-0.3c0,0,0,0,0,0l4.4-3.8c0.8-0.7,0.8-1.8,0.2-2.6C122.3,118.7,121.1,118.6,120.4,119.3z"/>
</g>
</svg>
