<?xml version="1.0" encoding="utf-8"?>
<!-- Generator: Adobe Illustrator 21.1.0, SVG Export Plug-In . SVG Version: 6.00 Build 0)  -->
<svg version="1.1" id="Layer_1" xmlns="http://www.w3.org/2000/svg" xmlns:xlink="http://www.w3.org/1999/xlink" x="0px" y="0px"
	 viewBox="0 0 200 200" style="enable-background:new 0 0 200 200;" xml:space="preserve">
<style type="text/css">
	.st0{fill:#404040;}
</style>
<g>
	<path class="st0" d="M144.4,109.9c-2.3-5.4-5.1-8.6-8.1-9.5c2.2-2.4,3.6-5.7,3.5-9.3c0-3.7-1.5-7.1-4.1-9.6c-2.6-2.5-6-3.9-9.6-3.9
		c0,0-0.1,0-0.1,0c-3.5,0-6.6,1.3-9,3.5c0-0.1,0-0.1,0-0.2c0-4.5-1.8-8.7-5-11.8c-3.2-3.2-7.4-4.9-11.9-4.8c-4.5,0-8.7,1.8-11.8,5
		c-3.2,3.2-4.9,7.4-4.8,11.9c0,0.1,0,0.2,0,0.4c0,0,0,0,0,0c-2.6-2.5-6-3.9-9.6-3.9c0,0-0.1,0-0.1,0c-7.5,0.1-13.6,6.2-13.6,13.8
		c0,3.4,1.3,6.6,3.5,9.1c-3,0.9-5.8,4.1-8.1,9.5c-2,4.6-3.3,10.1-3.3,13.6v9.9c0,1.3,1.1,2.4,2.4,2.4h20.7h15h19.3h15.5h20.2
		c1.3,0,2.4-1.1,2.4-2.4v-9.9C147.8,120,146.4,114.4,144.4,109.9z M122.7,131h-45v-10.3c0-3.8,1.7-9.8,4.1-14.5
		c2.6-5.1,5.8-8.2,8.4-8.2h19.9c2.6,0,5.8,3.1,8.4,8.2c2.4,4.7,4.1,10.7,4.1,14.5V131z M126.1,82.4
		C126.1,82.4,126.1,82.4,126.1,82.4c2.4,0,4.6,0.9,6.3,2.6c1.7,1.7,2.6,3.9,2.6,6.3c0,4.9-3.9,8.9-8.8,8.9c-2.4,0-4.6-0.9-6.3-2.6
		c-1.7-1.7-2.6-3.9-2.6-6.3C117.3,86.4,121.2,82.4,126.1,82.4z M91.7,72.6c2.3-2.3,5.3-3.6,8.5-3.6c0,0,0.1,0,0.1,0
		c3.2,0,6.2,1.2,8.4,3.5c2.3,2.3,3.6,5.3,3.6,8.5l0,0c0,3.2-1.2,6.2-3.5,8.5c-2.3,2.3-5.3,3.6-8.5,3.6c-3.2,0-6.2-1.2-8.5-3.5
		c-2.3-2.3-3.6-5.3-3.6-8.5C88.2,77.9,89.4,74.9,91.7,72.6z M73.8,82.4C73.8,82.4,73.8,82.4,73.8,82.4c2.4,0,4.6,0.9,6.3,2.6
		c1.7,1.7,2.6,3.9,2.6,6.3c0,4.9-3.9,8.9-8.8,8.9c-2.4,0-4.6-0.9-6.3-2.6c-1.7-1.7-2.6-3.9-2.6-6.3C64.9,86.4,68.9,82.4,73.8,82.4z
		 M57,123.4c0-2.4,1-7.3,2.9-11.7c2-4.7,4.2-6.8,5.4-6.8h11.8c-2.5,5.2-4.2,11.4-4.2,15.7V131H57V123.4z M143,131h-15.4v-10.3
		c0-4.3-1.7-10.5-4.2-15.7h11.2c1.2,0,3.4,2.1,5.4,6.8c1.9,4.4,2.9,9.3,2.9,11.7V131z"/>
	<polygon class="st0" points="117,80.9 117,80.9 117,80.9 	"/>
</g>
</svg>
