<?xml version="1.0" encoding="utf-8"?>
<!-- Generator: Adobe Illustrator 21.1.0, SVG Export Plug-In . SVG Version: 6.00 Build 0)  -->
<svg version="1.1" id="Layer_1" xmlns="http://www.w3.org/2000/svg" xmlns:xlink="http://www.w3.org/1999/xlink" x="0px" y="0px"
	 viewBox="0 0 200 200" style="enable-background:new 0 0 200 200;" xml:space="preserve">
<style type="text/css">
	.st0{fill:#404040;}
</style>
<g>
	<path class="st0" d="M134.2,83.1l-17.3-17.3c-1.2-1.2-2.9-1.9-4.6-1.9H87.7c-1.7,0-3.4,0.7-4.6,1.9L65.8,83.1
		c-1.2,1.2-1.9,2.9-1.9,4.6v24.5c0,1.7,0.7,3.4,1.9,4.6l17.3,17.3c1.2,1.2,2.9,1.9,4.6,1.9h24.5c1.7,0,3.4-0.7,4.6-1.9l17.3-17.3
		c1.2-1.2,1.9-2.9,1.9-4.6V87.7C136.1,86,135.4,84.4,134.2,83.1z M131.3,112.3c0,0.4-0.2,0.9-0.5,1.2l-17.3,17.3
		c-0.3,0.3-0.7,0.5-1.2,0.5H87.7c-0.4,0-0.9-0.2-1.2-0.5l-17.3-17.3c-0.3-0.3-0.5-0.7-0.5-1.2V87.7c0-0.4,0.2-0.9,0.5-1.2l17.3-17.3
		c0.3-0.3,0.7-0.5,1.2-0.5h24.5c0.4,0,0.9,0.2,1.2,0.5l17.3,17.3c0.3,0.3,0.5,0.7,0.5,1.2V112.3z"/>
	<path class="st0" d="M113.4,86.6C113.4,86.6,113.4,86.6,113.4,86.6c-3.6-3.6-8.3-5.5-13.4-5.5c-5,0-9.8,2-13.4,5.5
		c-7.4,7.4-7.4,19.3,0,26.7c0,0,0,0,0,0c0,0,0,0,0,0c3.7,3.7,8.5,5.5,13.4,5.5c4.8,0,9.7-1.8,13.4-5.5c3.6-3.6,5.5-8.3,5.5-13.4
		C118.9,95,116.9,90.2,113.4,86.6C113.4,86.6,113.4,86.6,113.4,86.6z M90.1,90.1c2.7-2.7,6.2-4.1,9.9-4.1c2.9,0,5.7,0.9,8.1,2.6
		l-19.6,19.6C84.7,102.6,85.2,95,90.1,90.1z M109.9,109.9c-2.7,2.7-6.3,4.1-9.9,4.1c-2.8,0-5.7-0.9-8.1-2.5l19.6-19.6
		c1.7,2.3,2.6,5.1,2.6,8.1C114,103.8,112.6,107.3,109.9,109.9z"/>
</g>
</svg>
