<?xml version="1.0" encoding="utf-8"?>
<!-- Generator: Adobe Illustrator 21.1.0, SVG Export Plug-In . SVG Version: 6.00 Build 0)  -->
<svg version="1.1" id="Layer_1" xmlns="http://www.w3.org/2000/svg" xmlns:xlink="http://www.w3.org/1999/xlink" x="0px" y="0px"
	 viewBox="0 0 200 200" style="enable-background:new 0 0 200 200;" xml:space="preserve">
<style type="text/css">
	.st0{fill:#404040;}
</style>
<g>
	<path class="st0" d="M100,63.7c-0.1,0-0.2,0-0.3,0c-20,0.1-36.2,16.5-36,36.6c0.1,19.9,16.4,36,36.3,36c0.1,0,0.2,0,0.3,0
		c9.7-0.1,18.8-3.9,25.6-10.8c6.8-6.9,10.5-16,10.4-25.7C136.2,79.8,119.9,63.7,100,63.7z M122.4,122.1c-5.9,6-13.8,9.3-22.2,9.4
		c-0.1,0-0.2,0-0.2,0c-17.2,0-31.3-14-31.5-31.2c-0.1-17.3,13.9-31.6,31.2-31.7c0.1,0,0.2,0,0.2,0c17.2,0,31.3,14,31.5,31.2
		C131.5,108.2,128.3,116.1,122.4,122.1z"/>
	<path class="st0" d="M112.3,97.5C112.3,97.5,112.3,97.5,112.3,97.5l-9.8,0.1l-0.1-9.8c0-1.3-1.1-2.4-2.4-2.4c0,0,0,0,0,0
		c-1.3,0-2.4,1.1-2.4,2.4l0.1,9.8l-9.8,0.1c-1.3,0-2.4,1.1-2.4,2.4c0,1.3,1.1,2.4,2.4,2.4c0,0,0,0,0,0l9.8-0.1l0.1,9.8
		c0,1.3,1.1,2.4,2.4,2.4c0,0,0,0,0,0c1.3,0,2.4-1.1,2.4-2.4l-0.1-9.8l9.8-0.1c1.3,0,2.4-1.1,2.4-2.4
		C114.8,98.6,113.7,97.5,112.3,97.5z"/>
</g>
</svg>
