<?xml version="1.0" encoding="utf-8"?>
<!-- Generator: Adobe Illustrator 21.1.0, SVG Export Plug-In . SVG Version: 6.00 Build 0)  -->
<svg version="1.1" id="Layer_1" xmlns="http://www.w3.org/2000/svg" xmlns:xlink="http://www.w3.org/1999/xlink" x="0px" y="0px"
	 viewBox="0 0 200 200" style="enable-background:new 0 0 200 200;" xml:space="preserve">
<style type="text/css">
	.st0{fill:#404040;}
</style>
<g>
	<path class="st0" d="M135,74.6l-2.6-1.7v-6.6c0-1.3-1.1-2.4-2.4-2.4H98.7c-1.3,0-2.4,1.1-2.4,2.4v6.6l-2.6,1.7
		c-0.7,0.4-1.1,1.2-1.1,2v7.9c0,1.3,1.1,2.4,2.4,2.4h2.8v17.1c0,1.3,1.1,2.4,2.4,2.4c1.3,0,2.4-1.1,2.4-2.4V87h23.4v39.5
		c0,2.7-2.2,4.8-4.8,4.8h-13.7c-2.7,0-4.8-2.2-4.8-4.8v-5.8c0-1.3-1.1-2.4-2.4-2.4c-1.3,0-2.4,1.1-2.4,2.4v5.8
		c0,5.3,4.3,9.7,9.7,9.7h13.7c5.3,0,9.7-4.3,9.7-9.7V87h2.8c1.3,0,2.4-1.1,2.4-2.4v-7.9C136.1,75.8,135.7,75.1,135,74.6z
		 M131.3,82.1H97.5V78l2.6-1.7c0.7-0.4,1.1-1.2,1.1-2v-5.5h26.4v3.9h-12.5c-1,0-1.8,0.8-1.8,1.8c0,1,0.8,1.8,1.8,1.8h13.5
		c0,0,0,0,0.1,0.1l2.6,1.7V82.1z"/>
	<path class="st0" d="M87.5,118c-1.3,0-2.4,1.1-2.4,2.4v5.3c0,1.3-1.1,2.4-2.4,2.4h-8.2c-1.3,0-2.4-1.1-2.4-2.4V99.6h13.1v4.4
		c0,1.3,1.1,2.4,2.4,2.4c1.3,0,2.4-1.1,2.4-2.4v-4.4h0.9c1.3,0,2.4-1.1,2.4-2.4v-5.4c0-0.8-0.4-1.5-1-2L90.9,89v-4.1
		c0-1.3-1.1-2.4-2.4-2.4H68.6c-1.3,0-2.4,1.1-2.4,2.4V89l-1.3,0.9c-0.6,0.5-1,1.2-1,2v5.4c0,1.3,1.1,2.4,2.4,2.4h0.9v26.1
		c0,4,3.3,7.3,7.3,7.3h8.2c4,0,7.3-3.3,7.3-7.3v-5.3C89.9,119.1,88.8,118,87.5,118z M68.7,93.1l1.3-0.9c0.6-0.5,1-1.2,1-2v-3h15v3
		c0,0.8,0.4,1.5,1,2l1.3,0.9v1.7H68.7V93.1z"/>
	<path class="st0" d="M79.7,111.8c0,1,0.8,1.8,1.8,1.8h31.6l-4.8,5.1c-0.7,0.7-0.7,1.9,0.1,2.6c0.4,0.3,0.8,0.5,1.2,0.5
		c0.5,0,1-0.2,1.3-0.6l7.7-8.1c0.3-0.4,0.5-0.8,0.5-1.3c0-0.5-0.2-0.9-0.6-1.3l-7.7-7.3c-0.7-0.7-1.9-0.7-2.6,0.1
		c-0.7,0.7-0.7,1.9,0.1,2.6l4.4,4.1H81.5C80.5,110,79.7,110.8,79.7,111.8z"/>
</g>
</svg>
