<?xml version="1.0" encoding="utf-8"?>
<!-- Generator: Adobe Illustrator 21.1.0, SVG Export Plug-In . SVG Version: 6.00 Build 0)  -->
<svg version="1.1" id="Layer_1" xmlns="http://www.w3.org/2000/svg" xmlns:xlink="http://www.w3.org/1999/xlink" x="0px" y="0px"
	 viewBox="0 0 200 200" style="enable-background:new 0 0 200 200;" xml:space="preserve">
<style type="text/css">
	.st0{fill:#404040;}
</style>
<g>
	<path class="st0" d="M113.2,97.5V87h4.5c1.3,0,2.4-1.1,2.4-2.4v-7.9c0-0.9-0.5-1.7-1.3-2.1l-3.1-1.7v-6.5c0-1.3-1.1-2.4-2.4-2.4H76
		c-1.3,0-2.4,1.1-2.4,2.4v6.5l-3.1,1.7c-0.8,0.4-1.3,1.2-1.3,2.1v7.9c0,1.3,1.1,2.4,2.4,2.4h3.8v39.5c0,5.3,5,9.7,11.1,9.7h24.9
		c10.7,0,19.4-8.7,19.4-19.4C130.8,106.7,123,98.4,113.2,97.5z M74.1,78.1l3.1-1.7c0.8-0.4,1.3-1.2,1.3-2.1v-5.5h32.4v3.9H95.5
		c-1,0-1.8,0.8-1.8,1.8c0,1,0.8,1.8,1.8,1.8h16.4c0.1,0,0.1,0.1,0.2,0.2l3.1,1.7v4H74.1V78.1z M86.5,131.3c-3.4,0-6.2-2.2-6.2-4.8
		V87h28v10.7c-9.2,1.5-16.3,9.5-16.3,19.1c0,5.8,2.6,11,6.6,14.5H86.5z M111.4,131.3c-8,0-14.5-6.5-14.5-14.5
		c0-8,6.5-14.5,14.5-14.5c8,0,14.5,6.5,14.5,14.5C125.9,124.8,119.4,131.3,111.4,131.3z"/>
	<path class="st0" d="M118.2,117.9l-5.6-1.3v-7.1c0-1-0.8-1.8-1.8-1.8s-1.8,0.8-1.8,1.8v8.6c0,0.8,0.6,1.6,1.4,1.8l7,1.6
		c0.1,0,0.3,0,0.4,0c0.8,0,1.6-0.6,1.8-1.4C119.7,119.1,119.1,118.1,118.2,117.9z"/>
</g>
</svg>
