<?xml version="1.0" encoding="utf-8"?>
<!-- Generator: Adobe Illustrator 21.1.0, SVG Export Plug-In . SVG Version: 6.00 Build 0)  -->
<svg version="1.1" id="Layer_1" xmlns="http://www.w3.org/2000/svg" xmlns:xlink="http://www.w3.org/1999/xlink" x="0px" y="0px"
	 viewBox="0 0 200 200" style="enable-background:new 0 0 200 200;" xml:space="preserve">
<style type="text/css">
	.st0{fill:#404040;}
</style>
<path class="st0" d="M145.2,39.3h-5.8V28c0-3.2-1.5-6.3-4-8.3c-2.6-2-5.8-2.7-9-1.9L48.3,37.7c-4.6,1.2-7.9,5.3-7.9,10.1v5.5
	c0,0,0,0.1,0,0.1c0,0.1,0,0.2,0,0.3v114.4c0,8,6.5,14.4,14.4,14.4h90.4c7.9,0,14.4-6.5,14.4-14.4V53.7
	C159.6,45.7,153.2,39.3,145.2,39.3z M128.5,28.6v10.7h-42L128.5,28.6z M148.7,168.1c0,1.9-1.6,3.5-3.5,3.5H54.8
	c-1.9,0-3.5-1.6-3.5-3.5V53.7c0-1.9,1.6-3.5,3.5-3.5h90.4c1.9,0,3.5,1.6,3.5,3.5V168.1z"/>
</svg>
