<?xml version="1.0" encoding="utf-8"?>
<!-- Generator: Adobe Illustrator 21.1.0, SVG Export Plug-In . SVG Version: 6.00 Build 0)  -->
<svg version="1.1" id="Layer_1" xmlns="http://www.w3.org/2000/svg" xmlns:xlink="http://www.w3.org/1999/xlink" x="0px" y="0px"
	 viewBox="0 0 200 200" style="enable-background:new 0 0 200 200;" xml:space="preserve">
<style type="text/css">
	.st0{fill:#404040;}
</style>
<g>
	<path class="st0" d="M147.6,95.6c-0.5-0.6-1.1-0.9-1.9-0.9H87.1c-0.7,0-1.4,0.3-1.9,0.9c-0.5,0.6-0.7,1.3-0.5,2
		c2.8,15.3,16.1,26.4,31.7,26.4s28.9-11.1,31.7-26.4C148.3,96.9,148.1,96.2,147.6,95.6z M116.5,119.1c-12.2,0-22.8-8.1-26.3-19.5
		h52.5C139.3,111.1,128.7,119.1,116.5,119.1z"/>
	<path class="st0" d="M79,100c-10.3-1.9-18.7-9.4-21.7-19.1h52.6c-0.7,2.3-1.9,4.8-3.6,7.1c-0.8,1.1-0.5,2.6,0.6,3.4
		c1.1,0.8,2.6,0.5,3.4-0.6c2.8-4,4.6-8.4,5-12.1c0.1-0.7-0.2-1.4-0.6-1.9c-0.5-0.5-1.1-0.8-1.8-0.8H54.2c-0.7,0-1.4,0.3-1.9,0.9
		c-0.5,0.6-0.7,1.3-0.5,2c2.4,13,13,23.4,26.3,25.8c0.1,0,0.3,0,0.4,0c1.1,0,2.2-0.8,2.4-2C81.2,101.5,80.3,100.2,79,100z"/>
</g>
</svg>
