<?xml version="1.0" encoding="utf-8"?>
<!-- Generator: Adobe Illustrator 21.1.0, SVG Export Plug-In . SVG Version: 6.00 Build 0)  -->
<svg version="1.1" id="Layer_1" xmlns="http://www.w3.org/2000/svg" xmlns:xlink="http://www.w3.org/1999/xlink" x="0px" y="0px"
	 viewBox="0 0 200 200" style="enable-background:new 0 0 200 200;" xml:space="preserve">
<style type="text/css">
	.st0{fill:#404040;}
</style>
<g>
	<path class="st0" d="M121,114c0.2-0.2,0.4-0.4,0.5-0.6c0,0,0,0,0,0c0.6-0.6,1.1-1.3,1.6-1.9c0,0,0-0.1,0.1-0.1
		c0.1-0.2,0.3-0.4,0.4-0.6c0,0,0.1-0.1,0.1-0.1c0.1-0.2,0.3-0.4,0.4-0.6c0,0,0,0,0-0.1c0.3-0.5,0.6-0.9,0.9-1.4c0,0,0-0.1,0.1-0.1
		c0.1-0.2,0.2-0.4,0.4-0.6c0-0.1,0.1-0.1,0.1-0.2c0.1-0.2,0.2-0.4,0.3-0.6c0-0.1,0.1-0.1,0.1-0.2c0.1-0.2,0.2-0.4,0.3-0.6
		c0,0,0-0.1,0-0.1c0.2-0.5,0.5-1,0.7-1.5c0-0.1,0.1-0.1,0.1-0.2c0.1-0.2,0.2-0.4,0.2-0.6c0-0.1,0.1-0.2,0.1-0.2
		c0.1-0.2,0.1-0.4,0.2-0.5c0-0.1,0.1-0.1,0.1-0.2c0.1-0.2,0.1-0.4,0.2-0.6c0,0,0-0.1,0-0.1c0.1-0.3,0.2-0.5,0.2-0.8
		c0-0.1,0-0.1,0-0.2c0.1-0.2,0.1-0.4,0.2-0.6c0-0.1,0-0.2,0.1-0.3c0-0.2,0.1-0.4,0.1-0.5c0-0.1,0-0.2,0.1-0.3c0-0.2,0.1-0.4,0.1-0.5
		c0-0.1,0-0.2,0.1-0.3c0-0.2,0.1-0.5,0.1-0.7c0,0,0-0.1,0-0.1c0-0.3,0.1-0.5,0.1-0.8c0-0.1,0-0.2,0-0.2c0-0.2,0-0.4,0.1-0.6
		c0-0.1,0-0.2,0-0.3c0-0.2,0-0.4,0-0.5c0-0.1,0-0.2,0-0.3c0-0.2,0-0.4,0-0.6c0-0.1,0-0.2,0-0.3c0-0.3,0-0.5,0-0.8c0,0,0,0,0,0
		c0-16.2-13.1-29.3-29.3-29.3h0h0c-16.2,0-29.3,13.1-29.3,29.3c0,0.3,0,0.6,0,0.8c0,0.1,0,0.2,0,0.3c0,0.2,0,0.4,0,0.6
		c0,0.1,0,0.2,0,0.3c0,0.2,0,0.4,0,0.6c0,0.1,0,0.2,0,0.3c0,0.2,0,0.4,0.1,0.6c0,0.1,0,0.1,0,0.2c0,0.3,0.1,0.6,0.1,0.8
		c0,0,0,0.1,0,0.1c0,0.2,0.1,0.5,0.1,0.7c0,0.1,0,0.2,0,0.2c0,0.2,0.1,0.4,0.1,0.6c0,0.1,0,0.2,0.1,0.3c0,0.2,0.1,0.4,0.1,0.6
		c0,0.1,0,0.2,0.1,0.2c0.1,0.2,0.1,0.4,0.2,0.7c0,0,0,0.1,0,0.1c0.1,0.3,0.2,0.5,0.2,0.8c0,0,0,0.1,0,0.1c0.1,0.2,0.1,0.5,0.2,0.7
		c0,0.1,0,0.1,0.1,0.2c0.1,0.2,0.1,0.4,0.2,0.6c0,0.1,0.1,0.1,0.1,0.2c0.1,0.2,0.2,0.4,0.2,0.6c0,0.1,0,0.1,0.1,0.2
		c0.2,0.5,0.4,1,0.7,1.5c0,0,0,0,0,0.1c0.1,0.2,0.2,0.4,0.3,0.7c0,0,0,0.1,0.1,0.1c0.1,0.2,0.2,0.4,0.3,0.6c0,0,0.1,0.1,0.1,0.1
		c0.1,0.2,0.2,0.4,0.4,0.6c0,0,0,0,0,0.1c0.3,0.5,0.6,1,0.9,1.4c0,0,0,0,0,0c0.1,0.2,0.3,0.4,0.5,0.6c0,0,0,0.1,0.1,0.1
		c0.1,0.2,0.3,0.4,0.4,0.6c0,0,0,0,0.1,0.1c0.5,0.7,1.1,1.3,1.6,1.9c0,0,0,0,0,0c0.2,0.2,0.4,0.4,0.6,0.6c0,0,0,0,0,0
		c0.2,0.2,0.4,0.4,0.6,0.6c0,0,0,0,0,0c0.6,0.6,1.2,1.2,1.9,1.7c0,0,0,0,0,0c0.2,0.2,0.4,0.3,0.6,0.5c0,0,0,0,0,0
		c0.2,0.2,0.4,0.3,0.7,0.5c0,0.1,0,0.2,0,0.3v15.8c0,0.8,0.4,1.5,1,2c0.4,0.3,0.9,0.4,1.4,0.4c0.3,0,0.6-0.1,0.9-0.2l13.9-5.4
		l13.9,5.4c0.3,0.1,0.6,0.2,0.9,0.2h0h0c0.5,0,0.9-0.1,1.4-0.4c0.7-0.4,1-1.2,1-2v-15.8c0,0,0,0,0,0c0-0.1,0-0.2,0-0.3c0,0,0,0,0,0
		c0,0,0,0,0,0c0.2-0.2,0.4-0.3,0.7-0.5c0,0,0,0,0.1,0c0.2-0.2,0.4-0.3,0.6-0.5c0,0,0,0,0,0c0.7-0.5,1.3-1.1,1.9-1.7c0,0,0,0,0,0
		C120.6,114.4,120.8,114.2,121,114C121,114,121,114,121,114z M124.5,93.5c0,13.5-11,24.5-24.5,24.5c-13.5,0-24.5-11-24.5-24.5
		S86.5,69,100,69C113.5,69,124.5,80,124.5,93.5z M99.1,125.4l-11.5,4.5v-9.7c1.6,0.8,3.4,1.4,5.1,1.8c0,0,0,0,0,0
		c0.2,0.1,0.5,0.1,0.7,0.2c0,0,0.1,0,0.1,0c0.2,0,0.4,0.1,0.6,0.1c0.1,0,0.1,0,0.2,0c0.2,0,0.4,0.1,0.6,0.1c0.1,0,0.2,0,0.2,0
		c0.2,0,0.3,0.1,0.5,0.1c0.1,0,0.2,0,0.3,0c0.2,0,0.3,0,0.5,0.1c0.1,0,0.2,0,0.3,0c0.2,0,0.3,0,0.5,0c0.1,0,0.2,0,0.3,0
		c0.2,0,0.3,0,0.5,0c0.1,0,0.2,0,0.3,0c0.2,0,0.4,0,0.5,0c0.1,0,0.2,0,0.2,0c0.3,0,0.5,0,0.8,0h0h0c0,0,0,0,0,0c0.3,0,0.5,0,0.8,0
		c0.1,0,0.2,0,0.3,0c0.2,0,0.4,0,0.5,0c0.1,0,0.2,0,0.3,0c0.2,0,0.3,0,0.5,0c0.1,0,0.2,0,0.3,0c0.2,0,0.3,0,0.5,0c0.1,0,0.2,0,0.3,0
		c0.2,0,0.3,0,0.5-0.1c0.1,0,0.2,0,0.3,0c0.2,0,0.3-0.1,0.5-0.1c0.1,0,0.2,0,0.2,0c0.2,0,0.4-0.1,0.5-0.1c0.1,0,0.1,0,0.2,0
		c0.2,0,0.4-0.1,0.6-0.1c0,0,0.1,0,0.1,0c0.2-0.1,0.5-0.1,0.7-0.2c0,0,0,0,0,0c1.8-0.5,3.5-1.1,5.1-1.8c0,0,0,0,0,0v9.7l-11.5-4.5
		c-0.3-0.1-0.6-0.2-0.9-0.2S99.4,125.3,99.1,125.4z"/>
	<path class="st0" d="M92,97.1l-1.8,7.9c-0.2,0.7,0.1,1.4,0.7,1.8c0.6,0.4,1.3,0.5,2,0.1l7.1-4l7.1,4c0.3,0.2,0.6,0.2,0.9,0.2
		c0.4,0,0.8-0.1,1.1-0.4c0.6-0.4,0.8-1.1,0.7-1.8l-1.8-7.9l5.4-5.1c0.5-0.5,0.7-1.2,0.5-1.8c-0.2-0.7-0.8-1.1-1.5-1.2l-7.4-1.1
		l-3.3-7.2c-0.3-0.6-0.9-1.1-1.6-1.1c0,0,0,0,0,0c-0.7,0-1.3,0.4-1.6,1l-3.3,7.2l-7.4,1c-0.7,0.1-1.2,0.6-1.5,1.2
		c-0.2,0.7,0,1.4,0.5,1.9L92,97.1z M96.6,91.3c0.6-0.1,1.1-0.5,1.4-1l2.1-4.5l2,4.5c0.3,0.6,0.8,0.9,1.4,1l4.7,0.7l-3.4,3.3
		c-0.5,0.4-0.7,1.1-0.5,1.7l1.1,4.9l-4.5-2.5c-0.3-0.2-0.6-0.2-0.9-0.2c-0.3,0-0.6,0.1-0.9,0.2l-4.5,2.5l1.1-4.9
		c0.1-0.6,0-1.3-0.5-1.7L91.8,92L96.6,91.3z"/>
</g>
</svg>
