<?xml version="1.0" encoding="utf-8"?>
<!-- Generator: Adobe Illustrator 21.1.0, SVG Export Plug-In . SVG Version: 6.00 Build 0)  -->
<svg version="1.1" id="Layer_1" xmlns="http://www.w3.org/2000/svg" xmlns:xlink="http://www.w3.org/1999/xlink" x="0px" y="0px"
	 viewBox="0 0 200 200" style="enable-background:new 0 0 200 200;" xml:space="preserve">
<style type="text/css">
	.st0{fill:#404040;}
</style>
<g>
	<path class="st0" d="M120.6,104.4c-2.8-7.4-6.3-10.1-9.2-10.8c0.2-0.2,0.4-0.4,0.6-0.6c3.2-3.2,4.9-7.4,4.8-11.9s-1.8-8.7-5-11.8
		s-7.4-4.9-11.9-4.8c-4.5,0-8.7,1.8-11.8,5c-3.2,3.2-4.9,7.4-4.8,11.9s1.8,8.7,5,11.8c0.2,0.2,0.3,0.3,0.5,0.5
		c-2.9,0.7-6.4,3.4-9.2,10.8c-2.2,5.7-3.1,12.4-3.1,16.4v12.5c0,1.3,1.1,2.4,2.4,2.4h42.6c1.3,0,2.4-1.1,2.4-2.4v-12.5
		C123.7,116.7,122.7,110.1,120.6,104.4z M88,81.2c0-3.2,1.2-6.2,3.5-8.5c2.3-2.3,5.3-3.6,8.5-3.6c0,0,0.1,0,0.1,0
		c3.2,0,6.2,1.2,8.4,3.5c2.3,2.3,3.6,5.3,3.6,8.5l0,0c0,3.2-1.2,6.2-3.5,8.5c-2.3,2.3-5.3,3.6-8.5,3.6c-3.2,0-6.2-1.2-8.5-3.5
		C89.3,87.4,88,84.4,88,81.2z M91.5,112.4c0.9,0,1.7,0.8,1.7,1.7c0,0.9-0.8,1.7-1.7,1.7c-0.9,0-1.7-0.8-1.7-1.7
		C89.8,113.2,90.6,112.4,91.5,112.4z M118.9,130.9H81.1v-10.1c0-3.6,0.9-9.6,2.8-14.7c1.9-5,4.3-7.9,6.6-7.9h0.4l-1,4.4
		c0,0.1,0,0.3,0,0.4v6.2c-2.1,0.7-3.6,2.7-3.6,5c0,2.9,2.4,5.3,5.3,5.3s5.3-2.4,5.3-5.3c0-2.2-1.4-4.2-3.4-4.9v-6.1l1.2-5h10.8
		l1.2,5.1v6c-3.1,0.9-5.4,3.7-5.4,7.1c0,0.5,0.1,1,0.1,1.5c0.2,0.9,0.9,1.4,1.8,1.4c0.1,0,0.2,0,0.4,0c1-0.2,1.6-1.2,1.4-2.1
		c-0.1-0.2-0.1-0.5-0.1-0.8c0-2.1,1.7-3.8,3.8-3.8s3.8,1.7,3.8,3.8c0,0.3,0,0.5-0.1,0.8c-0.2,1,0.4,1.9,1.4,2.1
		c1,0.2,1.9-0.4,2.1-1.4c0.1-0.5,0.1-1,0.1-1.5c0-3.5-2.5-6.5-5.8-7.2V103c0-0.1,0-0.3,0-0.4l-1.1-4.5h0.3c2.3,0,4.7,2.9,6.6,7.9
		c1.9,5.2,2.8,11.1,2.8,14.7V130.9z"/>
	<polygon class="st0" points="116.8,81 116.8,81 116.8,81 	"/>
</g>
</svg>
