<?xml version="1.0" encoding="utf-8"?>
<!-- Generator: Adobe Illustrator 21.1.0, SVG Export Plug-In . SVG Version: 6.00 Build 0)  -->
<svg version="1.1" id="Layer_1" xmlns="http://www.w3.org/2000/svg" xmlns:xlink="http://www.w3.org/1999/xlink" x="0px" y="0px"
	 viewBox="0 0 200 200" style="enable-background:new 0 0 200 200;" xml:space="preserve">
<style type="text/css">
	.st0{fill:#404040;}
</style>
<g>
	<path class="st0" d="M120.3,95.6V76.1c0-1.2-0.9-2.2-2-2.4l-29.8-4.9c-0.1,0-0.1,0-0.2,0c-0.1,0-0.1,0-0.2,0c0,0,0,0,0,0
		c-0.1,0-0.2,0-0.3,0c-0.1,0-0.1,0-0.2,0c0,0,0,0,0,0L66,73.7c-1.1,0.3-1.9,1.2-1.9,2.4V112c0,1.1,0.7,2,1.8,2.3l21.6,6.1
		c0,0,0,0,0.1,0c0.2,0,0.4,0.1,0.6,0.1c0.1,0,0.3,0,0.4,0l12.2-2.2c2.1,7.5,9,13,17.2,13c9.9,0,17.9-8,17.9-17.9
		C135.9,104.3,129.1,96.8,120.3,95.6z M69,78l16.7-3.8v40.6L69,110.1V78z M90.5,115.1V74l25,4.1v17.5c-8.7,1.2-15.5,8.7-15.5,17.7
		c0,0,0,0.1,0,0.1L90.5,115.1z M117.9,126.4c-7.2,0-13.1-5.9-13.1-13.1s5.9-13.1,13.1-13.1c7.2,0,13.1,5.9,13.1,13.1
		S125.1,126.4,117.9,126.4z"/>
	<path class="st0" d="M122.9,114.5l-3.3-1.3v-6.6c0-1-0.8-1.8-1.8-1.8s-1.8,0.8-1.8,1.8v7.9c0,0.7,0.5,1.4,1.2,1.7l4.4,1.7
		c0.2,0.1,0.4,0.1,0.7,0.1c0.7,0,1.4-0.4,1.7-1.2C124.3,115.9,123.9,114.9,122.9,114.5z"/>
</g>
</svg>
