<?xml version="1.0" encoding="utf-8"?>
<!-- Generator: Adobe Illustrator 21.1.0, SVG Export Plug-In . SVG Version: 6.00 Build 0)  -->
<svg version="1.1" id="Layer_1" xmlns="http://www.w3.org/2000/svg" xmlns:xlink="http://www.w3.org/1999/xlink" x="0px" y="0px"
	 viewBox="0 0 200 200" style="enable-background:new 0 0 200 200;" xml:space="preserve">
<style type="text/css">
	.st0{fill:#404040;}
</style>
<path class="st0" d="M83.8,136.2c-0.5,0-1-0.1-1.4-0.4c-1-0.7-1.3-2-0.7-3.1l14.5-27.5L78.4,105c-1,0-1.9-0.6-2.2-1.5
	c-0.4-0.9-0.1-1.9,0.6-2.6l37.1-36.4c0.8-0.8,2.2-0.9,3.1-0.2c1,0.7,1.3,2,0.7,3.1l-12,23.1l15.8-0.4c1,0,1.9,0.5,2.3,1.4
	c0.4,0.9,0.2,1.9-0.4,2.6l-37.7,41.4C85.1,136,84.5,136.2,83.8,136.2z M84.3,100.2l15.9,0.2c0.8,0,1.6,0.5,2.1,1.2
	c0.4,0.7,0.5,1.6,0.1,2.4l-7.5,14.2L115.9,95l-14.2,0.4c-0.9,0-1.7-0.4-2.1-1.1c-0.5-0.7-0.5-1.6-0.1-2.4l6.9-13.2L84.3,100.2z"/>
</svg>
