<?xml version="1.0" encoding="utf-8"?>
<!-- Generator: Adobe Illustrator 21.1.0, SVG Export Plug-In . SVG Version: 6.00 Build 0)  -->
<svg version="1.1" id="Layer_1" xmlns="http://www.w3.org/2000/svg" xmlns:xlink="http://www.w3.org/1999/xlink" x="0px" y="0px"
	 viewBox="0 0 200 200" style="enable-background:new 0 0 200 200;" xml:space="preserve">
<style type="text/css">
	.st0{fill:#404040;}
</style>
<path class="st0" d="M133.6,96.2C133.6,96.2,133.6,96.2,133.6,96.2l-30,0.2l-0.2-30c0-2-1.6-3.6-3.6-3.6c0,0,0,0,0,0
	c-2,0-3.6,1.6-3.6,3.6l0.2,30l-30,0.2c-2,0-3.6,1.6-3.6,3.6c0,2,1.6,3.6,3.6,3.6c0,0,0,0,0,0l30-0.2l0.2,30c0,2,1.6,3.6,3.6,3.6
	c0,0,0,0,0,0c2,0,3.6-1.6,3.6-3.6l-0.2-30l30-0.2c2,0,3.6-1.6,3.6-3.6C137.2,97.8,135.6,96.2,133.6,96.2z"/>
</svg>
