<?xml version="1.0" encoding="utf-8"?>
<!-- Generator: Adobe Illustrator 21.1.0, SVG Export Plug-In . SVG Version: 6.00 Build 0)  -->
<svg version="1.1" id="Layer_1" xmlns="http://www.w3.org/2000/svg" xmlns:xlink="http://www.w3.org/1999/xlink" x="0px" y="0px"
	 viewBox="0 0 200 200" style="enable-background:new 0 0 200 200;" xml:space="preserve">
<style type="text/css">
	.st0{fill:#404040;}
</style>
<g>
	<path class="st0" d="M138.6,82h-7v-8.6c0-5.3-4.3-9.7-9.7-9.7H78.1c-5.3,0-9.7,4.3-9.7,9.7V82h-7c-5.3,0-9.7,4.3-9.7,9.7v34.9
		c0,5.3,4.3,9.7,9.7,9.7h9.4h58.4h9.4c5.3,0,9.7-4.3,9.7-9.7V91.7C148.3,86.3,144,82,138.6,82z M56.5,126.6V91.7
		c0-2.7,2.2-4.8,4.8-4.8h7v44.6h-7C58.7,131.5,56.5,129.3,56.5,126.6z M113.4,108.3v23.1h-11.6v-23.1H113.4z M98.2,131.5H86.6v-23.1
		h11.6V131.5z M117.1,131.5v-24.9c0-1-0.8-1.8-1.8-1.8H84.8c-1,0-1.8,0.8-1.8,1.8v24.9h-9.7V73.4c0-2.7,2.2-4.8,4.8-4.8h43.9
		c2.7,0,4.8,2.2,4.8,4.8v58.1H117.1z M143.5,126.6c0,2.7-2.2,4.8-4.8,4.8h-7V86.8h7c2.7,0,4.8,2.2,4.8,4.8V126.6z"/>
	<path class="st0" d="M107.9,77.2l0.7,0.8c1.4,1.8,0.2,5.1-0.6,6.9c-1.2,2.2-3.6,5.5-6.3,5.1c-0.6-0.1-1.1-0.7-1.3-1.3
		c1.5-1.5,3.2-4,4.2-5.7c0.8-1.4,2.2-4.1,0.9-5.2c-1.1-0.8-3.3,0.3-4.4,1.3c-0.7,0.6-1.2,1.2-1.7,1.9c-1.5,2-2.9,5.5-2.8,8.2
		c-0.7,0.5-1.6,1-2.5,0.7c-1-0.2-1.1-1-1.3-1.7c-0.6-3.9,3.3-8.8,5.5-11.7c0,0-1.7,0.5-3,0.5c-2.9,0.1-5.1-1.2-6.6,0.7
		c-0.5,0.7-0.7,1.4-0.8,2.3c0.6-0.5,1.6-0.4,2.5-0.4c1.6,0.1,2.4,0.3,3.8-0.1c-1.3,1.8-3.4,5.3-3.8,7.5C90,88.7,90,91,91.3,92
		c2.1,1.4,4.1,0.4,6-0.9c0.5,0.6,1.2,1.2,2,1.3c5.2,1,9-4.1,11.5-8.5c1-1.8,2.5-6.3,0.8-8.1C110,74.2,108.8,76.4,107.9,77.2z
		 M98.9,87c0-1.2,1.4-3.9,2-5c0.3-0.6,1.2-1.5,1.8-1.8c0.5-0.3,0.4,0.5,0.4,0.5c-0.1,0.9-0.8,2-1.2,2.9
		C101.4,84.6,99.7,86.6,98.9,87z"/>
</g>
</svg>
