<?xml version="1.0" encoding="utf-8"?>
<!-- Generator: Adobe Illustrator 21.1.0, SVG Export Plug-In . SVG Version: 6.00 Build 0)  -->
<svg version="1.1" id="Layer_1" xmlns="http://www.w3.org/2000/svg" xmlns:xlink="http://www.w3.org/1999/xlink" x="0px" y="0px"
	 viewBox="0 0 200 200" style="enable-background:new 0 0 200 200;" xml:space="preserve">
<style type="text/css">
	.st0{fill:#404040;}
</style>
<g>
	<path class="st0" d="M76.7,88.6l0.1-22.2c0-1.3-1.1-2.4-2.4-2.4c0,0,0,0,0,0c-1.3,0-2.4,1.1-2.4,2.4l-0.1,22.2c-4,1.1-7,4.7-7,9.1
		c0,4.3,3,8,7,9.1l-0.1,26.8c0,1.3,1.1,2.4,2.4,2.4c0,0,0,0,0,0c1.3,0,2.4-1.1,2.4-2.4l0.1-26.8c4-1.1,7-4.7,7-9.1
		C83.7,93.3,80.7,89.7,76.7,88.6z M74.2,102.3c-2.5,0-4.6-2.1-4.6-4.6c0-2.5,2.1-4.6,4.6-4.6c2.5,0,4.6,2.1,4.6,4.6
		C78.8,100.2,76.8,102.3,74.2,102.3z"/>
	<path class="st0" d="M102.3,109.6l0.2-43.2c0-1.3-1.1-2.4-2.4-2.4c0,0,0,0,0,0c-1.3,0-2.4,1.1-2.4,2.4l-0.2,43.3
		c-4,1.1-7,4.7-7,9.1c0,4.3,2.9,8,6.9,9.1l0,5.8c0,1.3,1.1,2.4,2.4,2.4c0,0,0,0,0,0c1.3,0,2.4-1.1,2.4-2.4l0-5.8
		c4.1-1,7.1-4.7,7.1-9.1C109.3,114.4,106.3,110.7,102.3,109.6z M99.9,123.3c-2.5,0-4.6-2.1-4.6-4.6c0-2.5,2.1-4.6,4.6-4.6
		c2.5,0,4.6,2.1,4.6,4.6C104.4,121.3,102.4,123.3,99.9,123.3z"/>
	<path class="st0" d="M135.2,84.4c0-4.3-2.9-8-6.9-9.1l0-8.9c0-1.3-1.1-2.4-2.4-2.4c0,0,0,0,0,0c-1.3,0-2.4,1.1-2.4,2.4l0,8.9
		c-4.1,1-7.1,4.7-7.1,9.1c0,4.4,3,8,7,9.1l-0.1,40.1c0,1.3,1.1,2.4,2.4,2.4c0,0,0,0,0,0c1.3,0,2.4-1.1,2.4-2.4l0.1-40.1
		C132.2,92.4,135.2,88.8,135.2,84.4z M125.8,89c-2.5,0-4.6-2.1-4.6-4.6c0-2.5,2.1-4.6,4.6-4.6c2.5,0,4.6,2.1,4.6,4.6
		C130.3,86.9,128.3,89,125.8,89z"/>
</g>
</svg>
