<?xml version="1.0" encoding="utf-8"?>
<!-- Generator: Adobe Illustrator 21.1.0, SVG Export Plug-In . SVG Version: 6.00 Build 0)  -->
<svg version="1.1" id="Layer_1" xmlns="http://www.w3.org/2000/svg" xmlns:xlink="http://www.w3.org/1999/xlink" x="0px" y="0px"
	 viewBox="0 0 200 200" style="enable-background:new 0 0 200 200;" xml:space="preserve">
<style type="text/css">
	.st0{fill:#404040;}
</style>
<path class="st0" d="M135.6,133.1l-8.3-8.3c0.9-1.7,0.9-3.6-0.4-4.8l-4.5-4.6c0,0,0,0,0,0c0,0,0,0-0.1,0c1.3-3.8,0.3-8.2-2.7-11.2
	l-15.7-15.5l2.6-2.6c0.7-0.7,0.7-1.9,0-2.6c-0.7-0.7-1.9-0.7-2.6,0l-2.6,2.6l-8.2-8.1c0,0,0,0,0,0c-0.6-0.6-1.5-1-2.4-1
	c0,0,0,0-0.1,0c-0.9,0-1.8,0.4-2.4,1l-3.7,3.9l-8.7-8.7L81,68c0.9-0.9,0.9-2.5,0-3.4c-0.9-0.9-2.5-0.9-3.4,0l-13,13
	c-0.9,0.9-0.9,2.5,0,3.4c0.5,0.5,1.1,0.7,1.7,0.7c0.6,0,1.2-0.2,1.7-0.7l4.5-4.5l8.7,8.7l-3.3,3.4c-0.6,0.7-1,1.5-1,2.5
	c0,0.9,0.4,1.8,1,2.4l8,7.9l-2.4,2.4c-0.7,0.7-0.7,1.9,0,2.6c0.4,0.4,0.8,0.5,1.3,0.5c0.5,0,0.9-0.2,1.3-0.5l2.4-2.4l15.9,15.7
	c0,0,0,0,0,0c2.1,2.1,4.9,3.1,7.6,3.1c1.1,0,2.3-0.2,3.4-0.5c0,0,0.1,0.1,0.1,0.1l4.5,4.6c0,0,0,0,0,0c0.7,0.6,1.5,1,2.4,1
	c0.7,0,1.5-0.2,2.3-0.6l8.3,8.3c0.4,0.4,0.8,0.5,1.3,0.5c0.5,0,0.9-0.2,1.3-0.5C136.3,134.9,136.3,133.8,135.6,133.1z M82.3,91
	l8.5-8.7l7.2,7.1L89.3,98L82.3,91z M107.7,116.2l-15.8-15.7l8.6-8.6l15.7,15.5c0,0,0,0,0,0c2.4,2.3,2.5,6.2,0.1,8.6v0
	C114,118.5,110.1,118.6,107.7,116.2z"/>
</svg>
