<?xml version="1.0" encoding="utf-8"?>
<!-- Generator: Adobe Illustrator 21.1.0, SVG Export Plug-In . SVG Version: 6.00 Build 0)  -->
<svg version="1.1" id="Layer_1" xmlns="http://www.w3.org/2000/svg" xmlns:xlink="http://www.w3.org/1999/xlink" x="0px" y="0px"
	 viewBox="0 0 200 200" style="enable-background:new 0 0 200 200;" xml:space="preserve">
<style type="text/css">
	.st0{fill:#404040;}
</style>
<g>
	<path class="st0" d="M123.9,112.9H84.7L70.5,78.8c-0.4-0.9-1.3-1.5-2.2-1.5H54.4c-1.3,0-2.4,1.1-2.4,2.4c0,1.3,1.1,2.4,2.4,2.4
		h12.3l14.1,34.1c0.4,0.9,1.3,1.5,2.2,1.5h40.9c1.3,0,2.4-1.1,2.4-2.4S125.3,112.9,123.9,112.9z"/>
	<path class="st0" d="M91,120.1c-4.4,0-8,3.6-8,8c0,4.4,3.6,8,8,8s8-3.6,8-8C99,123.7,95.4,120.1,91,120.1z M91,131.2
		c-1.7,0-3.1-1.4-3.1-3.1c0-1.7,1.4-3.1,3.1-3.1c1.7,0,3.1,1.4,3.1,3.1C94.2,129.8,92.8,131.2,91,131.2z"/>
	<path class="st0" d="M118.1,120.1c-4.4,0-8,3.6-8,8c0,4.4,3.6,8,8,8s8-3.6,8-8C126.1,123.7,122.5,120.1,118.1,120.1z M118.1,131.2
		c-1.7,0-3.1-1.4-3.1-3.1c0-1.7,1.4-3.1,3.1-3.1c1.7,0,3.1,1.4,3.1,3.1C121.3,129.8,119.9,131.2,118.1,131.2z"/>
	<path class="st0" d="M129.8,63.9c-4.8,0-9.4,2-12.8,5.4c-3.4,3.5-5.3,8-5.2,12.9c0,1,0.1,2.1,0.3,3.1h-30c-0.1,0-0.1,0-0.2,0
		c-0.1,0-0.2,0-0.3,0c-0.1,0-0.2,0-0.3,0.1c-0.1,0-0.1,0-0.2,0c0,0,0,0,0,0c-0.1,0-0.2,0.1-0.3,0.1c-0.1,0-0.1,0.1-0.2,0.1
		c-0.1,0-0.1,0.1-0.2,0.2c-0.1,0-0.1,0.1-0.2,0.1c-0.1,0.1-0.1,0.1-0.1,0.2c-0.1,0.1-0.1,0.1-0.2,0.2c0,0.1-0.1,0.1-0.1,0.2
		c0,0.1-0.1,0.1-0.1,0.2c0,0.1,0,0.1-0.1,0.2c0,0.1-0.1,0.2-0.1,0.2c0,0.1,0,0.1,0,0.2c0,0.1,0,0.2,0,0.3c0,0,0,0,0,0
		c0,0.1,0,0.1,0,0.2c0,0.1,0,0.2,0,0.3c0,0.1,0,0.2,0.1,0.3c0,0.1,0,0.1,0,0.2l7.3,18.6c0.4,0.9,1.3,1.5,2.3,1.5h30
		c1,0,1.9-0.6,2.3-1.5l3-7.8c1.7,0.5,3.4,0.8,5.3,0.8c0,0,0.1,0,0.1,0c4.8,0,9.4-2,12.8-5.4c3.4-3.5,5.3-8,5.2-12.9
		C148,71.9,139.8,63.8,129.8,63.9z M117.7,103.9H91l-5.4-13.8h28c0.9,1.8,2.1,3.4,3.5,4.9c0.9,0.9,2,1.7,3.1,2.4L117.7,103.9z
		 M139.4,91.4c-2.5,2.5-5.8,3.9-9.4,4c-3.6,0-6.9-1.3-9.4-3.8s-3.9-5.8-4-9.4c0-3.6,1.3-6.9,3.8-9.4c2.5-2.5,5.8-3.9,9.4-4
		c0,0,0.1,0,0.1,0c7.3,0,13.3,5.9,13.3,13.2C143.2,85.5,141.9,88.9,139.4,91.4z"/>
	<path class="st0" d="M134,77.5l-5.7,5.7l-2-2c-0.7-0.7-1.9-0.7-2.6,0c-0.7,0.7-0.7,1.9,0,2.6l3.3,3.2c0.4,0.4,0.8,0.5,1.3,0.5
		c0.5,0,0.9-0.2,1.3-0.5l7-7c0.7-0.7,0.7-1.9,0-2.6S134.7,76.8,134,77.5z"/>
</g>
</svg>
