<?xml version="1.0" encoding="utf-8"?>
<!-- Generator: Adobe Illustrator 21.1.0, SVG Export Plug-In . SVG Version: 6.00 Build 0)  -->
<svg version="1.1" id="Layer_1" xmlns="http://www.w3.org/2000/svg" xmlns:xlink="http://www.w3.org/1999/xlink" x="0px" y="0px"
	 viewBox="0 0 200 200" style="enable-background:new 0 0 200 200;" xml:space="preserve">
<style type="text/css">
	.st0{fill:#404040;}
</style>
<path class="st0" d="M135.6,118.7V80.5c0-1.2-0.9-2.2-2-2.4L102.2,73c-0.1,0-0.1,0-0.2,0c-0.1,0-0.1,0-0.2,0c0,0,0,0,0,0
	c-0.1,0-0.2,0-0.3,0c-0.1,0-0.1,0-0.2,0c0,0,0,0,0,0l-22.7,5.2c-1.1,0.3-1.9,1.2-1.9,2.4V92H66.2c-1,0-1.8,0.8-1.8,1.8
	s0.8,1.8,1.8,1.8h10.5v3.6h-7.1c-1,0-1.8,0.8-1.8,1.8s0.8,1.8,1.8,1.8h7.1v3.6h-4.2c-1,0-1.8,0.8-1.8,1.8s0.8,1.8,1.8,1.8h4.2v8.3
	c0,1.1,0.7,2,1.8,2.3l22.7,6.4c0,0,0,0,0.1,0c0.2,0,0.4,0.1,0.6,0.1c0.1,0,0.3,0,0.4,0l31.4-5.7C134.8,121.1,135.7,120,135.6,118.7
	C135.6,118.7,135.6,118.7,135.6,118.7z M81.6,110h4.2c1,0,1.8-0.8,1.8-1.8s-0.8-1.8-1.8-1.8h-4.2v-3.6h10.3c1,0,1.8-0.8,1.8-1.8
	s-0.8-1.8-1.8-1.8H81.6v-3.6H87c1,0,1.8-0.8,1.8-1.8S88,92,87,92h-5.5v-9.5l17.8-4.1v43.1l-17.8-5V110z M130.8,116.9l-26.5,4.8V78.2
	l26.5,4.4V116.9z"/>
</svg>
