<?xml version="1.0" encoding="utf-8"?>
<!-- Generator: Adobe Illustrator 21.1.0, SVG Export Plug-In . SVG Version: 6.00 Build 0)  -->
<svg version="1.1" id="Layer_1" xmlns="http://www.w3.org/2000/svg" xmlns:xlink="http://www.w3.org/1999/xlink" x="0px" y="0px"
	 viewBox="0 0 200 200" style="enable-background:new 0 0 200 200;" xml:space="preserve">
<style type="text/css">
	.st0{fill:#404040;}
</style>
<g id="Outline">
	<path class="st0" d="M67,133.7c-0.2,0-0.3,0-0.5,0c-1.1-0.2-2-1.1-2.1-2.3c-1-7.6,0.1-15.3,3.2-22.2c6-13.4,18.5-22.9,33.1-24.9
		V70.5c0-0.4,0-0.7,0-1.1c0.3-2.1,2.2-3.7,4.4-3.4c0.6,0.1,1.1,0.3,1.6,0.6c0.4,0.2,0.7,0.5,1,0.8L134,93.8c2.3,2,2.5,5.4,0.6,7.7
		c-0.2,0.2-0.4,0.4-0.6,0.6c-8.7,8.7-17.5,17.5-26.2,26.3c-0.4,0.4-0.8,0.7-1.3,1c-1.9,1-4.3,0.3-5.3-1.7c-0.2-0.4-0.3-0.8-0.4-1.3
		c0-0.4,0-0.8,0-1.1v-14.4c-14.2,1.4-24.5,8.4-31.4,21.4C68.9,133.2,68,133.7,67,133.7z M105.9,125.5L105.9,125.5z M103.3,105.5
		c0.7,0,1.3,0.3,1.8,0.7c0.5,0.5,0.8,1.2,0.8,1.9v14.5c8.2-8.2,16.3-16.3,24.3-24.3c0.2-0.1,0.3-0.3,0.4-0.5c0,0,0-0.1-0.4-0.4
		l-24.3-24.4v13.6c0,1.4-1,2.6-2.4,2.7c-17.8,1.4-32.2,15.2-34.1,33c8.1-10.5,19.4-16.2,33.8-16.9H103.3z"/>
</g>
</svg>
