<?xml version="1.0" encoding="utf-8"?>
<!-- Generator: Adobe Illustrator 21.1.0, SVG Export Plug-In . SVG Version: 6.00 Build 0)  -->
<svg version="1.1" id="Layer_1" xmlns="http://www.w3.org/2000/svg" xmlns:xlink="http://www.w3.org/1999/xlink" x="0px" y="0px"
	 viewBox="0 0 200 200" style="enable-background:new 0 0 200 200;" xml:space="preserve">
<style type="text/css">
	.st0{fill:#404040;}
</style>
<g>
	<g>
		<path class="st0" d="M100,136c-19.7,0-35.8-16-35.8-35.8c0-3.8,0.6-7.5,1.7-11c0.4-1.3,1.8-2,3-1.6c1.3,0.4,2,1.8,1.6,3
			c-1,3.1-1.5,6.3-1.5,9.5c0,17,13.9,30.9,30.9,30.9s30.9-13.9,30.9-30.9S117.1,69.3,100,69.3c-1.3,0-2.4-1.1-2.4-2.4
			s1.1-2.4,2.4-2.4c19.7,0,35.8,16,35.8,35.8S119.7,136,100,136z"/>
		<path class="st0" d="M112.5,108.3c-0.2,0-0.4,0-0.6-0.1L98.2,105c-1.1-0.3-1.9-1.2-1.9-2.4V85.8c0-1.3,1.1-2.4,2.4-2.4
			c1.3,0,2.4,1.1,2.4,2.4v15l11.8,2.8c1.3,0.3,2.1,1.6,1.8,2.9C114.6,107.5,113.6,108.3,112.5,108.3z"/>
	</g>
	<g>
		<path class="st0" d="M64.2,81.1c0-2.2,1-4.2,2.6-5.6c1.5-1.3,3.1-2.1,4.4-3c1.3-0.8,2.2-1.7,2.2-2.8c0-1.3-0.9-2.1-2.2-2.1
			c-2.2,0-2.8,1.6-2.8,3.4h-3.8c-0.2-4.2,2.4-7,6.6-7c3.3,0,6.3,1.7,6.3,5.3c0,3.2-2.3,4.5-4.8,6c-1.3,0.8-2,1.2-3,2.3h8v3.5H64.2z"
			/>
		<path class="st0" d="M93.1,73.9v3.5h-2.2v3.8h-4.1v-3.8h-7.4v-3.8l7.6-9.3h3.9v9.6H93.1z M86.9,73.9v-5.4h0l-4.3,5.4H86.9z"/>
	</g>
</g>
</svg>
