<?xml version="1.0" encoding="utf-8"?>
<!-- Generator: Adobe Illustrator 21.1.0, SVG Export Plug-In . SVG Version: 6.00 Build 0)  -->
<svg version="1.1" id="Layer_1" xmlns="http://www.w3.org/2000/svg" xmlns:xlink="http://www.w3.org/1999/xlink" x="0px" y="0px"
	 viewBox="0 0 200 200" style="enable-background:new 0 0 200 200;" xml:space="preserve">
<style type="text/css">
	.st0{fill:#404040;}
</style>
<g>
	<path class="st0" d="M94.1,88.7c-1,0-1.8,0.8-1.8,1.8v26.7c0,1,0.8,1.8,1.8,1.8s1.8-0.8,1.8-1.8V90.5
		C95.9,89.5,95.1,88.7,94.1,88.7z"/>
	<path class="st0" d="M105.9,88.7c-1,0-1.8,0.8-1.8,1.8v26.7c0,1,0.8,1.8,1.8,1.8s1.8-0.8,1.8-1.8V90.5
		C107.7,89.5,106.9,88.7,105.9,88.7z"/>
	<path class="st0" d="M133.6,75h-20.9v-6.9c0-2.4-2-4.4-4.4-4.4H91.7c-2.4,0-4.4,2-4.4,4.4V75H66.4C65,75,64,76.1,64,77.4
		s1.1,2.4,2.4,2.4h7.5l7,54.3c0.2,1.2,1.2,2.1,2.4,2.1h33.4c1.2,0,2.2-0.9,2.4-2.1l7-54.3h7.5c1.3,0,2.4-1.1,2.4-2.4
		S135,75,133.6,75z M92.1,68.6h15.8V75H92.1V68.6z M114.6,131.4H85.4l-6.7-51.6h12.9h16.7h12.9L114.6,131.4z"/>
</g>
</svg>
