<?xml version="1.0" encoding="utf-8"?>
<!-- Generator: Adobe Illustrator 21.1.0, SVG Export Plug-In . SVG Version: 6.00 Build 0)  -->
<svg version="1.1" id="Layer_1" xmlns="http://www.w3.org/2000/svg" xmlns:xlink="http://www.w3.org/1999/xlink" x="0px" y="0px"
	 viewBox="0 0 200 200" style="enable-background:new 0 0 200 200;" xml:space="preserve">
<style type="text/css">
	.st0{fill:#404040;}
</style>
<path class="st0" d="M100,136.3c-9.6,0-18.6-3.7-25.5-10.5c-6.9-6.8-10.7-15.9-10.8-25.6c-0.1-9.7,3.6-18.8,10.4-25.7
	C81,67.6,90,63.8,99.7,63.7c0.1,0,0.2,0,0.3,0c9.6,0,18.6,3.7,25.5,10.5c6.9,6.8,10.7,15.9,10.8,25.6l0,0
	c0.1,9.7-3.6,18.8-10.4,25.7c-6.8,6.9-15.9,10.7-25.6,10.8C100.2,136.3,100.1,136.3,100,136.3z M100,68.5c-0.1,0-0.2,0-0.2,0
	c-17.3,0.1-31.4,14.3-31.2,31.7c0.1,8.4,3.4,16.3,9.4,22.2c6,5.9,13.9,9.1,22.3,9.1c8.4-0.1,16.3-3.4,22.2-9.4
	c5.9-6,9.1-13.9,9.1-22.3l0,0c-0.1-8.4-3.4-16.3-9.4-22.2C116.2,71.8,108.3,68.5,100,68.5z"/>
<g>
	<path class="st0" d="M103.7,83.3H95c-1.2,0-2.4,0.1-3.7,0.4c-1.3,0.3-2.6,1-3.9,2c-1.8,1.8-2.7,3.7-2.7,5.9c0,1.8,0.6,3.3,1.9,4.7
		c1.2,1.4,3,2.2,5.3,2.2c0.4,0,0.9,0,1.4-0.1c-0.1,0.2-0.2,0.5-0.3,0.8c-0.1,0.3-0.2,0.6-0.2,1c0,0.6,0.1,1.2,0.4,1.7
		c0.2,0.5,0.5,0.9,0.8,1.3c-1,0-2.3,0.2-3.8,0.4c-1.6,0.3-3,0.8-4.5,1.6c-1.3,0.8-2.1,1.6-2.6,2.6c-0.5,1-0.7,1.9-0.7,2.7
		c0,1.7,0.8,3.1,2.3,4.3c1.5,1.3,3.8,1.9,6.8,2c3.6-0.1,6.4-0.9,8.4-2.6c1.9-1.6,2.8-3.5,2.8-5.6c0-1.5-0.4-2.7-1-3.6
		c-0.7-0.9-1.5-1.7-2.4-2.5l-1.5-1.2c-0.2-0.2-0.4-0.5-0.7-0.7c-0.3-0.3-0.4-0.7-0.4-1.1c0-0.5,0.1-0.9,0.4-1.2
		c0.2-0.3,0.5-0.6,0.7-0.9c0.5-0.4,0.9-0.8,1.3-1.2c0.4-0.4,0.7-0.8,1-1.3c0.7-0.9,1-2.2,1-3.8c0-0.9-0.1-1.6-0.3-2.2
		c-0.2-0.6-0.5-1.2-0.8-1.7c-0.3-0.5-0.6-0.9-1-1.3c-0.3-0.3-0.7-0.6-0.9-0.7h2.7L103.7,83.3z M99,107.2c0.7,0.8,1.1,1.8,1.1,2.9
		c0,1.4-0.5,2.5-1.6,3.4c-1.1,0.9-2.7,1.3-4.7,1.4c-2.3,0-4.1-0.5-5.4-1.5c-1.4-1-2.1-2.3-2.1-3.8c0-0.8,0.2-1.5,0.5-2
		c0.3-0.5,0.6-1,1-1.3c0.4-0.3,0.8-0.6,1.2-0.8c0.4-0.2,0.7-0.3,0.9-0.4c0.9-0.3,1.9-0.5,2.8-0.6c0.9-0.1,1.5-0.1,1.7-0.1
		c0.4,0,0.7,0,1,0C97,105.5,98.2,106.4,99,107.2z M97.5,94.3c-0.1,0.6-0.3,1.2-0.7,1.7c-0.8,0.8-1.7,1.2-2.9,1.2
		c-0.9,0-1.7-0.3-2.4-0.8c-0.7-0.6-1.3-1.2-1.7-2c-0.9-1.7-1.4-3.4-1.4-4.9c0-1.2,0.3-2.3,0.9-3.3c0.8-0.9,1.8-1.4,2.9-1.4
		c0.9,0,1.7,0.3,2.4,0.8c0.7,0.5,1.2,1.2,1.6,2.1c0.9,1.8,1.3,3.5,1.3,5.2C97.6,93.2,97.6,93.7,97.5,94.3z"/>
	<polygon class="st0" points="117.3,97 117.3,97 112.8,97 112.8,92.3 110.1,92.3 110.1,97 105.5,97 105.5,99.6 105.5,99.6 
		105.5,99.7 110.1,99.7 110.1,104.3 112.8,104.3 112.8,99.7 117.5,99.7 117.5,97 	"/>
</g>
</svg>
