<?xml version="1.0" encoding="utf-8"?>
<!-- Generator: Adobe Illustrator 21.1.0, SVG Export Plug-In . SVG Version: 6.00 Build 0)  -->
<svg version="1.1" id="Layer_1" xmlns="http://www.w3.org/2000/svg" xmlns:xlink="http://www.w3.org/1999/xlink" x="0px" y="0px"
	 viewBox="0 0 200 200" style="enable-background:new 0 0 200 200;" xml:space="preserve">
<style type="text/css">
	.st0{fill:#404040;}
</style>
<g id="Outline_1_">
	<path class="st0" d="M125.1,105.8h-10.6c-0.9,0-1.6,0.7-1.6,1.6c0,0.9,0.7,1.6,1.6,1.6h10.6c0.9,0,1.6-0.7,1.6-1.6
		C126.7,106.5,126,105.8,125.1,105.8z"/>
	<path class="st0" d="M127.2,96.9H95.7c0.3-0.9,0.5-1.8,0.7-2.8h35.4c1.3,0,2.4-1.1,2.4-2.4c0-1.3-1.1-2.4-2.4-2.4H96.4
		c-1.2-8-8-13.9-16.1-13.9h-0.1c-9,0.1-16.2,7.5-16.1,16.5c0.1,4.8,2.3,9.4,6,12.4c-0.1,0.4-0.1,0.9-0.1,1.3v10.3
		c0,4.9,3.9,8.8,8.8,8.8h48.5c4.9,0,8.8-3.9,8.8-8.8v-10.2C136,100.8,132.1,96.9,127.2,96.9C127.2,96.9,127.2,96.9,127.2,96.9z
		 M68.7,91.7c0-6.4,5.1-11.5,11.4-11.6h0.1c6.4,0.2,11.3,5.6,11.1,11.9c-0.2,6-5.1,10.9-11.1,11.1l0,0
		C73.9,103.2,68.8,98.1,68.7,91.7z M131.2,115.9c0,2.2-1.8,4-4,4c0,0,0,0,0,0H78.7c-1.1,0-2.1-0.5-2.8-1.2c-0.7-0.7-1.2-1.8-1.2-2.8
		V107c1.8,0.7,3.7,1,5.5,1h0.1c5,0,9.7-2.4,12.8-6.3h34c1.1,0,2.1,0.4,2.8,1.2c0.8,0.7,1.2,1.8,1.2,2.8L131.2,115.9z"/>
	<path class="st0" d="M75.3,93.3L75.3,93.3h3.4v3.4c0,0.9,0.7,1.6,1.6,1.6l0,0c0.9,0,1.6-0.7,1.6-1.6v-3.5h3.4
		c0.9,0,1.6-0.7,1.6-1.6l0,0c0-0.9-0.7-1.6-1.6-1.6h-3.4v-3.3c0-0.9-0.7-1.6-1.6-1.6l0,0c-0.9,0-1.6,0.7-1.6,1.6v3.4h-3.4
		c-0.9,0-1.6,0.7-1.6,1.6S74.4,93.3,75.3,93.3L75.3,93.3z"/>
</g>
</svg>
