<?xml version="1.0" encoding="utf-8"?>
<!-- Generator: Adobe Illustrator 21.1.0, SVG Export Plug-In . SVG Version: 6.00 Build 0)  -->
<svg version="1.1" id="Layer_1" xmlns="http://www.w3.org/2000/svg" xmlns:xlink="http://www.w3.org/1999/xlink" x="0px" y="0px"
	 viewBox="0 0 200 200" style="enable-background:new 0 0 200 200;" xml:space="preserve">
<style type="text/css">
	.st0{fill:#404040;}
</style>
<g id="Heart_-_Favorites_2_">
	<g>
		<path class="st0" d="M100,131.4L100,131.4c-0.4,0-0.8-0.1-1.1-0.3c-0.7-0.4-18.3-9.4-28.5-24.3c-6.3-9.1-8.3-18.7-5.4-26.3
			C67,74.9,71.5,71,78,69.3c6.7-1.8,13-0.3,18.3,4.2c1.6,1.3,2.8,2.8,3.7,4c0.9-1.2,2.2-2.7,3.7-4c5.3-4.5,11.6-6,18.3-4.2
			c6.4,1.7,11,5.6,13.1,11.2c2.8,7.6,0.8,17.2-5.4,26.3c-10.2,14.8-27.8,23.9-28.5,24.3C100.8,131.3,100.4,131.4,100,131.4z"/>
	</g>
</g>
</svg>
