<?xml version="1.0" encoding="utf-8"?>
<!-- Generator: Adobe Illustrator 21.1.0, SVG Export Plug-In . SVG Version: 6.00 Build 0)  -->
<svg version="1.1" id="Layer_1" xmlns="http://www.w3.org/2000/svg" xmlns:xlink="http://www.w3.org/1999/xlink" x="0px" y="0px"
	 viewBox="0 0 200 200" style="enable-background:new 0 0 200 200;" xml:space="preserve">
<style type="text/css">
	.st0{fill:#404040;}
</style>
<g>
	<path class="st0" d="M93.2,77.2c-2,0.1-3.5,1.7-3.5,3.7l0.1,4.1L70.5,65.6c-1.4-1.4-3.7-1.4-5.1,0c-1.4,1.4-1.4,3.7,0,5.1
		l19.2,19.2l-4,0.1c-2,0.1-3.6,1.7-3.5,3.7c0,2,1.7,3.5,3.6,3.5c0,0,0.1,0,0.1,0l13.1-0.3c1,0,1.9-0.4,2.5-1.1c0.7-0.7,1-1.6,1-2.6
		l-0.4-12.5C96.9,78.7,95.2,77.1,93.2,77.2z"/>
	<path class="st0" d="M134.6,129.4l-21.1-21.1l4-0.1c2-0.1,3.6-1.7,3.5-3.7c0-2-1.7-3.5-3.6-3.5c0,0-0.1,0-0.1,0l-13.1,0.3
		c-1,0-1.9,0.4-2.5,1.1c-0.7,0.7-1,1.6-1,2.6l0.4,12.5c0.1,1.9,1.7,3.5,3.6,3.5c0,0,0.1,0,0.1,0c2-0.1,3.5-1.7,3.5-3.7l-0.1-4.1
		l21.2,21.2c0.7,0.7,1.6,1.1,2.5,1.1s1.8-0.4,2.5-1.1C136,133,136,130.8,134.6,129.4z"/>
</g>
</svg>
