<?xml version="1.0" encoding="utf-8"?>
<!-- Generator: Adobe Illustrator 21.1.0, SVG Export Plug-In . SVG Version: 6.00 Build 0)  -->
<svg version="1.1" id="Layer_1" xmlns="http://www.w3.org/2000/svg" xmlns:xlink="http://www.w3.org/1999/xlink" x="0px" y="0px"
	 viewBox="0 0 200 200" style="enable-background:new 0 0 200 200;" xml:space="preserve">
<style type="text/css">
	.st0{fill:#404040;}
</style>
<path class="st0" d="M136.1,107c0-5.9-4.8-10.6-10.6-10.6c-5.9,0-10.6,4.8-10.6,10.6c0,5,3.4,9.1,8,10.3
	c-0.7,7.6-7.1,13.5-14.9,13.5c-8.3,0-15-6.7-15-15V99.2c13.3-1.3,23.7-12.6,23.7-26.2c0-1.8-0.2-3.6-0.5-5.3
	c-0.3-1.3-1.5-2.1-2.8-1.9l-8.9,1.6c-0.9-1.8-2.8-3.1-4.9-3.1c-3,0-5.5,2.5-5.5,5.5s2.5,5.5,5.5,5.5c2.2,0,4-1.3,4.9-3.1
	c0.2,0,0.3,0,0.5,0l6.7-1.2c0.1,0.7,0.1,1.3,0.1,2c0,11.8-9.5,21.4-21.2,21.5c0,0,0,0-0.1,0c-0.1,0-0.1,0-0.2,0c0,0,0,0,0,0
	c-11.9,0-21.5-9.7-21.5-21.5c0-0.7,0-1.3,0.1-2l6.7,1.2c0.2,0,0.4,0,0.5,0c0.9,1.8,2.8,3.1,4.9,3.1c3,0,5.5-2.5,5.5-5.5
	s-2.5-5.5-5.5-5.5c-2.2,0-4,1.3-4.9,3.1l-8.9-1.6c-1.3-0.2-2.5,0.6-2.8,1.9c-0.4,1.7-0.5,3.5-0.5,5.3c0,13.8,10.7,25.2,24.2,26.3
	v16.6c0,10.9,8.9,19.8,19.8,19.8c10.4,0,19-8.1,19.7-18.3C132.5,116.4,136.1,112.1,136.1,107z M125.4,112.8c-3.2,0-5.8-2.6-5.8-5.8
	s2.6-5.8,5.8-5.8s5.8,2.6,5.8,5.8S128.6,112.8,125.4,112.8z"/>
</svg>
