<?xml version="1.0" encoding="utf-8"?>
<!-- Generator: Adobe Illustrator 21.1.0, SVG Export Plug-In . SVG Version: 6.00 Build 0)  -->
<svg version="1.1" id="Layer_1" xmlns="http://www.w3.org/2000/svg" xmlns:xlink="http://www.w3.org/1999/xlink" x="0px" y="0px"
	 viewBox="0 0 200 200" style="enable-background:new 0 0 200 200;" xml:space="preserve">
<style type="text/css">
	.st0{fill:#404040;}
</style>
<g>
	<path class="st0" d="M107.3,64c-16,0-29.6,10.5-34.3,25H58.5c-1,0-1.8,0.8-1.8,1.8s0.8,1.8,1.8,1.8h13.7c-0.5,2.3-0.7,4.6-0.8,7.1
		h-8.8c-1,0-1.8,0.8-1.8,1.8c0,1,0.8,1.8,1.8,1.8h8.9c0.2,2.4,0.7,4.8,1.3,7.1H66c-1,0-1.8,0.8-1.8,1.8c0,1,0.8,1.8,1.8,1.8h8.1
		c5.4,13,18.3,22.1,33.2,22.1c19.9,0,36-16.1,36-36S127.2,64,107.3,64z M107.3,131.2c-12.2,0-22.8-7.1-27.9-17.3h4.7
		c1,0,1.8-0.8,1.8-1.8c0-1-0.8-1.8-1.8-1.8h-6.2c-0.8-2.2-1.3-4.6-1.6-7.1h15.4c1,0,1.8-0.8,1.8-1.8c0-1-0.8-1.8-1.8-1.8H76.1
		c0-2.4,0.3-4.8,0.9-7.1h8.1c1,0,1.8-0.8,1.8-1.8S86.1,89,85.1,89h-7c4.5-11.8,15.9-20.2,29.2-20.2c17.2,0,31.2,14,31.2,31.2
		S124.5,131.2,107.3,131.2z"/>
	<path class="st0" d="M119.9,103.3l-11.7-2.7V85.7c0-1.3-1.1-2.4-2.4-2.4s-2.4,1.1-2.4,2.4v16.8c0,1.1,0.8,2.1,1.9,2.3l13.6,3.2
		c0.2,0,0.4,0.1,0.5,0.1c1.1,0,2.1-0.7,2.3-1.9C122,104.9,121.2,103.6,119.9,103.3z"/>
</g>
</svg>
