<?xml version="1.0" encoding="utf-8"?>
<!-- Generator: Adobe Illustrator 21.1.0, SVG Export Plug-In . SVG Version: 6.00 Build 0)  -->
<svg version="1.1" id="Layer_1" xmlns="http://www.w3.org/2000/svg" xmlns:xlink="http://www.w3.org/1999/xlink" x="0px" y="0px"
	 viewBox="0 0 200 200" style="enable-background:new 0 0 200 200;" xml:space="preserve">
<style type="text/css">
	.st0{fill:#404040;}
</style>
<g>
	<path class="st0" d="M135.1,126l-32-55.5c-0.6-1.1-1.8-1.8-3-1.8s-2.4,0.7-3,1.8c0,0,0,0,0,0l-32,55.5c-0.6,1.1-0.6,2.4,0,3.5
		c0.6,1.1,1.8,1.8,3,1.8H132c1.2,0,2.4-0.7,3-1.8C135.7,128.4,135.7,127.1,135.1,126z M101.2,72.9L101.2,72.9
		C101.2,72.9,101.2,72.9,101.2,72.9L101.2,72.9z M70.3,126.4L100,74.9l29.7,51.5H70.3z"/>
	<path class="st0" d="M98.1,92.6v16.7c0,1.3,1.1,2.4,2.4,2.4c1.3,0,2.4-1.1,2.4-2.4V92.6c0-1.3-1.1-2.4-2.4-2.4
		C99.2,90.2,98.1,91.3,98.1,92.6z"/>
	<circle class="st0" cx="100.5" cy="117.5" r="3.4"/>
</g>
</svg>
