<?xml version="1.0" encoding="utf-8"?>
<!-- Generator: Adobe Illustrator 21.1.0, SVG Export Plug-In . SVG Version: 6.00 Build 0)  -->
<svg version="1.1" id="Layer_1" xmlns="http://www.w3.org/2000/svg" xmlns:xlink="http://www.w3.org/1999/xlink" x="0px" y="0px"
	 viewBox="0 0 200 200" style="enable-background:new 0 0 200 200;" xml:space="preserve">
<style type="text/css">
	.st0{fill:#404040;}
</style>
<g>
	<path class="st0" d="M126.5,63.9h-40c-5.3,0-9.7,4.3-9.7,9.7v5.8c-2.7-2.2-6.7-2.1-9.2,0.4l-1.8,1.8c-2.7,2.7-2.7,7,0,9.7l11,11
		v24.1c0,5.3,4.3,9.7,9.7,9.7h40c5.3,0,9.7-4.3,9.7-9.7V73.5C136.2,68.2,131.8,63.9,126.5,63.9z M103.3,112.5l1.4,4.7l-1.5,1.5
		l-4.8-1.4L103.3,112.5z M96.1,114.7L74.2,92.8l4.7-4.7l21.8,21.8L96.1,114.7z M69.3,85.1l1.8-1.8c0.8-0.8,2.1-0.8,2.8,0l2.4,2.4
		l-4.7,4.7l-2.4-2.4C68.5,87.1,68.5,85.8,69.3,85.1z M131.3,126.5c0,2.7-2.2,4.8-4.8,4.8h-40c-2.7,0-4.8-2.2-4.8-4.8v-19.3
		l12.2,12.2c0.3,0.3,0.6,0.5,1,0.6c0.2,0.1,0.3,0.2,0.5,0.3l12.1,3.6c0.2,0,0.3,0.1,0.5,0.1c0.5,0,0.9-0.2,1.3-0.5
		c0.5-0.5,0.6-1.2,0.5-1.8l-3.7-12.3c0-0.1-0.1-0.2-0.1-0.3c-0.1-0.4-0.3-0.7-0.6-1L81.7,84.2V73.5c0-2.7,2.2-4.8,4.8-4.8h40
		c2.7,0,4.8,2.2,4.8,4.8V126.5z"/>
	<path class="st0" d="M123.3,89.8l2.7-3.5c0.6-0.8,0.5-1.9-0.3-2.5c-0.8-0.6-1.9-0.5-2.5,0.3l-2.1,2.7l-2-2.7
		c2.1-0.8,3.6-2.8,3.6-5.2c0-3-2.5-5.5-5.5-5.5H113c-1.6,0-2.8,1.3-2.8,2.8v0.1v8v2c0,1,0.8,1.8,1.8,1.8c1,0,1.8-0.8,1.8-1.8v-2h0.9
		l4,5.3l-2.9,3.7c-0.6,0.8-0.5,1.9,0.3,2.5c0.3,0.3,0.7,0.4,1.1,0.4c0.5,0,1.1-0.2,1.4-0.7l2.3-3l2.2,2.9c0.4,0.5,0.9,0.7,1.5,0.7
		c0.4,0,0.8-0.1,1.1-0.4c0.8-0.6,1-1.7,0.4-2.5L123.3,89.8z M113.9,77.1h3.3c1,0,1.9,0.8,1.9,1.9c0,1-0.8,1.9-1.9,1.9h-3.3V77.1z"/>
</g>
</svg>
