<?xml version="1.0" encoding="utf-8"?>
<!-- Generator: Adobe Illustrator 21.1.0, SVG Export Plug-In . SVG Version: 6.00 Build 0)  -->
<svg version="1.1" id="Layer_1" xmlns="http://www.w3.org/2000/svg" xmlns:xlink="http://www.w3.org/1999/xlink" x="0px" y="0px"
	 viewBox="0 0 200 200" style="enable-background:new 0 0 200 200;" xml:space="preserve">
<style type="text/css">
	.st0{fill:#404040;}
</style>
<g>
	<path class="st0" d="M114.2,63.9H85.8c-5.3,0-9.7,4.3-9.7,9.7v52.8c0,5.3,4.3,9.7,9.7,9.7h28.5c5.3,0,9.7-4.3,9.7-9.7V73.6
		C123.9,68.2,119.6,63.9,114.2,63.9z M119.1,126.4c0,2.7-2.2,4.8-4.8,4.8H85.8c-2.7,0-4.8-2.2-4.8-4.8V73.6c0-2.7,2.2-4.8,4.8-4.8
		h28.5c2.7,0,4.8,2.2,4.8,4.8V126.4z"/>
	<circle class="st0" cx="99.6" cy="124.1" r="3"/>
	<path class="st0" d="M111.7,75H88.3c-1,0-1.8,0.8-1.8,1.8V115c0,1,0.8,1.8,1.8,1.8h23.4c1,0,1.8-0.8,1.8-1.8V76.8
		C113.5,75.8,112.7,75,111.7,75z M109.9,113.2H90.1V78.6h19.8V113.2z"/>
</g>
</svg>
