<?xml version="1.0" encoding="utf-8"?>
<!-- Generator: Adobe Illustrator 21.1.0, SVG Export Plug-In . SVG Version: 6.00 Build 0)  -->
<svg version="1.1" id="Layer_1" xmlns="http://www.w3.org/2000/svg" xmlns:xlink="http://www.w3.org/1999/xlink" x="0px" y="0px"
	 viewBox="0 0 200 200" style="enable-background:new 0 0 200 200;" xml:space="preserve">
<style type="text/css">
	.st0{fill:#404040;}
</style>
<g>
	<path class="st0" d="M100,80.7c4.8,0,8.7-3.9,8.7-8.7c0-4.8-3.9-8.7-8.7-8.7c-4.8,0-8.7,3.9-8.7,8.7C91.3,76.8,95.2,80.7,100,80.7z
		 M100,68.2c2.1,0,3.8,1.7,3.8,3.8c0,2.1-1.7,3.8-3.8,3.8c-2.1,0-3.8-1.7-3.8-3.8C96.2,69.9,97.9,68.2,100,68.2z"/>
	<path class="st0" d="M108.1,81.8H91.9c-6.1,0-11.1,4.2-11.1,9.3c0,0,0,0.1,0,0.1l0.7,13.2c0,2.9,2.4,5.2,5.3,5.2h2.7l0.7,20.8
		c0,3.4,2.8,6.1,6.2,6.1c1.4,0,2.7-0.5,3.8-1.3c1,0.8,2.3,1.3,3.8,1.3c3.4,0,6.2-2.7,6.2-6.1l0.7-20.8h2.7c2.9,0,5.2-2.3,5.3-5.2
		l0.7-13.2c0,0,0-0.1,0-0.1C119.2,86,114.3,81.8,108.1,81.8z M113.7,104.3c0,0,0,0.1,0,0.1c0,0.2-0.2,0.4-0.4,0.4h-2.5l0.3-10
		c0-1.3-1-2.5-2.3-2.5c0,0-0.1,0-0.1,0c-1.3,0-2.4,1-2.4,2.3l-1.2,35.7c0,0,0,0.1,0,0.1c0,0.7-0.6,1.3-1.3,1.3s-1.3-0.6-1.3-1.3
		v-19.1c0-1.3-1.1-2.4-2.4-2.4s-2.4,1.1-2.4,2.4v19.1c0,0.7-0.6,1.3-1.3,1.3c-0.7,0-1.3-0.6-1.3-1.3c0,0,0-0.1,0-0.1l-1.2-35.7
		c0-1.3-1.2-2.4-2.5-2.3c-1.3,0-2.4,1.2-2.3,2.5l0.3,10h-2.5c-0.2,0-0.4-0.2-0.4-0.4c0,0,0-0.1,0-0.1l-0.7-13.2
		c0-2.4,2.9-4.4,6.3-4.4h16.2c3.4,0,6.2,2,6.3,4.4L113.7,104.3z"/>
</g>
</svg>
