<?xml version="1.0" encoding="utf-8"?>
<!-- Generator: Adobe Illustrator 21.1.0, SVG Export Plug-In . SVG Version: 6.00 Build 0)  -->
<svg version="1.1" id="Layer_1" xmlns="http://www.w3.org/2000/svg" xmlns:xlink="http://www.w3.org/1999/xlink" x="0px" y="0px"
	 viewBox="0 0 200 200" style="enable-background:new 0 0 200 200;" xml:space="preserve">
<style type="text/css">
	.st0{fill:#404040;}
</style>
<g>
	<path class="st0" d="M148.7,98.2c-0.2-9.4-4.8-17.9-11.9-21.5c-0.1-0.1-0.2-0.1-0.4-0.1c-0.1-0.1-0.3-0.2-0.5-0.3l-28.4-12.4
		c-0.8-0.3-1.7-0.2-2.4,0.2l-51.9,37.1c0,0-0.1,0.1-0.1,0.1c-1.1,0.2-1.9,1.2-1.9,2.4v12.1c0,0.9,0.4,1.6,1.2,2.1l30.4,18.1
		c0.4,0.2,0.8,0.3,1.2,0.3c0.5,0,1.1-0.2,1.5-0.5l25.9-20.9c1.3,1.4,3.2,3.4,5.8,4.9c4.4,2.7,11.5,5,20,0.2
		C144.7,115.8,148.9,107.7,148.7,98.2z M106.9,68.9l23.5,10.3l-46.7,37.8l-24.5-14L106.9,68.9z M56.1,106.8l26,14.8v8.3l-26-15.5
		V106.8z M135,115.8c-5.1,2.9-10.2,2.9-15,0c-3.8-2.3-6.1-5.6-6.1-5.7c-0.4-0.6-1-0.9-1.6-1c-0.7-0.1-1.4,0.1-1.9,0.5l-24.6,19.8
		v-7.9l49.6-40.1c5.1,3,8.4,9.5,8.5,16.9C144,106,140.7,112.5,135,115.8z"/>
	<path class="st0" d="M104.2,78.4l11.5,5.2c0.2,0.1,0.5,0.2,0.7,0.2c0.7,0,1.4-0.4,1.7-1.1c0.4-0.9,0-2-0.9-2.4l-11.5-5.2
		c-0.9-0.4-2,0-2.4,0.9C102.9,76.9,103.3,78,104.2,78.4z"/>
</g>
</svg>
