<?xml version="1.0" encoding="utf-8"?>
<!-- Generator: Adobe Illustrator 21.1.0, SVG Export Plug-In . SVG Version: 6.00 Build 0)  -->
<svg version="1.1" id="Layer_1" xmlns="http://www.w3.org/2000/svg" xmlns:xlink="http://www.w3.org/1999/xlink" x="0px" y="0px"
	 viewBox="0 0 200 200" style="enable-background:new 0 0 200 200;" xml:space="preserve">
<style type="text/css">
	.st0{fill:#404040;}
</style>
<g>
	<path class="st0" d="M132,130.6l-19.9-34.5c-0.1-0.2-0.2-0.4-0.4-0.5v-8.5h3.8c1.3,0,2.4-1.1,2.4-2.4v-7.8c0-0.9-0.5-1.7-1.2-2.1
		l-3.1-1.7v-6.5c0-1.3-1.1-2.4-2.4-2.4H74.2c-1.3,0-2.4,1.1-2.4,2.4V73l-3.1,1.7c-0.8,0.4-1.2,1.2-1.2,2.1v7.8
		c0,1.3,1.1,2.4,2.4,2.4h3.8v39.2c0,5.3,4.9,9.6,11,9.6h4.6c0,0,0,0,0,0H129c1.2,0,2.4-0.7,3-1.7C132.7,133,132.7,131.7,132,130.6z
		 M72.3,78.3l3.1-1.7c0.8-0.4,1.2-1.2,1.2-2.1V69h32.1v3.8H93.6c-1,0-1.8,0.8-1.8,1.8c0,1,0.8,1.8,1.8,1.8h16.2
		c0.1,0.1,0.2,0.1,0.2,0.2l3.1,1.7v4H72.3V78.3z M78.5,126.2V87.1h28.5v8.1c-0.3,0.3-0.6,0.6-0.8,1c0,0,0,0,0,0l-19.9,34.5
		c-0.1,0.1-0.1,0.3-0.2,0.4h-1.4C81.2,131,78.5,128.9,78.5,126.2z M91.5,131l17.6-30.5l17.6,30.5H91.5z"/>
	<path class="st0" d="M107,109.9v10.3c0,1,0.8,1.8,1.8,1.8s1.8-0.8,1.8-1.8v-10.3c0-1-0.8-1.8-1.8-1.8S107,108.9,107,109.9z"/>
	<circle class="st0" cx="108.8" cy="126.7" r="1.8"/>
</g>
</svg>
