<?xml version="1.0" encoding="utf-8"?>
<!-- Generator: Adobe Illustrator 21.1.0, SVG Export Plug-In . SVG Version: 6.00 Build 0)  -->
<svg version="1.1" id="Layer_1" xmlns="http://www.w3.org/2000/svg" xmlns:xlink="http://www.w3.org/1999/xlink" x="0px" y="0px"
	 viewBox="0 0 200 200" style="enable-background:new 0 0 200 200;" xml:space="preserve">
<style type="text/css">
	.st0{fill:#404040;}
</style>
<path class="st0" d="M132.5,74.6l-2.9-1.7v-6.6c0-1.3-1.1-2.4-2.4-2.4H92.5c-1.3,0-2.4,1.1-2.4,2.4v6.6l-2.9,1.7
	C86.4,75,86,75.8,86,76.7v5.5H71.4c-1.3,0-2.4,1.1-2.4,2.4v3.8l-1.5,0.9c-0.7,0.4-1.2,1.2-1.2,2.1v5.2c0,1.3,1.1,2.4,2.4,2.4h0.9
	v25.1c0,4,3.5,7.2,7.7,7.2h15.2c1.8,2.9,5.2,4.9,9.1,4.9h16.6c5.8,0,10.5-4.3,10.5-9.7V87h2.7c1.3,0,2.4-1.1,2.4-2.4v-7.9
	C133.7,75.8,133.3,75,132.5,74.6z M71.1,92.7l1.5-0.9c0.7-0.4,1.2-1.2,1.2-2.1V87h14.6h2.7v7.2h-20V92.7z M74.4,124.1V99h16.6v27.5
	H77.3C75.7,126.4,74.4,125.4,74.4,124.1z M123.8,126.4c0,2.7-2.5,4.8-5.6,4.8h-16.6c-3.1,0-5.6-2.2-5.6-4.8V87h27.9V126.4z
	 M128.9,82.1H94.2h-3.4V78l2.9-1.7c0.7-0.4,1.2-1.2,1.2-2.1v-5.5h29.9v3.9h-14.1c-1,0-1.8,0.8-1.8,1.8c0,1,0.8,1.8,1.8,1.8h15.2
	c0.1,0,0.1,0.1,0.1,0.1l2.9,1.7V82.1z"/>
</svg>
