<?xml version="1.0" encoding="utf-8"?>
<!-- Generator: Adobe Illustrator 21.1.0, SVG Export Plug-In . SVG Version: 6.00 Build 0)  -->
<svg version="1.1" id="Layer_1" xmlns="http://www.w3.org/2000/svg" xmlns:xlink="http://www.w3.org/1999/xlink" x="0px" y="0px"
	 viewBox="0 0 200 200" style="enable-background:new 0 0 200 200;" xml:space="preserve">
<style type="text/css">
	.st0{fill:#404040;}
</style>
<g>
	<path class="st0" d="M123.8,112.9H84.5L70.3,78.8c-0.4-0.9-1.3-1.5-2.2-1.5H54.2c-1.3,0-2.4,1.1-2.4,2.4s1.1,2.4,2.4,2.4h12.3
		l14.1,34.1c0.4,0.9,1.3,1.5,2.2,1.5h40.9c1.3,0,2.4-1.1,2.4-2.4S125.1,112.9,123.8,112.9z"/>
	<path class="st0" d="M90.8,120.1c-4.4,0-8,3.6-8,8s3.6,8,8,8s8-3.6,8-8S95.2,120.1,90.8,120.1z M90.8,131.2c-1.7,0-3.1-1.4-3.1-3.1
		c0-1.7,1.4-3.1,3.1-3.1c1.7,0,3.1,1.4,3.1,3.1C94,129.8,92.6,131.2,90.8,131.2z"/>
	<path class="st0" d="M117.9,120.1c-4.4,0-8,3.6-8,8s3.6,8,8,8s8-3.6,8-8S122.3,120.1,117.9,120.1z M117.9,131.2
		c-1.7,0-3.1-1.4-3.1-3.1c0-1.7,1.4-3.1,3.1-3.1c1.7,0,3.1,1.4,3.1,3.1C121.1,129.8,119.7,131.2,117.9,131.2z"/>
	<path class="st0" d="M130.1,63.9c0,0-0.1,0-0.1,0c-10,0.1-18.1,8.3-18,18.3c0,1.1,0.1,2.1,0.3,3.1H81.9c-0.8,0-1.5,0.4-2,1.1
		c-0.5,0.7-0.5,1.5-0.3,2.2l7.3,18.6c0.4,0.9,1.3,1.5,2.3,1.5h30c1,0,1.9-0.6,2.3-1.5l3.1-7.9c1.8,0.6,3.6,0.9,5.6,0.9
		c0,0,0.1,0,0.1,0c4.8,0,9.4-2,12.8-5.4c3.4-3.5,5.3-8,5.2-12.9C148.2,72,140,63.9,130.1,63.9z M139.6,91.4c-2.5,2.5-5.8,3.9-9.4,4
		c0,0-0.1,0-0.1,0c-7.3,0-13.3-5.9-13.3-13.2c-0.1-7.3,5.9-13.4,13.2-13.4c0,0,0.1,0,0.1,0c7.3,0,13.3,5.9,13.3,13.2
		C143.4,85.5,142,88.9,139.6,91.4z"/>
	<path class="st0" d="M134.2,77.5l-5.7,5.7l-2-2c-0.7-0.7-1.9-0.7-2.6,0c-0.7,0.7-0.7,1.9,0,2.6l3.3,3.2c0.4,0.4,0.8,0.5,1.3,0.5
		c0.5,0,0.9-0.2,1.3-0.5l7-7c0.7-0.7,0.7-1.9,0-2.6C136.1,76.7,134.9,76.8,134.2,77.5z"/>
</g>
</svg>
