<?xml version="1.0" encoding="utf-8"?>
<!-- Generator: Adobe Illustrator 21.1.0, SVG Export Plug-In . SVG Version: 6.00 Build 0)  -->
<svg version="1.1" id="Layer_1" xmlns="http://www.w3.org/2000/svg" xmlns:xlink="http://www.w3.org/1999/xlink" x="0px" y="0px"
	 viewBox="0 0 200 200" style="enable-background:new 0 0 200 200;" xml:space="preserve">
<style type="text/css">
	.st0{fill:#404040;}
</style>
<g>
	<path class="st0" d="M91.3,79.8c-1.3,0-2.4,1.1-2.4,2.4l0,6.8l-6.8,0c-1.3,0-2.4,1.1-2.4,2.4c0,1.3,1.1,2.4,2.4,2.4c0,0,0,0,0,0
		l6.8,0l0,6.8c0,1.3,1.1,2.4,2.4,2.4c0,0,0,0,0,0c1.3,0,2.4-1.1,2.4-2.4l0-6.8l6.8,0c1.3,0,2.4-1.1,2.4-2.4c0-1.3-1.1-2.4-2.4-2.4
		c0,0,0,0,0,0l-6.8,0l0-6.8C93.7,80.8,92.6,79.8,91.3,79.8C91.3,79.8,91.3,79.8,91.3,79.8z"/>
	<polygon class="st0" points="91.4,63.8 91.4,63.8 91.4,63.8 	"/>
	<path class="st0" d="M135.5,132.1l-23-23c9.1-10.9,8.4-27.1-1.8-37.3c-5.4-5.3-12.4-7.9-19.4-7.9v4.8c6,0,11.7,2.3,16,6.6
		c4.3,4.3,6.7,10,6.8,16c0,6.1-2.3,11.8-6.6,16.1c-4.3,4.4-10.1,6.8-16.2,6.8c-6,0-11.7-2.3-16-6.6c-8.9-8.8-9-23.2-0.2-32.2
		c4.3-4.4,10.1-6.8,16.2-6.8l0-4.8c0,0,0,0,0,0c-7.1,0-14.3,2.7-19.7,8.2c-10.7,10.9-10.6,28.3,0.3,39c5.4,5.3,12.4,7.9,19.4,7.9
		c6.3,0,12.7-2.2,17.8-6.5l22.9,23c0.5,0.5,1.1,0.7,1.7,0.7c0.6,0,1.2-0.2,1.7-0.7C136.5,134.5,136.5,133,135.5,132.1z"/>
</g>
</svg>
