<?xml version="1.0" encoding="utf-8"?>
<!-- Generator: Adobe Illustrator 21.1.0, SVG Export Plug-In . SVG Version: 6.00 Build 0)  -->
<svg version="1.1" id="Layer_1" xmlns="http://www.w3.org/2000/svg" xmlns:xlink="http://www.w3.org/1999/xlink" x="0px" y="0px"
	 viewBox="0 0 200 200" style="enable-background:new 0 0 200 200;" xml:space="preserve">
<style type="text/css">
	.st0{fill:#404040;}
</style>
<g>
	<path class="st0" d="M130.4,91.2h-2.6c-0.5-1.6-1.2-3.1-2-4.6l1.8-1.8c2.5-2.5,2.5-6.5,0-9l-3.5-3.5c-1.2-1.2-2.8-1.9-4.5-1.9
		c-1.7,0-3.3,0.7-4.5,1.9l-1.9,1.9c-1.5-0.8-3-1.4-4.6-1.9v-2.7c0-3.5-2.8-6.3-6.3-6.3h-5c-3.5,0-6.3,2.8-6.3,6.3v2.7
		c-1.6,0.5-3.1,1.1-4.6,1.9l-1.9-1.9c-1.2-1.2-2.8-1.9-4.5-1.9s-3.3,0.7-4.5,1.9l-3.5,3.5c-1.2,1.2-1.9,2.8-1.9,4.5s0.7,3.3,1.9,4.5
		l1.8,1.8c-0.8,1.5-1.5,3.1-2,4.7h-2.4c-3.5,0-6.3,2.8-6.3,6.3v5c0,3.5,2.8,6.3,6.3,6.3h2.2c0.5,1.7,1.2,3.4,2,4.9l-1.5,1.5
		c-1.2,1.2-1.9,2.8-1.9,4.5s0.7,3.3,1.9,4.5l3.5,3.5c2.5,2.5,6.5,2.5,9,0l1.5-1.5c1.6,0.9,3.3,1.6,5,2.1v2.1c0,3.5,2.8,6.3,6.3,6.3
		h5c3.5,0,6.3-2.8,6.3-6.3v-2.1c1.7-0.5,3.4-1.2,5-2.1l1.5,1.5c1.2,1.2,2.8,1.9,4.5,1.9c1.7,0,3.3-0.7,4.5-1.9l3.5-3.5
		c2.5-2.5,2.5-6.5,0-9l-1.6-1.6c0.8-1.6,1.4-3.2,2-4.9h2.4c3.5,0,6.3-2.8,6.3-6.3v-5C136.8,94,133.9,91.2,130.4,91.2z M131.9,102.5
		c0,0.8-0.7,1.5-1.5,1.5h-4.2c-1.1,0-2.1,0.8-2.4,1.9c-0.6,2.5-1.5,4.8-2.8,7c-0.6,1-0.4,2.2,0.4,2.9l2.9,2.9c0.6,0.6,0.6,1.5,0,2.1
		l-3.5,3.5c-0.3,0.3-0.7,0.4-1.1,0.4c-0.4,0-0.8-0.2-1.1-0.4l-2.8-2.8c-0.8-0.8-2-0.9-3-0.3c-2.2,1.4-4.6,2.4-7.1,3
		c-1.1,0.3-1.8,1.2-1.8,2.4v3.9c0,0.8-0.7,1.5-1.5,1.5h-5c-0.8,0-1.5-0.7-1.5-1.5v-3.9c0-1.1-0.8-2.1-1.9-2.4
		c-2.5-0.6-4.9-1.6-7.1-3c-0.4-0.2-0.8-0.4-1.3-0.4c-0.6,0-1.2,0.2-1.7,0.7l-2.8,2.8c-0.6,0.6-1.5,0.6-2.1,0l-3.5-3.5
		c-0.3-0.3-0.4-0.7-0.4-1.1c0-0.4,0.2-0.8,0.4-1.1l2.8-2.8c0.8-0.8,0.9-2,0.4-3c-1.3-2.2-2.3-4.6-2.8-7.1c-0.3-1.1-1.2-1.9-2.4-1.9
		h-4.1c-0.8,0-1.5-0.7-1.5-1.5v-5c0-0.8,0.7-1.5,1.5-1.5h4.3c1.1,0,2.1-0.7,2.3-1.8c0.6-2.4,1.6-4.7,2.9-6.9c0.6-1,0.5-2.2-0.3-3
		l-3.1-3.1c-0.3-0.3-0.4-0.7-0.4-1.1c0-0.4,0.2-0.8,0.4-1.1l3.5-3.5c0.3-0.3,0.7-0.4,1.1-0.4s0.8,0.2,1.1,0.4l3.2,3.2
		c0.8,0.8,2,0.9,2.9,0.4c2.1-1.2,4.4-2.2,6.8-2.7c1.1-0.3,1.9-1.2,1.9-2.4v-4.6c0-0.8,0.7-1.5,1.5-1.5h5c0.8,0,1.5,0.7,1.5,1.5v4.6
		c0,1.1,0.8,2.1,1.8,2.4c2.4,0.6,4.6,1.5,6.7,2.8c1,0.6,2.2,0.4,3-0.4l3.2-3.2c0.3-0.3,0.7-0.4,1.1-0.4s0.8,0.2,1.1,0.4l3.5,3.5
		c0.6,0.6,0.6,1.5,0,2.1l-3.2,3.2c-0.8,0.8-0.9,2-0.3,3c1.3,2.1,2.3,4.4,2.9,6.8c0.3,1.1,1.2,1.8,2.3,1.8h4.4c0.8,0,1.5,0.7,1.5,1.5
		V102.5z"/>
	<path class="st0" d="M100.2,85.9c-7.8,0-14.2,6.4-14.2,14.2c0,7.8,6.4,14.2,14.2,14.2c7.8,0,14.2-6.4,14.2-14.2
		C114.4,92.3,108,85.9,100.2,85.9z M100.2,109.4c-5.1,0-9.3-4.2-9.3-9.3c0-5.1,4.2-9.3,9.3-9.3c5.1,0,9.3,4.2,9.3,9.3
		C109.5,105.3,105.3,109.4,100.2,109.4z"/>
</g>
</svg>
