<?xml version="1.0" encoding="utf-8"?>
<!-- Generator: Adobe Illustrator 21.1.0, SVG Export Plug-In . SVG Version: 6.00 Build 0)  -->
<svg version="1.1" id="Layer_1" xmlns="http://www.w3.org/2000/svg" xmlns:xlink="http://www.w3.org/1999/xlink" x="0px" y="0px"
	 viewBox="0 0 200 200" style="enable-background:new 0 0 200 200;" xml:space="preserve">
<style type="text/css">
	.st0{fill:#404040;}
</style>
<g>
	<path class="st0" d="M111.5,66.2c-8.9-3.4-18.7-3-27.4,0.9c-8.7,3.9-15.3,11-18.7,20c-0.5,1.3,0.2,2.6,1.4,3.1
		c1.3,0.5,2.6-0.2,3.1-1.4c2.9-7.7,8.7-13.9,16.2-17.3c7.5-3.4,15.9-3.7,23.7-0.8c16,6,24.1,23.9,18.1,39.8
		c-2.9,7.7-8.7,13.9-16.2,17.3c-7.5,3.4-15.9,3.7-23.7,0.8c-2.7-1-5.2-2.4-7.4-4h6.3c1.3,0,2.4-1.1,2.4-2.4s-1.1-2.4-2.4-2.4H75.5
		c-1.3,0-2.4,1.1-2.4,2.4v11.5c0,1.3,1.1,2.4,2.4,2.4s2.4-1.1,2.4-2.4v-5c2.6,1.9,5.4,3.4,8.5,4.6c4.1,1.5,8.4,2.3,12.6,2.3
		c5,0,10-1.1,14.7-3.2c8.7-3.9,15.3-11,18.7-20C139.3,93.9,130,73.2,111.5,66.2z"/>
	<path class="st0" d="M97.7,82.9c-1.3,0-2.4,1.1-2.4,2.4v16.9c0,1.1,0.8,2.1,1.9,2.4l13.7,3.2c0.2,0,0.4,0.1,0.6,0.1
		c1.1,0,2.1-0.8,2.4-1.9c0.3-1.3-0.5-2.6-1.8-2.9l-11.8-2.8v-15C100.1,83.9,99,82.9,97.7,82.9z"/>
</g>
</svg>
