<?xml version="1.0" encoding="utf-8"?>
<!-- Generator: Adobe Illustrator 21.1.0, SVG Export Plug-In . SVG Version: 6.00 Build 0)  -->
<svg version="1.1" id="Layer_1" xmlns="http://www.w3.org/2000/svg" xmlns:xlink="http://www.w3.org/1999/xlink" x="0px" y="0px"
	 viewBox="0 0 200 200" style="enable-background:new 0 0 200 200;" xml:space="preserve">
<style type="text/css">
	.st0{fill:#404040;}
</style>
<g>
	<path class="st0" d="M125.5,74.2c-6.8-6.7-15.9-10.5-25.5-10.5c-0.1,0-0.2,0-0.3,0C90,63.8,81,67.6,74.2,74.5
		c-14.1,14.3-13.9,37.3,0.4,51.3c7.1,7,16.3,10.4,25.5,10.4c9.4,0,18.8-3.6,25.9-10.8C139.9,111.2,139.7,88.2,125.5,74.2z
		 M122.4,122.1c-12.2,12.4-32.1,12.5-44.5,0.3c-6-5.9-9.3-13.8-9.4-22.2c-0.1-8.4,3.2-16.3,9.1-22.3c5.9-6,13.8-9.3,22.2-9.4
		c0.1,0,0.2,0,0.2,0c8.3,0,16.2,3.2,22.1,9.1C134.4,89.8,134.6,109.7,122.4,122.1z"/>
	<polygon class="st0" points="100,84.5 100,84.5 100,84.5 	"/>
	<path class="st0" d="M114.7,89.9c-0.4-1-1-2-1.8-2.7c-0.8-0.8-1.7-1.4-2.7-1.8c-1-0.4-2.1-0.6-3.8-0.7c-1.7-0.1-2.2-0.1-6.4-0.1
		s-4.7,0-6.4,0.1c-1.6,0.1-2.8,0.3-3.8,0.7c-1,0.4-2,1-2.7,1.8c-0.8,0.8-1.4,1.7-1.8,2.7c-0.4,1-0.6,2.1-0.7,3.8
		c-0.1,1.7-0.1,2.2-0.1,6.4s0,4.7,0.1,6.4c0.1,1.6,0.3,2.8,0.7,3.8c0.4,1,1,2,1.8,2.7c0.8,0.8,1.7,1.4,2.7,1.8
		c1,0.4,2.1,0.6,3.8,0.7c1.7,0.1,2.2,0.1,6.4,0.1s4.7,0,6.4-0.1c1.6-0.1,2.8-0.3,3.8-0.7c2.1-0.8,3.7-2.4,4.5-4.5
		c0.4-1,0.6-2.1,0.7-3.8c0.1-1.7,0.1-2.2,0.1-6.4s0-4.7-0.1-6.4C115.3,92,115.1,90.8,114.7,89.9z M112.6,106.3
		c-0.1,1.5-0.3,2.3-0.5,2.9c-0.5,1.4-1.6,2.4-2.9,2.9c-0.5,0.2-1.4,0.5-2.9,0.5c-1.6,0.1-2.1,0.1-6.3,0.1c-4.1,0-4.6,0-6.3-0.1
		c-1.5-0.1-2.3-0.3-2.9-0.5c-0.7-0.2-1.3-0.6-1.8-1.2c-0.5-0.5-0.9-1.1-1.2-1.8c-0.2-0.5-0.5-1.4-0.5-2.9c-0.1-1.6-0.1-2.1-0.1-6.3
		c0-4.1,0-4.6,0.1-6.3c0.1-1.5,0.3-2.3,0.5-2.9c0.2-0.7,0.6-1.3,1.2-1.8c0.5-0.5,1.1-0.9,1.8-1.2c0.5-0.2,1.4-0.5,2.9-0.5
		c1.6-0.1,2.1-0.1,6.3-0.1l0,0c4.1,0,4.6,0,6.3,0.1c1.5,0.1,2.3,0.3,2.9,0.5c0.7,0.2,1.3,0.6,1.8,1.2c0.5,0.5,0.9,1.1,1.2,1.8
		c0.2,0.5,0.5,1.4,0.5,2.9c0.1,1.6,0.1,2.1,0.1,6.3C112.7,104.1,112.7,104.6,112.6,106.3z"/>
	<path class="st0" d="M100,92.1c-4.4,0-8,3.6-8,8s3.6,8,8,8c4.4,0,8-3.6,8-8S104.4,92.1,100,92.1z M100,105.2
		c-2.9,0-5.2-2.3-5.2-5.2c0-2.9,2.3-5.2,5.2-5.2c2.9,0,5.2,2.3,5.2,5.2C105.2,102.9,102.9,105.2,100,105.2z"/>
	<circle class="st0" cx="108.3" cy="91.7" r="1.9"/>
</g>
</svg>
