<?xml version="1.0" encoding="utf-8"?>
<!-- Generator: Adobe Illustrator 21.1.0, SVG Export Plug-In . SVG Version: 6.00 Build 0)  -->
<svg version="1.1" id="Layer_1" xmlns="http://www.w3.org/2000/svg" xmlns:xlink="http://www.w3.org/1999/xlink" x="0px" y="0px"
	 viewBox="0 0 200 200" style="enable-background:new 0 0 200 200;" xml:space="preserve">
<style type="text/css">
	.st0{fill:#404040;}
</style>
<g>
	<path class="st0" d="M145.4,88.3c-1-0.4-2.1-0.3-2.9,0.4l-11.1,5.6v-9.5c0-5.3-4.3-9.6-9.6-9.6h-9.2l-7.2-10c-0.5-0.6-1.2-1-2-1H74
		c-1.3,0-2.4,1.1-2.4,2.4s1.1,2.4,2.4,2.4h28.2l4.5,6.2H62.2c-5.3,0-9.6,4.3-9.6,9.6v41.6c0,5.3,4.3,9.6,9.6,9.6h59.6
		c5.3,0,9.6-4.3,9.6-9.6v-9.5l11.1,5.6c0.5,0.4,1.1,0.6,1.8,0.6c0.4,0,0.8-0.1,1.1-0.2c1.2-0.5,2-1.7,2-3V91.3
		C147.4,90,146.6,88.8,145.4,88.3z M126.6,126.3c0,2.6-2.2,4.8-4.8,4.8H62.2c-2.6,0-4.8-2.2-4.8-4.8V84.7c0-2.6,2.2-4.8,4.8-4.8
		h59.6c2.6,0,4.8,2.2,4.8,4.8V126.3z M142.6,117l-10.5-5.3c-0.2-0.3-0.4-0.6-0.7-0.8v-10.9c0.3-0.2,0.5-0.5,0.7-0.8l10.5-5.3V117z"
		/>
	<path class="st0" d="M117.5,117.4H67c-1,0-1.8,0.8-1.8,1.8c0,1,0.8,1.8,1.8,1.8h50.4c1,0,1.8-0.8,1.8-1.8
		C119.3,118.2,118.4,117.4,117.5,117.4z"/>
</g>
</svg>
