<?xml version="1.0" encoding="utf-8"?>
<!-- Generator: Adobe Illustrator 21.1.0, SVG Export Plug-In . SVG Version: 6.00 Build 0)  -->
<svg version="1.1" id="Layer_1" xmlns="http://www.w3.org/2000/svg" xmlns:xlink="http://www.w3.org/1999/xlink" x="0px" y="0px"
	 viewBox="0 0 200 200" style="enable-background:new 0 0 200 200;" xml:space="preserve">
<style type="text/css">
	.st0{fill:#404040;}
</style>
<g>
	<path class="st0" d="M100,136.3c-20,0-36.3-16.3-36.3-36.3S80,63.7,100,63.7S136.3,80,136.3,100S120,136.3,100,136.3z M100,68.5
		c-17.3,0-31.5,14.1-31.5,31.5s14.1,31.5,31.5,31.5s31.5-14.1,31.5-31.5S117.3,68.5,100,68.5z"/>
	<path class="st0" d="M113.2,95.1c0,0.6-0.1,1.3-0.2,1.9c-0.3,2.2-1,4.3-2.2,6.1c-0.8,1.3-1.9,2.3-3.1,3.1c-1.1,0.7-2.3,1.1-3.6,1.3
		c-0.6,0.1-1.2,0.1-1.8,0.1c-1.4-0.1-2.6-0.5-3.7-1.4c-0.3-0.3-0.6-0.6-0.8-0.9c0,0,0,0-0.1-0.1c-0.1,0.2-0.1,0.4-0.2,0.6
		c-0.4,1.6-0.8,3.1-1.2,4.7c-0.3,1-0.6,1.9-1.1,2.8c-0.7,1.3-1.5,2.6-2.4,3.7c0,0.1-0.1,0.1-0.2,0.1c-0.2,0.1-0.3,0-0.3-0.2
		c0-0.3-0.1-0.5-0.1-0.8c-0.1-0.7-0.1-1.4-0.2-2c0-0.7,0-1.5,0-2.2c0-0.7,0.1-1.4,0.3-2.1c0.1-0.6,0.3-1.2,0.4-1.8
		c0.6-2.4,1.1-4.8,1.7-7.2c0.2-0.7,0.3-1.3,0.5-2c0-0.1,0-0.2,0-0.3c-0.3-0.6-0.4-1.2-0.5-1.9c-0.1-0.5-0.1-1.1-0.1-1.7
		c0.1-1.1,0.4-2.1,1-3c0.4-0.6,0.9-1,1.6-1.3c0.6-0.2,1.2-0.3,1.8-0.1c0.9,0.2,1.4,0.7,1.7,1.6c0.2,0.4,0.2,0.9,0.2,1.4
		c0,0.6-0.1,1.1-0.2,1.7c-0.2,0.9-0.5,1.8-0.8,2.7c-0.3,0.8-0.5,1.7-0.7,2.5c-0.2,0.8-0.1,1.6,0.3,2.3c0.5,0.8,1.1,1.2,2,1.4
		c1,0.2,1.9,0.1,2.8-0.4c0.7-0.4,1.2-0.9,1.7-1.5c0.6-0.7,1.1-1.6,1.4-2.5c0.4-1,0.7-2.1,0.9-3.2c0.1-0.9,0.2-1.8,0.2-2.8
		c0-1.1-0.2-2.2-0.6-3.3c-0.7-1.7-1.9-2.9-3.6-3.6c-0.8-0.3-1.5-0.5-2.3-0.6c-0.7-0.1-1.4-0.1-2.1-0.1c-1.9,0.1-3.6,0.6-5.2,1.6
		c-1.9,1.3-3.1,3-3.7,5.2c-0.3,1-0.4,2-0.3,3c0.1,1.3,0.5,2.4,1.3,3.4c0.1,0.1,0.1,0.2,0.2,0.2c0.1,0.2,0.2,0.4,0.1,0.6
		c-0.1,0.4-0.2,0.8-0.3,1.2c0,0.2-0.1,0.4-0.2,0.6c0,0.1,0,0.2-0.1,0.2c-0.1,0.3-0.4,0.4-0.7,0.3c-0.1,0-0.2,0-0.3-0.1
		c-1.2-0.5-2-1.3-2.7-2.4c-0.5-0.8-0.8-1.6-1-2.5c-0.2-1.1-0.3-2.2-0.2-3.4c0.1-1.3,0.4-2.6,1-3.8c1.2-2.7,3.1-4.7,5.7-6
		c1.3-0.7,2.6-1.1,4-1.4c1.2-0.2,2.3-0.3,3.5-0.3c2.1,0,4.1,0.4,5.9,1.4c2.2,1.1,3.9,2.7,5,4.8c0.6,1.1,1,2.3,1.2,3.6
		C113.3,93.4,113.3,94.3,113.2,95.1z"/>
</g>
</svg>
