<?xml version="1.0" encoding="utf-8"?>
<!-- Generator: Adobe Illustrator 21.1.0, SVG Export Plug-In . SVG Version: 6.00 Build 0)  -->
<svg version="1.1" id="Layer_1" xmlns="http://www.w3.org/2000/svg" xmlns:xlink="http://www.w3.org/1999/xlink" x="0px" y="0px"
	 viewBox="0 0 200 200" style="enable-background:new 0 0 200 200;" xml:space="preserve">
<style type="text/css">
	.st0{fill:#404040;}
</style>
<g>
	<path class="st0" d="M100,136.3c-19.9,0-36.2-16.1-36.3-36c-0.1-20,16-36.4,36-36.6c0.1,0,0.2,0,0.3,0c19.9,0,36.2,16.1,36.3,36
		c0.1,20-16,36.4-36,36.6C100.2,136.3,100.1,136.3,100,136.3z M100,68.5c-0.1,0-0.2,0-0.2,0c-17.3,0.1-31.4,14.3-31.2,31.7
		c0.1,17.3,14.2,31.2,31.5,31.2c0.1,0,0.2,0,0.2,0c17.3-0.1,31.4-14.3,31.2-31.7C131.3,82.5,117.2,68.5,100,68.5z"/>
	<path class="st0" d="M109,83.4c0,0-15.3,0-17.7,0c-2.4,0-3.1,1.8-3.1,3c0,1.2,0,28.2,0,28.2c0,1.3,0.7,1.8,1.1,1.9
		c0.4,0.2,1.5,0.3,2.1-0.5c0,0,8.4-9.7,8.5-9.9c0.2-0.2,0.2-0.2,0.4-0.2c0.4,0,3.7,0,5.4,0c2.3,0,2.6-1.6,2.9-2.6
		c0.1-0.5,1.2-5.7,2-10.2l1.1-5.6C112.3,84.9,111.6,83.4,109,83.4z M107.8,87.7l-0.7,3.8c-0.1,0.4-0.6,0.9-1.1,0.9
		c-0.5,0-6.9,0-6.9,0c-0.8,0-1.4,0.5-1.4,1.3v0.8c0,0.8,0.6,1.3,1.4,1.3c0,0,5.3,0,5.9,0c0.5,0,1.1,0.6,1,1.2
		c-0.1,0.6-0.7,3.5-0.7,3.8c-0.1,0.3-0.4,0.8-1.1,0.8c-0.5,0-4.8,0-4.8,0c-0.9,0-1.1,0.1-1.7,0.9c-0.6,0.7-5.8,7.1-5.8,7.1
		c-0.1,0.1-0.1,0-0.1,0v-22c0-0.5,0.5-1,1.1-1c0,0,13.7,0,14.2,0C107.4,86.6,107.9,87,107.8,87.7z"/>
</g>
</svg>
