<?xml version="1.0" encoding="utf-8"?>
<!-- Generator: Adobe Illustrator 21.1.0, SVG Export Plug-In . SVG Version: 6.00 Build 0)  -->
<svg version="1.1" id="Layer_1" xmlns="http://www.w3.org/2000/svg" xmlns:xlink="http://www.w3.org/1999/xlink" x="0px" y="0px"
	 viewBox="0 0 200 200" style="enable-background:new 0 0 200 200;" xml:space="preserve">
<style type="text/css">
	.st0{fill:#404040;}
</style>
<g>
	<path class="st0" d="M100,63.7c-0.1,0-0.2,0-0.3,0c-20,0.1-36.2,16.5-36,36.6c0.1,9.7,3.9,18.8,10.8,25.6
		c6.8,6.7,15.9,10.5,25.5,10.5c0.1,0,0.2,0,0.3,0c20-0.1,36.2-16.5,36-36.6C136.2,79.8,119.9,63.7,100,63.7z M100.2,131.5
		c-0.1,0-0.2,0-0.2,0c-8.3,0-16.2-3.2-22.1-9.1c-6-5.9-9.3-13.8-9.4-22.2c-0.1-17.3,13.9-31.6,31.2-31.7c0.1,0,0.2,0,0.2,0
		c17.2,0,31.3,14,31.5,31.2C131.6,117.1,117.6,131.3,100.2,131.5z"/>
	<path class="st0" d="M113.7,88.5c-2.7-0.7-13.7-0.7-13.7-0.7s-10.9,0-13.7,0.7c-1.5,0.4-2.7,1.6-3.1,3.1c-0.7,2.7-0.7,8.4-0.7,8.4
		s0,5.7,0.7,8.4c0.4,1.5,1.6,2.7,3.1,3.1c2.8,0.7,13.7,0.7,13.7,0.7s10.9,0,13.7-0.7c1.5-0.4,2.7-1.6,3.1-3.1
		c0.7-2.7,0.7-8.4,0.7-8.4s0-5.7-0.7-8.4C116.3,90.1,115.2,88.9,113.7,88.5z M96.5,105.2V94.8l9.1,5.2L96.5,105.2z"/>
</g>
</svg>
