<?xml version="1.0" encoding="utf-8"?>
<!-- Generator: Adobe Illustrator 21.1.0, SVG Export Plug-In . SVG Version: 6.00 Build 0)  -->
<svg version="1.1" id="Layer_1" xmlns="http://www.w3.org/2000/svg" xmlns:xlink="http://www.w3.org/1999/xlink" x="0px" y="0px"
	 viewBox="0 0 200 200" style="enable-background:new 0 0 200 200;" xml:space="preserve">
<style type="text/css">
	.st0{fill:#404040;}
</style>
<path class="st0" d="M100,136.3c-20,0-36.3-16.3-36.3-36.3S80,63.7,100,63.7S136.3,80,136.3,100S120,136.3,100,136.3z M100,68.5
	c-17.3,0-31.5,14.1-31.5,31.5s14.1,31.5,31.5,31.5s31.5-14.1,31.5-31.5S117.3,68.5,100,68.5z"/>
<path id="Blue_2_" class="st0" d="M96.1,118.4v-16.8h-5.6v-6.5h5.6v-4.8c0-5.6,3.4-8.6,8.4-8.6c2.4,0,4.4,0.2,5,0.3v5.8l-3.5,0
	c-2.7,0-3.2,1.3-3.2,3.2v4.2h6.5l-0.8,6.5h-5.6v16.8H96.1z"/>
</svg>
