<?xml version="1.0" encoding="utf-8"?>
<!-- Generator: Adobe Illustrator 21.1.0, SVG Export Plug-In . SVG Version: 6.00 Build 0)  -->
<svg version="1.1" id="Layer_1" xmlns="http://www.w3.org/2000/svg" xmlns:xlink="http://www.w3.org/1999/xlink" x="0px" y="0px"
	 viewBox="0 0 200 200" style="enable-background:new 0 0 200 200;" xml:space="preserve">
<style type="text/css">
	.st0{fill:#404040;}
</style>
<g>
	<path class="st0" d="M120.6,104.4c-2.8-7.4-6.3-10.1-9.2-10.8c0.2-0.2,0.4-0.4,0.6-0.6c3.2-3.2,4.9-7.4,4.8-11.9s-1.8-8.7-5-11.8
		s-7.4-4.9-11.9-4.8c-4.5,0-8.7,1.8-11.8,5c-3.2,3.2-4.9,7.4-4.8,11.9s1.8,8.7,5,11.8c0.2,0.2,0.3,0.3,0.5,0.5
		c-2.9,0.7-6.4,3.4-9.2,10.8c-2.2,5.7-3.1,12.4-3.1,16.4v12.5c0,1.3,1.1,2.4,2.4,2.4h42.6c1.3,0,2.4-1.1,2.4-2.4v-12.5
		C123.7,116.7,122.7,110.1,120.6,104.4z M100,109.2l-4-11.1h8.1L100,109.2z M88,81.2c0-3.2,1.2-6.2,3.5-8.5c2.3-2.3,5.3-3.6,8.5-3.6
		c0,0,0.1,0,0.1,0c3.2,0,6.2,1.2,8.4,3.5c2.3,2.3,3.6,5.3,3.6,8.5l0,0c0,3.2-1.2,6.2-3.5,8.5c-2.3,2.3-5.3,3.6-8.5,3.6
		c-3.2,0-6.2-1.2-8.5-3.5C89.3,87.4,88,84.4,88,81.2z M81.1,120.8c0-3.6,0.9-9.6,2.8-14.7c1.9-5,4.3-7.9,6.6-7.9h0.3l6.3,17.2
		c0.1,0.2,0.2,0.4,0.3,0.6l-5.5,14.9H81.1V120.8z M118.9,130.9H97.2l12-32.7h0.2c2.3,0,4.7,2.9,6.6,7.9c1.9,5.2,2.8,11.1,2.8,14.7
		V130.9z"/>
	<polygon class="st0" points="116.8,81 116.8,81 116.8,81 	"/>
	<path class="st0" d="M113.2,116h-5.5c-1,0-1.8,0.8-1.8,1.8c0,1,0.8,1.8,1.8,1.8h5.5c1,0,1.8-0.8,1.8-1.8
		C115,116.8,114.2,116,113.2,116z"/>
</g>
</svg>
