<?xml version="1.0" encoding="utf-8"?>
<!-- Generator: Adobe Illustrator 21.1.0, SVG Export Plug-In . SVG Version: 6.00 Build 0)  -->
<svg version="1.1" id="Layer_1" xmlns="http://www.w3.org/2000/svg" xmlns:xlink="http://www.w3.org/1999/xlink" x="0px" y="0px"
	 viewBox="0 0 200 200" style="enable-background:new 0 0 200 200;" xml:space="preserve">
<style type="text/css">
	.st0{fill:#404040;}
</style>
<g>
	<path class="st0" d="M126.4,87.7h-14v-14c0-5.3-4.3-9.7-9.7-9.7h-5.3c-5.3,0-9.7,4.3-9.7,9.7v14h-14c-5.3,0-9.7,4.3-9.7,9.7v5.3
		c0,5.3,4.3,9.7,9.7,9.7h14v14c0,5.3,4.3,9.7,9.7,9.7h5.3c5.3,0,9.7-4.3,9.7-9.7v-14h14c5.3,0,9.7-4.3,9.7-9.7v-5.3
		C136.1,92,131.7,87.7,126.4,87.7z M92.5,73.6c0-2.7,2.2-4.8,4.8-4.8h5.3c2.7,0,4.8,2.2,4.8,4.8v14h-15V73.6z M107.5,92.5v15h-15
		v-15H107.5z M73.6,107.5c-2.7,0-4.8-2.2-4.8-4.8v-5.3c0-2.7,2.2-4.8,4.8-4.8h14v15H73.6z M107.5,126.4c0,2.7-2.2,4.8-4.8,4.8h-5.3
		c-2.7,0-4.8-2.2-4.8-4.8v-14h15V126.4z M131.2,102.7c0,2.7-2.2,4.8-4.8,4.8h-14v-15h14c2.7,0,4.8,2.2,4.8,4.8V102.7z"/>
	<circle class="st0" cx="75.3" cy="100" r="1.9"/>
	<circle class="st0" cx="81.4" cy="100" r="1.9"/>
	<circle class="st0" cx="118.4" cy="100" r="1.9"/>
	<circle class="st0" cx="124.4" cy="100" r="1.9"/>
	<circle class="st0" cx="100.2" cy="118.6" r="1.9"/>
	<circle class="st0" cx="100.2" cy="124.7" r="1.9"/>
	<circle class="st0" cx="100.2" cy="75.1" r="1.9"/>
	<circle class="st0" cx="100.2" cy="81.6" r="1.9"/>
</g>
</svg>
