<?xml version="1.0" encoding="utf-8"?>
<!-- Generator: Adobe Illustrator 21.1.0, SVG Export Plug-In . SVG Version: 6.00 Build 0)  -->
<svg version="1.1" id="Layer_1" xmlns="http://www.w3.org/2000/svg" xmlns:xlink="http://www.w3.org/1999/xlink" x="0px" y="0px"
	 viewBox="0 0 200 200" style="enable-background:new 0 0 200 200;" xml:space="preserve">
<style type="text/css">
	.st0{fill:#FFFFFF;}
</style>
<g>
	<path class="st0" d="M100,147.8c-26.2,0-47.6-21.2-47.8-47.5C52,74,73.3,52.3,99.7,52.2c0.1,0,0.2,0,0.3,0
		c26.2,0,47.6,21.2,47.8,47.5c0.2,26.4-21.1,48-47.5,48.2C100.2,147.8,100.1,147.8,100,147.8z M100,58.5c-0.1,0-0.2,0-0.3,0
		c-22.9,0.2-41.3,18.9-41.2,41.8c0.2,22.8,18.7,41.2,41.5,41.2c0.1,0,0.2,0,0.3,0c22.9-0.2,41.3-18.9,41.2-41.8
		C141.3,76.9,122.7,58.5,100,58.5z"/>
	<g>
		<path class="st0" d="M92.9,120.4c-1.5,0-3-0.4-4.4-1.2c-2.8-1.6-4.4-4.4-4.4-7.6V88.4c0-3.2,1.6-6,4.4-7.6c2.8-1.6,6.1-1.6,8.8,0
			l20,11.6v0c2.8,1.6,4.4,4.4,4.4,7.6c0,3.2-1.6,6-4.4,7.6l-20,11.6C95.9,120,94.4,120.4,92.9,120.4z M92.9,87.6
			c-0.2,0-0.3,0.1-0.4,0.1c-0.2,0.1-0.4,0.3-0.4,0.7v23.1c0,0.4,0.2,0.6,0.4,0.7c0.2,0.1,0.5,0.2,0.8,0l20-11.6
			c0.3-0.2,0.4-0.5,0.4-0.7c0-0.2-0.1-0.5-0.4-0.7l0,0l-20-11.6C93.2,87.6,93,87.6,92.9,87.6z"/>
	</g>
</g>
</svg>
