<?xml version="1.0" encoding="utf-8"?>
<!-- Generator: Adobe Illustrator 21.1.0, SVG Export Plug-In . SVG Version: 6.00 Build 0)  -->
<svg version="1.1" id="Layer_1" xmlns="http://www.w3.org/2000/svg" xmlns:xlink="http://www.w3.org/1999/xlink" x="0px" y="0px"
	 viewBox="0 0 200 200" style="enable-background:new 0 0 200 200;" xml:space="preserve">
<style type="text/css">
	.st0{fill:#404040;}
</style>
<g>
	<path class="st0" d="M75,131.3h-1.5c-2.7,0-4.8-2.2-4.8-4.8v-3.5c0-1.3-1.1-2.4-2.4-2.4s-2.4,1.1-2.4,2.4v3.5
		c0,5.3,4.3,9.7,9.7,9.7H75c1.3,0,2.4-1.1,2.4-2.4S76.4,131.3,75,131.3z"/>
	<path class="st0" d="M66.3,116c1.3,0,2.4-1.1,2.4-2.4V97.2c0-1.3-1.1-2.4-2.4-2.4s-2.4,1.1-2.4,2.4v16.4
		C63.9,114.9,65,116,66.3,116z"/>
	<path class="st0" d="M99.3,68.7h16.4c1.3,0,2.4-1.1,2.4-2.4s-1.1-2.4-2.4-2.4H99.3c-1.3,0-2.4,1.1-2.4,2.4S97.9,68.7,99.3,68.7z"/>
	<path class="st0" d="M100.7,131.3H84.4c-1.3,0-2.4,1.1-2.4,2.4s1.1,2.4,2.4,2.4h16.4c1.3,0,2.4-1.1,2.4-2.4
		S102.1,131.3,100.7,131.3z"/>
	<path class="st0" d="M73.6,68.7h16.3c1.3,0,2.4-1.1,2.4-2.4s-1.1-2.4-2.4-2.4H73.5c-1.3,0-2.4,1.1-2.4,2.4S72.2,68.7,73.6,68.7z"/>
	<path class="st0" d="M66.3,90.3c1.3,0,2.4-1.1,2.4-2.4V73.6c0-0.5,0.1-0.9,0.2-1.3c0.4-1.3-0.4-2.6-1.7-3c-1.3-0.4-2.6,0.4-3,1.7
		c-0.3,0.9-0.4,1.8-0.4,2.7v14.3C63.9,89.2,65,90.3,66.3,90.3z"/>
	<path class="st0" d="M133.7,109.7c-1.3,0-2.4,1.1-2.4,2.4v14.3c0,0.5-0.1,0.9-0.2,1.3c-0.4,1.3,0.4,2.6,1.7,3
		c0.2,0.1,0.4,0.1,0.7,0.1c1.1,0,2-0.7,2.3-1.8c0.2-0.9,0.4-1.8,0.4-2.7v-14.3C136.1,110.8,135,109.7,133.7,109.7z"/>
	<path class="st0" d="M133.7,84c-1.3,0-2.4,1.1-2.4,2.4v16.4c0,1.3,1.1,2.4,2.4,2.4s2.4-1.1,2.4-2.4V86.4
		C136.1,85.1,135,84,133.7,84z"/>
	<path class="st0" d="M126.4,63.9H125c-1.3,0-2.4,1.1-2.4,2.4s1.1,2.4,2.4,2.4h1.5c2.7,0,4.8,2.2,4.8,4.8V77c0,1.3,1.1,2.4,2.4,2.4
		s2.4-1.1,2.4-2.4v-3.5C136.1,68.2,131.8,63.9,126.4,63.9z"/>
	<path class="st0" d="M126.5,131.3h-16.4c-1.3,0-2.4,1.1-2.4,2.4s1.1,2.4,2.4,2.4h16.4c1.3,0,2.4-1.1,2.4-2.4
		S127.8,131.3,126.5,131.3z"/>
	<path class="st0" d="M101.9,98.9v-8c2.1,0.6,3.7,2.1,3.7,3.8c0,1,0.8,1.8,1.8,1.8s1.8-0.8,1.8-1.8c0-3.7-3.1-6.8-7.3-7.5v-2.4
		c0-1-0.8-1.8-1.8-1.8s-1.8,0.8-1.8,1.8v2.4C94.1,88,91,91.1,91,94.8c0,3.7,3.1,6.8,7.3,7.5v8c-2.1-0.6-3.7-2.1-3.7-3.8
		c0-1-0.8-1.8-1.8-1.8s-1.8,0.8-1.8,1.8c0,3.7,3.1,6.8,7.3,7.5v2.4c0,1,0.8,1.8,1.8,1.8s1.8-0.8,1.8-1.8v-2.4
		c4.2-0.7,7.3-3.8,7.3-7.5C109.2,102.7,106.1,99.7,101.9,98.9z M94.6,94.8c0-1.7,1.6-3.2,3.7-3.8v7.6C96.2,98,94.6,96.5,94.6,94.8z
		 M101.9,110.2v-7.6c2.1,0.6,3.7,2.1,3.7,3.8S104,109.7,101.9,110.2z"/>
</g>
</svg>
