<?xml version="1.0" encoding="utf-8"?>
<!-- Generator: Adobe Illustrator 21.1.0, SVG Export Plug-In . SVG Version: 6.00 Build 0)  -->
<svg version="1.1" id="Layer_1" xmlns="http://www.w3.org/2000/svg" xmlns:xlink="http://www.w3.org/1999/xlink" x="0px" y="0px"
	 viewBox="0 0 200 200" style="enable-background:new 0 0 200 200;" xml:space="preserve">
<style type="text/css">
	.st0{fill:#404040;}
</style>
<g>
	<path class="st0" d="M90.5,120.9c-0.6,0-1.2-0.2-1.7-0.7c-8.4-8.4-8.4-22,0-30.4c0.9-0.9,2.5-0.9,3.4,0c0.9,0.9,0.9,2.5,0,3.4
		c-6.5,6.5-6.5,17.1,0,23.6c0.9,0.9,0.9,2.5,0,3.4C91.7,120.7,91.1,120.9,90.5,120.9z"/>
	<path class="st0" d="M100,135.9c-16.6,0-30.1-13.5-30.1-30.1c0-7.4,2.7-14.5,7.6-20c0,0,0.1-0.1,0.1-0.1l20.7-20.9
		c0.5-0.5,1.1-0.7,1.7-0.7s1.3,0.3,1.7,0.7l20.7,20.9c0,0,0.1,0.1,0.1,0.1c4.9,5.5,7.6,12.6,7.6,20
		C130.1,122.4,116.6,135.9,100,135.9z M81.1,89.1c-4.1,4.6-6.3,10.6-6.3,16.7c0,13.9,11.3,25.3,25.3,25.3s25.3-11.3,25.3-25.3
		c0-6.2-2.3-12.1-6.3-16.7L100,69.9L81.1,89.1z"/>
</g>
</svg>
