<?xml version="1.0" encoding="utf-8"?>
<!-- Generator: Adobe Illustrator 21.1.0, SVG Export Plug-In . SVG Version: 6.00 Build 0)  -->
<svg version="1.1" id="Layer_1" xmlns="http://www.w3.org/2000/svg" xmlns:xlink="http://www.w3.org/1999/xlink" x="0px" y="0px"
	 viewBox="0 0 200 200" style="enable-background:new 0 0 200 200;" xml:space="preserve">
<style type="text/css">
	.st0{fill:#404040;}
</style>
<g>
	<path class="st0" d="M85.1,100.8v3.3h4.4v11.4h4.8V97h-3.8C90.4,99.9,87.7,100.8,85.1,100.8z"/>
	<path class="st0" d="M109.3,109.2c2.7-1.7,5.3-3,5.3-6.6c0-4-3.3-5.9-6.9-5.9c-4.6,0-7.6,3.1-7.3,7.7h4.2c0-2,0.7-3.8,3.1-3.8
		c1.4,0,2.4,0.9,2.4,2.3c0,1.3-1,2.2-2.4,3.1c-1.4,0.9-3.2,1.9-4.8,3.2c-1.8,1.6-2.9,3.8-2.9,6.2h14.9v-3.8H106
		C107.2,110.5,107.9,110.1,109.3,109.2z"/>
	<path class="st0" d="M126.5,72.5h-10.6v-6c0-1.3-1.1-2.4-2.4-2.4s-2.4,1.1-2.4,2.4v6H89.2v-6c0-1.3-1.1-2.4-2.4-2.4
		s-2.4,1.1-2.4,2.4v6H73.5c-5.3,0-9.7,4.3-9.7,9.7v44.1c0,5.3,4.3,9.7,9.7,9.7h53.1c5.3,0,9.7-4.3,9.7-9.7V82.2
		C136.2,76.8,131.9,72.5,126.5,72.5z M131.4,126.3c0,2.7-2.2,4.8-4.8,4.8H73.5c-2.7,0-4.8-2.2-4.8-4.8V82.2c0-2.7,2.2-4.8,4.8-4.8
		h10.9v4c0,1.3,1.1,2.4,2.4,2.4s2.4-1.1,2.4-2.4v-4h21.9v4c0,1.3,1.1,2.4,2.4,2.4s2.4-1.1,2.4-2.4v-4h10.6c2.7,0,4.8,2.2,4.8,4.8
		V126.3z"/>
</g>
</svg>
