<?xml version="1.0" encoding="utf-8"?>
<!-- Generator: Adobe Illustrator 21.1.0, SVG Export Plug-In . SVG Version: 6.00 Build 0)  -->
<svg version="1.1" id="Layer_1" xmlns="http://www.w3.org/2000/svg" xmlns:xlink="http://www.w3.org/1999/xlink" x="0px" y="0px"
	 viewBox="0 0 200 200" style="enable-background:new 0 0 200 200;" xml:space="preserve">
<style type="text/css">
	.st0{fill:#404040;}
</style>
<path class="st0" d="M88.8,135.7c-1.1,0-2.1-0.8-2.4-1.9l-6.2-27.6H66.2c-1.3,0-2.4-1.1-2.4-2.4s1.1-2.4,2.4-2.4h16
	c1.1,0,2.1,0.8,2.4,1.9l3.6,16.1L95,66.4c0.2-1.2,1.1-2.1,2.3-2.1c1.2,0,2.2,0.8,2.4,2l7.1,38.8l4.7-16.5c0.3-0.9,1.1-1.6,2-1.7
	c1-0.1,1.9,0.4,2.4,1.2l6,10.9h11.8c1.3,0,2.4,1.1,2.4,2.4c0,1.3-1.1,2.4-2.4,2.4h-13.2c-0.9,0-1.7-0.5-2.1-1.2l-3.9-7l-5.9,20.8
	c-0.3,1.1-1.3,1.8-2.4,1.8c-1.1-0.1-2.1-0.9-2.3-2l-6.2-33.7l-6.6,51.2c-0.1,1.2-1.1,2.1-2.3,2.1C88.9,135.7,88.8,135.7,88.8,135.7z
	"/>
</svg>
