<?xml version="1.0" encoding="utf-8"?>
<!-- Generator: Adobe Illustrator 21.1.0, SVG Export Plug-In . SVG Version: 6.00 Build 0)  -->
<svg version="1.1" id="Layer_1" xmlns="http://www.w3.org/2000/svg" xmlns:xlink="http://www.w3.org/1999/xlink" x="0px" y="0px"
	 viewBox="0 0 200 200" style="enable-background:new 0 0 200 200;" xml:space="preserve">
<style type="text/css">
	.st0{fill:#404040;}
</style>
<path class="st0" d="M111.1,93.6c3.5-3.1,5.7-7.7,5.7-12.7c0,0,0,0,0,0c-0.1-9.2-7.6-16.7-16.8-16.7c0,0-0.1,0-0.1,0
	c-9.3,0.1-16.7,7.7-16.7,16.9c0,5,2.2,9.4,5.7,12.5c-9.1,1.9-12.8,19.7-12.8,27.3v12.5c0,1.3,1.1,2.4,2.4,2.4h43
	c1.3,0,2.4-1.1,2.4-2.4v-12.5C123.9,113.3,120.2,95.5,111.1,93.6z M88,81.1c0-6.6,5.3-12,11.9-12.1c0,0,0.1,0,0.1,0
	c6.6,0,12,5.3,12,11.9c0,6.6-5.3,12-11.9,12.1c0,0-0.1,0-0.1,0C93.4,93,88,87.7,88,81.1z M119.1,131H80.9v-10.1
	c0-3.6,0.9-9.5,2.9-14.7c2-5.1,4.4-7.9,6.7-7.9h18.9c2.3,0,4.8,2.9,6.7,7.9c2,5.2,2.9,11.1,2.9,14.7V131z"/>
</svg>
