<?xml version="1.0" encoding="utf-8"?>
<!-- Generator: Adobe Illustrator 21.1.0, SVG Export Plug-In . SVG Version: 6.00 Build 0)  -->
<svg version="1.1" id="Layer_1" xmlns="http://www.w3.org/2000/svg" xmlns:xlink="http://www.w3.org/1999/xlink" x="0px" y="0px"
	 viewBox="0 0 200 200" style="enable-background:new 0 0 200 200;" xml:space="preserve">
<style type="text/css">
	.st0{fill:#404040;}
</style>
<g>
	<polygon class="st0" points="107,80.8 107,80.8 107,80.8 	"/>
	<path class="st0" d="M128,104.6c0-0.1,0-0.2,0-0.2c0-5.3-4.3-9.6-9.6-9.6c-3.8,0-7.1,2.2-8.6,5.4c-2.5-3.8-5.3-6.1-8.2-6.9
		c0.2-0.2,0.4-0.4,0.7-0.6c3.2-3.2,4.9-7.4,4.8-11.9s-1.8-8.7-5-11.8c-3.2-3.2-7.4-4.9-11.9-4.8c-4.5,0-8.7,1.8-11.8,5
		c-3.2,3.2-4.9,7.4-4.8,11.9s1.8,8.7,5,11.8c0.2,0.2,0.3,0.3,0.5,0.5c-3.8,0.9-7.4,4.6-10.4,10.6c-2.6,5.4-4.4,12.1-4.4,16.6v13
		c0,1.3,1.1,2.4,2.4,2.4h45h2.3h12.4c5.3,0,9.6-4.3,9.6-9.6V114C135.9,109.3,132.5,105.4,128,104.6z M118.4,98.3c3.3,0,6,2.7,6,6
		c0,0,0,0,0,0.1h-12c0,0,0,0,0-0.1C112.4,101,115.1,98.3,118.4,98.3z M78.2,81c0-3.2,1.2-6.2,3.5-8.5c2.3-2.3,5.3-3.6,8.5-3.6
		c0,0,0.1,0,0.1,0c3.2,0,6.2,1.2,8.4,3.5c2.3,2.3,3.6,5.3,3.6,8.5l0,0c0,3.2-1.2,6.2-3.5,8.5c-2.3,2.3-5.3,3.6-8.5,3.6
		c-3.2,0-6.2-1.2-8.5-3.5C79.5,87.2,78.2,84.2,78.2,81z M68.9,120.6c0-7.9,6.3-22.7,11.8-22.7h18.9c2.6,0,5.4,3.3,7.6,7.6
		c-3.1,1.6-5.3,4.8-5.3,8.6v12.3c0,1.7,0.5,3.4,1.3,4.8H68.9V120.6z M131.1,126.3c0,2.6-2.2,4.8-4.8,4.8h-14.7
		c-2.6,0-4.8-2.2-4.8-4.8V114c0-2.6,2.2-4.8,4.8-4.8h14.7c2.6,0,4.8,2.2,4.8,4.8V126.3z"/>
	<path class="st0" d="M118.9,112.6c-2.5,0-4.5,2-4.5,4.5c0,1.8,1.1,3.4,2.7,4.1v4.4c0,1,0.8,1.8,1.8,1.8c1,0,1.8-0.8,1.8-1.8v-4.4
		c1.6-0.7,2.7-2.3,2.7-4.1C123.4,114.6,121.4,112.6,118.9,112.6z M118.9,116.2c0.5,0,0.9,0.4,0.9,0.9s-0.4,0.9-0.9,0.9
		c-0.5,0-0.9-0.4-0.9-0.9S118.4,116.2,118.9,116.2z"/>
</g>
</svg>
