<?xml version="1.0" encoding="utf-8"?>
<!-- Generator: Adobe Illustrator 21.1.0, SVG Export Plug-In . SVG Version: 6.00 Build 0)  -->
<svg version="1.1" id="Layer_1" xmlns="http://www.w3.org/2000/svg" xmlns:xlink="http://www.w3.org/1999/xlink" x="0px" y="0px"
	 viewBox="0 0 200 200" style="enable-background:new 0 0 200 200;" xml:space="preserve">
<style type="text/css">
	.st0{fill:#404040;}
</style>
<g>
	<path class="st0" d="M104.8,103.2c0,1,0.8,1.8,1.8,1.8c1,0,1.8-0.8,1.8-1.8c0-3.4-2.8-6.3-6.6-7v-2c0-1-0.8-1.8-1.8-1.8
		s-1.8,0.8-1.8,1.8v2c-3.8,0.7-6.6,3.6-6.6,7c0,3.4,2.8,6.3,6.6,7v6.9c-1.7-0.5-3-1.8-3-3.2c0-1-0.8-1.8-1.8-1.8
		c-1,0-1.8,0.8-1.8,1.8c0,3.4,2.8,6.3,6.6,7v2c0,1,0.8,1.8,1.8,1.8s1.8-0.8,1.8-1.8v-2c3.8-0.7,6.6-3.6,6.6-7s-2.8-6.3-6.6-7V100
		C103.6,100.5,104.8,101.8,104.8,103.2z M95.2,103.2c0-1.4,1.3-2.7,3-3.2v6.5C96.4,105.9,95.2,104.7,95.2,103.2z M104.8,113.9
		c0,1.4-1.3,2.7-3,3.2v-6.5C103.6,111.2,104.8,112.4,104.8,113.9z"/>
	<path class="st0" d="M138.6,63.7H61.4c-5.3,0-9.7,4.3-9.7,9.7v53.2c0,5.3,4.3,9.7,9.7,9.7h77.1c5.3,0,9.7-4.3,9.7-9.7V73.4
		C148.2,68,143.9,63.7,138.6,63.7z M61.4,68.5h77.1c2.7,0,4.8,2.2,4.8,4.8v8.1H56.6v-8.1C56.6,70.7,58.8,68.5,61.4,68.5z
		 M138.6,131.5H61.4c-2.7,0-4.8-2.2-4.8-4.8V86.4h86.8v40.3C143.4,129.3,141.2,131.5,138.6,131.5z"/>
</g>
</svg>
