<?xml version="1.0" encoding="utf-8"?>
<!-- Generator: Adobe Illustrator 21.1.0, SVG Export Plug-In . SVG Version: 6.00 Build 0)  -->
<svg version="1.1" id="Layer_1" xmlns="http://www.w3.org/2000/svg" xmlns:xlink="http://www.w3.org/1999/xlink" x="0px" y="0px"
	 viewBox="0 0 200 200" style="enable-background:new 0 0 200 200;" xml:space="preserve">
<style type="text/css">
	.st0{fill:#404040;}
</style>
<path class="st0" d="M100,63.7C80,63.7,63.7,80,63.7,100S80,136.3,100,136.3s36.3-16.3,36.3-36.3S120,63.7,100,63.7z M100,68.5
	c7.8,0,14.9,2.9,20.5,7.6l-44.3,44.3c-4.7-5.5-7.6-12.6-7.6-20.5C68.5,82.7,82.7,68.5,100,68.5z M100,131.5
	c-7.8,0-14.9-2.9-20.5-7.6l44.3-44.3c4.7,5.5,7.6,12.6,7.6,20.5C131.5,117.3,117.3,131.5,100,131.5z"/>
</svg>
