<?xml version="1.0" encoding="utf-8"?>
<!-- Generator: Adobe Illustrator 21.1.0, SVG Export Plug-In . SVG Version: 6.00 Build 0)  -->
<svg version="1.1" id="Layer_1" xmlns="http://www.w3.org/2000/svg" xmlns:xlink="http://www.w3.org/1999/xlink" x="0px" y="0px"
	 viewBox="0 0 200 200" style="enable-background:new 0 0 200 200;" xml:space="preserve">
<style type="text/css">
	.st0{fill:#404040;}
</style>
<g>
	<g>
		<path class="st0" d="M138.2,136H61.8c-5.3,0-9.6-4.3-9.6-9.6V73.6c0-5.3,4.3-9.6,9.6-9.6h76.5c5.3,0,9.6,4.3,9.6,9.6v52.8
			C147.8,131.7,143.5,136,138.2,136z M61.8,68.8c-2.6,0-4.8,2.2-4.8,4.8v52.8c0,2.6,2.2,4.8,4.8,4.8h76.5c2.6,0,4.8-2.2,4.8-4.8
			V73.6c0-2.6-2.2-4.8-4.8-4.8H61.8z"/>
		<g>
			<g id="Insurance_Card_12_">
				<path class="st0" d="M132.6,108.6H113c-1,0-1.8-0.8-1.8-1.8c0-1,0.8-1.8,1.8-1.8h19.6c1,0,1.8,0.8,1.8,1.8
					C134.4,107.7,133.6,108.6,132.6,108.6z"/>
			</g>
			<g id="Insurance_Card_11_">
				<path class="st0" d="M132.6,95H113c-1,0-1.8-0.8-1.8-1.8c0-1,0.8-1.8,1.8-1.8h19.6c1,0,1.8,0.8,1.8,1.8
					C134.4,94.2,133.6,95,132.6,95z"/>
			</g>
		</g>
	</g>
	<g>
		<path class="st0" d="M84.7,119.3h-5.5c-3.3,0-6-2.7-6-6V109h-4.3c-3.3,0-6-2.7-6-6v-5.5c0-3.3,2.7-6,6-6h4.3v-4.3c0-3.3,2.7-6,6-6
			h5.5c3.3,0,6,2.7,6,6v4.3H95c3.3,0,6,2.7,6,6v5.5c0,3.3-2.7,6-6,6h-4.3v4.3C90.7,116.6,88,119.3,84.7,119.3z M68.8,96.3
			c-0.6,0-1.2,0.5-1.2,1.2v5.5c0,0.6,0.5,1.2,1.2,1.2h6.7c1.3,0,2.4,1.1,2.4,2.4v6.7c0,0.6,0.5,1.2,1.2,1.2h5.5
			c0.6,0,1.2-0.5,1.2-1.2v-6.7c0-1.3,1.1-2.4,2.4-2.4H95c0.6,0,1.2-0.5,1.2-1.2v-5.5c0-0.6-0.5-1.2-1.2-1.2h-6.7
			c-1.3,0-2.4-1.1-2.4-2.4v-6.7c0-0.6-0.5-1.2-1.2-1.2h-5.5c-0.6,0-1.2,0.5-1.2,1.2v6.7c0,1.3-1.1,2.4-2.4,2.4H68.8z"/>
	</g>
</g>
</svg>
