<?xml version="1.0" encoding="utf-8"?>
<!-- Generator: Adobe Illustrator 21.1.0, SVG Export Plug-In . SVG Version: 6.00 Build 0)  -->
<svg version="1.1" id="Layer_1" xmlns="http://www.w3.org/2000/svg" xmlns:xlink="http://www.w3.org/1999/xlink" x="0px" y="0px"
	 viewBox="0 0 200 200" style="enable-background:new 0 0 200 200;" xml:space="preserve">
<style type="text/css">
	.st0{fill:#404040;}
</style>
<g>
	<path class="st0" d="M130.8,116.6c-0.1-10.1-7.9-18.3-17.7-19.1V87h4.5c1.3,0,2.4-1.1,2.4-2.4v-7.9c0-0.9-0.5-1.7-1.3-2.1l-3.1-1.7
		v-6.5c0-1.3-1.1-2.4-2.4-2.4H76c-1.3,0-2.4,1.1-2.4,2.4v6.5l-3.1,1.7c-0.8,0.4-1.3,1.2-1.3,2.1v7.9c0,1.3,1.1,2.4,2.4,2.4h3.8v39.5
		c0,5.3,5,9.7,11.1,9.7H112l0,0c5-0.1,9.7-2.2,13.2-5.7C128.9,126.7,130.9,121.8,130.8,116.6z M74,78.1l3.1-1.7
		c0.8-0.4,1.3-1.2,1.3-2.1v-5.5h32.4v3.9H95.5c-1,0-1.8,0.8-1.8,1.8c0,1,0.8,1.8,1.8,1.8h16.4c0.1,0,0.1,0.1,0.2,0.2l3.1,1.7v4H74
		V78.1z M80.2,126.4V87h28v10.7c-9.2,1.5-16.2,9.6-16.2,19.2c0,5.7,2.6,10.9,6.6,14.4H86.5C83,131.3,80.2,129.1,80.2,126.4z
		 M111.6,131.3c0,0-0.1,0-0.1,0c-8,0-14.5-6.4-14.5-14.4c-0.1-8,6.4-14.6,14.4-14.6c0,0,0.1,0,0.1,0c8,0,14.5,6.4,14.5,14.4
		c0,3.9-1.5,7.5-4.2,10.3S115.4,131.3,111.6,131.3z"/>
	<path class="st0" d="M116,111.9l-6.2,6.2l-2.2-2.2c-0.7-0.7-1.9-0.7-2.6,0c-0.7,0.7-0.7,1.9,0,2.6l3.5,3.5c0.4,0.4,0.8,0.5,1.3,0.5
		c0.5,0,0.9-0.2,1.3-0.5l7.5-7.5c0.7-0.7,0.7-1.9,0-2.6C117.9,111.2,116.7,111.2,116,111.9z"/>
</g>
</svg>
