<?xml version="1.0" encoding="utf-8"?>
<!-- Generator: Adobe Illustrator 21.1.0, SVG Export Plug-In . SVG Version: 6.00 Build 0)  -->
<svg version="1.1" id="Layer_1" xmlns="http://www.w3.org/2000/svg" xmlns:xlink="http://www.w3.org/1999/xlink" x="0px" y="0px"
	 viewBox="0 0 200 200" style="enable-background:new 0 0 200 200;" xml:space="preserve">
<style type="text/css">
	.st0{fill:#404040;}
</style>
<g>
	<path class="st0" d="M77.3,81.5h29.6c1,0,1.8-0.8,1.8-1.8s-0.8-1.8-1.8-1.8H77.3c-1,0-1.8,0.8-1.8,1.8S76.3,81.5,77.3,81.5z"/>
	<path class="st0" d="M94.5,87.6H77.3c-1,0-1.8,0.8-1.8,1.8s0.8,1.8,1.8,1.8h17.2c1,0,1.8-0.8,1.8-1.8S95.5,87.6,94.5,87.6z"/>
	<path class="st0" d="M119.6,100l0-26.5c0-2.6-1-5-2.8-6.8c-1.8-1.8-4.3-2.8-6.8-2.8l-35.6,0c0,0,0,0,0,0c-2.6,0-5,1-6.8,2.8
		c-1.8,1.8-2.8,4.3-2.8,6.8l0,43.8c0,5.3,4.3,9.7,9.7,9.7l27.2,0c0.8,1.4,1.8,2.7,3,3.9c3.4,3.4,7.9,5.2,12.7,5.2c0,0,0.1,0,0.1,0
		c10-0.1,18.1-8.3,18-18.3C135.3,108.7,128.4,101.2,119.6,100z M74.3,122.2c-2.7,0-4.8-2.2-4.8-4.8l0-43.8c0-1.3,0.5-2.5,1.4-3.4
		c0.9-0.9,2.1-1.4,3.4-1.4c0,0,0,0,0,0l35.6,0c1.3,0,2.5,0.5,3.4,1.4c0.9,0.9,1.4,2.1,1.4,3.4l0,26.5c-3.9,0.5-7.6,2.3-10.4,5.2
		c-3.4,3.5-5.3,8-5.2,12.9c0,1.4,0.2,2.8,0.5,4.1L74.3,122.2z M117.3,131.3c-3.6,0-6.9-1.3-9.4-3.8s-3.9-5.8-4-9.4
		c0-3.6,1.3-6.9,3.8-9.4c2.5-2.5,5.8-3.9,9.4-4c0,0,0.1,0,0.1,0c7.3,0,13.3,5.9,13.3,13.2C130.6,125.2,124.7,131.3,117.3,131.3z"/>
	<path class="st0" d="M123,116.1C123,116.1,123,116.1,123,116.1l-3.9,0l0-3.9c0-1-0.8-1.8-1.8-1.8c0,0,0,0,0,0c-1,0-1.8,0.8-1.8,1.8
		l0,3.9l-3.9,0c-1,0-1.8,0.8-1.8,1.8c0,1,0.8,1.8,1.8,1.8c0,0,0,0,0,0l3.9,0l0,3.9c0,1,0.8,1.8,1.8,1.8c0,0,0,0,0,0
		c1,0,1.8-0.8,1.8-1.8l0-3.9l3.9,0c1,0,1.8-0.8,1.8-1.8C124.8,116.9,124,116.1,123,116.1z"/>
</g>
</svg>
