<?xml version="1.0" encoding="utf-8"?>
<!-- Generator: Adobe Illustrator 21.1.0, SVG Export Plug-In . SVG Version: 6.00 Build 0)  -->
<svg version="1.1" id="Layer_1" xmlns="http://www.w3.org/2000/svg" xmlns:xlink="http://www.w3.org/1999/xlink" x="0px" y="0px"
	 viewBox="0 0 200 200" style="enable-background:new 0 0 200 200;" xml:space="preserve">
<style type="text/css">
	.st0{fill:#404040;}
</style>
<g>
	<path class="st0" d="M62,76.1l41.8-7.4c1.3-0.2,2.2-1.5,2-2.8c-0.2-1.3-1.5-2.2-2.8-2l-41.8,7.4c-3,0.5-5.5,2.2-7.3,4.6
		c-1.7,2.5-2.4,5.4-1.9,8.4l3.9,22.1c0.2,1.2,1.2,2,2.4,2c0.1,0,0.3,0,0.4,0c1.3-0.2,2.2-1.5,2-2.8l-3.9-22.1
		c-0.3-1.7,0.1-3.4,1.1-4.8C58.8,77.4,60.3,76.4,62,76.1z"/>
	<path class="st0" d="M130.6,99.8L127,79.5c-0.4-2.5-1.9-4.8-4-6.2c-2.1-1.5-4.7-2.1-7.2-1.6l-44.9,7.9c-2.5,0.4-4.8,1.9-6.2,4
		c-1.5,2.1-2.1,4.7-1.6,7.2l4.4,25.2c0.4,2.5,1.9,4.8,4,6.2c1.6,1.2,3.6,1.8,5.5,1.8c0.6,0,1.1,0,1.7-0.1l33.1-5.8c0,0,0,0.1,0,0.1
		c0.1,10,8.2,18,18.1,18c0,0,0.1,0,0.1,0c10-0.1,18.1-8.3,18-18.3C148.1,108,140.3,100.1,130.6,99.8z M77.9,119
		c-1.3,0.2-2.6-0.1-3.6-0.8c-1.1-0.7-1.8-1.9-2-3.1l-4.4-25.2c-0.2-1.3,0.1-2.6,0.8-3.6c0.7-1.1,1.9-1.8,3.1-2l44.9-7.9
		c0.3-0.1,0.6-0.1,0.9-0.1c1,0,1.9,0.3,2.8,0.9c1.1,0.7,1.8,1.9,2,3.1l3.5,20c-3.3,0.8-6.3,2.4-8.7,4.9c-2.2,2.2-3.7,4.8-4.5,7.7
		L77.9,119z M130.1,131.2C130.1,131.2,130,131.2,130.1,131.2c-3.6,0-6.9-1.4-9.4-3.8c-2.5-2.5-3.9-5.8-4-9.4c0-3.6,1.3-6.9,3.8-9.4
		c2.5-2.5,5.8-3.9,9.4-4c0,0,0.1,0,0.1,0c7.3,0,13.3,5.9,13.3,13.2C143.4,125.1,137.4,131.1,130.1,131.2z"/>
	<path class="st0" d="M134.1,113.3l-5.7,5.7l-2-2c-0.7-0.7-1.9-0.7-2.6,0c-0.7,0.7-0.7,1.9,0,2.6l3.3,3.2c0.4,0.4,0.8,0.5,1.3,0.5
		c0.5,0,0.9-0.2,1.3-0.5l7-7c0.7-0.7,0.7-1.9,0-2.6C136,112.6,134.8,112.6,134.1,113.3z"/>
</g>
</svg>
