<?xml version="1.0" encoding="utf-8"?>
<!-- Generator: Adobe Illustrator 21.1.0, SVG Export Plug-In . SVG Version: 6.00 Build 0)  -->
<svg version="1.1" id="Layer_1" xmlns="http://www.w3.org/2000/svg" xmlns:xlink="http://www.w3.org/1999/xlink" x="0px" y="0px"
	 viewBox="0 0 200 200" style="enable-background:new 0 0 200 200;" xml:space="preserve">
<style type="text/css">
	.st0{fill:#404040;}
</style>
<path class="st0" d="M126.5,121L105.1,100l21.1-21.4c1.4-1.4,1.4-3.7,0-5.1c-1.4-1.4-3.7-1.4-5.1,0L100,94.9L78.6,73.8
	c-1.4-1.4-3.7-1.4-5.1,0c-1.4,1.4-1.4,3.7,0,5.1L94.9,100l-21.1,21.4c-1.4,1.4-1.4,3.7,0,5.1c0.7,0.7,1.6,1,2.5,1
	c0.9,0,1.9-0.4,2.6-1.1l21.1-21.4l21.4,21.1c0.7,0.7,1.6,1,2.5,1c0.9,0,1.9-0.4,2.6-1.1C127.9,124.7,127.9,122.4,126.5,121z"/>
</svg>
