<?xml version="1.0" encoding="utf-8"?>
<!-- Generator: Adobe Illustrator 21.1.0, SVG Export Plug-In . SVG Version: 6.00 Build 0)  -->
<svg version="1.1" id="Layer_1" xmlns="http://www.w3.org/2000/svg" xmlns:xlink="http://www.w3.org/1999/xlink" x="0px" y="0px"
	 viewBox="0 0 200 200" style="enable-background:new 0 0 200 200;" xml:space="preserve">
<style type="text/css">
	.st0{fill:#404040;}
</style>
<g id="Content">
	<path class="st0" d="M132.8,127.1c-0.4,0-0.8-0.1-1.1-0.3c-9.6-5.1-21-5.1-30.6,0c-0.8,0.4-1.7,0.4-2.4-0.1
		c-0.7-0.4-1.2-1.2-1.2-2.1V78.5c0-1,0.6-1.9,1.5-2.2c11.2-4.4,23.5-4.4,34.6,0c0.9,0.4,1.5,1.3,1.5,2.2v46.1c0,0.8-0.4,1.6-1.2,2.1
		C133.7,126.9,133.3,127.1,132.8,127.1z M102.4,80.2v40.6c9-3.6,19-3.6,28,0V80.2C121.3,77,111.5,77,102.4,80.2z"/>
	<path class="st0" d="M100,127.1c-0.4,0-0.8-0.1-1.1-0.3c-9.6-5.1-21-5.1-30.6,0c-0.8,0.4-1.7,0.4-2.4-0.1c-0.7-0.4-1.2-1.2-1.2-2.1
		V78.5c0-1,0.6-1.9,1.5-2.2c11.2-4.4,23.5-4.4,34.6,0c0.9,0.4,1.5,1.3,1.5,2.2v46.1c0,0.8-0.4,1.6-1.2,2.1
		C100.9,126.9,100.4,127.1,100,127.1z M69.6,80.2v40.6c9-3.6,19-3.6,28,0V80.2C88.5,77,78.7,77,69.6,80.2z"/>
	<path class="st0" d="M91.3,101.5c-0.3,0-0.6-0.1-0.8-0.2c-4.3-2.3-9.4-2.3-13.7,0c-0.6,0.3-1.2,0.3-1.8,0c-0.5-0.3-0.9-0.9-0.9-1.6
		v-12c0-0.7,0.5-1.4,1.1-1.7c5.4-2.1,11.4-2.1,16.8,0c0.7,0.3,1.1,0.9,1.1,1.7v12c0,0.6-0.3,1.2-0.9,1.6
		C91.9,101.4,91.6,101.5,91.3,101.5z M83.6,96c2,0,4,0.3,5.9,1V89c-3.8-1.3-8-1.3-11.8,0V97C79.6,96.3,81.6,96,83.6,96z"/>
	<path class="st0" d="M123.2,92.9c-0.2,0-0.4,0-0.6-0.1c-4-1.4-8.4-1.4-12.4,0l-0.2,0.1c-0.9,0.3-2-0.2-2.3-1.1
		c-0.3-0.9,0.2-2,1.1-2.3l0.2-0.1c4.8-1.7,10.1-1.6,14.8,0.1c0.9,0.3,1.4,1.4,1.1,2.3C124.7,92.5,124,92.9,123.2,92.9z"/>
	<path class="st0" d="M123.2,100.4c-0.2,0-0.4,0-0.6-0.1l-0.1,0c-4-1.4-8.4-1.4-12.4,0l-0.1,0c-0.9,0.3-2-0.2-2.3-1.1
		c-0.3-0.9,0.2-2,1.1-2.3l0.1,0c4.8-1.7,10.1-1.7,14.8,0l0.1,0c0.9,0.3,1.4,1.4,1.1,2.3C124.7,100,124,100.4,123.2,100.4z"/>
	<path class="st0" d="M123.2,107.9c-0.2,0-0.4,0-0.6-0.1c-4-1.4-8.4-1.4-12.4,0l-0.2,0.1c-0.9,0.3-2-0.2-2.3-1.1
		c-0.3-0.9,0.2-2,1.1-2.3l0.2-0.1c4.8-1.7,10.1-1.6,14.8,0.1c0.9,0.3,1.4,1.4,1.1,2.3C124.7,107.5,124,107.9,123.2,107.9z"/>
	<path class="st0" d="M90.6,108c-0.2,0-0.4,0-0.6-0.1c-4-1.4-8.4-1.4-12.4,0l-0.2,0.1c-0.9,0.3-2-0.2-2.3-1.1
		c-0.3-0.9,0.2-2,1.1-2.3l0.2-0.1c4.8-1.7,10.1-1.6,14.8,0.1c0.9,0.3,1.4,1.4,1.1,2.3C92,107.6,91.3,108,90.6,108z"/>
</g>
</svg>
