<?xml version="1.0" encoding="utf-8"?>
<!-- Generator: Adobe Illustrator 21.1.0, SVG Export Plug-In . SVG Version: 6.00 Build 0)  -->
<svg version="1.1" id="Layer_1" xmlns="http://www.w3.org/2000/svg" xmlns:xlink="http://www.w3.org/1999/xlink" x="0px" y="0px"
	 viewBox="0 0 200 200" style="enable-background:new 0 0 200 200;" xml:space="preserve">
<style type="text/css">
	.st0{fill:#404040;}
</style>
<g>
	<path class="st0" d="M121.4,72.9C121.4,72.9,121.4,72.9,121.4,72.9c-11.8-11.8-31-11.8-42.7,0c-11.8,11.8-11.8,31,0,42.7l19.7,19.7
		c0.5,0.5,1.1,0.7,1.7,0.7c0.6,0,1.2-0.2,1.7-0.7l19.7-19.7C133.2,103.8,133.2,84.6,121.4,72.9z M118,112.2l-18,18l-18-18
		c-9.9-9.9-9.9-26,0-35.9c4.9-4.9,11.5-7.4,18-7.4c6.5,0,13,2.5,18,7.4v0c4.8,4.8,7.4,11.2,7.4,18C125.4,101,122.7,107.4,118,112.2z
		"/>
	<path class="st0" d="M100,82c-3.3,0-6.3,1.3-8.6,3.6c-2.3,2.3-3.6,5.4-3.6,8.6c0,3.3,1.3,6.3,3.6,8.6c2.3,2.3,5.4,3.6,8.6,3.6
		s6.3-1.3,8.6-3.6c2.3-2.3,3.6-5.4,3.6-8.6c0-3.3-1.3-6.3-3.6-8.6C106.3,83.3,103.3,82,100,82z M105.2,99.5
		c-1.4,1.4-3.3,2.2-5.2,2.2s-3.8-0.8-5.2-2.2c-1.4-1.4-2.2-3.3-2.2-5.2c0-2,0.8-3.8,2.2-5.2c1.4-1.4,3.3-2.2,5.2-2.2
		s3.8,0.8,5.2,2.2c1.4,1.4,2.2,3.3,2.2,5.2C107.4,96.2,106.6,98.1,105.2,99.5z"/>
</g>
</svg>
