<?xml version="1.0" encoding="utf-8"?>
<!-- Generator: Adobe Illustrator 21.1.0, SVG Export Plug-In . SVG Version: 6.00 Build 0)  -->
<svg version="1.1" id="Layer_1" xmlns="http://www.w3.org/2000/svg" xmlns:xlink="http://www.w3.org/1999/xlink" x="0px" y="0px"
	 viewBox="0 0 200 200" style="enable-background:new 0 0 200 200;" xml:space="preserve">
<style type="text/css">
	.st0{fill:#404040;}
</style>
<g>
	<path class="st0" d="M111,85.3h-3.6c-1.1,0-2,0.9-2,2v3.6c0,1.1,0.9,2,2,2h3.6c1.1,0,2-0.9,2-2v-3.6C113,86.2,112.1,85.3,111,85.3z
		"/>
	<path class="st0" d="M98.2,92.8h3.6c1.1,0,2-0.9,2-2v-3.6c0-1.1-0.9-2-2-2h-3.6c-1.1,0-2,0.9-2,2v3.6
		C96.2,91.9,97.1,92.8,98.2,92.8z"/>
	<path class="st0" d="M117,92.8h3.6c1.1,0,2-0.9,2-2v-3.6c0-1.1-0.9-2-2-2H117c-1.1,0-2,0.9-2,2v3.6C115,91.9,115.9,92.8,117,92.8z"
		/>
	<path class="st0" d="M111,94.8h-3.6c-1.1,0-2,0.9-2,2v3.6c0,1.1,0.9,2,2,2h3.6c1.1,0,2-0.9,2-2v-3.6C113,95.7,112.1,94.8,111,94.8z
		"/>
	<path class="st0" d="M101.8,94.8h-3.6c-1.1,0-2,0.9-2,2v3.6c0,1.1,0.9,2,2,2h3.6c1.1,0,2-0.9,2-2v-3.6
		C103.8,95.7,102.9,94.8,101.8,94.8z"/>
	<path class="st0" d="M111,104.1h-3.6c-1.1,0-2,0.9-2,2v3.6c0,1.1,0.9,2,2,2h3.6c1.1,0,2-0.9,2-2v-3.6
		C113,105,112.1,104.1,111,104.1z"/>
	<path class="st0" d="M120.6,104.1H117c-1.1,0-2,0.9-2,2v3.6c0,1.1,0.9,2,2,2h3.6c1.1,0,2-0.9,2-2v-3.6
		C122.6,105,121.7,104.1,120.6,104.1z"/>
	<path class="st0" d="M101.8,104.1h-3.6c-1.1,0-2,0.9-2,2v3.6c0,1.1,0.9,2,2,2h3.6c1.1,0,2-0.9,2-2v-3.6
		C103.8,105,102.9,104.1,101.8,104.1z"/>
	<path class="st0" d="M117,102.3h3.6c1.1,0,2-0.9,2-2v-3.6c0-1.1-0.9-2-2-2H117c-1.1,0-2,0.9-2,2v3.6
		C115,101.4,115.9,102.3,117,102.3z"/>
	<path class="st0" d="M126.2,71h-3.6v-4.4c0-1.3-1.1-2.4-2.4-2.4c-1.3,0-2.4,1.1-2.4,2.4V71h-16.7v-4.4c0-1.3-1.1-2.4-2.4-2.4
		c-1.3,0-2.4,1.1-2.4,2.4V71h-3.8c-5.3,0-9.6,4.3-9.6,9.6v20.1l-0.7-0.7c-0.5-0.4-1.1-0.7-1.7-0.7c-0.6,0-1.2,0.3-1.7,0.7l-2,2.1
		l-4.7-4.7l2.8-2.8c0.7-0.7,0.7-1.8,0-2.5c-0.7-0.7-1.8-0.7-2.5,0l-7.8,7.8c-0.7,0.7-0.7,1.8,0,2.5c0.4,0.4,0.8,0.5,1.3,0.5
		s0.9-0.2,1.3-0.5l2.4-2.4l4.7,4.7l-1.7,1.8c-0.4,0.5-0.7,1.1-0.7,1.7c0,0.6,0.3,1.2,0.7,1.7l4.3,4.2l-3.1,3.1
		c-0.7,0.7-0.7,1.8,0,2.5c0.4,0.4,0.8,0.5,1.3,0.5c0.5,0,0.9-0.2,1.3-0.5l3.1-3.1l9,8.9c1.3,1.3,3.1,1.9,4.8,1.9
		c0.6,0,1.3-0.1,1.9-0.3l2.6,2.7c0,0,0,0,0,0c0.5,0.5,1.1,0.7,1.7,0.7c0.3,0,0.6-0.1,0.9-0.2l4.9,4.9c0.4,0.4,0.8,0.5,1.3,0.5
		s0.9-0.2,1.3-0.5c0.7-0.7,0.7-1.8,0-2.5l-4.9-4.9c0-0.1,0.1-0.2,0.1-0.2c0.2-0.9,0-1.9-0.6-2.5l-2.2-2.2h25.9
		c5.3,0,9.6-4.3,9.6-9.6V80.6C135.8,75.3,131.5,71,126.2,71z M76.1,108.1l4.6-4.7l3.5,3.5l-4.6,4.6L76.1,108.1z M91,123l-9-8.9
		l4.6-4.6l8.9,8.8c1.3,1.3,1.3,3.3,0.1,4.6C94.4,124.2,92.3,124.2,91,123z M131,113.3c0,2.6-2.2,4.8-4.8,4.8H99.7
		c-0.3-0.9-0.9-1.7-1.6-2.4l-8.9-8.8l3.2-3.2c0.7-0.7,0.7-1.8,0-2.5c-0.7-0.7-1.8-0.7-2.5,0l-2.1,2.1V80.6c0-2.6,2.2-4.8,4.8-4.8
		h3.8v2.8c0,1.3,1.1,2.4,2.4,2.4c1.3,0,2.4-1.1,2.4-2.4v-2.8h16.7v2.8c0,1.3,1.1,2.4,2.4,2.4c1.3,0,2.4-1.1,2.4-2.4v-2.8h3.6
		c2.6,0,4.8,2.2,4.8,4.8V113.3z"/>
</g>
</svg>
