<?xml version="1.0" encoding="utf-8"?>
<!-- Generator: Adobe Illustrator 21.1.0, SVG Export Plug-In . SVG Version: 6.00 Build 0)  -->
<svg version="1.1" id="Layer_1" xmlns="http://www.w3.org/2000/svg" xmlns:xlink="http://www.w3.org/1999/xlink" x="0px" y="0px"
	 viewBox="0 0 200 200" style="enable-background:new 0 0 200 200;" xml:space="preserve">
<style type="text/css">
	.st0{fill:#404040;}
</style>
<g id="Albums_2_">
	<path class="st0" d="M89.4,96.7H70.8c-4,0-7.3-3.3-7.3-7.3V71.1c0-4,3.3-7.3,7.3-7.3h18.6c4,0,7.3,3.3,7.3,7.3v18.3
		C96.7,93.4,93.4,96.7,89.4,96.7z M70.8,68.7c-1.3,0-2.4,1.1-2.4,2.4v18.3c0,1.3,1.1,2.4,2.4,2.4h18.6c1.3,0,2.4-1.1,2.4-2.4V71.1
		c0-1.3-1.1-2.4-2.4-2.4H70.8z"/>
	<path class="st0" d="M129.2,96.7h-18.6c-4,0-7.3-3.3-7.3-7.3V71.1c0-4,3.3-7.3,7.3-7.3h18.6c4,0,7.3,3.3,7.3,7.3v18.3
		C136.4,93.4,133.2,96.7,129.2,96.7z M110.6,68.7c-1.3,0-2.4,1.1-2.4,2.4v18.3c0,1.3,1.1,2.4,2.4,2.4h18.6c1.3,0,2.4-1.1,2.4-2.4
		V71.1c0-1.3-1.1-2.4-2.4-2.4H110.6z"/>
	<path class="st0" d="M89.4,136.2H70.8c-4,0-7.3-3.3-7.3-7.3v-18.3c0-4,3.3-7.3,7.3-7.3h18.6c4,0,7.3,3.3,7.3,7.3v18.3
		C96.7,132.9,93.4,136.2,89.4,136.2z M70.8,108.2c-1.3,0-2.4,1.1-2.4,2.4v18.3c0,1.3,1.1,2.4,2.4,2.4h18.6c1.3,0,2.4-1.1,2.4-2.4
		v-18.3c0-1.3-1.1-2.4-2.4-2.4H70.8z"/>
	<path class="st0" d="M129.2,136.2h-18.6c-4,0-7.3-3.3-7.3-7.3v-18.3c0-4,3.3-7.3,7.3-7.3h18.6c4,0,7.3,3.3,7.3,7.3v18.3
		C136.4,132.9,133.2,136.2,129.2,136.2z M110.6,108.2c-1.3,0-2.4,1.1-2.4,2.4v18.3c0,1.3,1.1,2.4,2.4,2.4h18.6
		c1.3,0,2.4-1.1,2.4-2.4v-18.3c0-1.3-1.1-2.4-2.4-2.4H110.6z"/>
</g>
</svg>
