<?xml version="1.0" encoding="utf-8"?>
<!-- Generator: Adobe Illustrator 21.1.0, SVG Export Plug-In . SVG Version: 6.00 Build 0)  -->
<svg version="1.1" id="Layer_1" xmlns="http://www.w3.org/2000/svg" xmlns:xlink="http://www.w3.org/1999/xlink" x="0px" y="0px"
	 viewBox="0 0 200 200" style="enable-background:new 0 0 200 200;" xml:space="preserve">
<style type="text/css">
	.st0{fill:#404040;}
</style>
<g>
	<g>
		<path class="st0" d="M138.2,136H61.8c-5.3,0-9.6-4.3-9.6-9.6V73.6c0-5.3,4.3-9.6,9.6-9.6h76.5c5.3,0,9.6,4.3,9.6,9.6v52.8
			C147.8,131.7,143.5,136,138.2,136z M61.8,68.8c-2.6,0-4.8,2.2-4.8,4.8v52.8c0,2.6,2.2,4.8,4.8,4.8h76.5c2.6,0,4.8-2.2,4.8-4.8
			V73.6c0-2.6-2.2-4.8-4.8-4.8H61.8z"/>
		<g>
			<g id="Insurance_Card_8_">
				<path class="st0" d="M132.2,108.6h-19.6c-1,0-1.8-0.8-1.8-1.8s0.8-1.8,1.8-1.8h19.6c1,0,1.8,0.8,1.8,1.8
					S133.2,108.6,132.2,108.6z"/>
			</g>
			<g id="Insurance_Card_9_">
				<path class="st0" d="M132.2,95h-19.6c-1,0-1.8-0.8-1.8-1.8c0-1,0.8-1.8,1.8-1.8h19.6c1,0,1.8,0.8,1.8,1.8
					C134,94.2,133.2,95,132.2,95z"/>
			</g>
		</g>
	</g>
	<path class="st0" d="M83,111.5c6.7,1.2,11.7-5.3,14.8-10.9c1.3-2.3,3.2-8.2,1-10.4c-2-2.2-3.5,0.7-4.7,1.6l0.9,1.1
		c1.8,2.3,0.2,6.6-0.8,8.9c-1.6,2.8-4.6,7.1-8.1,6.5c-0.8-0.2-1.4-0.9-1.7-1.7c1.9-1.9,4.1-5.2,5.4-7.4c1.1-1.8,2.9-5.2,1.2-6.7
		c-1.4-1-4.2,0.4-5.7,1.7c-0.9,0.8-1.5,1.5-2.3,2.5c-1.9,2.6-3.8,7.1-3.6,10.6c-0.9,0.7-2,1.3-3.3,1c-1.3-0.3-1.5-1.3-1.7-2.2
		c-0.8-5,4.2-11.4,7.1-15c0,0-2.2,0.6-3.9,0.7c-3.7,0.2-6.5-1.6-8.6,0.9c-0.6,0.9-1,1.8-1.1,2.9c0.8-0.7,2.1-0.5,3.2-0.5
		c2,0.2,3,0.4,4.9-0.1c-1.6,2.3-4.4,6.8-4.9,9.7c-0.3,1.9-0.2,4.8,1.4,6.2c2.7,1.8,5.3,0.5,7.7-1.1C81.1,110.6,82,111.3,83,111.5z
		 M87.5,95.7c0.7-0.3,0.5,0.7,0.5,0.7c-0.1,1.2-1,2.6-1.6,3.7c-0.6,1.1-2.9,3.7-3.8,4.3c0-1.6,1.7-5.1,2.6-6.4
		C85.7,97.3,86.8,96.1,87.5,95.7z"/>
</g>
</svg>
