<?xml version="1.0" encoding="utf-8"?>
<!-- Generator: Adobe Illustrator 21.1.0, SVG Export Plug-In . SVG Version: 6.00 Build 0)  -->
<svg version="1.1" id="Layer_1" xmlns="http://www.w3.org/2000/svg" xmlns:xlink="http://www.w3.org/1999/xlink" x="0px" y="0px"
	 viewBox="0 0 200 200" style="enable-background:new 0 0 200 200;" xml:space="preserve">
<style type="text/css">
	.st0{fill:#404040;}
</style>
<g>
	<path class="st0" d="M126.2,64.2H73.8c-5.3,0-9.6,4.3-9.6,9.6v52.5c0,5.3,4.3,9.6,9.6,9.6h52.4c5.3,0,9.6-4.3,9.6-9.6V73.8
		C135.8,68.5,131.5,64.2,126.2,64.2z M73.8,69h52.4c2.6,0,4.8,2.2,4.8,4.8v39.1l-10.2-5.2c-2.7-1.4-5.8-1.5-8.6-0.4l-8,3.2
		c-2.4,0.9-5.1,0.5-7-1.2l-9-7.8c-3.4-2.9-8-3.4-11.9-1.3l-7.3,4V73.8C69,71.1,71.2,69,73.8,69z M126.2,131H73.8
		c-2.6,0-4.8-2.2-4.8-4.8v-18.1l9.1-4.9c2.5-1.4,5.6-1,7.8,0.9l9,7.8c3,2.6,7.1,3.3,10.7,1.8l8-3.2c1.8-0.7,3.9-0.6,5.6,0.3
		l11.8,6.1v9.3C131,128.9,128.8,131,126.2,131z"/>
	<path class="st0" d="M114,94.5c4.1,0,7.4-3.3,7.4-7.4c0-4.1-3.3-7.4-7.4-7.4c-4.1,0-7.4,3.3-7.4,7.4
		C106.6,91.1,109.9,94.5,114,94.5z M114,83.2c2.1,0,3.8,1.7,3.8,3.8c0,2.1-1.7,3.8-3.8,3.8c-2.1,0-3.8-1.7-3.8-3.8
		C110.2,84.9,111.9,83.2,114,83.2z"/>
</g>
</svg>
