<?xml version="1.0" encoding="utf-8"?>
<!-- Generator: Adobe Illustrator 21.1.0, SVG Export Plug-In . SVG Version: 6.00 Build 0)  -->
<svg version="1.1" id="Layer_1" xmlns="http://www.w3.org/2000/svg" xmlns:xlink="http://www.w3.org/1999/xlink" x="0px" y="0px"
	 viewBox="0 0 200 200" style="enable-background:new 0 0 200 200;" xml:space="preserve">
<style type="text/css">
	.st0{fill:#404040;}
</style>
<path class="st0" d="M136.1,133.8l-6-20.1c-0.1-0.4-0.3-0.7-0.6-0.9c0,0,0,0,0,0L83.4,66.7c-3.8-3.8-9.9-3.8-13.7,0l-3,3
	c-1.8,1.8-2.8,4.3-2.8,6.8c0,2.6,1,5,2.8,6.8l46.1,46.1c0.2,0.2,0.3,0.3,0.5,0.4c0.2,0.2,0.4,0.3,0.7,0.4l19.9,5.8
	c0.2,0,0.3,0.1,0.5,0.1c0.5,0,0.9-0.2,1.3-0.5C136.1,135.1,136.3,134.4,136.1,133.8z M124.7,114.9l-9.8,9.8L77.4,87.3l9.8-9.8
	L124.7,114.9z M127.4,117.4l2.7,9.1l-3.6,3.6l-9.1-2.7L127.4,117.4z M68.7,76.5c0-1.3,0.5-2.5,1.4-3.4l3-3c1.9-1.9,5-1.9,6.8,0
	l4.7,4.7l-9.8,9.8L70.1,80C69.2,79.1,68.7,77.8,68.7,76.5z"/>
</svg>
