<?xml version="1.0" encoding="utf-8"?>
<!-- Generator: Adobe Illustrator 21.1.0, SVG Export Plug-In . SVG Version: 6.00 Build 0)  -->
<svg version="1.1" id="Layer_1" xmlns="http://www.w3.org/2000/svg" xmlns:xlink="http://www.w3.org/1999/xlink" x="0px" y="0px"
	 viewBox="0 0 200 200" style="enable-background:new 0 0 200 200;" xml:space="preserve">
<style type="text/css">
	.st0{fill:#404040;}
</style>
<g>
	<path class="st0" d="M99.1,93.9c0.3-0.3,0.6-0.5,0.9-0.8c3.2-3.2,4.9-7.4,4.8-11.9c-0.1-9.2-7.6-16.7-16.8-16.7c0,0-0.1,0-0.1,0
		c-4.5,0-8.7,1.8-11.8,5c-3.2,3.2-4.9,7.4-4.8,11.9c0,5,2.2,9.4,5.7,12.5c-9.1,1.9-12.8,19.7-12.8,27.3v12.5c0,1.3,1.1,2.4,2.4,2.4
		h43c1.3,0,2.4-1.1,2.4-2.4v-12.5C112,113.5,108.2,95.8,99.1,93.9z M76,81.4c0-3.2,1.2-6.2,3.5-8.5c2.3-2.3,5.3-3.6,8.5-3.6
		c0,0,0.1,0,0.1,0c6.6,0,12,5.3,12,11.9c0,6.6-5.3,12-11.9,12.1c0,0-0.1,0-0.1,0C81.5,93.3,76.1,87.9,76,81.4z M107.2,121.2v10.1
		H68.9v-10.1c0-3.6,0.9-9.5,2.9-14.7c2-5.1,4.4-7.9,6.7-7.9h18.9c2.3,0,4.8,2.9,6.7,7.9C106.3,111.7,107.2,117.6,107.2,121.2z"/>
	<path class="st0" d="M135.3,89.1c-1.3-1.6-2-3.6-1.8-5.6c0.1-1.6,0.8-3.1,1.8-4.3c0.9-1,0.7-2.5-0.3-3.4c-1-0.9-2.5-0.7-3.4,0.3
		c-1.7,2-2.7,4.4-2.9,7c-0.3,3.3,0.8,6.5,2.9,9.1c0.5,0.6,1.2,0.8,1.8,0.8c0.5,0,1.1-0.2,1.6-0.6C136,91.7,136.2,90.1,135.3,89.1z"
		/>
	<path class="st0" d="M127,73.5c0.8-1,0.6-2.6-0.4-3.4c-1-0.8-2.6-0.6-3.4,0.4c-2.7,3.4-4.2,7.5-4.6,11.8c-0.4,5.2,1,10.5,4.1,14.8
		c0.5,0.7,1.2,1,2,1c0.5,0,1-0.1,1.4-0.4c1.1-0.8,1.3-2.3,0.6-3.3c-2.4-3.4-3.5-7.5-3.2-11.6C123.7,79.3,125,76.1,127,73.5z"/>
	<path class="st0" d="M113.5,81.9c0.4-5.1,2.3-10,5.4-14.1c0.8-1.1,0.6-2.6-0.5-3.4c-1.1-0.8-2.6-0.6-3.4,0.5
		c-3.6,4.8-5.8,10.6-6.3,16.6c-0.6,7.3,1.2,14.4,5.3,20.4c0.5,0.7,1.2,1.1,2,1.1c0.5,0,0.9-0.1,1.3-0.4c1.1-0.7,1.4-2.2,0.7-3.3
		C114.6,94.1,113,88.1,113.5,81.9z"/>
</g>
</svg>
