<?xml version="1.0" encoding="utf-8"?>
<!-- Generator: Adobe Illustrator 21.1.0, SVG Export Plug-In . SVG Version: 6.00 Build 0)  -->
<svg version="1.1" id="Layer_1" xmlns="http://www.w3.org/2000/svg" xmlns:xlink="http://www.w3.org/1999/xlink" x="0px" y="0px"
	 viewBox="0 0 200 200" style="enable-background:new 0 0 200 200;" xml:space="preserve">
<style type="text/css">
	.st0{fill:#404040;}
</style>
<g>
	<path class="st0" d="M121.6,83.7L99.1,98.3L78.5,83.8c-1.1-0.8-2.6-0.5-3.4,0.6c-0.8,1.1-0.5,2.6,0.6,3.4l21.9,15.5
		c0.4,0.3,0.9,0.4,1.4,0.4c0.5,0,0.9-0.1,1.3-0.4l23.9-15.5c1.1-0.7,1.4-2.2,0.7-3.3C124.2,83.3,122.7,83,121.6,83.7z"/>
	<path class="st0" d="M129.5,63.9h-59c-5.3,0-9.7,4.3-9.7,9.7v52.8c0,5.3,4.3,9.7,9.7,9.7h59c5.3,0,9.7-4.3,9.7-9.7V73.6
		C139.2,68.3,134.8,63.9,129.5,63.9z M134.3,126.4c0,2.7-2.2,4.8-4.8,4.8h-59c-2.7,0-4.8-2.2-4.8-4.8V73.6c0-2.7,2.2-4.8,4.8-4.8h59
		c2.7,0,4.8,2.2,4.8,4.8V126.4z"/>
</g>
</svg>
