<?xml version="1.0" encoding="utf-8"?>
<!-- Generator: Adobe Illustrator 21.1.0, SVG Export Plug-In . SVG Version: 6.00 Build 0)  -->
<svg version="1.1" id="Layer_1" xmlns="http://www.w3.org/2000/svg" xmlns:xlink="http://www.w3.org/1999/xlink" x="0px" y="0px"
	 viewBox="0 0 200 200" style="enable-background:new 0 0 200 200;" xml:space="preserve">
<style type="text/css">
	.st0{fill:#404040;}
</style>
<g>
	<circle class="st0" cx="92.1" cy="73.9" r="1.7"/>
	<path class="st0" d="M119.1,100.1V79.3c0-4.4-3.6-8-8-8h-9.5c-1-4.3-4.9-7.6-9.6-7.6c-4.6,0-8.5,3.2-9.6,7.6h-9.4c-4.4,0-8,3.6-8,8
		v48.9c0,4.4,3.6,8,8,8l41.6-0.1c0.6,0.1,1.2,0.1,1.9,0.1c0,0,0.1,0,0.1,0c4.8,0,9.4-2,12.8-5.4c3.4-3.5,5.3-8,5.2-12.9
		C134.7,108.8,127.9,101.3,119.1,100.1z M97.5,72.4c-0.2,0.3-0.4,0.8-0.4,1.2C97.1,73.1,97.3,72.7,97.5,72.4z M87.1,73.6
		c0-0.5-0.2-1-0.6-1.4C86.9,72.6,87.1,73.1,87.1,73.6z M84.7,76.2c1.3,0,2.4-1.1,2.4-2.4c0,0,0-0.1,0-0.1c0-2.8,2.2-5,5-5
		c2.7,0,5,2.2,5,5c0,0,0,0.1,0,0.1c0,1.3,1.1,2.4,2.4,2.4h2.6v2c0,1.4-0.7,1.5-1.7,1.5H84.1c-1.1,0-1.7-0.1-1.7-1.5v-2H84.7z
		 M73.2,131.4c-1.7,0-3.1-1.4-3.1-3.2V79.3c0-1.7,1.4-3.2,3.1-3.2h5.6v2c0,3.2,2,5.2,5.4,5.2h16.2c3.4,0,5.4-1.9,5.4-5.2v-2h5.4
		c1.7,0,3.1,1.4,3.1,3.2v20.8c-4,0.5-7.6,2.3-10.5,5.2c-3.4,3.5-5.3,8-5.2,12.9c0,4.8,2,9.4,5.4,12.8c0.1,0.1,0.2,0.2,0.3,0.3
		L73.2,131.4z M126.1,127.4c-2.5,2.5-5.8,3.9-9.4,4c-3.6,0-6.9-1.3-9.4-3.8c-2.5-2.5-3.9-5.8-4-9.4c0-3.6,1.3-6.9,3.8-9.4
		c2.5-2.5,5.8-3.9,9.4-4c0,0,0.1,0,0.1,0c7.3,0,13.3,5.9,13.3,13.2C130,121.5,128.6,124.9,126.1,127.4z"/>
	<path class="st0" d="M120.8,113.5l-5.7,5.7l-2-2c-0.7-0.7-1.9-0.7-2.6,0c-0.7,0.7-0.7,1.9,0,2.6l3.3,3.2c0.4,0.4,0.8,0.5,1.3,0.5
		c0.5,0,0.9-0.2,1.3-0.5l7-7c0.7-0.7,0.7-1.9,0-2.6C122.7,112.8,121.5,112.8,120.8,113.5z"/>
	<path class="st0" d="M77.1,93.6h29.6c1,0,1.8-0.8,1.8-1.8s-0.8-1.8-1.8-1.8H77.1c-1,0-1.8,0.8-1.8,1.8S76.1,93.6,77.1,93.6z"/>
	<path class="st0" d="M94.4,99.6H77.1c-1,0-1.8,0.8-1.8,1.8s0.8,1.8,1.8,1.8h17.2c1,0,1.8-0.8,1.8-1.8S95.4,99.6,94.4,99.6z"/>
</g>
</svg>
